<?xml version="1.0" encoding="UTF-8" standalone="no"?>
<!-- Created with Inkscape (http://www.inkscape.org/) -->

<svg
   xmlns:dc="http://purl.org/dc/elements/1.1/"
   xmlns:cc="http://creativecommons.org/ns#"
   xmlns:rdf="http://www.w3.org/1999/02/22-rdf-syntax-ns#"
   xmlns:svg="http://www.w3.org/2000/svg"
   xmlns="http://www.w3.org/2000/svg"
   xmlns:xlink="http://www.w3.org/1999/xlink"
   xmlns:sodipodi="http://sodipodi.sourceforge.net/DTD/sodipodi-0.dtd"
   xmlns:inkscape="http://www.inkscape.org/namespaces/inkscape"
   width="179.59987mm"
   height="407.00009mm"
   viewBox="0 0 636.37749 1442.1263"
   id="svg4189"
   version="1.1"
   inkscape:version="0.91 r13725"
   sodipodi:docname="fahne_export.svg"
   inkscape:export-filename="/home/fxkr/data/code/freifunk/propaganda/tischfahne/export/fahne_export.png"
   inkscape:export-xdpi="299.99451"
   inkscape:export-ydpi="299.99451">
  <defs
     id="defs4191">
    <clipPath
       clipPathUnits="userSpaceOnUse"
       id="clipPath620">
      <path
         d="m 0,0 509.102,0 0,1153.701 L 0,1153.701 0,0 Z"
         id="path622"
         inkscape:connector-curvature="0" />
    </clipPath>
    <clipPath
       clipPathUnits="userSpaceOnUse"
       id="clipPath604">
      <path
         d="m 0,0 509.102,0 0,1153.701 L 0,1153.701 0,0 Z"
         id="path606"
         inkscape:connector-curvature="0" />
    </clipPath>
    <clipPath
       clipPathUnits="userSpaceOnUse"
       id="clipPath568">
      <path
         d="m 0,0 509.102,0 0,1153.701 L 0,1153.701 0,0 Z"
         id="path570"
         inkscape:connector-curvature="0" />
    </clipPath>
    <clipPath
       clipPathUnits="userSpaceOnUse"
       id="clipPath548">
      <path
         d="m 0,0 509.102,0 0,1153.701 L 0,1153.701 0,0 Z"
         id="path550"
         inkscape:connector-curvature="0" />
    </clipPath>
    <clipPath
       clipPathUnits="userSpaceOnUse"
       id="clipPath528">
      <path
         d="m 0,0 509.102,0 0,1153.701 L 0,1153.701 0,0 Z"
         id="path530"
         inkscape:connector-curvature="0" />
    </clipPath>
    <clipPath
       clipPathUnits="userSpaceOnUse"
       id="clipPath508">
      <path
         d="m 0,0 509.102,0 0,1153.701 L 0,1153.701 0,0 Z"
         id="path510"
         inkscape:connector-curvature="0" />
    </clipPath>
    <clipPath
       clipPathUnits="userSpaceOnUse"
       id="clipPath488">
      <path
         d="m 0,0 509.102,0 0,1153.701 L 0,1153.701 0,0 Z"
         id="path490"
         inkscape:connector-curvature="0" />
    </clipPath>
    <clipPath
       clipPathUnits="userSpaceOnUse"
       id="clipPath468">
      <path
         d="m 0,0 509.102,0 0,1153.701 L 0,1153.701 0,0 Z"
         id="path470"
         inkscape:connector-curvature="0" />
    </clipPath>
    <clipPath
       clipPathUnits="userSpaceOnUse"
       id="clipPath440">
      <path
         d="m 0,0 509.102,0 0,1153.701 L 0,1153.701 0,0 Z"
         id="path442"
         inkscape:connector-curvature="0" />
    </clipPath>
    <clipPath
       clipPathUnits="userSpaceOnUse"
       id="clipPath18">
      <path
         d="m 274.878,1076.291 c -53.123,-2.989 -95.34,-26.59 -124.333,-53.753 l 0,0 C 120.132,994.045 96.748,955.671 86.107,907.816 l 0,0 C 81.299,886.198 79.286,862.21 79.286,837.829 l 0,0 c 0,-32.893 3.665,-66.499 9.088,-95.946 l 0,0 C 107.445,638.328 158.037,574.67 207.244,503.089 l 0,0 C 278.455,399.502 348.585,294.727 425.195,197.965 l 0,0 c 0.491,-0.617 1.049,-1.635 1.741,-2.513 l 0,0 c 0.348,-0.44 0.734,-0.849 1.183,-1.156 l 0,0 c 0.447,-0.306 0.965,-0.508 1.542,-0.508 l 0,0 0.003,0 c 0.137,0 0.277,0.012 0.419,0.035 l 0,0 0.321,0.052 0,0.343 0,841.633 0,0.275 -0.243,0.099 c -43.274,17.645 -83.223,40.44 -142.092,40.44 l 0,0 c -4.294,0 -8.687,-0.121 -13.191,-0.374"
         id="path20"
         inkscape:connector-curvature="0" />
    </clipPath>
  </defs>
  <sodipodi:namedview
     id="base"
     pagecolor="#ffffff"
     bordercolor="#666666"
     borderopacity="1.0"
     inkscape:pageopacity="1"
     inkscape:pageshadow="2"
     inkscape:zoom="0.49497475"
     inkscape:cx="175.50072"
     inkscape:cy="648.57249"
     inkscape:document-units="px"
     inkscape:current-layer="layer2"
     showgrid="false"
     fit-margin-top="0"
     fit-margin-left="0"
     fit-margin-right="0"
     fit-margin-bottom="0"
     inkscape:window-width="1600"
     inkscape:window-height="836"
     inkscape:window-x="0"
     inkscape:window-y="27"
     inkscape:window-maximized="1" />
  <metadata
     id="metadata4194">
    <rdf:RDF>
      <cc:Work
         rdf:about="">
        <dc:format>image/svg+xml</dc:format>
        <dc:type
           rdf:resource="http://purl.org/dc/dcmitype/StillImage" />
        <dc:title></dc:title>
      </cc:Work>
    </rdf:RDF>
  </metadata>
  <g
     inkscape:groupmode="layer"
     id="layer2"
     inkscape:label="logo">
    <g
       id="g5599"
       transform="matrix(1.1460992,-0.83736291,0.83736291,1.1460992,181.85836,-405.53008)">
      <g
         id="g3811"
         transform="translate(-381.36154,-434.29602)">
        <path
           style="fill:#000000;fill-opacity:1"
           id="f-6-9-0-6"
           d="m 142.97626,1032.3895 4.06665,0 0,-15.3862 1.2501,0 0,-3.0215 -1.2501,0 0,-0.355 c -0.0115,-0.3861 0.0437,-0.6712 0.16853,-0.8554 0.12394,-0.1843 0.38844,-0.2758 0.79305,-0.2744 l 0.28852,0 0,-3.0216 -1.69824,0 c -1.29956,-0.023 -2.23093,0.2077 -2.794,0.6911 -0.56308,0.4836 -0.83781,1.3573 -0.82451,2.621 l 0,1.1943 -0.96167,0 0,3.0215 0.96167,0 0,15.3862 z"
           inkscape:connector-curvature="0" />
        <path
           style="fill:#000000;fill-opacity:1"
           id="r-7-6-2-4"
           d="m 153.63602,1013.9818 -4.0669,0 0,18.4077 4.0669,0 0,-14.3239 c -0.008,-0.2373 0.0446,-0.4547 0.14855,-0.6518 0.1038,-0.1972 0.28992,-0.3016 0.55845,-0.3139 0.26994,0.012 0.46144,0.1167 0.57456,0.3139 0.11329,0.1971 0.16812,0.4145 0.16466,0.6518 l 0,5.8261 4.06688,0 0,-6.9204 c 0.0206,-1.0058 -0.14879,-1.7908 -0.5084,-2.3549 -0.35969,-0.564 -1.03343,-0.8506 -2.02144,-0.86 -0.69982,0.01 -1.28627,0.1641 -1.75901,0.4782 -0.47249,0.314 -0.85936,0.755 -1.16017,1.3223 l -0.0644,0 0,-1.5751 z"
           inkscape:connector-curvature="0" />
        <path
           style="fill:#000000;fill-opacity:1"
           id="e-4-4-4-1"
           d="m 160.91911,1028.4656 c 0.0363,1.3834 0.50767,2.4208 1.41329,3.1121 0.90551,0.6915 2.0258,1.037 3.36062,1.037 1.32211,0 2.4438,-0.3455 3.36443,-1.037 0.92112,-0.6913 1.40154,-1.7287 1.44144,-3.1121 l 0,-3.379 -4.06666,0 0,3.5401 c 0,0.2377 -0.0513,0.455 -0.16465,0.6524 -0.1133,0.1972 -0.30461,0.302 -0.57456,0.3141 -0.26853,-0.012 -0.45482,-0.1169 -0.55845,-0.3141 -0.10404,-0.1974 -0.15342,-0.4147 -0.1488,-0.6524 l 0,-4.7993 5.51312,0 0,-5.9217 c -0.0396,-1.3834 -0.52031,-2.4208 -1.44144,-3.1123 -0.92062,-0.6912 -2.04232,-1.037 -3.36443,-1.037 -1.33482,0 -2.45511,0.3458 -3.36062,1.037 -0.90561,0.6915 -1.37678,1.7289 -1.41327,3.1123 l 0,10.5599 z m 4.06666,-7.4025 0,-3.3185 c -0.008,-0.2375 0.0446,-0.455 0.14879,-0.6524 0.10364,-0.1974 0.28993,-0.302 0.55846,-0.314 0.26994,0.012 0.46126,0.1166 0.57456,0.314 0.11304,0.1974 0.16787,0.4149 0.16465,0.6524 l 0,3.3185 -1.44646,0 z"
           inkscape:connector-curvature="0" />
        <path
           style="fill:#000000;fill-opacity:1"
           id="i-0-3-8-3"
           d="m 176.43181,1032.3895 0,-18.4077 -4.06665,0 0,18.4077 4.06665,0 z m 0,-19.4417 0,-3.4724 -4.06665,0 0,3.4724 4.06665,0 z"
           inkscape:connector-curvature="0" />
        <use
           style="fill:#000000;fill-opacity:1"
           xlink:href="#f-6-9-0-6"
           id="f2-5-9-6-6"
           transform="translate(35.897125,0)"
           x="0"
           y="0"
           width="243"
           height="234" />
        <path
           style="fill:#000000;fill-opacity:1"
           id="u-9-5-5-1"
           d="m 190.98445,1032.3894 4.0669,0 0,-18.4077 -4.0669,0 0,14.3239 c 0.008,0.2373 -0.0446,0.4547 -0.14855,0.6518 -0.1038,0.1972 -0.29008,0.3016 -0.55845,0.3139 -0.26994,-0.012 -0.46143,-0.1167 -0.57456,-0.3139 -0.11304,-0.1971 -0.16812,-0.4145 -0.16465,-0.6518 l 0,-14.3239 -4.06689,0 0,14.6134 c -0.0503,1.0961 0.0743,2.0315 0.37241,2.8061 0.2981,0.7741 1.07066,1.1787 2.31754,1.2136 0.57513,-0.01 1.13905,-0.1707 1.69139,-0.4943 0.55217,-0.3235 0.90823,-0.7697 1.06753,-1.3382 l 0.0644,0 0,1.6071 z"
           inkscape:connector-curvature="0" />
        <use
           style="fill:#000000;fill-opacity:1"
           xlink:href="#u-9-5-5-1"
           id="n-6-7-0-0"
           transform="matrix(-1,0,0,-1,391.8674,2046.3712)"
           x="0"
           y="0"
           width="243"
           height="234" />
        <path
           style="fill:#000000;fill-opacity:1"
           id="k-5-4-9-3"
           d="m 212.29706,1032.3895 0,-9.6866 0.0644,0 1.63457,9.6866 4.16706,0 -1.92325,-10.4911 1.98733,-7.9166 -4.23114,0 -1.63457,8.2706 -0.0644,0 0,-12.777 -4.0669,0 0,22.9141 4.0669,0 z"
           inkscape:connector-curvature="0" />
        <path
           style="fill:#000000;fill-opacity:1"
           id=".-5-9-0-2"
           d="m 223.96737,1032.3895 0,-4.7599 -4.06665,0 0,4.7599 4.06665,0 z"
           inkscape:connector-curvature="0" />
        <use
           style="fill:#000000;fill-opacity:1"
           xlink:href="#u-9-5-5-1"
           id="n2-6-1-0-7"
           transform="matrix(-1,0,0,-1,421.16574,2046.3712)"
           x="0"
           y="0"
           width="243"
           height="234" />
        <use
           style="fill:#000000;fill-opacity:1"
           xlink:href="#e-4-4-4-1"
           id="e2-4-4-6-0"
           transform="translate(76.545274,0)"
           x="0"
           y="0"
           width="243"
           height="234" />
        <path
           style="fill:#000000;fill-opacity:1"
           id="t-1-5-1-5"
           d="m 253.52198,1010.634 -4.06665,0 0,3.3478 -1.0899,0 0,3.0215 1.0899,0 0,11.6561 c -0.0396,1.3936 0.16747,2.369 0.62047,2.9263 0.45284,0.5573 1.38825,0.8252 2.8059,0.8038 l 1.82648,0 0,-3.0217 -0.48101,0 c -0.29578,-0.017 -0.48934,-0.1528 -0.58082,-0.4105 -0.0915,-0.2576 -0.13304,-0.5395 -0.12437,-0.8451 l 0,-11.1089 1.12212,0 0,-3.0215 -1.12212,0 0,-3.3478 z"
           inkscape:connector-curvature="0" />
      </g>
      <path
         style="fill:#dc0067;fill-opacity:1"
         id="path55392-0-6-4-4"
         d="m -240.75181,598.09348 0,-4.7599 -4.06665,0 0,4.7599 4.06665,0 z"
         inkscape:connector-curvature="0" />
      <path
         sodipodi:nodetypes="ccccccccccccccccccccccccccccscccccccccccccccccsccscccccccccccccccccccccccccccccccccccccccccccscccccccccccccccccccccccccscccccccccccccccccccccccccccccccccccccccccccccccccccccccccccccccccccccccccccccccccsccccccccccccccccccccccccccccccccccccccccccccccccccccc"
         style="display:inline;fill:#dc0067;fill-opacity:1"
         inkscape:connector-curvature="0"
         id="path3151"
         d="m -314.24024,573.08108 c -0.11754,0 -0.2263,0.012 -0.3125,0.031 -0.33956,0.073 -0.55176,0.2541 -0.65626,0.625 -0.0888,0.303 -0.19253,1.2889 -0.24999,2.2188 -0.0315,0.4858 -0.13528,1.4303 -0.18751,2.0625 -0.40227,4.6024 -0.47482,9.2656 -0.18749,12.6874 0.30823,3.6361 0.77862,5.5847 1.65625,6.875 0.41796,0.6113 1.08671,1.1816 1.68749,1.4063 0.87245,0.3291 2.22254,0.194 2.68751,-0.25 0.20896,-0.1933 0.22438,-0.4366 0.0937,-0.75 -0.1097,-0.2612 -0.51984,-0.6609 -0.84375,-0.8438 -0.4336,-0.2403 -0.73851,-0.8035 -1.09375,-2.0312 -0.44405,-1.5411 -0.71286,-3.4442 -0.9375,-6.4063 -0.1306,-1.7135 -0.1306,-7.3383 0,-9.1249 0.047,-0.674 0.11448,-1.7272 0.15625,-2.375 0.0419,-0.6478 0.0989,-1.4159 0.125,-1.6875 0.0315,-0.2717 0.0728,-0.6246 0.0937,-0.7813 0.0626,-0.6164 -0.24277,-1.1032 -0.90625,-1.4062 -0.32912,-0.1528 -0.77237,-0.2427 -1.125,-0.25 z m -37.68751,0.3438 c -0.14039,6e-4 -0.25551,0.035 -0.375,0.062 -0.21941,0.052 -0.45288,0.296 -0.53125,0.5625 -0.0627,0.2246 -0.10383,1.5964 -0.21875,5.875 -0.047,1.6351 -0.13011,3.8406 -0.15625,4.875 -0.0575,1.912 -0.0368,3.7289 0.0625,5.5312 l 0.0625,1 -0.1875,0.25 c -0.1515,0.1933 -0.1875,0.2859 -0.1875,0.4687 0,0.2038 0.01,0.2651 0.21875,0.4688 l 0.25,0.2187 0.0937,1.3438 c 0.13583,2.4292 0.22865,3.4418 0.40625,3.75 0.12019,0.2089 0.56117,0.4892 1,0.625 0.4127,0.1306 1.40511,0.2345 1.78125,0.1875 0.3657,-0.047 0.68729,-0.1871 0.75,-0.3125 0.0888,-0.162 0.0369,-0.7426 -0.0937,-1.4688 -0.16718,-0.8881 -0.40635,-2.5936 -0.375,-2.625 0.0104,-0.01 0.16092,0.1348 0.34375,0.3438 0.94035,1.0918 2.34046,2.4711 3.4375,3.4062 0.24555,0.209 0.60847,0.4475 0.90626,0.5938 l 0.49999,0.25 0.6875,0 c 0.80976,0 1.3316,-0.1189 1.90625,-0.4063 0.60603,-0.303 0.55442,-0.5246 -0.21875,-1 -1.08663,-0.6686 -1.8445,-1.3081 -3.3125,-2.75 -1.38964,-1.3687 -3.53125,-3.739 -3.53125,-3.9062 0,-0.031 0.18172,-0.2129 0.375,-0.4375 0.70003,-0.8098 2.67012,-3.2685 3.25,-4.0313 0.86722,-1.1492 1.1875,-1.6868 1.1875,-1.9062 0,-0.4545 -0.70622,-1.0101 -1.40624,-1.125 -0.53288,-0.084 -1.11818,0.2998 -1.65625,1.0625 -0.13583,0.1985 -0.84157,1.034 -1.56251,1.8438 l -1.3125,1.4999 -0.0312,-1.4687 c -0.0208,-0.8515 -0.005,-3.3982 0.0312,-6.0625 0.0365,-2.5285 0.0469,-4.8065 0.0312,-5.0625 -0.0259,-0.5224 -0.14494,-0.8012 -0.4375,-1.0937 -0.33533,-0.3311 -1.07906,-0.566 -1.68749,-0.5625 z m 81.375,0.9687 c -0.0998,0 -0.19776,0.017 -0.25,0.031 -0.50674,0.1306 -0.51568,0.2083 -0.5,1.9375 0.047,5.2816 0.41042,14.1493 0.75,18.1562 0.1097,1.327 0.26528,2.4521 0.375,2.8125 0.12014,0.3918 0.51299,0.6609 1.37501,0.8438 0.51194,0.1097 1.48879,0.1253 1.74999,0.031 0.44406,-0.1567 0.55272,-0.5503 0.34375,-1.1563 -0.20373,-0.5903 -0.1624,-1.2087 0.15626,-2.8125 0.43361,-2.1262 0.88337,-3.5427 1.5625,-4.9062 0.50154,-1.0083 0.83166,-1.5137 1.37499,-2.1563 0.20374,-0.2403 0.23945,-0.2658 0.28125,-0.1875 0.0311,0.058 0.0626,0.6636 0.0313,1.6875 -0.0679,2.2307 -0.0681,4.0943 0.0312,5.625 0.1515,2.2464 0.20185,2.4262 0.625,2.7188 0.66348,0.4545 2.36796,0.652 2.96875,0.3437 0.0836,-0.042 0.20297,-0.1507 0.25001,-0.25 0.0731,-0.1515 0.0837,-0.2024 0.0312,-0.4375 -0.51198,-2.3299 -0.52603,-2.2118 -0.53126,-6.2187 -0.005,-3.333 -0.0153,-3.4155 -0.12499,-3.8125 -0.30824,-1.1075 -0.97618,-1.8534 -1.96875,-2.0937 -0.43883,-0.1045 -1.47768,-0.068 -1.96876,0.062 -0.43881,0.1149 -0.97256,0.348 -1.43749,0.6562 -0.50153,0.3239 -1.28505,1.1645 -1.75,1.875 l -0.40625,0.6562 -0.0625,-0.5312 c -0.0259,-0.2769 -0.11952,-2.2902 -0.21875,-4.5 -0.2351,-5.2242 -0.3122,-6.7848 -0.40625,-7.3437 -0.0679,-0.3762 -0.58656,-0.7339 -1.25,-0.9063 -0.27818,-0.07 -0.73175,-0.1301 -1.03125,-0.125 z m -49.46874,8.9375 c -0.15518,0 -0.31464,0.01 -0.46875,0.031 -1.17542,0.1515 -2.42287,0.8811 -3.81251,2.2812 -0.28732,0.2926 -0.51037,0.5313 -0.53124,0.5313 -0.0156,0 -0.0416,-0.1608 -0.0625,-0.375 -0.0888,-1.0031 -0.367,-1.3378 -1.28125,-1.5938 -0.51198,-0.141 -1.09279,-0.2086 -1.40625,-0.125 -0.20374,0.052 -0.26019,0.109 -0.34375,0.25 -0.094,0.1672 -0.11455,0.3139 -0.125,3.2812 -0.0104,3.6465 -0.0824,5.1233 -0.40625,7.4063 -0.17242,1.2225 -0.2294,1.7961 -0.15625,2.0312 0.18283,0.5486 1.23602,0.9844 2.40625,1 0.56942,0 0.76501,-0.067 0.96875,-0.3437 0.1515,-0.1985 0.2497,-0.9056 0.34375,-2.8438 0.047,-0.9299 0.10409,-1.8588 0.125,-2.0312 0.0836,-0.559 0.7067,-2.2674 1.25,-3.4063 0.63737,-1.3217 1.34156,-2.3208 2.0625,-3 0.64779,-0.6059 0.60943,-0.6375 0.59375,0.062 -0.0156,0.5381 -0.016,0.6037 0.0937,0.7813 0.25596,0.4075 1.12233,0.7862 2,0.875 0.79407,0.078 1.17133,0 1.34374,-0.3438 0.0731,-0.1306 0.0625,-0.3515 0.0625,-1.2187 -0.005,-1.1754 -0.0669,-1.6495 -0.34374,-2.1562 -0.19332,-0.3553 -0.68647,-0.7809 -1.03125,-0.9063 -0.37222,-0.141 -0.81572,-0.1963 -1.28125,-0.1875 z m 31.06249,0 c -0.15518,0 -0.28339,0.01 -0.4375,0.031 -1.17545,0.1515 -2.42285,0.8811 -3.81249,2.2812 -0.28733,0.2926 -0.51035,0.5313 -0.53126,0.5313 -0.0156,0 -0.0728,-0.1608 -0.0937,-0.375 -0.0888,-1.0031 -0.36703,-1.3378 -1.28124,-1.5938 -0.51197,-0.141 -1.06154,-0.2086 -1.37501,-0.125 -0.20373,0.052 -0.29141,0.109 -0.375,0.25 -0.0941,0.1672 -0.0833,0.3139 -0.0937,3.2812 -0.0104,3.6465 -0.0823,5.1233 -0.40625,7.4063 -0.17238,1.2225 -0.22939,1.7961 -0.15625,2.0312 0.18287,0.5486 1.23604,0.9844 2.40625,1 0.56944,0 0.76501,-0.067 0.96875,-0.3437 0.1515,-0.1985 0.21846,-0.9056 0.3125,-2.8438 0.047,-0.9299 0.10413,-1.8588 0.125,-2.0312 0.0836,-0.559 0.73792,-2.2674 1.28125,-3.4063 0.63734,-1.3217 1.31031,-2.3208 2.03124,-3 0.6478,-0.6059 0.64068,-0.6375 0.625,0.062 -0.0156,0.5381 -0.0159,0.6037 0.0937,0.7813 0.25601,0.4075 1.09109,0.7862 1.96875,0.875 0.79409,0.078 1.17139,0 1.34375,-0.3438 0.0732,-0.1306 0.0937,-0.3515 0.0937,-1.2187 -0.005,-1.1754 -0.0668,-1.6495 -0.34375,-2.1562 -0.19328,-0.3553 -0.68646,-0.7809 -1.03124,-0.9063 -0.37222,-0.141 -0.847,-0.1963 -1.31251,-0.1875 z m -46.96875,0.25 c -0.10121,10e-4 -0.18963,0.015 -0.34374,0.062 -0.27688,0.089 -0.84205,0.5502 -1.40626,1.1562 -1.90683,2.0426 -3.62367,5.7253 -4.0625,8.7187 -0.10969,0.7523 -0.10975,1.8058 0,2.3125 0.2351,1.0867 0.93959,1.8482 1.96876,2.125 0.48061,0.1254 1.40462,0.1151 1.93749,-0.031 1.17022,-0.3134 2.35685,-1.2409 3.1875,-2.5312 0.15674,-0.2403 0.29686,-0.4375 0.3125,-0.4375 0.0315,0 0.1765,0.4404 0.375,1.1875 0.25601,0.9508 0.7066,1.6295 1.28125,1.8437 0.67393,0.256 1.69711,0.2248 1.96876,-0.031 0.20896,-0.1933 0.23504,-0.3776 0.0312,-1.2187 -0.57989,-2.3613 -0.77451,-3.2921 -1.28125,-6.5938 -0.13587,-0.8829 -0.24923,-1.3985 -0.5,-2.2187 -0.14629,-0.4859 -0.16667,-0.5337 -0.15625,-1.4375 0.0156,-0.8776 0.0211,-0.9316 -0.0937,-1.1562 -0.19329,-0.3971 -0.659,-0.6455 -1.46875,-0.7813 -0.35002,-0.063 -0.39021,-0.077 -0.53126,-0.2812 -0.20895,-0.3083 -0.53552,-0.5727 -0.84374,-0.6563 -0.16195,-0.042 -0.27379,-0.033 -0.375,-0.031 z m 31.81251,0.031 c -0.17718,0 -0.32509,0.017 -0.46876,0.031 -1.7553,0.1776 -3.14835,0.7784 -4.03124,1.7187 -0.88286,0.9456 -0.89344,2.1005 -0.0312,3.3125 0.40747,0.5642 1.05271,1.1682 2.56249,2.375 1.61428,1.2904 1.9986,1.6234 2.46875,2.1562 0.80976,0.9143 1.18287,1.8782 1.00001,2.5625 -0.0523,0.1985 -0.0984,0.2343 -0.28125,0.2813 -0.36569,0.099 -0.95478,-0.01 -2.12501,-0.4063 -1.23286,-0.4179 -1.54007,-0.4639 -2.06249,-0.3437 -1.03959,0.2455 -2.07352,0.9209 -1.875,1.25 0.13059,0.209 1.17394,0.645 2.21875,0.9062 0.88812,0.2195 2.18561,0.4529 2.81249,0.5313 1.75534,0.2299 3.50805,-0.3198 4.28126,-1.3438 0.60598,-0.7993 0.6631,-1.8197 0.125,-2.875 -0.57989,-1.1493 -1.33435,-1.8729 -4.43751,-4.2812 -1.05526,-0.8202 -1.75436,-1.5919 -2.03124,-2.1875 -0.14628,-0.303 -0.17744,-0.8014 -0.0625,-1.0313 0.20373,-0.3917 0.76338,-0.6923 1.5,-0.8124 0.4597,-0.073 0.55015,-0.078 1.1875,0.031 1.14931,0.1985 1.33747,0.2188 1.68749,0.1875 0.71048,-0.063 1.31205,-0.291 1.46875,-0.5313 0.11495,-0.1776 0.0527,-0.4057 -0.15624,-0.5625 -0.59426,-0.4525 -2.50979,-0.9367 -3.75,-0.9687 z m 20.90623,0.4687 c -0.11884,0 -0.19496,0.034 -0.3125,0.062 -0.28209,0.068 -0.41108,0.1659 -0.53125,0.4375 -0.10446,0.2299 -0.161,0.5268 -0.3125,2 -0.47541,4.4562 -0.61503,6.6618 -0.46875,8.25 0.094,1.0239 0.38908,1.7276 0.90625,2.25 0.39182,0.4022 0.78979,0.6091 1.40625,0.6875 1.52547,0.2037 3.09443,-0.6092 4.59376,-2.375 0.33437,-0.3918 0.40618,-0.4273 0.43751,-0.3438 0.0208,0.052 0.0935,0.3739 0.18749,0.75 0.32392,1.3479 0.60106,1.7024 1.625,1.9688 0.41272,0.1097 1.59794,0.099 1.93751,0 0.28731,-0.084 0.53124,-0.3067 0.53124,-0.5 0,-0.078 -0.0882,-0.3275 -0.1875,-0.5313 -0.42314,-0.8724 -0.9891,-3.3439 -1.15625,-5 -0.0259,-0.2873 -0.0936,-1.3199 -0.125,-2.3125 l -0.0625,-1.8125 0.1875,-0.625 c 0.18283,-0.6739 0.16725,-0.9054 0,-1.1562 -0.0522,-0.078 -0.15095,-0.2652 -0.1875,-0.4062 -0.1254,-0.4963 -0.48261,-0.8691 -1.0625,-1.0938 -0.35523,-0.1358 -1.25968,-0.193 -1.5,-0.094 -0.24029,0.099 -0.40095,0.3377 -0.4375,0.625 -0.0156,0.1359 -0.0519,0.3019 -0.0937,0.375 -0.0365,0.073 -0.0937,0.3222 -0.12501,0.5625 -0.56419,4.2943 -1.78725,7.7248 -3.24999,9.1562 -0.18811,0.1829 -0.26559,0.2398 -0.28127,0.1875 -0.25077,-0.6895 -0.15206,-5.0848 0.18751,-8.0312 0.10448,-0.8724 0.1305,-1.9317 0.0313,-2.125 -0.19329,-0.3709 -0.79488,-0.6923 -1.46876,-0.8125 -0.21682,-0.039 -0.3499,-0.09 -0.46875,-0.094 z m 30.8125,0.031 c -0.14594,0 -0.2887,0.014 -0.40625,0.031 -1.21199,0.162 -2.25803,0.8351 -3.03124,1.9688 -0.91944,1.3582 -1.42229,3.6345 -1.28124,5.6249 0.22464,3.1763 1.53485,5.1961 3.78124,5.8125 0.51716,0.1411 1.4204,0.2345 1.90625,0.1875 1.78668,-0.1619 3.6757,-1.3815 4.125,-2.6562 0.18282,-0.5277 0.12633,-0.728 -0.31251,-1.125 -0.4336,-0.3918 -1.20203,-0.6826 -1.56249,-0.5938 -0.38134,0.099 -0.9624,0.6854 -1.34376,1.4063 -0.25077,0.4858 -0.4471,0.7131 -0.71875,0.8437 -0.62692,0.303 -1.22757,-0.059 -1.74999,-1.0937 -0.30824,-0.606 -0.47842,-1.179 -0.71874,-2.2813 -0.0208,-0.094 0.0867,-0.1397 0.68749,-0.4375 0.8672,-0.4388 1.52386,-0.8937 2.25,-1.5937 1.12319,-1.0814 1.83302,-2.2628 1.9375,-3.1875 0.13585,-1.2225 -0.82382,-2.4155 -2.25,-2.7812 -0.35265,-0.09 -0.87464,-0.1348 -1.31251,-0.125 z m 0.18751,2.0625 c 0.0259,0 0.0624,0.083 0.0937,0.1875 0.0418,0.1149 0.0469,0.369 0.0313,0.625 -0.0259,0.5381 -0.21731,1.0191 -0.6875,1.5937 -0.38138,0.4754 -0.82795,0.922 -0.87499,0.875 -0.0836,-0.078 0.20229,-1.2428 0.46874,-1.875 0.23507,-0.5642 0.81724,-1.4062 0.96875,-1.4062 z m -84.03124,1.0937 c 0.0762,-0.02 0.10679,0.1628 0.0937,0.5938 -0.0679,2.6591 -1.10618,6.1941 -2.15625,7.4375 -0.20897,0.256 -0.22406,0.1637 -0.1875,-0.5938 0.14104,-2.6904 0.88182,-5.2441 2.0625,-7.1875 0.094,-0.1547 0.14177,-0.2378 0.1875,-0.25 z" />
      <g
         id="g4237"
         transform="translate(-381.36154,-434.29602)">
        <g
           id="g4207">
          <path
             inkscape:connector-curvature="0"
             id="path4106"
             d="m 92.40625,823.67888 c -0.001,6.10765 0.004,12.23611 0,18.34375 -0.43937,0.48142 -0.80128,1.02794 -1.28125,1.46875 -0.74968,0.26681 -1.54831,0.37334 -2.3125,0.59375 -0.004,2.37664 0.004,4.77961 0,7.15625 -0.77578,0.17111 -1.55477,0.36269 -2.28125,0.6875 0.011,1.41526 0.02425,2.83475 0.03125,4.25 -1.69367,2.12869 -3.04477,4.55195 -3.84375,7.15625 -0.42922,1.41961 -0.69729,2.87049 -0.84375,4.34375 -0.0176,1.68932 -0.02425,3.37318 -0.03125,5.0625 -16.37992,10e-4 -32.75082,3.6e-4 -49.125,0 0.05643,0.16835 0.129705,0.33228 0.1875,0.5 19.750073,1.3e-4 39.5011,-7.7e-4 59.25,0 -3.87311,1.88508 -7.78169,3.71157 -11.65625,5.59375 -0.23201,0.1044 -0.45774,0.249 -0.71875,0.25 -14.85489,0.004 -29.708496,10e-4 -44.5625,0 0.07219,0.15693 0.145329,0.31251 0.21875,0.46875 14.52074,0.007 29.04135,0.0243 43.5625,0.0312 -0.64818,0.26536 -1.24372,0.7369 -1.96875,0.75 -13.73948,-0.003 -27.479132,-8.8e-4 -41.21875,0 0.07548,0.15506 0.142054,0.31439 0.21875,0.46875 13.447003,0.006 26.89322,0.0208 40.34375,0.0312 -1.47326,0.72068 -2.96134,1.41302 -4.4375,2.125 -0.002,9.87543 -1.3e-4,19.75039 0,29.625 0.48602,0.17138 0.97741,0.34016 1.46875,0.5 -5.7e-4,-9.56189 -0.003,-19.12717 0,-28.6875 13.21439,0.0105 26.410619,-0.0319 39.625,0 -0.014,6.68249 -0.005,13.37345 0,20.0625 0.28149,-0.006 0.56094,0 0.84375,0 0.19901,0 0.39538,-0.003 0.59375,0 0.002,-7.17787 0.005,-14.35659 0,-21.53125 -1.48776,-0.71197 -2.97954,-1.38467 -4.46875,-2.09375 13.39334,-6.5e-4 26.79078,-2.6e-4 40.1875,0 0.083,-0.16685 0.16838,-0.33232 0.25,-0.5 -13.68661,-10e-4 -27.3724,-0.004 -41.0625,0 -0.72503,-0.0116 -1.32347,-0.48319 -1.96875,-0.75 14.47183,-0.013 28.93843,-0.0263 43.40625,-0.0312 0.0734,-0.15624 0.14656,-0.31182 0.21875,-0.46875 -14.81302,2.6e-4 -29.62663,6.9e-4 -44.4375,0 -0.33496,0.007 -0.61478,-0.1762 -0.90625,-0.3125 -3.8412,-1.84738 -7.7118,-3.64037 -11.53125,-5.53125 19.72948,7.7e-4 39.4581,6e-5 59.1875,0 0.0578,-0.16772 0.13107,-0.33165 0.1875,-0.5 -16.46898,-7e-5 -32.93978,0.002 -49.40625,0 -0.012,-2.03298 0.0333,-4.06222 0,-6.09375 -0.44807,-3.80351 -2.0892,-7.42493 -4.46875,-10.40625 -0.058,-1.47181 -0.001,-2.96424 0,-4.4375 -0.69748,-0.35527 -1.49597,-0.44954 -2.25,-0.625 -0.001,-2.35489 0.004,-4.73886 0,-7.09375 -0.69168,-0.18561 -1.37227,-0.31295 -2.0625,-0.5 -0.26681,-0.0421 -0.43424,-0.27589 -0.59375,-0.46875 -0.29581,-0.37412 -0.59594,-0.73123 -0.90625,-1.09375 -0.004,-6.10909 0.001,-12.23465 0,-18.34375 -0.48432,-10e-4 -0.95463,-10e-4 -1.4375,0 z m 1.625,21.15625 c 0.649375,0.003 1.306725,0.0666 1.9375,0.25 -0.018,1.95903 0.0101,3.91453 0,5.875 -1.89522,-0.14791 -3.79952,-0.17676 -5.6875,0.0625 -0.001,-1.98078 0.001,-3.98797 0,-5.96875 0.60033,-0.15076 1.19187,-0.2281 1.8125,-0.1875 0.646725,0.0246 1.288125,-0.0339 1.9375,-0.0312 z m -1.96875,6.75 c 0.24234,-0.008 0.47586,-0.007 0.71875,0 -0.001,0.99909 0.001,2.00091 0,3 -0.48432,-0.0101 -0.95753,-0.018 -1.4375,0.0312 -0.002,-0.99329 -0.02525,-1.97401 -0.03125,-2.96875 0.24071,-0.0303 0.50766,-0.0543 0.75,-0.0625 z m 1.4375,0 c 0.44807,-0.002 0.89423,-0.009 1.34375,0 0.012,1.01359 -0.003,2.01766 0,3.03125 -0.45097,-0.0449 -0.89133,-0.0353 -1.34375,-0.0312 0.001,-0.99764 -0.001,-2.00236 0,-3 z m 2.09375,0.0937 c 0.45097,0.045 0.89423,0.0851 1.34375,0.15625 0,1.01794 -0.0116,2.04456 0,3.0625 -0.45097,-0.0739 -0.89133,-0.16505 -1.34375,-0.21875 -0.004,-1.00924 -0.004,-1.99076 0,-3 z m -5,0.0312 c 0.001,0.99619 -0.003,2.00235 0,3 -0.45242,0.0334 -0.90003,0.1034 -1.34375,0.1875 -0.0185,-0.99909 0.016,-2.00236 0,-3 0.44952,-0.0855 0.88698,-0.1599 1.34375,-0.1875 z m 7.0625,0.25 c 0.42197,0.0885 0.83384,0.19504 1.25,0.3125 0.002,1.05709 0.02425,2.1304 0.03125,3.1875 -0.40891,-0.17111 -0.85638,-0.2888 -1.28125,-0.40625 0.004,-1.02664 0,-2.0671 0,-3.09375 z m -9.125,0.0625 c 0.011,1.00054 -0.006,2.03071 0,3.03125 -0.42341,0.1247 -0.83238,0.23435 -1.25,0.375 0.004,-1.00924 -0.001,-2.02201 0,-3.03125 0.41182,-0.13775 0.83094,-0.259 1.25,-0.375 z m 4.9375,3.25 c 0.519543,0.0138 1.03939,0.0635 1.5625,0.0937 1.57041,3.33079 2.14015,7.05881 2.09375,10.71875 -2.10548,-0.087 -4.20556,-0.0393 -6.3125,-0.0625 -0.66412,10e-4 -1.33732,0.002 -2,0.0625 -0.0551,-3.64544 0.52319,-7.34946 2.03125,-10.6875 0.34801,-0.033 0.71335,-0.0786 1.0625,-0.0937 0.52372,-0.0229 1.042957,-0.045 1.5625,-0.0312 z m 2.46875,0.1875 c 0.89469,0.145 1.81956,0.29664 2.65625,0.65625 0.68298,0.73808 1.209279,1.57312 1.8125,2.375 1.53271,2.41435 2.57144,5.16224 2.96875,8 0.0249,0.24506 0.0284,0.50204 0.0312,0.75 -1.85607,-0.33496 -3.71078,-0.67889 -5.5625,-1.03125 0.0624,-3.65415 -0.47794,-7.36992 -1.90625,-10.75 z M 90,855.49138 c -1.42686,3.36848 -1.97875,7.07475 -1.90625,10.71875 -1.80968,0.34221 -3.62493,0.67954 -5.4375,1 0.39876,-4.07902 2.2243,-7.96227 4.875,-11.0625 0.78448,-0.35236 1.62627,-0.50545 2.46875,-0.65625 z m 6.125,11.96875 c 0.326699,-0.003 0.669385,0.0233 1,0.0625 -0.007,1.74007 0,3.47868 0,5.21875 -2.77106,0.003 -5.54143,0.003 -8.3125,0 0,-1.74007 0.007,-3.47868 0,-5.21875 0.52674,-0.0265 1.06627,-0.0242 1.59375,-0.0312 1.58245,-0.0215 3.16653,0.0207 4.75,0 0.33134,0.003 0.642051,-0.0285 0.96875,-0.0312 z m -8.03125,0.21875 0,5.0625 c -1.83723,10e-4 -3.66422,0.003 -5.5,0 0,-1.3529 0.003,-2.7096 0,-4.0625 1.83723,-0.33786 3.66567,-0.64329 5.5,-1 z m 9.75,0 c 1.85027,0.35816 3.70933,0.69194 5.5625,1.03125 -0.001,1.35145 0,2.6798 0,4.03125 -1.85317,0 -3.70933,10e-4 -5.5625,0 0,-1.69222 -0.001,-3.37028 0,-5.0625 z m -4.6875,5.875 c 6.51801,3.18287 13.07509,6.25883 19.625,9.375 -13.041821,0.0176 -26.08462,0.0153 -39.125,0.0312 6.49336,-3.13792 13.01099,-6.26398 19.5,-9.40625 z"
             style="fill:#000000" />
          <path
             id="path4076"
             transform="translate(0,768.89763)"
             d="m 92.84375,106.84375 c -0.09963,0.0148 -0.18446,0.0573 -0.28125,0.0937 -1.34711,0.55247 -1.83656,2.23425 -1.5625,3.5625 0.17401,0.95124 0.81486,1.93584 1.8125,2.15625 0.81783,0.18561 1.61653,-0.32282 2.03125,-1 0.73518,-1.1963 0.69494,-2.87186 -0.15625,-4 -0.35345,-0.47957 -0.94065,-0.79944 -1.53125,-0.8125 -0.09843,-0.002 -0.212869,-0.0148 -0.3125,0 z m 0.125,0.5 c 0.52525,-0.0863 1.04304,0.22866 1.34375,0.65625 0.72503,1.03389 0.74388,2.53731 0,3.5625 -0.35237,0.49733 -1.03338,0.83366 -1.625,0.5625 -0.96719,-0.43937 -1.3153,-1.63896 -1.25,-2.625 0.0855,-0.83523 0.46857,-1.77329 1.3125,-2.09375 0.0738,-0.0297 0.14371,-0.0502 0.21875,-0.0625 z"
             style="fill:#000000"
             inkscape:connector-curvature="0" />
          <path
             id="path4072"
             transform="translate(0,768.89763)"
             d="m 42.625,117.15625 c -0.0029,1.59361 -0.02835,3.18764 -0.03125,4.78125 1.289102,0.006 2.584448,0.004 3.875,0 -0.0015,-1.59361 0.0015,-3.18619 0,-4.78125 -1.289102,-0.001 -2.554648,-0.001 -3.84375,0 z m 0.46875,0.46875 2.90625,0 c 0,1.27315 0.0014,2.53935 0,3.8125 l -2.90625,0 c -0.0015,-1.27315 0,-2.53935 0,-3.8125 z"
             style="fill:#000000"
             inkscape:connector-curvature="0" />
          <path
             id="path4070"
             transform="translate(0,768.89763)"
             d="m 50.4375,117.15625 c -0.003,1.59361 0.0029,3.18764 0,4.78125 1.289102,0.006 2.58445,0.003 3.875,0 -10e-4,-1.59361 0.002,-3.18619 0,-4.78125 -1.2891,-0.001 -2.585898,-0.001 -3.875,0 z m 0.5,0.46875 2.875,0 c 0,1.27315 0.002,2.53935 0,3.8125 l -2.875,0 c -0.0029,-1.27315 0,-2.53935 0,-3.8125 z"
             style="fill:#000000"
             inkscape:connector-curvature="0" />
          <path
             id="path4068"
             transform="translate(0,768.89763)"
             d="m 58.28125,117.15625 c -0.003,1.59361 0.002,3.18764 0,4.78125 1.2891,0.004 2.55465,0.004 3.84375,0 -0.003,-1.59361 0.003,-3.18764 0,-4.78125 -1.2891,-0.001 -2.55465,-0.001 -3.84375,0 z m 0.46875,0.46875 2.90625,0 0,3.8125 -2.90625,0 c -10e-4,-1.27315 0,-2.53935 0,-3.8125 z"
             style="fill:#000000"
             inkscape:connector-curvature="0" />
          <path
             id="path4066"
             transform="translate(0,768.89763)"
             d="m 66.09375,117.15625 c -0.003,1.59506 0.001,3.18764 0,4.78125 1.2891,0.004 2.5859,0.004 3.875,0 -0.001,-1.59361 0.001,-3.18619 0,-4.78125 -1.2891,-0.001 -2.5859,-0.001 -3.875,0 z m 0.5,0.46875 2.875,0 c 0,1.27315 0.001,2.53935 0,3.8125 l -2.875,0 c -0.002,-1.27315 0,-2.53935 0,-3.8125 z"
             style="fill:#000000"
             inkscape:connector-curvature="0" />
          <path
             id="path4064"
             transform="translate(0,768.89763)"
             d="m 75.375,117.15625 c -0.002,1.59361 0.001,3.18764 0,4.78125 1.2891,0.004 2.58445,0.004 3.875,0 -0.001,-1.59361 0.001,-3.18619 0,-4.78125 -1.2891,-0.001 -2.5859,-0.001 -3.875,0 z m 0.5,0.46875 2.875,0 c 0,1.27315 0.001,2.53935 0,3.8125 l -2.875,0 c -0.001,-1.27315 0,-2.53935 0,-3.8125 z"
             style="fill:#000000"
             inkscape:connector-curvature="0" />
          <path
             id="path4062"
             transform="translate(0,768.89763)"
             d="m 83.21875,117.15625 c -0.002,1.59361 0.003,3.18619 0,4.78125 1.28765,0.007 2.55465,-0.003 3.84375,0 0.002,-1.59506 0,-3.18619 0,-4.78125 -1.2891,-0.001 -2.55465,-0.001 -3.84375,0 z m 0.46875,0.46875 2.90625,0 c 0,1.27315 0.001,2.53935 0,3.8125 l -2.90625,0 0,-3.8125 z"
             style="fill:#000000"
             inkscape:connector-curvature="0" />
          <path
             id="path4060"
             transform="translate(0,768.89763)"
             d="m 91.28125,117.15625 c -0.005,1.59506 -0.001,3.18619 0,4.78125 1.28766,0.002 2.5859,-0.001 3.875,0 0.002,-1.59506 0,-3.18619 0,-4.78125 -1.2891,-0.001 -2.58734,0.001 -3.875,0 z m 0.5,0.46875 c 0.96719,-0.001 1.90781,-0.003 2.875,0 -0.003,1.27315 0.006,2.53935 0,3.8125 -0.96574,-0.003 -1.91071,0.003 -2.875,0 -0.002,-1.2717 0,-2.5408 0,-3.8125 z"
             style="fill:#000000"
             inkscape:connector-curvature="0" />
          <path
             id="path4058"
             transform="translate(0,768.89763)"
             d="m 99.34375,117.15625 c 0,1.59506 -0.003,3.18619 0,4.78125 1.28765,-0.001 2.58734,0.001 3.875,0 0,-1.59651 0.006,-3.18619 0,-4.78125 -1.28766,0.001 -2.58735,-0.001 -3.875,0 z m 0.5,0.46875 c 0.96574,-0.002 1.93906,0 2.90625,0 0,1.27315 0.003,2.5408 0,3.8125 -0.96574,0.003 -1.94051,-0.003 -2.90625,0 -0.006,-1.27315 0.003,-2.53935 0,-3.8125 z"
             style="fill:#000000"
             inkscape:connector-curvature="0" />
          <path
             id="path4056"
             transform="translate(0,768.89763)"
             d="m 107.1875,117.15625 c 0,1.59506 -0.003,3.18619 0,4.78125 1.28765,-0.001 2.58735,0.001 3.875,0 0,-1.59651 0.006,-3.18619 0,-4.78125 -1.28765,0.001 -2.58735,-0.001 -3.875,0 z m 0.46875,0.46875 c 0.96573,-0.003 1.93906,-0.001 2.90625,0 0,1.2717 0.003,2.5408 0,3.8125 -0.96574,0.002 -1.94052,-0.001 -2.90625,0 -0.006,-1.2717 0.003,-2.53935 0,-3.8125 z"
             style="fill:#000000"
             inkscape:connector-curvature="0" />
          <path
             id="path4054"
             transform="translate(0,768.89763)"
             d="m 116.46875,117.15625 c 0,1.59506 -0.003,3.18619 0,4.78125 1.28765,-0.001 2.58734,0.001 3.875,0 -0.003,-1.59796 -0.0126,-3.18619 -0.0312,-4.78125 -1.28621,0.008 -2.55755,-0.004 -3.84375,0 z m 0.46875,0.46875 c 0.96574,-0.003 1.93906,-0.001 2.90625,0 0,1.2717 0.003,2.5408 0,3.8125 -0.96574,0.002 -1.94051,-0.001 -2.90625,0 -0.006,-1.2717 0.003,-2.5408 0,-3.8125 z"
             style="fill:#000000"
             inkscape:connector-curvature="0" />
          <path
             id="path4052"
             transform="translate(0,768.89763)"
             d="m 124.3125,117.15625 c 0,1.59506 -0.003,3.18619 0,4.78125 1.28765,-0.001 2.55465,0.003 3.84375,0 -0.002,-1.59506 0.006,-3.18619 0,-4.78125 -1.27727,9.9e-4 -2.56646,-9.6e-4 -3.84375,0 z m 0.46875,0.46875 c 0.96573,-0.003 1.93906,-0.001 2.90625,0 0,1.2717 0.003,2.5408 0,3.8125 -0.96574,0.003 -1.94052,-0.003 -2.90625,0 -0.006,-1.27315 0.003,-2.53935 0,-3.8125 z"
             style="fill:#000000"
             inkscape:connector-curvature="0" />
          <path
             id="path4050"
             transform="translate(0,768.89763)"
             d="m 132.125,117.15625 c 0,1.59506 -0.003,3.18619 0,4.78125 1.28765,-0.001 2.58735,0.001 3.875,0 -0.001,-1.59651 0.0116,-3.18619 0,-4.78125 -1.28765,0.006 -2.58735,-0.003 -3.875,0 z m 0.5,0.46875 c 0.95539,-0.003 1.91821,-9.9e-4 2.875,0 0,1.2717 0.003,2.5408 0,3.8125 -0.96574,0.002 -1.90926,-0.001 -2.875,0 -0.006,-1.2717 0.003,-2.5408 0,-3.8125 z"
             style="fill:#000000"
             inkscape:connector-curvature="0" />
          <path
             id="path4048"
             transform="translate(0,768.89763)"
             d="m 139.96875,117.15625 c 0,1.59506 -0.004,3.18619 0,4.78125 1.28765,-0.001 2.5561,0.001 3.84375,0 0,-1.59651 0.006,-3.18619 0,-4.78125 -1.28765,0.001 -2.5561,-0.001 -3.84375,0 z m 0.46875,0.46875 c 0.96574,-0.004 1.93907,-0.001 2.90625,0 0,1.2717 0.003,2.5408 0,3.8125 -0.96573,0.002 -1.94196,-0.001 -2.90625,0 -0.006,-1.2717 0.003,-2.5408 0,-3.8125 z"
             style="fill:#000000"
             inkscape:connector-curvature="0" />
          <path
             id="path4020"
             transform="translate(0,768.89763)"
             d="m 85.1875,124.8125 c -0.97155,-0.0114 -1.91424,0.82792 -1.96875,1.8125 -0.0537,1.36451 0.0217,2.72779 0,4.09375 -0.85264,-0.001 -1.70987,0.001 -2.5625,0 -0.004,1.2891 0.001,2.5859 0,3.875 -0.38717,-0.001 -0.77054,0 -1.15625,0 -0.001,0.25376 -0.001,0.49334 0,0.75 0.31176,0.16386 0.60173,0.35145 0.90625,0.53125 0.0754,0.30017 0.279,0.55454 0.25,0.875 -0.005,3.1091 -0.001,6.2289 0,9.34375 0.47751,0.0947 0.95621,0.166 1.4375,0.25 -2.2e-4,-3.35401 -8e-4,-6.7114 0,-10.0625 l 6.25,0 c 0.001,2.59138 4.4e-4,5.18681 0,7.78125 0.46231,-0.34766 0.96082,-0.67104 1.4375,-1 -1.7e-4,-2.26115 -5.4e-4,-4.5229 0,-6.78125 l 6.375,0 c 5.1e-4,1.05112 -8e-5,2.10415 0,3.15625 0.48369,-0.22223 0.97549,-0.45186 1.46875,-0.65625 1.8e-4,-0.83322 -6e-4,-1.66743 0,-2.5 l 6.53125,0 c 3e-5,0.13529 -3e-5,0.27094 0,0.40625 0.49626,-0.11614 0.99722,-0.24517 1.5,-0.34375 0.059,-0.17942 0.13738,-0.34443 0.15625,-0.53125 0.36977,-0.20011 0.74073,-0.39139 1.125,-0.5625 -0.004,-0.22476 0,-0.43439 0,-0.65625 l -1.34375,0 c -0.001,-1.2891 0.003,-2.5859 0,-3.875 -0.78883,0 -1.58762,0.003 -2.375,0 -0.004,-1.27605 0,-2.5379 0,-3.8125 -0.013,-0.79318 -0.46762,-1.62429 -1.21875,-1.9375 -0.87439,-0.42052 -1.95238,0.0601 -2.40625,0.875 -0.17546,0.37847 -0.259,0.80113 -0.25,1.21875 0.004,1.22385 0.001,2.43095 0,3.65625 l -4.1875,0 c -0.004,-1.27315 0.003,-2.53935 0,-3.8125 0.0116,-0.93673 -0.64542,-1.86014 -1.59375,-2.03125 -1.09915,-0.23781 -2.1963,0.67776 -2.25,1.78125 -0.0392,1.35291 -0.01685,2.70959 -0.03125,4.0625 -1.40075,0.002 -2.78674,-0.001 -4.1875,0 -0.007,-1.2746 0.003,-2.53645 0,-3.8125 -0.001,-0.89903 -0.59371,-1.82679 -1.5,-2.03125 -0.13794,-0.0382 -0.26746,-0.0609 -0.40625,-0.0625 z m -0.1875,0.5 c 0.88454,-0.12326 1.6583,0.73097 1.625,1.59375 0.01,1.27025 0.03025,2.54225 0.03125,3.8125 -0.99764,0.001 -2.00236,0.001 -3,0 0.001,-1.2717 -0.0101,-2.5408 0,-3.8125 -0.016,-0.75403 0.56507,-1.53435 1.34375,-1.59375 z m 8.1875,0 c 0.39641,-0.006 0.80366,0.15698 1.0625,0.46875 0.35092,0.32336 0.48035,0.81578 0.46875,1.28125 -0.002,1.2253 0.001,2.43095 0,3.65625 l -3,0 c -0.004,-1.2282 0.001,-2.4593 0,-3.6875 -0.0116,-0.44952 0.11704,-0.89104 0.4375,-1.21875 0.25376,-0.31101 0.63484,-0.49439 1.03125,-0.5 z m 8.21875,0 c 0.76263,0.0643 1.39784,0.82359 1.375,1.59375 0.007,1.27315 0,2.53935 0,3.8125 l -3,0 c 0.003,-1.2746 -0.013,-2.5379 0,-3.8125 -0.009,-0.72938 0.56137,-1.4769 1.3125,-1.5625 0.11274,-0.0208 0.20355,-0.0405 0.3125,-0.0312 z M 81.125,131.21875 c 7.98983,0 15.978929,0.003 23.96875,0 0.008,1.12669 -0.004,2.24686 0,3.375 -7.991271,0.003 -15.97747,0.003 -23.96875,0 0.003,-1.12814 -0.006,-2.24831 0,-3.375 z"
             style="fill:#000000"
             inkscape:connector-curvature="0" />
          <path
             id="path4012"
             transform="translate(0,768.89763)"
             d="m 107.1875,126.46875 c 0,2.40129 -0.003,4.81745 0,7.21875 1.28765,-0.001 2.5859,0.003 3.875,0 0.001,-2.39985 -0.001,-4.81891 0,-7.21875 -1.2891,-0.002 -2.5859,0 -3.875,0 z m 0.46875,0.5 c 0.96573,0 1.94051,-0.004 2.90625,0 -0.001,2.07648 0.003,4.14226 0,6.21875 -0.96574,0.002 -1.94052,-0.001 -2.90625,0 -0.004,-2.07794 0,-4.14082 0,-6.21875 z"
             style="fill:#000000"
             inkscape:connector-curvature="0" />
          <path
             id="path4010"
             transform="translate(0,768.89763)"
             d="m 116.46875,126.46875 c 0,2.40129 -0.004,4.8189 0,7.21875 1.28765,-0.001 2.58589,0.003 3.875,0 0.001,-2.39985 -0.001,-4.81891 0,-7.21875 -1.28911,-0.004 -2.5859,0 -3.875,0 z m 0.46875,0.5 c 0.96719,0.003 1.93761,-0.0174 2.90625,0 -0.01,2.07503 0.006,4.14371 0,6.21875 -0.96574,0.002 -1.94051,-0.001 -2.90625,0 -0.005,-2.07794 0,-4.14082 0,-6.21875 z"
             style="fill:#000000"
             inkscape:connector-curvature="0" />
          <path
             id="path4008"
             transform="translate(0,768.89763)"
             d="m 124.3125,126.46875 c 0,2.40129 -0.003,4.81745 0,7.21875 1.28765,-0.001 2.5561,0.001 3.84375,0 0.002,-2.4013 -0.001,-4.81891 0,-7.21875 -1.2787,-0.002 -2.56505,-2e-5 -3.84375,0 z m 0.46875,0.5 c 0.96573,0 1.94051,-0.004 2.90625,0 -0.001,2.07648 0.003,4.14226 0,6.21875 -0.96574,0.003 -1.94052,-0.003 -2.90625,0 -0.005,-2.07939 0,-4.14082 0,-6.21875 z"
             style="fill:#000000"
             inkscape:connector-curvature="0" />
          <path
             id="path4006"
             d="m 132.11283,895.35648 c 0,2.40129 -0.003,4.8189 0,7.21875 0.11423,-9e-5 0.22935,5e-5 0.34375,0 0.20915,-0.16448 0.41797,-0.33297 0.625,-0.5 -0.15647,-1e-5 -0.31129,-1.6e-4 -0.46875,0 -0.004,-2.07794 0,-4.14082 0,-6.21875 0.96574,0 1.90781,-0.006 2.875,0 -0.002,1.39921 -6.5e-4,2.79276 0,4.1875 0.16542,-0.14745 0.33613,-0.28835 0.5,-0.4375 -3.5e-4,-1.41826 -5.9e-4,-2.83711 0,-4.25 -1.2891,-0.002 -2.5859,0 -3.875,0 z"
             style="fill:#000000"
             inkscape:connector-curvature="0" />
          <path
             id="path4004"
             d="m 139.95658,895.35648 c 0,0.10395 1e-5,0.20849 0,0.3125 0.0952,-0.10324 0.18671,-0.20863 0.28125,-0.3125 -0.0941,2e-5 -0.18693,0 -0.28125,0 z"
             style="fill:#000000"
             inkscape:connector-curvature="0" />
          <path
             id="path4002"
             d="m 46.081576,895.45018 c 0.124625,0.13636 0.249209,0.27098 0.375,0.40625 -7.5e-5,-0.13517 8.4e-5,-0.27119 0,-0.40625 -0.125766,-1e-4 -0.249639,8e-5 -0.375,0 z"
             style="fill:#000000"
             inkscape:connector-curvature="0" />
          <path
             id="path4000"
             d="m 50.425326,895.45018 c -8.96e-4,1.43368 -1.75e-4,2.87331 0,4.3125 0.164395,0.14848 0.334056,0.29071 0.5,0.4375 l 0,-4.25 2.875003,0 0,6.21875 -0.5625,0 c 0.21373,0.17171 0.44027,0.331 0.65625,0.5 0.1353,-8e-5 0.2711,10e-5 0.40625,0 0.002,-2.39985 0.002,-4.8189 0,-7.21875 -1.2891,-0.001 -2.585901,-0.001 -3.875003,0 z"
             style="fill:#000000"
             inkscape:connector-curvature="0" />
          <path
             id="path3998"
             transform="translate(0,768.89763)"
             d="m 58.28125,126.5625 c -10e-4,2.39985 -10e-4,4.8189 0,7.21875 1.2891,0.001 2.55465,0.001 3.84375,0 0.002,-2.39985 0.002,-4.8189 0,-7.21875 -1.2891,-0.001 -2.55465,-0.001 -3.84375,0 z m 0.46875,0.5 2.90625,0 0,6.21875 -2.90625,0 0,-6.21875 z"
             style="fill:#000000"
             inkscape:connector-curvature="0" />
          <path
             id="path3996"
             transform="translate(0,768.89763)"
             d="m 66.09375,126.5625 c -0.001,2.39985 -0.001,4.8189 0,7.21875 1.2891,0.001 2.5859,0.001 3.875,0 0.001,-2.39985 0.001,-4.8189 0,-7.21875 -1.2891,-0.001 -2.5859,-0.001 -3.875,0 z m 0.5,0.5 2.875,0 0,6.21875 -2.875,0 0,-6.21875 z"
             style="fill:#000000"
             inkscape:connector-curvature="0" />
          <path
             id="path3994"
             transform="translate(0,768.89763)"
             d="m 75.375,126.5625 c -0.001,2.39985 -0.001,4.8189 0,7.21875 1.2891,0.001 2.5859,0.001 3.875,0 0.001,-2.39985 0.001,-4.8189 0,-7.21875 -1.2891,-0.001 -2.5859,-0.001 -3.875,0 z m 0.5,0.5 2.875,0 0,6.21875 -2.875,0 0,-6.21875 z"
             style="fill:#000000"
             inkscape:connector-curvature="0" />
          <path
             id="path3978"
             d="m 66.081579,908.98138 c -2.4e-4,0.40517 3e-5,0.81267 0,1.21875 0.16488,0.0773 0.33435,0.14277 0.5,0.21875 2.5e-4,-0.31262 -4.5e-4,-0.62424 0,-0.9375 0.96574,0.001 1.90927,0.001 2.875,0 10e-4,0.72049 -9e-5,1.43829 0,2.15625 0.16835,0.0674 0.33095,0.15278 0.5,0.21875 1.7e-4,-0.95945 4e-4,-1.91922 0,-2.875 l -3.875,0 z"
             style="fill:#000000"
             inkscape:connector-curvature="0" />
          <path
             id="path5819"
             d="m 75.362829,908.98138 c -6.5e-4,1.55834 -2.4e-4,3.12348 0,4.6875 0.16858,0.0488 0.33085,0.10878 0.5,0.15625 -7.4e-4,-1.44706 -0.002,-2.89233 0,-4.34375 0.96574,0.001 1.90926,0.001 2.875,0 0.002,1.70202 9.5e-4,3.39493 0,5.09375 0.16446,0.0379 0.33506,0.0571 0.5,0.0937 -2.2e-4,-1.89585 7.9e-4,-3.79672 0,-5.6875 l -3.875,0 z"
             style="fill:#000000"
             inkscape:connector-curvature="0" />
        </g>
        <path
           sodipodi:nodetypes="ssccsssccss"
           inkscape:connector-curvature="0"
           id="path6989"
           d="m 93.206519,787.95038 c -35.65467,0 -64.562498,29.04506 -64.562498,64.84375 0,32.13268 23.289466,58.78137 53.843748,63.90625 0.52051,-0.54466 1.04598,-1.07668 1.59375,-1.59375 -30.32403,-4.43064 -53.624998,-30.62803 -53.624998,-62.3125 0,-34.79526 28.107328,-62.96875 62.749998,-62.96875 34.643151,0 62.687501,28.17385 62.687501,62.96875 0,6.37439 -0.93617,12.5143 -2.6875,18.3125 0.76787,-0.52021 1.55322,-1.01219 2.34375,-1.5 1.43327,-5.36628 2.21875,-10.99188 2.21875,-16.8125 0,-35.79869 -28.90735,-64.84375 -64.562501,-64.84375 z"
           style="color:#000000;font-style:normal;font-variant:normal;font-weight:normal;font-stretch:normal;font-size:medium;line-height:normal;font-family:sans-serif;text-indent:0;text-align:start;text-decoration:none;text-decoration-line:none;letter-spacing:normal;word-spacing:normal;text-transform:none;direction:ltr;block-progression:tb;writing-mode:lr-tb;baseline-shift:baseline;text-anchor:start;display:inline;overflow:visible;visibility:visible;fill:#dc0067;fill-opacity:1;fill-rule:nonzero;stroke:none;enable-background:accumulate" />
        <path
           d="m 140.7832,243.43555 c -0.077,0.10511 -0.16052,0.21887 -0.26367,0.36328 -0.25315,0.36678 -0.56298,0.8152 -0.67969,0.99023 -0.0756,0.11338 -0.13709,0.17655 -0.20703,0.26367 0.0688,0.0512 0.12799,0.0943 0.20703,0.1543 a 0.40804127,0.40804127 0 0 1 0.002,0 c 1.17373,0.89757 2.58402,2.23749 3.34765,3.1582 0.13464,0.15811 0.2737,0.30105 0.25586,0.28321 l -0.0137,-0.0117 c 0.10052,0.0918 0.13908,0.15151 0.23047,0.26758 0.0914,0.11607 0.20214,0.26051 0.31836,0.41601 0.23243,0.311 0.4839,0.66059 0.63867,0.88867 a 0.40804127,0.40804127 0 0 1 0.002,0.002 c 2.35639,3.52672 3.59766,7.19419 3.81836,11.33008 0.1636,3.01318 -0.35404,6.11875 -1.49609,9.04492 -0.51239,1.31004 -1.17804,2.5793 -2.00781,3.85547 -0.0998,0.15225 -0.20712,0.31163 -0.29297,0.4414 -0.0859,0.12978 -0.16154,0.25608 -0.15625,0.2461 a 0.40804127,0.40804127 0 0 1 -0.006,0.008 c -0.0554,0.0986 -0.11009,0.16651 -0.19141,0.27539 -0.0813,0.10888 -0.17966,0.23671 -0.27734,0.36523 a 0.40804127,0.40804127 0 0 1 -0.002,0.004 c -1.20158,1.54939 -2.71838,3.06892 -4.20313,4.17187 a 0.40804127,0.40804127 0 0 1 -0.004,0.002 c -0.0964,0.0703 -0.16454,0.12506 -0.23828,0.18359 0.0127,0.0191 0.0195,0.0283 0.0332,0.0488 0.13598,0.20386 0.32014,0.47695 0.50586,0.75 0.18571,0.27305 0.37321,0.54679 0.51953,0.75781 0.0253,0.0364 0.04,0.0576 0.0625,0.0899 0.13619,-0.10426 0.27643,-0.20893 0.47461,-0.35938 1.42185,-1.08163 2.74223,-2.35133 3.86914,-3.7168 1.0021,-1.20663 1.5674,-2.03835 2.30468,-3.31836 3.46976,-6.03016 4.10871,-13.37499 1.72071,-19.93945 -1.58266,-4.34977 -4.39061,-8.09808 -8.27149,-11.01562 z m -28.04101,0.0801 c -0.11681,0.0961 -0.25069,0.2085 -0.46485,0.3711 -1.41994,1.08415 -2.74485,2.32323 -3.86914,3.68555 -1.00212,1.20663 -1.56741,2.03834 -2.30468,3.31835 -3.46977,6.03017 -4.10871,13.375 -1.72071,19.93946 1.58373,4.35275 4.39432,8.10309 8.2793,11.02148 0.0571,-0.0735 0.10874,-0.14111 0.18359,-0.24218 0.22649,-0.30584 0.51641,-0.71573 0.78321,-1.11719 0.0763,-0.11449 0.13568,-0.17681 0.20117,-0.25977 -0.0659,-0.0518 -0.12383,-0.0969 -0.20313,-0.1582 l -0.002,-0.002 c -1.17158,-0.89211 -2.60307,-2.19383 -3.37305,-3.1211 l -0.004,-0.004 c -0.0746,-0.088 -0.14299,-0.17159 -0.19336,-0.23438 -0.0256,-0.032 -0.0458,-0.0599 -0.0605,-0.0781 l 0.0117,0.01 c -0.10052,-0.0918 -0.13908,-0.15151 -0.23047,-0.26758 -0.0914,-0.11607 -0.20214,-0.26051 -0.31836,-0.41601 -0.23243,-0.311 -0.4839,-0.66059 -0.63867,-0.88867 a 0.40804127,0.40804127 0 0 1 -0.002,-0.002 c -2.35577,-3.52578 -3.59763,-7.16283 -3.81836,-11.29883 -0.1636,-3.01318 0.35405,-6.11876 1.49609,-9.04492 0.51367,-1.31332 1.2102,-2.61195 2.03906,-3.88672 0.19577,-0.29877 0.41194,-0.64486 0.41797,-0.65625 a 0.40804127,0.40804127 0 0 1 0.006,-0.008 c 0.0893,-0.15891 0.26381,-0.4022 0.46875,-0.67187 a 0.40804127,0.40804127 0 0 1 0.002,-0.004 c 1.20206,-1.55527 2.71886,-3.06929 4.20313,-4.17188 a 0.40804127,0.40804127 0 0 1 0.002,0 c 0.11406,-0.0839 0.17844,-0.13803 0.25196,-0.19726 -0.0265,-0.0391 -0.0449,-0.0658 -0.0762,-0.11133 -0.14668,-0.21358 -0.33973,-0.4908 -0.5332,-0.76367 -0.19313,-0.2724 -0.3874,-0.54099 -0.5332,-0.74024 z m 24.35351,5.16407 c -0.37267,0.53485 -0.89601,1.29001 -1.10742,1.58789 -0.0185,0.0264 -0.0277,0.0418 -0.0449,0.0664 0.54086,0.42914 1.20803,0.98696 1.625,1.40821 2.82933,2.81869 4.43359,6.73632 4.43359,10.75781 0,1.41948 -0.10096,2.4671 -0.44922,3.84961 a 0.40804127,0.40804127 0 0 1 -0.002,0 c -0.39924,1.57032 -1.07991,3.12423 -1.95898,4.4668 -0.15245,0.23886 -0.33091,0.51635 -0.35547,0.55859 -0.11775,0.22679 -0.32359,0.48541 -0.59571,0.81836 -0.27211,0.33294 -0.59373,0.70015 -0.8789,0.99609 a 0.40804127,0.40804127 0 0 1 -0.002,0.002 c -0.4749,0.48592 -1.48671,1.36342 -2.06446,1.78125 l 0.13867,-0.11133 0.56446,0.8125 c 0.21165,0.29972 0.41449,0.56731 0.56445,0.75781 0.0126,0.0159 0.0175,0.0223 0.0293,0.0371 0.092,-0.0665 0.18297,-0.13097 0.35156,-0.25977 l 0.002,-0.002 c 3.36415,-2.62245 5.64293,-6.34085 6.41016,-10.5 0.22331,-1.20794 0.30388,-2.1827 0.27344,-3.60351 -0.008,-0.35346 -0.0197,-0.69842 -0.0312,-0.9668 -0.0116,-0.26838 -0.0293,-0.50231 -0.0274,-0.48828 -0.33832,-2.1971 -0.55852,-2.99158 -1.16211,-4.53125 a 0.40804127,0.40804127 0 0 1 -0.002,0 c -0.41007,-1.0524 -1.42478,-2.97146 -1.8418,-3.48633 a 0.40804127,0.40804127 0 0 1 -0.008,-0.008 c -0.0361,-0.0473 -0.35792,-0.43532 -0.65234,-0.8086 a 0.40804127,0.40804127 0 0 1 -0.002,0 c -0.62936,-0.80636 -1.94547,-2.15388 -2.80664,-2.83789 a 0.40804127,0.40804127 0 0 1 0,-0.002 c -0.14862,-0.1185 -0.28107,-0.2108 -0.40039,-0.29492 z m -20.64258,0.13476 c -0.10788,0.0773 -0.22719,0.16229 -0.43359,0.32422 -0.28235,0.22153 -0.59941,0.47954 -0.81055,0.66602 -2.89419,2.57599 -4.83045,6.02344 -5.52734,9.80078 -0.22366,1.20979 -0.30403,2.15209 -0.27344,3.57422 0.008,0.35015 0.0197,0.69437 0.0312,0.96289 0.0116,0.26906 0.0294,0.50504 0.0274,0.49023 0.33832,2.1971 0.55852,2.99158 1.16211,4.53125 a 0.40804127,0.40804127 0 0 1 0.002,0 c 0.40767,1.04618 1.45087,2.96508 1.87305,3.48633 a 0.40804127,0.40804127 0 0 1 0.008,0.008 c 0.0685,0.0896 0.33521,0.44048 0.62305,0.81055 0.62582,0.80157 1.97343,2.14932 2.83789,2.83594 a 0.40804127,0.40804127 0 0 1 0,0.002 c 0.14996,0.11956 0.27442,0.21207 0.38867,0.29688 0.36737,-0.53289 0.87105,-1.28501 1.08594,-1.5879 l 0.002,-0.002 c 0.0185,-0.0265 0.0277,-0.0418 0.0449,-0.0664 -0.54086,-0.42914 -1.20803,-0.98697 -1.625,-1.40821 -2.82933,-2.81869 -4.43359,-6.73632 -4.43359,-10.75781 0,-1.42554 0.13365,-2.47282 0.48047,-3.84961 a 0.40804127,0.40804127 0 0 1 0.002,0 c 0.39889,-1.56891 1.07909,-3.12114 1.95703,-4.46289 l 0.002,-0.004 c 0.13878,-0.21795 0.2658,-0.4542 0.32422,-0.55859 0.11774,-0.22674 0.32359,-0.48541 0.59571,-0.81836 0.27211,-0.33295 0.59371,-0.70015 0.8789,-0.99609 a 0.40804127,0.40804127 0 0 1 0.002,-0.002 c 0.44067,-0.45091 1.32593,-1.20681 1.91602,-1.65234 l -0.55273,-0.79688 -0.002,-0.002 c -0.21614,-0.30618 -0.41359,-0.5854 -0.55859,-0.78711 -0.0115,-0.016 -0.0165,-0.0222 -0.0273,-0.0371 z m 16.81446,5.33985 c -0.0217,0.0302 -0.0375,0.0497 -0.0606,0.082 -0.1512,0.22401 -0.36816,0.53599 -0.49805,0.71484 -0.13644,0.1958 -0.38306,0.51038 -0.53125,0.72071 l -0.0723,0.10546 -0.0234,-0.0215 -0.0137,-0.01 c 0.56149,0.45374 1.37995,1.29517 1.74023,1.8418 0.90812,1.37819 1.38508,2.70992 1.53516,4.3125 0.17029,1.75748 -0.32682,3.78159 -1.3125,5.32031 a 0.40804127,0.40804127 0 0 1 -0.006,0.008 c -0.0498,0.0735 -0.093,0.14205 -0.12109,0.18945 -0.0141,0.0237 -0.024,0.0443 -0.0274,0.0508 -0.002,0.003 -0.002,0.002 0.002,-0.008 0.002,-0.005 0.004,-0.0122 0.01,-0.0293 0.003,-0.009 0.006,-0.0197 0.01,-0.0371 0.004,-0.0174 0.01,-0.0825 0.01,-0.082 0,0.12213 -0.0253,0.15036 -0.0391,0.18164 -0.0137,0.0313 -0.0271,0.052 -0.0391,0.0723 -0.0239,0.0404 -0.0475,0.0771 -0.0762,0.11718 -0.0574,0.0802 -0.12948,0.17291 -0.21289,0.27539 -0.16684,0.20498 -0.37454,0.44248 -0.5586,0.63477 a 0.40804127,0.40804127 0 0 1 -0.002,0.004 c -0.22303,0.22891 -0.57379,0.52982 -0.82422,0.72461 l -0.11328,0.0957 0.57226,0.84765 0.5625,0.77735 c 0.55655,-0.42281 1.40779,-1.20575 1.87891,-1.79688 a 0.40804127,0.40804127 0 0 1 0,-0.002 c 0.53676,-0.6684 0.84891,-1.13693 1.20508,-1.83398 l 0,-0.002 c 1.22477,-2.41572 1.49321,-5.18662 0.75195,-7.76367 -0.22072,-0.76749 -0.37732,-1.07766 -0.7539,-1.83594 l 0,-0.002 c -0.52022,-1.03508 -1.10202,-1.84858 -1.95313,-2.70508 l -0.002,-0.002 c -0.25841,-0.2558 -0.58253,-0.55554 -0.84766,-0.78711 -0.0753,-0.0658 -0.12699,-0.10648 -0.18945,-0.1582 z m -13.01563,0.0976 c -0.88542,0.67727 -1.84471,1.6551 -2.50781,2.63282 -0.31717,0.46886 -0.82077,1.50492 -1.04883,2.13085 -0.78819,2.15012 -0.8929,4.45856 -0.27148,6.6211 0.22171,0.77093 0.37857,1.11334 0.7539,1.86914 0.51879,1.0322 1.09865,1.81401 1.95313,2.67383 0.25871,0.25619 0.58385,0.55693 0.84961,0.78906 0.0753,0.0658 0.12699,0.10648 0.18945,0.1582 0.0205,-0.0288 0.035,-0.0472 0.0566,-0.0781 l 0.002,-0.002 c 0.14721,-0.21325 0.36686,-0.53336 0.5,-0.7168 0.136,-0.19516 0.38093,-0.50842 0.52929,-0.71875 l 0.002,-0.002 0.0566,-0.082 0.0527,0.0391 c -0.5693,-0.46004 -1.38467,-1.33354 -1.74023,-1.87305 -0.90773,-1.3776 -1.38489,-2.70885 -1.53516,-4.31055 l 0,-0.002 c -0.17031,-1.75749 0.32683,-3.7816 1.3125,-5.32031 a 0.40804127,0.40804127 0 0 1 0.006,-0.008 c 0.0498,-0.0735 0.093,-0.14205 0.12109,-0.18945 0.0141,-0.0237 0.024,-0.0443 0.0274,-0.0508 0.002,-0.003 0.002,-0.002 -0.002,0.008 -0.002,0.005 -0.004,0.0122 -0.01,0.0293 -0.003,0.009 -0.006,0.0178 -0.01,0.0352 -0.004,0.0174 -0.01,0.0845 -0.01,0.084 0,-0.12213 0.0253,-0.15036 0.0391,-0.18164 0.0138,-0.0313 0.0271,-0.052 0.0391,-0.0723 0.0239,-0.0404 0.0475,-0.0771 0.0762,-0.11718 0.0574,-0.0802 0.12948,-0.17291 0.21289,-0.27539 0.16684,-0.20498 0.37454,-0.44247 0.5586,-0.63477 a 0.40804127,0.40804127 0 0 1 0.002,-0.004 c 0.21936,-0.22513 0.56108,-0.51791 0.81055,-0.71289 l 0.0137,-0.0117 0.10937,-0.0937 -0.56835,-0.81835 -0.002,-0.002 c -0.21424,-0.30601 -0.41264,-0.58167 -0.55859,-0.78125 -0.004,-0.005 -0.006,-0.007 -0.01,-0.0117 z"
           id="path6715"
           style="fill:#ffb400;fill-opacity:1"
           inkscape:original="M 140.6875 242.90625 C 140.6565 242.90625 140.44594 243.20067 140.1875 243.5625 C 139.93422 243.92949 139.62406 244.37643 139.5 244.5625 C 139.37594 244.74858 139.20795 244.94832 139.15625 245 C 139.10455 245.0569 139.0625 245.10949 139.0625 245.125 C 139.0625 245.1405 139.31463 245.31933 139.59375 245.53125 C 140.73608 246.4048 142.1462 247.74628 142.875 248.625 C 143.01974 248.79557 143.14074 248.92199 143.15625 248.9375 C 143.27514 249.04608 143.98663 250.00332 144.28125 250.4375 C 146.60208 253.911 147.81417 257.49458 148.03125 261.5625 C 148.19149 264.51394 147.68416 267.56358 146.5625 270.4375 C 146.06113 271.71937 145.41044 272.96271 144.59375 274.21875 C 144.39733 274.51854 144.17153 274.84963 144.125 274.9375 C 144.0785 275.0202 143.88391 275.27281 143.6875 275.53125 C 142.50899 277.0509 141.00979 278.54987 139.5625 279.625 C 139.25753 279.84726 139.03125 280.04183 139.03125 280.0625 C 139.03125 280.0935 140.47979 282.22462 140.5625 282.3125 C 140.5884 282.3384 140.66734 282.3122 140.75 282.25 C 140.8275 282.1879 141.12711 281.96192 141.40625 281.75 C 142.85354 280.64902 144.19624 279.35918 145.34375 277.96875 C 146.35684 276.74889 146.94317 275.88599 147.6875 274.59375 C 151.21785 268.45828 151.86689 260.99072 149.4375 254.3125 C 147.81446 249.85175 144.9279 246.00337 140.9375 243.03125 C 140.83408 242.95365 140.71852 242.91142 140.6875 242.90625 z M 112.8125 242.9375 C 112.797 242.9425 112.72858 243.00562 112.65625 243.0625 C 112.58385 243.1194 112.31037 243.35057 112.03125 243.5625 C 110.58912 244.66347 109.24125 245.92206 108.09375 247.3125 C 107.08064 248.53236 106.49432 249.39526 105.75 250.6875 C 102.21964 256.82297 101.57061 264.29053 104 270.96875 C 105.62303 275.42952 108.50961 279.27788 112.5 282.25 C 112.60343 282.3275 112.71898 282.36982 112.75 282.375 C 112.7965 282.375 113.42601 281.53544 113.96875 280.71875 C 114.0928 280.53267 114.22956 280.36418 114.28125 280.3125 C 114.33295 280.2556 114.375 280.17176 114.375 280.15625 C 114.375 280.14075 114.14893 279.96192 113.875 279.75 C 112.72749 278.87646 111.29131 277.5662 110.5625 276.6875 C 110.41776 276.51693 110.29676 276.35926 110.28125 276.34375 C 110.16236 276.23517 109.45088 275.27794 109.15625 274.84375 C 106.83542 271.37025 105.62335 267.81792 105.40625 263.75 C 105.24601 260.79856 105.75335 257.74891 106.875 254.875 C 107.37637 253.59312 108.05832 252.31854 108.875 251.0625 C 109.07143 250.76271 109.26598 250.46286 109.3125 250.375 C 109.359 250.2923 109.55359 250.00845 109.75 249.75 C 110.92852 248.22518 112.42769 246.73138 113.875 245.65625 C 114.22647 245.39781 114.42175 245.22885 114.40625 245.1875 C 114.36485 245.07377 112.84869 242.9375 112.8125 242.9375 z M 137 248.125 C 136.9845 248.125 136.93189 248.19855 136.875 248.28125 C 136.50284 248.81364 135.88369 249.71079 135.65625 250.03125 C 135.51151 250.23801 135.3959 250.40107 135.40625 250.40625 C 135.94381 250.80942 136.81606 251.56088 137.28125 252.03125 C 140.03111 254.77077 141.59375 258.58714 141.59375 262.5 C 141.59375 263.90077 141.49739 264.89575 141.15625 266.25 C 140.76858 267.77482 140.10288 269.29119 139.25 270.59375 C 139.09494 270.83669 138.92151 271.1048 138.875 271.1875 C 138.73544 271.4563 138.01664 272.33766 137.46875 272.90625 C 137.02422 273.3611 135.96989 274.27374 135.4375 274.65625 L 135.28125 274.78125 L 136.0625 275.90625 C 136.49669 276.52135 136.89075 277 136.90625 277 C 136.97345 276.995 137.13373 276.88274 137.59375 276.53125 C 141.03623 273.8486 143.37057 270.04042 144.15625 265.78125 C 144.38367 264.55106 144.46851 263.53587 144.4375 262.09375 C 144.422 261.38045 144.3906 260.70745 144.375 260.59375 C 144.03385 258.37629 143.79743 257.52459 143.1875 255.96875 C 142.7585 254.86777 141.78781 253.00043 141.28125 252.375 C 141.21405 252.2871 140.91446 251.92949 140.625 251.5625 C 139.96338 250.71481 138.65456 249.37472 137.75 248.65625 C 137.36749 248.35128 137.01551 248.125 137 248.125 z M 116.5625 248.28125 C 116.5418 248.28625 116.46828 248.30755 116.40625 248.34375 C 116.21501 248.45749 115.38203 249.10715 114.9375 249.5 C 111.97573 252.13614 109.99456 255.66492 109.28125 259.53125 C 109.05382 260.76145 108.96898 261.74539 109 263.1875 C 109.0155 263.89563 109.0469 264.57378 109.0625 264.6875 C 109.40365 266.90496 109.64008 267.75666 110.25 269.3125 C 110.67903 270.41349 111.68095 272.28082 112.1875 272.90625 C 112.2547 272.99415 112.52305 273.3466 112.8125 273.71875 C 113.47413 274.56645 114.81419 275.90653 115.71875 276.625 C 116.10126 276.92996 116.422 277.15625 116.4375 277.15625 C 116.453 277.15625 116.50561 277.11395 116.5625 277.03125 C 116.93466 276.49886 117.5538 275.57046 117.78125 275.25 C 117.92598 275.04324 118.04158 274.88016 118.03125 274.875 C 117.49369 274.47182 116.62145 273.72037 116.15625 273.25 C 113.40639 270.51048 111.84375 266.69411 111.84375 262.78125 C 111.84375 261.38049 111.97136 260.38551 112.3125 259.03125 C 112.70018 257.50643 113.36587 255.99007 114.21875 254.6875 C 114.37381 254.44457 114.51599 254.17645 114.5625 254.09375 C 114.70207 253.82497 115.42085 252.94357 115.96875 252.375 C 116.41328 251.92013 117.46761 251.00749 118 250.625 L 118.15625 250.53125 L 117.375 249.40625 C 116.94081 248.79116 116.578 248.28125 116.5625 248.28125 z M 133.1875 253.59375 C 133.1668 253.59375 133.03006 253.78291 132.875 254 C 132.72511 254.22227 132.49906 254.54819 132.375 254.71875 C 132.25613 254.88933 132.00398 255.21008 131.84375 255.4375 L 131.5625 255.84375 L 131.8125 256.0625 C 132.32422 256.47602 133.16895 257.35764 133.46875 257.8125 C 134.34747 259.14608 134.79277 260.392 134.9375 261.9375 C 135.09774 263.58638 134.61792 265.54754 133.6875 267 C 133.57893 267.16024 133.5 267.29699 133.5 267.3125 C 133.5 267.3797 133.03382 267.95068 132.6875 268.3125 C 132.49108 268.5141 132.13884 268.81909 131.90625 269 L 131.5 269.34375 L 132.28125 270.5 L 133.09375 271.625 L 133.25 271.53125 C 133.84959 271.11257 134.8271 270.18746 135.375 269.5 C 135.92291 268.81771 136.258 268.31222 136.625 267.59375 C 137.89654 265.08683 138.17641 262.20876 137.40625 259.53125 C 137.17881 258.74041 137.00234 258.38482 136.625 257.625 C 136.08743 256.55503 135.47246 255.69639 134.59375 254.8125 C 134.06136 254.28528 133.28054 253.59375 133.1875 253.59375 z M 120.34375 253.6875 C 120.32825 253.677 120.21757 253.75615 120.0625 253.875 C 119.12177 254.58313 118.11439 255.61213 117.40625 256.65625 C 117.0496 257.18347 116.55545 258.2082 116.3125 258.875 C 115.49583 261.10279 115.38514 263.50154 116.03125 265.75 C 116.25869 266.54085 116.43517 266.92768 116.8125 267.6875 C 117.35007 268.75747 117.96503 269.58487 118.84375 270.46875 C 119.37614 270.99597 120.15696 271.6875 120.25 271.6875 C 120.2707 271.6875 120.40743 271.50352 120.5625 271.28125 C 120.71238 271.06416 120.93844 270.73307 121.0625 270.5625 C 121.18137 270.39193 121.43351 270.07117 121.59375 269.84375 L 121.875 269.4375 L 121.625 269.25 C 121.11329 268.8365 120.26854 267.92363 119.96875 267.46875 C 119.09004 266.13519 118.64472 264.88925 118.5 263.34375 C 118.33975 261.69487 118.81959 259.7337 119.75 258.28125 C 119.85858 258.121 119.9375 257.98425 119.9375 257.96875 C 119.9375 257.90155 120.40368 257.33058 120.75 256.96875 C 120.94642 256.76716 121.29866 256.46216 121.53125 256.28125 L 121.9375 255.9375 L 121.15625 254.8125 C 120.72206 254.19223 120.35409 253.70301 120.34375 253.6875 z "
           inkscape:radius="-0.40800047"
           sodipodi:type="inkscape:offset"
           transform="translate(-33.593749,561.31806)" />
      </g>
      <g
         id="g3851"
         transform="translate(-381.36154,-434.29602)">
        <path
           d="m 168.38376,937.23491 18.01227,-18.09426 16.96311,0 -12.00778,12.0631 24.03666,-2.2e-4 0,12.06118 -24.03666,0 12.00778,12.06278 -16.96311,0 -18.01227,-18.09417 z"
           id="path7-7-3-8-7"
           style="fill:#ffb400;fill-opacity:1"
           inkscape:connector-curvature="0" />
        <path
           style="color:#000000;font-style:normal;font-variant:normal;font-weight:normal;font-stretch:normal;font-size:medium;line-height:normal;font-family:sans-serif;text-indent:0;text-align:start;text-decoration:none;text-decoration-line:none;letter-spacing:normal;word-spacing:normal;text-transform:none;direction:ltr;block-progression:tb;writing-mode:lr-tb;baseline-shift:baseline;text-anchor:start;display:inline;overflow:visible;visibility:visible;fill:#dc0067;fill-opacity:1;fill-rule:nonzero;stroke:none;enable-background:accumulate"
           d="m 189.5868,878.64258 c -25.72526,0 -46.59553,20.95966 -46.59553,46.78675 0,25.8272 20.87029,46.78895 46.59553,46.78895 25.72535,0 46.59554,-20.96175 46.59554,-46.78895 0,-25.82709 -20.87018,-46.78675 -46.59554,-46.78675 z m 0,1.89679 c 24.69605,0 44.69874,20.08354 44.69874,44.88996 0,24.80653 -20.00268,44.89216 -44.69874,44.89216 -24.69595,0 -44.69874,-20.08563 -44.69874,-44.89216 0,-24.80641 20.0028,-44.88996 44.69874,-44.88996 z"
           id="path6-4-7-4-9"
           inkscape:connector-curvature="0" />
        <path
           style="color:#000000;font-style:normal;font-variant:normal;font-weight:normal;font-stretch:normal;font-size:medium;line-height:normal;font-family:sans-serif;text-indent:0;text-align:start;text-decoration:none;text-decoration-line:none;letter-spacing:normal;word-spacing:normal;text-transform:none;direction:ltr;block-progression:tb;writing-mode:lr-tb;baseline-shift:baseline;text-anchor:start;display:inline;overflow:visible;visibility:visible;fill:#dc0067;fill-opacity:1;fill-rule:nonzero;stroke:none;enable-background:accumulate"
           d="m 189.5868,859.94501 c -35.9734,0 -65.23374,29.39773 -65.23374,65.48432 0,36.08648 29.26034,65.4865 65.23374,65.4865 35.9737,0 65.23375,-29.40002 65.23375,-65.4865 0,-36.08659 -29.26005,-65.48432 -65.23375,-65.48432 z m 0,11.33899 c 29.81949,0 53.89257,24.16136 53.89257,54.14533 0,29.98384 -24.07308,54.14533 -53.89257,54.14532 -29.81912,0 -53.89477,-24.16148 -53.89477,-54.14532 0,-29.98397 24.07565,-54.14533 53.89477,-54.14533 z"
           id="path5-2-4-3-2"
           inkscape:connector-curvature="0" />
      </g>
      <g
         id="g3847"
         transform="translate(-381.36154,-434.29602)">
        <path
           d="m 114.95751,937.23491 -10.63816,-10.68658 -10.018741,0 7.091881,7.12451 -14.194871,2e-4 0,7.12608 14.194871,0 -7.091881,7.12451 10.018741,0 10.63816,-10.68681 z"
           id="path4-0-4-2-3"
           style="fill:#ffb400;fill-opacity:1"
           inkscape:connector-curvature="0" />
        <path
           inkscape:connector-curvature="0"
           id="path6054"
           d="m 113.85587,903.25909 c -24.012281,0 -43.494291,19.56749 -43.494291,43.67452 0,24.10723 19.482,43.67232 43.494291,43.67232 24.0126,0 43.49429,-19.56509 43.49429,-43.67232 0,-24.10702 -19.4817,-43.67452 -43.49429,-43.67452 z m 0,1.89679 c 22.98331,0 41.59751,18.6914 41.59751,41.77773 0,23.08655 -18.61421,41.77553 -41.59751,41.77553 -22.982961,0 -41.597501,-18.68898 -41.597501,-41.77553 0,-23.08634 18.61452,-41.77773 41.597501,-41.77773 z"
           style="color:#000000;font-style:normal;font-variant:normal;font-weight:normal;font-stretch:normal;font-size:medium;line-height:normal;font-family:sans-serif;text-indent:0;text-align:start;text-decoration:none;text-decoration-line:none;letter-spacing:normal;word-spacing:normal;text-transform:none;direction:ltr;block-progression:tb;writing-mode:lr-tb;baseline-shift:baseline;text-anchor:start;display:inline;overflow:visible;visibility:visible;fill:#dc0067;fill-opacity:1;fill-rule:nonzero;stroke:none;enable-background:accumulate" />
      </g>
    </g>
  </g>
</svg>
