<?xml version="1.0" encoding="UTF-8" standalone="no"?>
<!-- Created with Inkscape (http://www.inkscape.org/) -->

<svg
   xmlns:dc="http://purl.org/dc/elements/1.1/"
   xmlns:cc="http://creativecommons.org/ns#"
   xmlns:rdf="http://www.w3.org/1999/02/22-rdf-syntax-ns#"
   xmlns:svg="http://www.w3.org/2000/svg"
   xmlns="http://www.w3.org/2000/svg"
   xmlns:xlink="http://www.w3.org/1999/xlink"
   xmlns:sodipodi="http://sodipodi.sourceforge.net/DTD/sodipodi-0.dtd"
   xmlns:inkscape="http://www.inkscape.org/namespaces/inkscape"
   id="svg3248"
   version="1.1"
   inkscape:version="0.91 r13725"
   width="531.49624"
   height="379.13376"
   xml:space="preserve"
   sodipodi:docname="Postkarte FFKA Rückseite.svg"
   inkscape:export-filename="C:\Users\Timo\Desktop\Postkarte FFKA Rückseite.png"
   inkscape:export-xdpi="99.938347"
   inkscape:export-ydpi="99.938347"><metadata
     id="metadata3254"><rdf:RDF><cc:Work
         rdf:about=""><dc:format>image/svg+xml</dc:format><dc:type
           rdf:resource="http://purl.org/dc/dcmitype/StillImage" /><dc:title /></cc:Work></rdf:RDF></metadata><defs
     id="defs3252"><clipPath
       clipPathUnits="userSpaceOnUse"
       id="clipPath3262"><path
         d="m 0,0 425.19699,0 0,303.30701 L 0,303.30701 0,0 z"
         id="path3264" /></clipPath></defs><sodipodi:namedview
     pagecolor="#ffffff"
     bordercolor="#666666"
     borderopacity="1"
     objecttolerance="10"
     gridtolerance="10"
     guidetolerance="10"
     inkscape:pageopacity="0"
     inkscape:pageshadow="2"
     inkscape:window-width="1440"
     inkscape:window-height="851"
     id="namedview3250"
     showgrid="false"
     inkscape:zoom="1.2445079"
     inkscape:cx="158.61023"
     inkscape:cy="183.50891"
     inkscape:window-x="0"
     inkscape:window-y="0"
     inkscape:window-maximized="1"
     inkscape:current-layer="g3258" /><g
     id="g3256"
     inkscape:groupmode="layer"
     inkscape:label="postcard_template_A6_RS[1]"
     transform="matrix(1.25,0,0,-1.25,0,379.13376)"><g
       id="g3258"><g
         id="g3260"
         clip-path="url(#clipPath3262)"><path
           d="m 354.15399,215.433 53.73999,0 0,70.86601 -53.73999,0 0,-70.86601 z"
           style="fill:#d3d2d2;fill-opacity:1;fill-rule:nonzero;stroke:none"
           id="path3266" /><path
           d="m 212.62199,44.668999 3.35401,0 0.34079,210.633661 -3.6948,0 z"
           style="fill:#231f20;fill-opacity:1;fill-rule:nonzero;stroke:none"
           id="path3268"
           inkscape:connector-curvature="0"
           sodipodi:nodetypes="ccccc" /><path
           d="m 229.77499,157.3228 178.11899,0"
           style="fill:none;stroke:#d3d2d2;stroke-opacity:1;stroke-width:0.75;stroke-linecap:butt;stroke-linejoin:miter;stroke-miterlimit:4;stroke-dasharray:none"
           id="path3270" /><path
           d="m 229.77499,126.8504 178.11899,0"
           style="fill:none;stroke:#d3d2d2;stroke-opacity:1;stroke-width:0.75;stroke-linecap:butt;stroke-linejoin:miter;stroke-miterlimit:4;stroke-dasharray:none"
           id="path3272" /><path
           d="m 229.77499,97.795303 178.11899,0"
           style="fill:none;stroke:#d3d2d2;stroke-opacity:1;stroke-width:0.75;stroke-linecap:butt;stroke-linejoin:miter;stroke-miterlimit:4;stroke-dasharray:none"
           id="path3274" /><path
           d="m 229.77499,67.3228 178.11899,0"
           style="fill:none;stroke:#d3d2d2;stroke-opacity:1;stroke-width:0.75;stroke-linecap:butt;stroke-linejoin:miter;stroke-miterlimit:4;stroke-dasharray:none"
           id="path3276" /><text
           xml:space="preserve"
           style="font-size:12px;font-style:normal;font-weight:normal;line-height:125%;letter-spacing:0px;word-spacing:0px;fill:#000000;fill-opacity:1;stroke:none;font-family:Sans"
           x="447.40997"
           y="48.194969"
           id="text3583"
           sodipodi:linespacing="125%"
           transform="matrix(0.8,0,0,-0.8,0,303.30701)"><tspan
             sodipodi:role="line"
             id="tspan3585"
             x="447.40997"
             y="48.194969"
             style="font-size:9px" /></text>
<text
           xml:space="preserve"
           style="font-size:9.60000038px;font-style:normal;font-weight:normal;line-height:125%;letter-spacing:0px;word-spacing:0px;fill:#000000;fill-opacity:1;stroke:none;font-family:Arial;-inkscape-font-specification:Arial;font-stretch:normal;font-variant:normal;"
           x="380.54617"
           y="-270.53442"
           id="text3587"
           sodipodi:linespacing="125%"
           transform="scale(1,-1)"><tspan
             sodipodi:role="line"
             id="tspan3589"
             x="380.54617"
             y="-270.53442"
             style="font-size:6.4000001px;text-align:center;text-anchor:middle;-inkscape-font-specification:Arial;font-family:Arial;font-weight:normal;font-style:normal;font-stretch:normal;font-variant:normal;">Bitte freimachen</tspan><tspan
             sodipodi:role="line"
             x="380.54617"
             y="-262.53442"
             id="tspan3591"
             style="font-size:6.4000001px;text-align:center;text-anchor:middle;-inkscape-font-specification:Arial;font-family:Arial;font-weight:normal;font-style:normal;font-stretch:normal;font-variant:normal;" /><tspan
             sodipodi:role="line"
             x="381.43369"
             y="-254.53442"
             style="font-size:6.4000001px;text-align:center;text-anchor:middle;-inkscape-font-specification:Arial;font-family:Arial;font-weight:normal;font-style:normal;font-stretch:normal;font-variant:normal;"
             id="tspan3603">... oder besser </tspan><tspan
             sodipodi:role="line"
             x="381.43369"
             y="-246.53442"
             style="font-size:6.4000001px;text-align:center;text-anchor:middle;-inkscape-font-specification:Arial;font-family:Arial;font-weight:normal;font-style:normal;font-stretch:normal;font-variant:normal;"
             id="tspan3601">direkt beim </tspan><tspan
             sodipodi:role="line"
             x="381.43369"
             y="-238.53442"
             style="font-size:6.4000001px;text-align:center;text-anchor:middle;-inkscape-font-specification:Arial;font-family:Arial;font-weight:normal;font-style:normal;font-stretch:normal;font-variant:normal;"
             id="tspan5230">Nachbarn </tspan><tspan
             sodipodi:role="line"
             x="380.54617"
             y="-230.53442"
             style="font-size:6.4000001px;text-align:center;text-anchor:middle;-inkscape-font-specification:Arial;font-family:Arial;font-weight:normal;font-style:normal;font-stretch:normal;font-variant:normal;"
             id="tspan3595">einwerfen ;-)</tspan></text>
<g
           transform="matrix(0.27816478,0,0,-0.27816478,252.34208,507.92346)"
           id="g3811"><path
             inkscape:connector-curvature="0"
             d="m 142.97626,1032.3895 4.06665,0 0,-15.3862 1.2501,0 0,-3.0215 -1.2501,0 0,-0.355 c -0.0115,-0.3861 0.0437,-0.6712 0.16853,-0.8554 0.12394,-0.1843 0.38844,-0.2758 0.79305,-0.2744 l 0.28852,0 0,-3.0216 -1.69824,0 c -1.29956,-0.023 -2.23093,0.2077 -2.794,0.6911 -0.56308,0.4836 -0.83781,1.3573 -0.82451,2.621 l 0,1.1943 -0.96167,0 0,3.0215 0.96167,0 0,15.3862 z"
             id="f-6-9-0-6"
             style="fill:#000000;fill-opacity:1" /><path
             inkscape:connector-curvature="0"
             d="m 153.63602,1013.9818 -4.0669,0 0,18.4077 4.0669,0 0,-14.3239 c -0.008,-0.2373 0.0446,-0.4547 0.14855,-0.6518 0.1038,-0.1972 0.28992,-0.3016 0.55845,-0.3139 0.26994,0.012 0.46144,0.1167 0.57456,0.3139 0.11329,0.1971 0.16812,0.4145 0.16466,0.6518 l 0,5.8261 4.06688,0 0,-6.9204 c 0.0206,-1.0058 -0.14879,-1.7908 -0.5084,-2.3549 -0.35969,-0.564 -1.03343,-0.8506 -2.02144,-0.86 -0.69982,0.01 -1.28627,0.1641 -1.75901,0.4782 -0.47249,0.314 -0.85936,0.755 -1.16017,1.3223 l -0.0644,0 0,-1.5751 z"
             id="r-7-6-2-4"
             style="fill:#000000;fill-opacity:1" /><path
             inkscape:connector-curvature="0"
             d="m 160.91911,1028.4656 c 0.0363,1.3834 0.50767,2.4208 1.41329,3.1121 0.90551,0.6915 2.0258,1.037 3.36062,1.037 1.32211,0 2.4438,-0.3455 3.36443,-1.037 0.92112,-0.6913 1.40154,-1.7287 1.44144,-3.1121 l 0,-3.379 -4.06666,0 0,3.5401 c 0,0.2377 -0.0513,0.455 -0.16465,0.6524 -0.1133,0.1972 -0.30461,0.302 -0.57456,0.3141 -0.26853,-0.012 -0.45482,-0.1169 -0.55845,-0.3141 -0.10404,-0.1974 -0.15342,-0.4147 -0.1488,-0.6524 l 0,-4.7993 5.51312,0 0,-5.9217 c -0.0396,-1.3834 -0.52031,-2.4208 -1.44144,-3.1123 -0.92062,-0.6912 -2.04232,-1.037 -3.36443,-1.037 -1.33482,0 -2.45511,0.3458 -3.36062,1.037 -0.90561,0.6915 -1.37678,1.7289 -1.41327,3.1123 l 0,10.5599 z m 4.06666,-7.4025 0,-3.3185 c -0.008,-0.2375 0.0446,-0.455 0.14879,-0.6524 0.10364,-0.1974 0.28993,-0.302 0.55846,-0.314 0.26994,0.012 0.46126,0.1166 0.57456,0.314 0.11304,0.1974 0.16787,0.4149 0.16465,0.6524 l 0,3.3185 -1.44646,0 z"
             id="e-4-4-4-1"
             style="fill:#000000;fill-opacity:1" /><path
             inkscape:connector-curvature="0"
             d="m 176.43181,1032.3895 0,-18.4077 -4.06665,0 0,18.4077 4.06665,0 z m 0,-19.4417 0,-3.4724 -4.06665,0 0,3.4724 4.06665,0 z"
             id="i-0-3-8-3"
             style="fill:#000000;fill-opacity:1" /><use
             height="234"
             width="243"
             y="0"
             x="0"
             transform="translate(35.897125,0)"
             id="f2-5-9-6-6"
             xlink:href="#f-6-9-0-6"
             style="fill:#000000;fill-opacity:1" /><path
             inkscape:connector-curvature="0"
             d="m 190.98445,1032.3894 4.0669,0 0,-18.4077 -4.0669,0 0,14.3239 c 0.008,0.2373 -0.0446,0.4547 -0.14855,0.6518 -0.1038,0.1972 -0.29008,0.3016 -0.55845,0.3139 -0.26994,-0.012 -0.46143,-0.1167 -0.57456,-0.3139 -0.11304,-0.1971 -0.16812,-0.4145 -0.16465,-0.6518 l 0,-14.3239 -4.06689,0 0,14.6134 c -0.0503,1.0961 0.0743,2.0315 0.37241,2.8061 0.2981,0.7741 1.07066,1.1787 2.31754,1.2136 0.57513,-0.01 1.13905,-0.1707 1.69139,-0.4943 0.55217,-0.3235 0.90823,-0.7697 1.06753,-1.3382 l 0.0644,0 0,1.6071 z"
             id="u-9-5-5-1"
             style="fill:#000000;fill-opacity:1" /><use
             height="234"
             width="243"
             y="0"
             x="0"
             transform="matrix(-1,0,0,-1,391.8674,2046.3712)"
             id="n-6-7-0-0"
             xlink:href="#u-9-5-5-1"
             style="fill:#000000;fill-opacity:1" /><path
             inkscape:connector-curvature="0"
             d="m 212.29706,1032.3895 0,-9.6866 0.0644,0 1.63457,9.6866 4.16706,0 -1.92325,-10.4911 1.98733,-7.9166 -4.23114,0 -1.63457,8.2706 -0.0644,0 0,-12.777 -4.0669,0 0,22.9141 4.0669,0 z"
             id="k-5-4-9-3"
             style="fill:#000000;fill-opacity:1" /><path
             inkscape:connector-curvature="0"
             d="m 223.96737,1032.3895 0,-4.7599 -4.06665,0 0,4.7599 4.06665,0 z"
             id=".-5-9-0-2"
             style="fill:#000000;fill-opacity:1" /><use
             height="234"
             width="243"
             y="0"
             x="0"
             transform="matrix(-1,0,0,-1,421.16574,2046.3712)"
             id="n2-6-1-0-7"
             xlink:href="#u-9-5-5-1"
             style="fill:#000000;fill-opacity:1" /><use
             height="234"
             width="243"
             y="0"
             x="0"
             transform="translate(76.545274,0)"
             id="e2-4-4-6-0"
             xlink:href="#e-4-4-4-1"
             style="fill:#000000;fill-opacity:1" /><path
             inkscape:connector-curvature="0"
             d="m 253.52198,1010.634 -4.06665,0 0,3.3478 -1.0899,0 0,3.0215 1.0899,0 0,11.6561 c -0.0396,1.3936 0.16747,2.369 0.62047,2.9263 0.45284,0.5573 1.38825,0.8252 2.8059,0.8038 l 1.82648,0 0,-3.0217 -0.48101,0 c -0.29578,-0.017 -0.48934,-0.1528 -0.58082,-0.4105 -0.0915,-0.2576 -0.13304,-0.5395 -0.12437,-0.8451 l 0,-11.1089 1.12212,0 0,-3.0215 -1.12212,0 0,-3.3478 z"
             id="t-1-5-1-5"
             style="fill:#000000;fill-opacity:1" /></g><path
           inkscape:connector-curvature="0"
           d="m 291.45475,220.74905 0,1.32404 -1.13119,0 0,-1.32404 1.13119,0 z"
           id="path55392-0-6-4-4"
           style="fill:#dc0067;fill-opacity:1" /><path
           d="m 271.01286,227.70662 c -0.0327,0 -0.063,-0.004 -0.0869,-0.009 -0.0944,-0.0203 -0.15348,-0.0707 -0.18254,-0.17385 -0.0247,-0.0843 -0.0536,-0.35853 -0.0695,-0.6172 -0.009,-0.13513 -0.0376,-0.39786 -0.0521,-0.57372 -0.11189,-1.28022 -0.13208,-2.57736 -0.0521,-3.52918 0.0857,-1.01143 0.21658,-1.55346 0.46071,-1.91239 0.11625,-0.17004 0.30228,-0.32867 0.46939,-0.39118 0.24269,-0.0915 0.61824,-0.0539 0.74757,0.0695 0.0581,0.0538 0.0625,0.12145 0.0261,0.20862 -0.0305,0.0727 -0.1446,0.18384 -0.2347,0.23472 -0.12061,0.0668 -0.20542,0.2235 -0.30424,0.565 -0.12352,0.42868 -0.19829,0.95806 -0.26078,1.78201 -0.0363,0.47664 -0.0363,2.04125 0,2.53823 0.0131,0.18748 0.0318,0.48044 0.0435,0.66064 0.0117,0.18019 0.0275,0.39385 0.0347,0.4694 0.009,0.0756 0.0202,0.17374 0.0261,0.21733 0.0174,0.17146 -0.0675,0.30687 -0.25209,0.39116 -0.0915,0.0425 -0.21485,0.0675 -0.31293,0.0695 z m -10.48334,-0.0956 c -0.0391,-1.6e-4 -0.0711,-0.01 -0.10431,-0.0172 -0.061,-0.0145 -0.12598,-0.0823 -0.14778,-0.15647 -0.0174,-0.0624 -0.0289,-0.44406 -0.0609,-1.63422 -0.0131,-0.45482 -0.0362,-1.06832 -0.0435,-1.35605 -0.016,-0.53186 -0.0102,-1.03725 0.0174,-1.53859 l 0.0174,-0.27816 -0.0521,-0.0695 c -0.0421,-0.0538 -0.0521,-0.0795 -0.0521,-0.13037 0,-0.0567 0.003,-0.0737 0.0609,-0.1304 l 0.0695,-0.0608 0.0261,-0.3738 c 0.0378,-0.67572 0.0636,-0.95738 0.11301,-1.04311 0.0335,-0.0581 0.1561,-0.13608 0.27817,-0.17385 0.11479,-0.0363 0.39085,-0.0652 0.49548,-0.0521 0.10172,0.0131 0.19118,0.0521 0.20862,0.0869 0.0247,0.045 0.0102,0.20656 -0.0261,0.40857 -0.0465,0.24704 -0.11303,0.72145 -0.10431,0.73019 0.003,0.003 0.0447,-0.0375 0.0956,-0.0956 0.26157,-0.3037 0.65103,-0.68737 0.95619,-0.94749 0.0683,-0.0581 0.16925,-0.12448 0.25209,-0.16517 l 0.13908,-0.0695 0.19124,0 c 0.22524,0 0.3704,0.0331 0.53025,0.11301 0.16858,0.0843 0.15422,0.14593 -0.0609,0.27817 -0.30226,0.18598 -0.51307,0.36387 -0.92142,0.76495 -0.38655,0.38073 -0.98227,1.04006 -0.98227,1.08657 0,0.009 0.0506,0.0592 0.10431,0.1217 0.19473,0.22525 0.74274,0.90918 0.90404,1.12136 0.24122,0.31967 0.33032,0.46921 0.33032,0.53024 0,0.12642 -0.19645,0.28097 -0.39117,0.31294 -0.14823,0.0234 -0.31103,-0.0834 -0.46071,-0.29555 -0.0378,-0.0552 -0.2341,-0.28762 -0.43464,-0.51288 l -0.36509,-0.41722 -0.009,0.40854 c -0.006,0.23686 -10e-4,0.94526 0.009,1.68637 0.0102,0.70334 0.0131,1.337 0.009,1.40821 -0.007,0.14532 -0.0403,0.22287 -0.1217,0.30423 -0.0933,0.0921 -0.30015,0.15744 -0.4694,0.15647 z m 22.63566,-0.26945 c -0.0278,0 -0.055,-0.004 -0.0695,-0.009 -0.14095,-0.0363 -0.14344,-0.058 -0.13907,-0.53895 0.0131,-1.46915 0.11416,-3.93584 0.20862,-5.05041 0.0305,-0.36912 0.0738,-0.68209 0.10431,-0.78234 0.0334,-0.10899 0.1427,-0.18384 0.38248,-0.23472 0.14241,-0.0306 0.41413,-0.0349 0.48678,-0.009 0.12353,0.0436 0.15375,0.15307 0.0956,0.32164 -0.0567,0.1642 -0.0452,0.33622 0.0435,0.78234 0.12062,0.59144 0.24572,0.98546 0.43463,1.36473 0.13951,0.28048 0.23134,0.42106 0.38247,0.59981 0.0567,0.0668 0.0666,0.0739 0.0782,0.0521 0.009,-0.0161 0.0174,-0.18459 0.009,-0.4694 -0.0189,-0.6205 -0.019,-1.13889 0.009,-1.56468 0.0421,-0.62486 0.0562,-0.67488 0.17385,-0.75627 0.18456,-0.12642 0.65869,-0.18136 0.82581,-0.0956 0.0232,0.0117 0.0565,0.0419 0.0695,0.0695 0.0203,0.0421 0.0233,0.0563 0.009,0.1217 -0.14241,0.64809 -0.14632,0.61524 -0.14777,1.72981 -0.001,0.92713 -0.004,0.95008 -0.0347,1.06051 -0.0858,0.30807 -0.27154,0.51555 -0.54765,0.58239 -0.12206,0.0291 -0.41103,0.0189 -0.54763,-0.0172 -0.12207,-0.032 -0.27053,-0.0968 -0.39986,-0.18253 -0.13951,-0.0901 -0.35745,-0.32393 -0.48679,-0.52156 l -0.113,-0.18253 -0.0174,0.14776 c -0.007,0.077 -0.0332,0.63705 -0.0609,1.25174 -0.0654,1.45319 -0.0868,1.88729 -0.113,2.04276 -0.0189,0.10464 -0.16316,0.20414 -0.34771,0.2521 -0.0774,0.0195 -0.20355,0.0362 -0.28686,0.0347 z m -13.76046,-2.4861 c -0.0432,0 -0.0875,-0.003 -0.13039,-0.009 -0.32696,-0.0421 -0.67396,-0.2451 -1.06051,-0.63455 -0.0799,-0.0814 -0.14196,-0.14779 -0.14777,-0.14779 -0.004,0 -0.0116,0.0447 -0.0174,0.10431 -0.0247,0.27903 -0.10208,0.37213 -0.35639,0.44334 -0.14242,0.0392 -0.30397,0.058 -0.39117,0.0347 -0.0567,-0.0145 -0.0724,-0.0303 -0.0956,-0.0695 -0.0261,-0.0465 -0.0319,-0.0873 -0.0347,-0.91271 -0.003,-1.01433 -0.0229,-1.42512 -0.113,-2.06017 -0.048,-0.34006 -0.0638,-0.49962 -0.0435,-0.56501 0.0509,-0.1526 0.34382,-0.27382 0.66933,-0.27816 0.15839,0 0.2128,0.0187 0.26947,0.0956 0.0421,0.0552 0.0695,0.2519 0.0956,0.79105 0.0131,0.25866 0.029,0.51704 0.0347,0.565 0.0232,0.1555 0.19658,0.63071 0.34771,0.94751 0.17728,0.36766 0.37317,0.64557 0.57371,0.8345 0.18019,0.16854 0.16952,0.17733 0.16515,-0.0173 -0.004,-0.14968 -0.004,-0.16792 0.0261,-0.21732 0.0712,-0.11335 0.3122,-0.2187 0.55633,-0.2434 0.22089,-0.0217 0.32583,0 0.37379,0.0956 0.0203,0.0363 0.0174,0.0978 0.0174,0.339 -10e-4,0.32696 -0.0186,0.45884 -0.0956,0.59978 -0.0538,0.0988 -0.19094,0.21722 -0.28685,0.25211 -0.10354,0.0392 -0.22691,0.0546 -0.3564,0.0521 z m 8.64049,0 c -0.0432,0 -0.0788,-0.003 -0.1217,-0.009 -0.32696,-0.0421 -0.67395,-0.2451 -1.0605,-0.63455 -0.0799,-0.0814 -0.14196,-0.14779 -0.14778,-0.14779 -0.004,0 -0.0202,0.0447 -0.0261,0.10431 -0.0247,0.27903 -0.10209,0.37213 -0.35639,0.44334 -0.14241,0.0392 -0.29528,0.058 -0.38248,0.0347 -0.0567,-0.0145 -0.0811,-0.0303 -0.10431,-0.0695 -0.0261,-0.0465 -0.0232,-0.0873 -0.0261,-0.91271 -0.003,-1.01433 -0.0229,-1.42512 -0.11301,-2.06017 -0.048,-0.34006 -0.0638,-0.49962 -0.0435,-0.56501 0.0509,-0.1526 0.34382,-0.27382 0.66934,-0.27816 0.15839,0 0.21279,0.0187 0.26947,0.0956 0.0421,0.0552 0.0607,0.2519 0.0869,0.79105 0.0131,0.25866 0.029,0.51704 0.0348,0.565 0.0232,0.1555 0.20526,0.63071 0.3564,0.94751 0.17728,0.36766 0.36448,0.64557 0.56502,0.8345 0.18019,0.16854 0.17822,0.17733 0.17385,-0.0173 -0.004,-0.14968 -0.004,-0.16792 0.0261,-0.21732 0.0712,-0.11335 0.3035,-0.2187 0.54765,-0.2434 0.22088,-0.0217 0.32583,0 0.37377,0.0956 0.0204,0.0363 0.0261,0.0978 0.0261,0.339 -10e-4,0.32696 -0.0186,0.45884 -0.0956,0.59978 -0.0538,0.0988 -0.19095,0.21722 -0.28686,0.25211 -0.10354,0.0392 -0.2356,0.0546 -0.36509,0.0521 z m -13.06506,-0.0695 c -0.0282,-2.8e-4 -0.0527,-0.004 -0.0956,-0.0173 -0.077,-0.0247 -0.23423,-0.15304 -0.39117,-0.32161 -0.53041,-0.56818 -1.00798,-1.59258 -1.13005,-2.42524 -0.0305,-0.20926 -0.0305,-0.50231 0,-0.64325 0.0654,-0.30229 0.26136,-0.51411 0.54765,-0.59111 0.13368,-0.0349 0.39071,-0.032 0.53894,0.009 0.32551,0.0872 0.65559,0.34518 0.88665,0.7041 0.0436,0.0669 0.0826,0.1217 0.0869,0.1217 0.009,0 0.0491,-0.12251 0.10432,-0.33033 0.0712,-0.26447 0.19655,-0.45326 0.35639,-0.51285 0.18746,-0.0712 0.47208,-0.0625 0.54765,0.009 0.0581,0.0538 0.0654,0.10504 0.009,0.33901 -0.1613,0.65683 -0.21543,0.91574 -0.35639,1.83415 -0.0378,0.2456 -0.0693,0.38902 -0.13908,0.61717 -0.0407,0.13516 -0.0464,0.14846 -0.0435,0.39987 0.004,0.24411 0.006,0.25913 -0.0261,0.32161 -0.0538,0.11046 -0.18331,0.17955 -0.40855,0.21733 -0.0974,0.0175 -0.10855,0.0214 -0.14778,0.0782 -0.0581,0.0858 -0.14897,0.1593 -0.2347,0.18255 -0.0451,0.0117 -0.0762,0.009 -0.10431,0.009 z m 8.84913,-0.009 c -0.0493,0 -0.0904,-0.004 -0.13039,-0.009 -0.48827,-0.0494 -0.87577,-0.21653 -1.12135,-0.47809 -0.24558,-0.26303 -0.24852,-0.58428 -0.009,-0.92142 0.11333,-0.15694 0.29282,-0.32495 0.71279,-0.66064 0.44903,-0.35894 0.55594,-0.45157 0.68672,-0.59978 0.22524,-0.25433 0.32903,-0.52245 0.27816,-0.7128 -0.0146,-0.0552 -0.0273,-0.0652 -0.0782,-0.0782 -0.10173,-0.0276 -0.26559,0.003 -0.59111,0.11302 -0.34293,0.11624 -0.42838,0.12903 -0.57371,0.0956 -0.28917,-0.0683 -0.57677,-0.25616 -0.52156,-0.34771 0.0363,-0.0581 0.32656,-0.17941 0.61718,-0.25206 0.24705,-0.061 0.60796,-0.12599 0.78234,-0.1478 0.48827,-0.0639 0.97581,0.089 1.19089,0.3738 0.16857,0.22234 0.18445,0.50618 0.0347,0.79972 -0.16131,0.3197 -0.37117,0.52098 -1.23436,1.19088 -0.29354,0.22816 -0.488,0.44281 -0.56502,0.60848 -0.0407,0.0843 -0.0494,0.22293 -0.0174,0.28688 0.0567,0.10896 0.21234,0.19258 0.41724,0.22598 0.12788,0.0203 0.15304,0.0217 0.33032,-0.009 0.3197,-0.0552 0.37204,-0.0609 0.46941,-0.0521 0.19762,0.0176 0.36496,0.081 0.40855,0.14779 0.032,0.0494 0.0146,0.11285 -0.0435,0.15647 -0.16529,0.12587 -0.69813,0.26056 -1.04311,0.26946 z m 5.81538,-0.13038 c -0.033,0 -0.0542,-0.009 -0.0869,-0.0173 -0.0785,-0.0189 -0.11434,-0.0462 -0.14777,-0.1217 -0.0291,-0.0639 -0.0448,-0.14653 -0.0869,-0.55633 -0.13224,-1.23956 -0.17108,-1.85308 -0.13039,-2.29486 0.0262,-0.28481 0.10823,-0.48056 0.25209,-0.62586 0.10899,-0.11189 0.21969,-0.16944 0.39117,-0.19124 0.42432,-0.0567 0.86076,0.16945 1.27781,0.66063 0.093,0.10899 0.11299,0.11886 0.12171,0.0956 0.006,-0.0145 0.026,-0.10401 0.0521,-0.20862 0.0901,-0.37495 0.16719,-0.47355 0.45201,-0.54765 0.1148,-0.0306 0.4445,-0.0276 0.53895,0 0.0799,0.0234 0.14777,0.0853 0.14777,0.13907 0,0.0217 -0.0246,0.0911 -0.0521,0.14779 -0.11771,0.24268 -0.27514,0.93016 -0.32164,1.39083 -0.007,0.0799 -0.0261,0.36715 -0.0348,0.64325 l -0.0174,0.50417 0.0521,0.17386 c 0.0509,0.18745 0.0465,0.25185 0,0.32162 -0.0145,0.0217 -0.042,0.0737 -0.0521,0.11299 -0.0349,0.13805 -0.13425,0.24175 -0.29555,0.30425 -0.0988,0.0378 -0.35039,0.0537 -0.41725,0.0262 -0.0668,-0.0276 -0.11153,-0.0939 -0.12169,-0.17385 -0.004,-0.0378 -0.0144,-0.084 -0.0261,-0.10432 -0.0102,-0.0203 -0.0261,-0.0896 -0.0347,-0.15646 -0.15694,-1.19453 -0.49715,-2.14877 -0.90403,-2.54694 -0.0523,-0.0509 -0.0739,-0.0667 -0.0782,-0.0521 -0.0698,0.1918 -0.0423,1.41442 0.0521,2.234 0.0291,0.24267 0.0363,0.53733 0.009,0.5911 -0.0538,0.10317 -0.2211,0.19258 -0.40856,0.22601 -0.0603,0.0108 -0.0973,0.025 -0.13038,0.0262 z m 8.57095,-0.009 c -0.0406,0 -0.0803,-0.004 -0.113,-0.009 -0.33714,-0.045 -0.62811,-0.23229 -0.84319,-0.54765 -0.25576,-0.3778 -0.39563,-1.01099 -0.3564,-1.56465 0.0625,-0.88353 0.42694,-1.44537 1.05181,-1.61683 0.14386,-0.0392 0.39511,-0.0652 0.53026,-0.0521 0.49699,0.0451 1.02245,0.38429 1.14742,0.73887 0.0509,0.14678 0.0351,0.2025 -0.0869,0.31293 -0.12062,0.10899 -0.33437,0.18988 -0.43464,0.16518 -0.10607,-0.0276 -0.2677,-0.19066 -0.37378,-0.39118 -0.0698,-0.13514 -0.12437,-0.19836 -0.19994,-0.23469 -0.17438,-0.0843 -0.34146,0.0164 -0.48678,0.30422 -0.0857,0.16857 -0.13308,0.32796 -0.19993,0.63459 -0.006,0.0261 0.0241,0.0388 0.19124,0.12169 0.24123,0.12206 0.42388,0.2486 0.62587,0.44331 0.31243,0.30081 0.50988,0.62943 0.53894,0.88665 0.0378,0.34006 -0.22915,0.67191 -0.62587,0.77363 -0.0981,0.025 -0.24329,0.0375 -0.36509,0.0347 z m 0.0521,-0.57372 c 0.007,0 0.0173,-0.0231 0.0261,-0.0521 0.0117,-0.032 0.0131,-0.10264 0.009,-0.17385 -0.007,-0.14968 -0.0604,-0.28348 -0.19124,-0.44331 -0.10609,-0.13224 -0.23031,-0.25647 -0.2434,-0.2434 -0.0232,0.0217 0.0562,0.3457 0.1304,0.52156 0.0654,0.15694 0.22732,0.39116 0.26947,0.39116 z m -23.37454,-0.30423 c 0.0212,0.005 0.0297,-0.0453 0.0261,-0.16517 -0.0189,-0.73966 -0.3077,-1.72298 -0.59979,-2.06885 -0.0581,-0.0712 -0.0623,-0.0456 -0.0521,0.16518 0.0392,0.74837 0.24529,1.45872 0.57371,1.9993 0.0261,0.043 0.0394,0.0662 0.0521,0.0695 z"
           id="path3151"
           inkscape:connector-curvature="0"
           style="fill:#dc0067;fill-opacity:1;display:inline"
           sodipodi:nodetypes="ccccccccccccccccccccccccccccscccccccccccccccccsccscccccccccccccccccccccccccccccccccccccccccccscccccccccccccccccccccccccscccccccccccccccccccccccccccccccccccccccccccccccccccccccccccccccccccccccccccccccccsccccccccccccccccccccccccccccccccccccccccccccccccccccc" /><g
           transform="matrix(0.27816478,0,0,-0.27816478,252.34208,507.92346)"
           id="g4237"><g
             id="g4207"><path
               style="fill:#000000"
               d="m 92.40625,823.67888 c -0.001,6.10765 0.004,12.23611 0,18.34375 -0.43937,0.48142 -0.80128,1.02794 -1.28125,1.46875 -0.74968,0.26681 -1.54831,0.37334 -2.3125,0.59375 -0.004,2.37664 0.004,4.77961 0,7.15625 -0.77578,0.17111 -1.55477,0.36269 -2.28125,0.6875 0.011,1.41526 0.02425,2.83475 0.03125,4.25 -1.69367,2.12869 -3.04477,4.55195 -3.84375,7.15625 -0.42922,1.41961 -0.69729,2.87049 -0.84375,4.34375 -0.0176,1.68932 -0.02425,3.37318 -0.03125,5.0625 -16.37992,10e-4 -32.75082,3.6e-4 -49.125,0 0.05643,0.16835 0.129705,0.33228 0.1875,0.5 19.750073,1.3e-4 39.5011,-7.7e-4 59.25,0 -3.87311,1.88508 -7.78169,3.71157 -11.65625,5.59375 -0.23201,0.1044 -0.45774,0.249 -0.71875,0.25 -14.85489,0.004 -29.708496,10e-4 -44.5625,0 0.07219,0.15693 0.145329,0.31251 0.21875,0.46875 14.52074,0.007 29.04135,0.0243 43.5625,0.0312 -0.64818,0.26536 -1.24372,0.7369 -1.96875,0.75 -13.73948,-0.003 -27.479132,-8.8e-4 -41.21875,0 0.07548,0.15506 0.142054,0.31439 0.21875,0.46875 13.447003,0.006 26.89322,0.0208 40.34375,0.0312 -1.47326,0.72068 -2.96134,1.41302 -4.4375,2.125 -0.002,9.87543 -1.3e-4,19.75039 0,29.625 0.48602,0.17138 0.97741,0.34016 1.46875,0.5 -5.7e-4,-9.56189 -0.003,-19.12717 0,-28.6875 13.21439,0.0105 26.410619,-0.0319 39.625,0 -0.014,6.68249 -0.005,13.37345 0,20.0625 0.28149,-0.006 0.56094,0 0.84375,0 0.19901,0 0.39538,-0.003 0.59375,0 0.002,-7.17787 0.005,-14.35659 0,-21.53125 -1.48776,-0.71197 -2.97954,-1.38467 -4.46875,-2.09375 13.39334,-6.5e-4 26.79078,-2.6e-4 40.1875,0 0.083,-0.16685 0.16838,-0.33232 0.25,-0.5 -13.68661,-10e-4 -27.3724,-0.004 -41.0625,0 -0.72503,-0.0116 -1.32347,-0.48319 -1.96875,-0.75 14.47183,-0.013 28.93843,-0.0263 43.40625,-0.0312 0.0734,-0.15624 0.14656,-0.31182 0.21875,-0.46875 -14.81302,2.6e-4 -29.62663,6.9e-4 -44.4375,0 -0.33496,0.007 -0.61478,-0.1762 -0.90625,-0.3125 -3.8412,-1.84738 -7.7118,-3.64037 -11.53125,-5.53125 19.72948,7.7e-4 39.4581,6e-5 59.1875,0 0.0578,-0.16772 0.13107,-0.33165 0.1875,-0.5 -16.46898,-7e-5 -32.93978,0.002 -49.40625,0 -0.012,-2.03298 0.0333,-4.06222 0,-6.09375 -0.44807,-3.80351 -2.0892,-7.42493 -4.46875,-10.40625 -0.058,-1.47181 -0.001,-2.96424 0,-4.4375 -0.69748,-0.35527 -1.49597,-0.44954 -2.25,-0.625 -0.001,-2.35489 0.004,-4.73886 0,-7.09375 -0.69168,-0.18561 -1.37227,-0.31295 -2.0625,-0.5 -0.26681,-0.0421 -0.43424,-0.27589 -0.59375,-0.46875 -0.29581,-0.37412 -0.59594,-0.73123 -0.90625,-1.09375 -0.004,-6.10909 0.001,-12.23465 0,-18.34375 -0.48432,-10e-4 -0.95463,-10e-4 -1.4375,0 z m 1.625,21.15625 c 0.649375,0.003 1.306725,0.0666 1.9375,0.25 -0.018,1.95903 0.0101,3.91453 0,5.875 -1.89522,-0.14791 -3.79952,-0.17676 -5.6875,0.0625 -0.001,-1.98078 0.001,-3.98797 0,-5.96875 0.60033,-0.15076 1.19187,-0.2281 1.8125,-0.1875 0.646725,0.0246 1.288125,-0.0339 1.9375,-0.0312 z m -1.96875,6.75 c 0.24234,-0.008 0.47586,-0.007 0.71875,0 -0.001,0.99909 0.001,2.00091 0,3 -0.48432,-0.0101 -0.95753,-0.018 -1.4375,0.0312 -0.002,-0.99329 -0.02525,-1.97401 -0.03125,-2.96875 0.24071,-0.0303 0.50766,-0.0543 0.75,-0.0625 z m 1.4375,0 c 0.44807,-0.002 0.89423,-0.009 1.34375,0 0.012,1.01359 -0.003,2.01766 0,3.03125 -0.45097,-0.0449 -0.89133,-0.0353 -1.34375,-0.0312 0.001,-0.99764 -0.001,-2.00236 0,-3 z m 2.09375,0.0937 c 0.45097,0.045 0.89423,0.0851 1.34375,0.15625 0,1.01794 -0.0116,2.04456 0,3.0625 -0.45097,-0.0739 -0.89133,-0.16505 -1.34375,-0.21875 -0.004,-1.00924 -0.004,-1.99076 0,-3 z m -5,0.0312 c 0.001,0.99619 -0.003,2.00235 0,3 -0.45242,0.0334 -0.90003,0.1034 -1.34375,0.1875 -0.0185,-0.99909 0.016,-2.00236 0,-3 0.44952,-0.0855 0.88698,-0.1599 1.34375,-0.1875 z m 7.0625,0.25 c 0.42197,0.0885 0.83384,0.19504 1.25,0.3125 0.002,1.05709 0.02425,2.1304 0.03125,3.1875 -0.40891,-0.17111 -0.85638,-0.2888 -1.28125,-0.40625 0.004,-1.02664 0,-2.0671 0,-3.09375 z m -9.125,0.0625 c 0.011,1.00054 -0.006,2.03071 0,3.03125 -0.42341,0.1247 -0.83238,0.23435 -1.25,0.375 0.004,-1.00924 -0.001,-2.02201 0,-3.03125 0.41182,-0.13775 0.83094,-0.259 1.25,-0.375 z m 4.9375,3.25 c 0.519543,0.0138 1.03939,0.0635 1.5625,0.0937 1.57041,3.33079 2.14015,7.05881 2.09375,10.71875 -2.10548,-0.087 -4.20556,-0.0393 -6.3125,-0.0625 -0.66412,10e-4 -1.33732,0.002 -2,0.0625 -0.0551,-3.64544 0.52319,-7.34946 2.03125,-10.6875 0.34801,-0.033 0.71335,-0.0786 1.0625,-0.0937 0.52372,-0.0229 1.042957,-0.045 1.5625,-0.0312 z m 2.46875,0.1875 c 0.89469,0.145 1.81956,0.29664 2.65625,0.65625 0.68298,0.73808 1.209279,1.57312 1.8125,2.375 1.53271,2.41435 2.57144,5.16224 2.96875,8 0.0249,0.24506 0.0284,0.50204 0.0312,0.75 -1.85607,-0.33496 -3.71078,-0.67889 -5.5625,-1.03125 0.0624,-3.65415 -0.47794,-7.36992 -1.90625,-10.75 z M 90,855.49138 c -1.42686,3.36848 -1.97875,7.07475 -1.90625,10.71875 -1.80968,0.34221 -3.62493,0.67954 -5.4375,1 0.39876,-4.07902 2.2243,-7.96227 4.875,-11.0625 0.78448,-0.35236 1.62627,-0.50545 2.46875,-0.65625 z m 6.125,11.96875 c 0.326699,-0.003 0.669385,0.0233 1,0.0625 -0.007,1.74007 0,3.47868 0,5.21875 -2.77106,0.003 -5.54143,0.003 -8.3125,0 0,-1.74007 0.007,-3.47868 0,-5.21875 0.52674,-0.0265 1.06627,-0.0242 1.59375,-0.0312 1.58245,-0.0215 3.16653,0.0207 4.75,0 0.33134,0.003 0.642051,-0.0285 0.96875,-0.0312 z m -8.03125,0.21875 0,5.0625 c -1.83723,10e-4 -3.66422,0.003 -5.5,0 0,-1.3529 0.003,-2.7096 0,-4.0625 1.83723,-0.33786 3.66567,-0.64329 5.5,-1 z m 9.75,0 c 1.85027,0.35816 3.70933,0.69194 5.5625,1.03125 -0.001,1.35145 0,2.6798 0,4.03125 -1.85317,0 -3.70933,10e-4 -5.5625,0 0,-1.69222 -0.001,-3.37028 0,-5.0625 z m -4.6875,5.875 c 6.51801,3.18287 13.07509,6.25883 19.625,9.375 -13.041821,0.0176 -26.08462,0.0153 -39.125,0.0312 6.49336,-3.13792 13.01099,-6.26398 19.5,-9.40625 z"
               id="path4106"
               inkscape:connector-curvature="0" /><path
               inkscape:connector-curvature="0"
               style="fill:#000000"
               d="m 92.84375,106.84375 c -0.09963,0.0148 -0.18446,0.0573 -0.28125,0.0937 -1.34711,0.55247 -1.83656,2.23425 -1.5625,3.5625 0.17401,0.95124 0.81486,1.93584 1.8125,2.15625 0.81783,0.18561 1.61653,-0.32282 2.03125,-1 0.73518,-1.1963 0.69494,-2.87186 -0.15625,-4 -0.35345,-0.47957 -0.94065,-0.79944 -1.53125,-0.8125 -0.09843,-0.002 -0.212869,-0.0148 -0.3125,0 z m 0.125,0.5 c 0.52525,-0.0863 1.04304,0.22866 1.34375,0.65625 0.72503,1.03389 0.74388,2.53731 0,3.5625 -0.35237,0.49733 -1.03338,0.83366 -1.625,0.5625 -0.96719,-0.43937 -1.3153,-1.63896 -1.25,-2.625 0.0855,-0.83523 0.46857,-1.77329 1.3125,-2.09375 0.0738,-0.0297 0.14371,-0.0502 0.21875,-0.0625 z"
               transform="translate(0,768.89763)"
               id="path4076" /><path
               inkscape:connector-curvature="0"
               style="fill:#000000"
               d="m 42.625,117.15625 c -0.0029,1.59361 -0.02835,3.18764 -0.03125,4.78125 1.289102,0.006 2.584448,0.004 3.875,0 -0.0015,-1.59361 0.0015,-3.18619 0,-4.78125 -1.289102,-0.001 -2.554648,-0.001 -3.84375,0 z m 0.46875,0.46875 2.90625,0 c 0,1.27315 0.0014,2.53935 0,3.8125 l -2.90625,0 c -0.0015,-1.27315 0,-2.53935 0,-3.8125 z"
               transform="translate(0,768.89763)"
               id="path4072" /><path
               inkscape:connector-curvature="0"
               style="fill:#000000"
               d="m 50.4375,117.15625 c -0.003,1.59361 0.0029,3.18764 0,4.78125 1.289102,0.006 2.58445,0.003 3.875,0 -10e-4,-1.59361 0.002,-3.18619 0,-4.78125 -1.2891,-0.001 -2.585898,-0.001 -3.875,0 z m 0.5,0.46875 2.875,0 c 0,1.27315 0.002,2.53935 0,3.8125 l -2.875,0 c -0.0029,-1.27315 0,-2.53935 0,-3.8125 z"
               transform="translate(0,768.89763)"
               id="path4070" /><path
               inkscape:connector-curvature="0"
               style="fill:#000000"
               d="m 58.28125,117.15625 c -0.003,1.59361 0.002,3.18764 0,4.78125 1.2891,0.004 2.55465,0.004 3.84375,0 -0.003,-1.59361 0.003,-3.18764 0,-4.78125 -1.2891,-0.001 -2.55465,-0.001 -3.84375,0 z m 0.46875,0.46875 2.90625,0 0,3.8125 -2.90625,0 c -10e-4,-1.27315 0,-2.53935 0,-3.8125 z"
               transform="translate(0,768.89763)"
               id="path4068" /><path
               inkscape:connector-curvature="0"
               style="fill:#000000"
               d="m 66.09375,117.15625 c -0.003,1.59506 0.001,3.18764 0,4.78125 1.2891,0.004 2.5859,0.004 3.875,0 -0.001,-1.59361 0.001,-3.18619 0,-4.78125 -1.2891,-0.001 -2.5859,-0.001 -3.875,0 z m 0.5,0.46875 2.875,0 c 0,1.27315 0.001,2.53935 0,3.8125 l -2.875,0 c -0.002,-1.27315 0,-2.53935 0,-3.8125 z"
               transform="translate(0,768.89763)"
               id="path4066" /><path
               inkscape:connector-curvature="0"
               style="fill:#000000"
               d="m 75.375,117.15625 c -0.002,1.59361 0.001,3.18764 0,4.78125 1.2891,0.004 2.58445,0.004 3.875,0 -0.001,-1.59361 0.001,-3.18619 0,-4.78125 -1.2891,-0.001 -2.5859,-0.001 -3.875,0 z m 0.5,0.46875 2.875,0 c 0,1.27315 0.001,2.53935 0,3.8125 l -2.875,0 c -0.001,-1.27315 0,-2.53935 0,-3.8125 z"
               transform="translate(0,768.89763)"
               id="path4064" /><path
               inkscape:connector-curvature="0"
               style="fill:#000000"
               d="m 83.21875,117.15625 c -0.002,1.59361 0.003,3.18619 0,4.78125 1.28765,0.007 2.55465,-0.003 3.84375,0 0.002,-1.59506 0,-3.18619 0,-4.78125 -1.2891,-0.001 -2.55465,-0.001 -3.84375,0 z m 0.46875,0.46875 2.90625,0 c 0,1.27315 0.001,2.53935 0,3.8125 l -2.90625,0 0,-3.8125 z"
               transform="translate(0,768.89763)"
               id="path4062" /><path
               inkscape:connector-curvature="0"
               style="fill:#000000"
               d="m 91.28125,117.15625 c -0.005,1.59506 -0.001,3.18619 0,4.78125 1.28766,0.002 2.5859,-0.001 3.875,0 0.002,-1.59506 0,-3.18619 0,-4.78125 -1.2891,-0.001 -2.58734,0.001 -3.875,0 z m 0.5,0.46875 c 0.96719,-0.001 1.90781,-0.003 2.875,0 -0.003,1.27315 0.006,2.53935 0,3.8125 -0.96574,-0.003 -1.91071,0.003 -2.875,0 -0.002,-1.2717 0,-2.5408 0,-3.8125 z"
               transform="translate(0,768.89763)"
               id="path4060" /><path
               inkscape:connector-curvature="0"
               style="fill:#000000"
               d="m 99.34375,117.15625 c 0,1.59506 -0.003,3.18619 0,4.78125 1.28765,-0.001 2.58734,0.001 3.875,0 0,-1.59651 0.006,-3.18619 0,-4.78125 -1.28766,0.001 -2.58735,-0.001 -3.875,0 z m 0.5,0.46875 c 0.96574,-0.002 1.93906,0 2.90625,0 0,1.27315 0.003,2.5408 0,3.8125 -0.96574,0.003 -1.94051,-0.003 -2.90625,0 -0.006,-1.27315 0.003,-2.53935 0,-3.8125 z"
               transform="translate(0,768.89763)"
               id="path4058" /><path
               inkscape:connector-curvature="0"
               style="fill:#000000"
               d="m 107.1875,117.15625 c 0,1.59506 -0.003,3.18619 0,4.78125 1.28765,-0.001 2.58735,0.001 3.875,0 0,-1.59651 0.006,-3.18619 0,-4.78125 -1.28765,0.001 -2.58735,-0.001 -3.875,0 z m 0.46875,0.46875 c 0.96573,-0.003 1.93906,-0.001 2.90625,0 0,1.2717 0.003,2.5408 0,3.8125 -0.96574,0.002 -1.94052,-0.001 -2.90625,0 -0.006,-1.2717 0.003,-2.53935 0,-3.8125 z"
               transform="translate(0,768.89763)"
               id="path4056" /><path
               inkscape:connector-curvature="0"
               style="fill:#000000"
               d="m 116.46875,117.15625 c 0,1.59506 -0.003,3.18619 0,4.78125 1.28765,-0.001 2.58734,0.001 3.875,0 -0.003,-1.59796 -0.0126,-3.18619 -0.0312,-4.78125 -1.28621,0.008 -2.55755,-0.004 -3.84375,0 z m 0.46875,0.46875 c 0.96574,-0.003 1.93906,-0.001 2.90625,0 0,1.2717 0.003,2.5408 0,3.8125 -0.96574,0.002 -1.94051,-0.001 -2.90625,0 -0.006,-1.2717 0.003,-2.5408 0,-3.8125 z"
               transform="translate(0,768.89763)"
               id="path4054" /><path
               inkscape:connector-curvature="0"
               style="fill:#000000"
               d="m 124.3125,117.15625 c 0,1.59506 -0.003,3.18619 0,4.78125 1.28765,-0.001 2.55465,0.003 3.84375,0 -0.002,-1.59506 0.006,-3.18619 0,-4.78125 -1.27727,9.9e-4 -2.56646,-9.6e-4 -3.84375,0 z m 0.46875,0.46875 c 0.96573,-0.003 1.93906,-0.001 2.90625,0 0,1.2717 0.003,2.5408 0,3.8125 -0.96574,0.003 -1.94052,-0.003 -2.90625,0 -0.006,-1.27315 0.003,-2.53935 0,-3.8125 z"
               transform="translate(0,768.89763)"
               id="path4052" /><path
               inkscape:connector-curvature="0"
               style="fill:#000000"
               d="m 132.125,117.15625 c 0,1.59506 -0.003,3.18619 0,4.78125 1.28765,-0.001 2.58735,0.001 3.875,0 -0.001,-1.59651 0.0116,-3.18619 0,-4.78125 -1.28765,0.006 -2.58735,-0.003 -3.875,0 z m 0.5,0.46875 c 0.95539,-0.003 1.91821,-9.9e-4 2.875,0 0,1.2717 0.003,2.5408 0,3.8125 -0.96574,0.002 -1.90926,-0.001 -2.875,0 -0.006,-1.2717 0.003,-2.5408 0,-3.8125 z"
               transform="translate(0,768.89763)"
               id="path4050" /><path
               inkscape:connector-curvature="0"
               style="fill:#000000"
               d="m 139.96875,117.15625 c 0,1.59506 -0.004,3.18619 0,4.78125 1.28765,-0.001 2.5561,0.001 3.84375,0 0,-1.59651 0.006,-3.18619 0,-4.78125 -1.28765,0.001 -2.5561,-0.001 -3.84375,0 z m 0.46875,0.46875 c 0.96574,-0.004 1.93907,-0.001 2.90625,0 0,1.2717 0.003,2.5408 0,3.8125 -0.96573,0.002 -1.94196,-0.001 -2.90625,0 -0.006,-1.2717 0.003,-2.5408 0,-3.8125 z"
               transform="translate(0,768.89763)"
               id="path4048" /><path
               inkscape:connector-curvature="0"
               style="fill:#000000"
               d="m 85.1875,124.8125 c -0.97155,-0.0114 -1.91424,0.82792 -1.96875,1.8125 -0.0537,1.36451 0.0217,2.72779 0,4.09375 -0.85264,-0.001 -1.70987,0.001 -2.5625,0 -0.004,1.2891 0.001,2.5859 0,3.875 -0.38717,-0.001 -0.77054,0 -1.15625,0 -0.001,0.25376 -0.001,0.49334 0,0.75 0.31176,0.16386 0.60173,0.35145 0.90625,0.53125 0.0754,0.30017 0.279,0.55454 0.25,0.875 -0.005,3.1091 -0.001,6.2289 0,9.34375 0.47751,0.0947 0.95621,0.166 1.4375,0.25 -2.2e-4,-3.35401 -8e-4,-6.7114 0,-10.0625 l 6.25,0 c 0.001,2.59138 4.4e-4,5.18681 0,7.78125 0.46231,-0.34766 0.96082,-0.67104 1.4375,-1 -1.7e-4,-2.26115 -5.4e-4,-4.5229 0,-6.78125 l 6.375,0 c 5.1e-4,1.05112 -8e-5,2.10415 0,3.15625 0.48369,-0.22223 0.97549,-0.45186 1.46875,-0.65625 1.8e-4,-0.83322 -6e-4,-1.66743 0,-2.5 l 6.53125,0 c 3e-5,0.13529 -3e-5,0.27094 0,0.40625 0.49626,-0.11614 0.99722,-0.24517 1.5,-0.34375 0.059,-0.17942 0.13738,-0.34443 0.15625,-0.53125 0.36977,-0.20011 0.74073,-0.39139 1.125,-0.5625 -0.004,-0.22476 0,-0.43439 0,-0.65625 l -1.34375,0 c -0.001,-1.2891 0.003,-2.5859 0,-3.875 -0.78883,0 -1.58762,0.003 -2.375,0 -0.004,-1.27605 0,-2.5379 0,-3.8125 -0.013,-0.79318 -0.46762,-1.62429 -1.21875,-1.9375 -0.87439,-0.42052 -1.95238,0.0601 -2.40625,0.875 -0.17546,0.37847 -0.259,0.80113 -0.25,1.21875 0.004,1.22385 0.001,2.43095 0,3.65625 l -4.1875,0 c -0.004,-1.27315 0.003,-2.53935 0,-3.8125 0.0116,-0.93673 -0.64542,-1.86014 -1.59375,-2.03125 -1.09915,-0.23781 -2.1963,0.67776 -2.25,1.78125 -0.0392,1.35291 -0.01685,2.70959 -0.03125,4.0625 -1.40075,0.002 -2.78674,-0.001 -4.1875,0 -0.007,-1.2746 0.003,-2.53645 0,-3.8125 -0.001,-0.89903 -0.59371,-1.82679 -1.5,-2.03125 -0.13794,-0.0382 -0.26746,-0.0609 -0.40625,-0.0625 z m -0.1875,0.5 c 0.88454,-0.12326 1.6583,0.73097 1.625,1.59375 0.01,1.27025 0.03025,2.54225 0.03125,3.8125 -0.99764,0.001 -2.00236,0.001 -3,0 0.001,-1.2717 -0.0101,-2.5408 0,-3.8125 -0.016,-0.75403 0.56507,-1.53435 1.34375,-1.59375 z m 8.1875,0 c 0.39641,-0.006 0.80366,0.15698 1.0625,0.46875 0.35092,0.32336 0.48035,0.81578 0.46875,1.28125 -0.002,1.2253 0.001,2.43095 0,3.65625 l -3,0 c -0.004,-1.2282 0.001,-2.4593 0,-3.6875 -0.0116,-0.44952 0.11704,-0.89104 0.4375,-1.21875 0.25376,-0.31101 0.63484,-0.49439 1.03125,-0.5 z m 8.21875,0 c 0.76263,0.0643 1.39784,0.82359 1.375,1.59375 0.007,1.27315 0,2.53935 0,3.8125 l -3,0 c 0.003,-1.2746 -0.013,-2.5379 0,-3.8125 -0.009,-0.72938 0.56137,-1.4769 1.3125,-1.5625 0.11274,-0.0208 0.20355,-0.0405 0.3125,-0.0312 z M 81.125,131.21875 c 7.98983,0 15.978929,0.003 23.96875,0 0.008,1.12669 -0.004,2.24686 0,3.375 -7.991271,0.003 -15.97747,0.003 -23.96875,0 0.003,-1.12814 -0.006,-2.24831 0,-3.375 z"
               transform="translate(0,768.89763)"
               id="path4020" /><path
               inkscape:connector-curvature="0"
               style="fill:#000000"
               d="m 107.1875,126.46875 c 0,2.40129 -0.003,4.81745 0,7.21875 1.28765,-0.001 2.5859,0.003 3.875,0 0.001,-2.39985 -0.001,-4.81891 0,-7.21875 -1.2891,-0.002 -2.5859,0 -3.875,0 z m 0.46875,0.5 c 0.96573,0 1.94051,-0.004 2.90625,0 -0.001,2.07648 0.003,4.14226 0,6.21875 -0.96574,0.002 -1.94052,-0.001 -2.90625,0 -0.004,-2.07794 0,-4.14082 0,-6.21875 z"
               transform="translate(0,768.89763)"
               id="path4012" /><path
               inkscape:connector-curvature="0"
               style="fill:#000000"
               d="m 116.46875,126.46875 c 0,2.40129 -0.004,4.8189 0,7.21875 1.28765,-0.001 2.58589,0.003 3.875,0 0.001,-2.39985 -0.001,-4.81891 0,-7.21875 -1.28911,-0.004 -2.5859,0 -3.875,0 z m 0.46875,0.5 c 0.96719,0.003 1.93761,-0.0174 2.90625,0 -0.01,2.07503 0.006,4.14371 0,6.21875 -0.96574,0.002 -1.94051,-0.001 -2.90625,0 -0.005,-2.07794 0,-4.14082 0,-6.21875 z"
               transform="translate(0,768.89763)"
               id="path4010" /><path
               inkscape:connector-curvature="0"
               style="fill:#000000"
               d="m 124.3125,126.46875 c 0,2.40129 -0.003,4.81745 0,7.21875 1.28765,-0.001 2.5561,0.001 3.84375,0 0.002,-2.4013 -0.001,-4.81891 0,-7.21875 -1.2787,-0.002 -2.56505,-2e-5 -3.84375,0 z m 0.46875,0.5 c 0.96573,0 1.94051,-0.004 2.90625,0 -0.001,2.07648 0.003,4.14226 0,6.21875 -0.96574,0.003 -1.94052,-0.003 -2.90625,0 -0.005,-2.07939 0,-4.14082 0,-6.21875 z"
               transform="translate(0,768.89763)"
               id="path4008" /><path
               inkscape:connector-curvature="0"
               style="fill:#000000"
               d="m 132.11283,895.35648 c 0,2.40129 -0.003,4.8189 0,7.21875 0.11423,-9e-5 0.22935,5e-5 0.34375,0 0.20915,-0.16448 0.41797,-0.33297 0.625,-0.5 -0.15647,-1e-5 -0.31129,-1.6e-4 -0.46875,0 -0.004,-2.07794 0,-4.14082 0,-6.21875 0.96574,0 1.90781,-0.006 2.875,0 -0.002,1.39921 -6.5e-4,2.79276 0,4.1875 0.16542,-0.14745 0.33613,-0.28835 0.5,-0.4375 -3.5e-4,-1.41826 -5.9e-4,-2.83711 0,-4.25 -1.2891,-0.002 -2.5859,0 -3.875,0 z"
               id="path4006" /><path
               inkscape:connector-curvature="0"
               style="fill:#000000"
               d="m 139.95658,895.35648 c 0,0.10395 1e-5,0.20849 0,0.3125 0.0952,-0.10324 0.18671,-0.20863 0.28125,-0.3125 -0.0941,2e-5 -0.18693,0 -0.28125,0 z"
               id="path4004" /><path
               inkscape:connector-curvature="0"
               style="fill:#000000"
               d="m 46.081576,895.45018 c 0.124625,0.13636 0.249209,0.27098 0.375,0.40625 -7.5e-5,-0.13517 8.4e-5,-0.27119 0,-0.40625 -0.125766,-1e-4 -0.249639,8e-5 -0.375,0 z"
               id="path4002" /><path
               inkscape:connector-curvature="0"
               style="fill:#000000"
               d="m 50.425326,895.45018 c -8.96e-4,1.43368 -1.75e-4,2.87331 0,4.3125 0.164395,0.14848 0.334056,0.29071 0.5,0.4375 l 0,-4.25 2.875003,0 0,6.21875 -0.5625,0 c 0.21373,0.17171 0.44027,0.331 0.65625,0.5 0.1353,-8e-5 0.2711,10e-5 0.40625,0 0.002,-2.39985 0.002,-4.8189 0,-7.21875 -1.2891,-0.001 -2.585901,-0.001 -3.875003,0 z"
               id="path4000" /><path
               inkscape:connector-curvature="0"
               style="fill:#000000"
               d="m 58.28125,126.5625 c -10e-4,2.39985 -10e-4,4.8189 0,7.21875 1.2891,0.001 2.55465,0.001 3.84375,0 0.002,-2.39985 0.002,-4.8189 0,-7.21875 -1.2891,-0.001 -2.55465,-0.001 -3.84375,0 z m 0.46875,0.5 2.90625,0 0,6.21875 -2.90625,0 0,-6.21875 z"
               transform="translate(0,768.89763)"
               id="path3998" /><path
               inkscape:connector-curvature="0"
               style="fill:#000000"
               d="m 66.09375,126.5625 c -0.001,2.39985 -0.001,4.8189 0,7.21875 1.2891,0.001 2.5859,0.001 3.875,0 0.001,-2.39985 0.001,-4.8189 0,-7.21875 -1.2891,-0.001 -2.5859,-0.001 -3.875,0 z m 0.5,0.5 2.875,0 0,6.21875 -2.875,0 0,-6.21875 z"
               transform="translate(0,768.89763)"
               id="path3996" /><path
               inkscape:connector-curvature="0"
               style="fill:#000000"
               d="m 75.375,126.5625 c -0.001,2.39985 -0.001,4.8189 0,7.21875 1.2891,0.001 2.5859,0.001 3.875,0 0.001,-2.39985 0.001,-4.8189 0,-7.21875 -1.2891,-0.001 -2.5859,-0.001 -3.875,0 z m 0.5,0.5 2.875,0 0,6.21875 -2.875,0 0,-6.21875 z"
               transform="translate(0,768.89763)"
               id="path3994" /><path
               inkscape:connector-curvature="0"
               style="fill:#000000"
               d="m 66.081579,908.98138 c -2.4e-4,0.40517 3e-5,0.81267 0,1.21875 0.16488,0.0773 0.33435,0.14277 0.5,0.21875 2.5e-4,-0.31262 -4.5e-4,-0.62424 0,-0.9375 0.96574,0.001 1.90927,0.001 2.875,0 10e-4,0.72049 -9e-5,1.43829 0,2.15625 0.16835,0.0674 0.33095,0.15278 0.5,0.21875 1.7e-4,-0.95945 4e-4,-1.91922 0,-2.875 l -3.875,0 z"
               id="path3978" /><path
               inkscape:connector-curvature="0"
               style="fill:#000000"
               d="m 75.362829,908.98138 c -6.5e-4,1.55834 -2.4e-4,3.12348 0,4.6875 0.16858,0.0488 0.33085,0.10878 0.5,0.15625 -7.4e-4,-1.44706 -0.002,-2.89233 0,-4.34375 0.96574,0.001 1.90926,0.001 2.875,0 0.002,1.70202 9.5e-4,3.39493 0,5.09375 0.16446,0.0379 0.33506,0.0571 0.5,0.0937 -2.2e-4,-1.89585 7.9e-4,-3.79672 0,-5.6875 l -3.875,0 z"
               id="path5819" /></g><path
             style="font-size:medium;font-style:normal;font-variant:normal;font-weight:normal;font-stretch:normal;text-indent:0;text-align:start;text-decoration:none;line-height:normal;letter-spacing:normal;word-spacing:normal;text-transform:none;direction:ltr;block-progression:tb;writing-mode:lr-tb;text-anchor:start;baseline-shift:baseline;color:#000000;fill:#dc0067;fill-opacity:1;fill-rule:nonzero;stroke:none;visibility:visible;display:inline;overflow:visible;enable-background:accumulate;font-family:sans-serif"
             d="m 93.206519,787.95038 c -35.65467,0 -64.562498,29.04506 -64.562498,64.84375 0,32.13268 23.289466,58.78137 53.843748,63.90625 0.52051,-0.54466 1.04598,-1.07668 1.59375,-1.59375 -30.32403,-4.43064 -53.624998,-30.62803 -53.624998,-62.3125 0,-34.79526 28.107328,-62.96875 62.749998,-62.96875 34.643151,0 62.687501,28.17385 62.687501,62.96875 0,6.37439 -0.93617,12.5143 -2.6875,18.3125 0.76787,-0.52021 1.55322,-1.01219 2.34375,-1.5 1.43327,-5.36628 2.21875,-10.99188 2.21875,-16.8125 0,-35.79869 -28.90735,-64.84375 -64.562501,-64.84375 z"
             id="path6989"
             inkscape:connector-curvature="0"
             sodipodi:nodetypes="ssccsssccss" /><path
             transform="translate(-33.593749,561.31806)"
             sodipodi:type="inkscape:offset"
             inkscape:radius="-0.40800047"
             inkscape:original="M 140.6875 242.90625 C 140.6565 242.90625 140.44594 243.20067 140.1875 243.5625 C 139.93422 243.92949 139.62406 244.37643 139.5 244.5625 C 139.37594 244.74858 139.20795 244.94832 139.15625 245 C 139.10455 245.0569 139.0625 245.10949 139.0625 245.125 C 139.0625 245.1405 139.31463 245.31933 139.59375 245.53125 C 140.73608 246.4048 142.1462 247.74628 142.875 248.625 C 143.01974 248.79557 143.14074 248.92199 143.15625 248.9375 C 143.27514 249.04608 143.98663 250.00332 144.28125 250.4375 C 146.60208 253.911 147.81417 257.49458 148.03125 261.5625 C 148.19149 264.51394 147.68416 267.56358 146.5625 270.4375 C 146.06113 271.71937 145.41044 272.96271 144.59375 274.21875 C 144.39733 274.51854 144.17153 274.84963 144.125 274.9375 C 144.0785 275.0202 143.88391 275.27281 143.6875 275.53125 C 142.50899 277.0509 141.00979 278.54987 139.5625 279.625 C 139.25753 279.84726 139.03125 280.04183 139.03125 280.0625 C 139.03125 280.0935 140.47979 282.22462 140.5625 282.3125 C 140.5884 282.3384 140.66734 282.3122 140.75 282.25 C 140.8275 282.1879 141.12711 281.96192 141.40625 281.75 C 142.85354 280.64902 144.19624 279.35918 145.34375 277.96875 C 146.35684 276.74889 146.94317 275.88599 147.6875 274.59375 C 151.21785 268.45828 151.86689 260.99072 149.4375 254.3125 C 147.81446 249.85175 144.9279 246.00337 140.9375 243.03125 C 140.83408 242.95365 140.71852 242.91142 140.6875 242.90625 z M 112.8125 242.9375 C 112.797 242.9425 112.72858 243.00562 112.65625 243.0625 C 112.58385 243.1194 112.31037 243.35057 112.03125 243.5625 C 110.58912 244.66347 109.24125 245.92206 108.09375 247.3125 C 107.08064 248.53236 106.49432 249.39526 105.75 250.6875 C 102.21964 256.82297 101.57061 264.29053 104 270.96875 C 105.62303 275.42952 108.50961 279.27788 112.5 282.25 C 112.60343 282.3275 112.71898 282.36982 112.75 282.375 C 112.7965 282.375 113.42601 281.53544 113.96875 280.71875 C 114.0928 280.53267 114.22956 280.36418 114.28125 280.3125 C 114.33295 280.2556 114.375 280.17176 114.375 280.15625 C 114.375 280.14075 114.14893 279.96192 113.875 279.75 C 112.72749 278.87646 111.29131 277.5662 110.5625 276.6875 C 110.41776 276.51693 110.29676 276.35926 110.28125 276.34375 C 110.16236 276.23517 109.45088 275.27794 109.15625 274.84375 C 106.83542 271.37025 105.62335 267.81792 105.40625 263.75 C 105.24601 260.79856 105.75335 257.74891 106.875 254.875 C 107.37637 253.59312 108.05832 252.31854 108.875 251.0625 C 109.07143 250.76271 109.26598 250.46286 109.3125 250.375 C 109.359 250.2923 109.55359 250.00845 109.75 249.75 C 110.92852 248.22518 112.42769 246.73138 113.875 245.65625 C 114.22647 245.39781 114.42175 245.22885 114.40625 245.1875 C 114.36485 245.07377 112.84869 242.9375 112.8125 242.9375 z M 137 248.125 C 136.9845 248.125 136.93189 248.19855 136.875 248.28125 C 136.50284 248.81364 135.88369 249.71079 135.65625 250.03125 C 135.51151 250.23801 135.3959 250.40107 135.40625 250.40625 C 135.94381 250.80942 136.81606 251.56088 137.28125 252.03125 C 140.03111 254.77077 141.59375 258.58714 141.59375 262.5 C 141.59375 263.90077 141.49739 264.89575 141.15625 266.25 C 140.76858 267.77482 140.10288 269.29119 139.25 270.59375 C 139.09494 270.83669 138.92151 271.1048 138.875 271.1875 C 138.73544 271.4563 138.01664 272.33766 137.46875 272.90625 C 137.02422 273.3611 135.96989 274.27374 135.4375 274.65625 L 135.28125 274.78125 L 136.0625 275.90625 C 136.49669 276.52135 136.89075 277 136.90625 277 C 136.97345 276.995 137.13373 276.88274 137.59375 276.53125 C 141.03623 273.8486 143.37057 270.04042 144.15625 265.78125 C 144.38367 264.55106 144.46851 263.53587 144.4375 262.09375 C 144.422 261.38045 144.3906 260.70745 144.375 260.59375 C 144.03385 258.37629 143.79743 257.52459 143.1875 255.96875 C 142.7585 254.86777 141.78781 253.00043 141.28125 252.375 C 141.21405 252.2871 140.91446 251.92949 140.625 251.5625 C 139.96338 250.71481 138.65456 249.37472 137.75 248.65625 C 137.36749 248.35128 137.01551 248.125 137 248.125 z M 116.5625 248.28125 C 116.5418 248.28625 116.46828 248.30755 116.40625 248.34375 C 116.21501 248.45749 115.38203 249.10715 114.9375 249.5 C 111.97573 252.13614 109.99456 255.66492 109.28125 259.53125 C 109.05382 260.76145 108.96898 261.74539 109 263.1875 C 109.0155 263.89563 109.0469 264.57378 109.0625 264.6875 C 109.40365 266.90496 109.64008 267.75666 110.25 269.3125 C 110.67903 270.41349 111.68095 272.28082 112.1875 272.90625 C 112.2547 272.99415 112.52305 273.3466 112.8125 273.71875 C 113.47413 274.56645 114.81419 275.90653 115.71875 276.625 C 116.10126 276.92996 116.422 277.15625 116.4375 277.15625 C 116.453 277.15625 116.50561 277.11395 116.5625 277.03125 C 116.93466 276.49886 117.5538 275.57046 117.78125 275.25 C 117.92598 275.04324 118.04158 274.88016 118.03125 274.875 C 117.49369 274.47182 116.62145 273.72037 116.15625 273.25 C 113.40639 270.51048 111.84375 266.69411 111.84375 262.78125 C 111.84375 261.38049 111.97136 260.38551 112.3125 259.03125 C 112.70018 257.50643 113.36587 255.99007 114.21875 254.6875 C 114.37381 254.44457 114.51599 254.17645 114.5625 254.09375 C 114.70207 253.82497 115.42085 252.94357 115.96875 252.375 C 116.41328 251.92013 117.46761 251.00749 118 250.625 L 118.15625 250.53125 L 117.375 249.40625 C 116.94081 248.79116 116.578 248.28125 116.5625 248.28125 z M 133.1875 253.59375 C 133.1668 253.59375 133.03006 253.78291 132.875 254 C 132.72511 254.22227 132.49906 254.54819 132.375 254.71875 C 132.25613 254.88933 132.00398 255.21008 131.84375 255.4375 L 131.5625 255.84375 L 131.8125 256.0625 C 132.32422 256.47602 133.16895 257.35764 133.46875 257.8125 C 134.34747 259.14608 134.79277 260.392 134.9375 261.9375 C 135.09774 263.58638 134.61792 265.54754 133.6875 267 C 133.57893 267.16024 133.5 267.29699 133.5 267.3125 C 133.5 267.3797 133.03382 267.95068 132.6875 268.3125 C 132.49108 268.5141 132.13884 268.81909 131.90625 269 L 131.5 269.34375 L 132.28125 270.5 L 133.09375 271.625 L 133.25 271.53125 C 133.84959 271.11257 134.8271 270.18746 135.375 269.5 C 135.92291 268.81771 136.258 268.31222 136.625 267.59375 C 137.89654 265.08683 138.17641 262.20876 137.40625 259.53125 C 137.17881 258.74041 137.00234 258.38482 136.625 257.625 C 136.08743 256.55503 135.47246 255.69639 134.59375 254.8125 C 134.06136 254.28528 133.28054 253.59375 133.1875 253.59375 z M 120.34375 253.6875 C 120.32825 253.677 120.21757 253.75615 120.0625 253.875 C 119.12177 254.58313 118.11439 255.61213 117.40625 256.65625 C 117.0496 257.18347 116.55545 258.2082 116.3125 258.875 C 115.49583 261.10279 115.38514 263.50154 116.03125 265.75 C 116.25869 266.54085 116.43517 266.92768 116.8125 267.6875 C 117.35007 268.75747 117.96503 269.58487 118.84375 270.46875 C 119.37614 270.99597 120.15696 271.6875 120.25 271.6875 C 120.2707 271.6875 120.40743 271.50352 120.5625 271.28125 C 120.71238 271.06416 120.93844 270.73307 121.0625 270.5625 C 121.18137 270.39193 121.43351 270.07117 121.59375 269.84375 L 121.875 269.4375 L 121.625 269.25 C 121.11329 268.8365 120.26854 267.92363 119.96875 267.46875 C 119.09004 266.13519 118.64472 264.88925 118.5 263.34375 C 118.33975 261.69487 118.81959 259.7337 119.75 258.28125 C 119.85858 258.121 119.9375 257.98425 119.9375 257.96875 C 119.9375 257.90155 120.40368 257.33058 120.75 256.96875 C 120.94642 256.76716 121.29866 256.46216 121.53125 256.28125 L 121.9375 255.9375 L 121.15625 254.8125 C 120.72206 254.19223 120.35409 253.70301 120.34375 253.6875 z "
             style="fill:#ffb400;fill-opacity:1"
             id="path6715"
             d="m 140.78125,243.4375 c -0.0727,0.0991 -0.15351,0.20868 -0.25,0.34375 -0.005,0.008 0.005,0.0234 0,0.0312 -0.25072,0.3632 -0.57276,0.79666 -0.6875,0.96875 -0.0794,0.1191 -0.14579,0.19128 -0.21875,0.28125 0.0707,0.0525 0.13696,0.0942 0.21875,0.15625 1.17374,0.89757 2.58012,2.23553 3.34375,3.15625 0.13651,0.16087 0.2681,0.29935 0.25,0.28125 0.086,0.0817 0.13369,0.14197 0.21875,0.25 0.0914,0.11607 0.19628,0.25075 0.3125,0.40625 0.23244,0.311 0.50148,0.67817 0.65625,0.90625 2.35639,3.52672 3.59179,7.17661 3.8125,11.3125 0.16359,3.01318 -0.35795,6.13633 -1.5,9.0625 -0.51239,1.31005 -1.17022,2.56758 -2,3.84375 -0.0998,0.15225 -0.19539,0.30773 -0.28125,0.4375 -0.0859,0.12977 -0.16154,0.25999 -0.15625,0.25 a 0.40804127,0.40804127 0 0 1 -0.0312,0 c -0.0554,0.0986 -0.10619,0.17237 -0.1875,0.28125 -0.0813,0.10888 -0.18357,0.24647 -0.28125,0.375 -1.20157,1.54939 -2.70275,3.0533 -4.1875,4.15625 a 0.40804127,0.40804127 0 0 1 0,0.0312 c -0.0951,0.0693 -0.17686,0.0983 -0.25,0.15625 0.0147,0.0221 0.0152,0.0385 0.0312,0.0625 0.13598,0.20386 0.31429,0.47695 0.5,0.75 0.18571,0.27305 0.38493,0.53897 0.53125,0.75 0.0244,0.0352 0.0407,0.0625 0.0625,0.0937 0.13612,-0.10415 0.27262,-0.19485 0.46875,-0.34375 1.42186,-1.08163 2.7481,-2.35329 3.875,-3.71875 1.0021,-1.20663 1.57521,-2.06374 2.3125,-3.34375 3.46976,-6.03017 4.10676,-13.37304 1.71875,-19.9375 -1.58116,-4.34564 -4.40611,-8.08364 -8.28125,-11 z M 112.75,243.5 c -0.11517,0.0948 -0.25072,0.20946 -0.46875,0.375 -1.42039,1.08437 -2.7504,2.32481 -3.875,3.6875 -1.00212,1.20663 -1.57522,2.06374 -2.3125,3.34375 -3.46977,6.03017 -4.10676,13.37304 -1.71875,19.9375 1.58115,4.34566 4.40612,8.08364 8.28125,11 0.0565,-0.0728 0.11406,-0.11958 0.1875,-0.21875 0.22649,-0.30584 0.51446,-0.72354 0.78125,-1.125 0.0762,-0.11425 0.15338,-0.16716 0.21875,-0.25 -0.0711,-0.0561 -0.13055,-0.11927 -0.21875,-0.1875 -1.17342,-0.89326 -2.60528,-2.19698 -3.375,-3.125 -0.0762,-0.0898 -0.13622,-0.15483 -0.1875,-0.21875 -0.0256,-0.032 -0.0478,-0.0755 -0.0625,-0.0937 -0.086,-0.0817 -0.13369,-0.14197 -0.21875,-0.25 -0.0914,-0.11607 -0.19628,-0.25075 -0.3125,-0.40625 -0.23243,-0.311 -0.50148,-0.67816 -0.65625,-0.90625 -2.35576,-3.52578 -3.59177,-7.14525 -3.8125,-11.28125 -0.16359,-3.01318 0.35796,-6.13634 1.5,-9.0625 0.51367,-1.31332 1.20239,-2.60023 2.03125,-3.875 0.19576,-0.29877 0.40022,-0.64486 0.40625,-0.65625 a 0.40804127,0.40804127 0 0 1 0.0312,0 c 0.0893,-0.15891 0.26381,-0.41783 0.46875,-0.6875 1.20205,-1.55527 2.70323,-3.05367 4.1875,-4.15625 a 0.40804127,0.40804127 0 0 1 0,-0.0312 c 0.11373,-0.0836 0.17657,-0.12835 0.25,-0.1875 -0.023,-0.0339 -0.0361,-0.0553 -0.0625,-0.0937 -0.14668,-0.21358 -0.33778,-0.50838 -0.53125,-0.78125 -0.19347,-0.27287 -0.38536,-0.55066 -0.53125,-0.75 z m 24.34375,5.1875 c -0.36681,0.52659 -0.87968,1.26036 -1.09375,1.5625 -0.006,0.008 0.006,0.0234 0,0.0312 -0.0183,0.0262 -0.0456,0.0384 -0.0625,0.0625 0.54297,0.43034 1.20655,0.98314 1.625,1.40625 2.82933,2.81869 4.4375,6.72851 4.4375,10.75 0,1.41948 -0.0892,2.46124 -0.4375,3.84375 -0.39924,1.57032 -1.08967,3.12618 -1.96875,4.46875 -0.15605,0.24449 -0.35623,0.52912 -0.375,0.5625 l 0.0312,0 c -0.11775,0.22679 -0.32164,0.47956 -0.59375,0.8125 -0.27211,0.33294 -0.62108,0.70405 -0.90625,1 -0.44436,0.45468 -1.31664,1.24412 -1.90625,1.6875 l 0.5625,0.78125 0,0.0312 c 0.20623,0.29117 0.41606,0.56398 0.5625,0.75 0.0115,0.0146 0.0204,0.0176 0.0312,0.0312 0.0922,-0.0667 0.17667,-0.12234 0.34375,-0.25 3.36535,-2.62255 5.63885,-6.33994 6.40625,-10.5 0.22342,-1.20857 0.31183,-2.20299 0.28125,-3.625 -0.008,-0.35345 -0.0197,-0.70037 -0.0312,-0.96875 -0.0116,-0.26838 -0.0332,-0.48278 -0.0312,-0.46875 -0.33923,-2.20498 -0.55171,-2.98916 -1.15625,-4.53125 -0.41007,-1.0524 -1.42674,-2.98513 -1.84375,-3.5 -0.0361,-0.0473 -0.36183,-0.43922 -0.65625,-0.8125 -0.62937,-0.80637 -1.95133,-2.15974 -2.8125,-2.84375 -0.14822,-0.11817 -0.28712,-0.19723 -0.40625,-0.28125 z m -20.65625,0.125 c -0.11162,0.0803 -0.20956,0.15818 -0.40625,0.3125 -0.28309,0.22211 -0.60137,0.50091 -0.8125,0.6875 -2.89419,2.57599 -4.83436,6.00391 -5.53125,9.78125 -0.22366,1.20979 -0.31184,2.17162 -0.28125,3.59375 0.008,0.35089 0.0196,0.69968 0.0312,0.96875 0.0116,0.26907 0.0333,0.48356 0.0312,0.46875 0.33923,2.20498 0.55172,2.98916 1.15625,4.53125 0.40767,1.04618 1.45283,2.97875 1.875,3.5 0.0685,0.0896 0.33717,0.44243 0.625,0.8125 0.62554,0.80147 1.979,2.1569 2.84375,2.84375 0.13969,0.11137 0.26528,0.19941 0.375,0.28125 0.36233,-0.5259 0.87615,-1.25477 1.09375,-1.5625 0.006,-0.008 -0.005,-0.0234 0,-0.0312 0.0183,-0.0262 0.0456,-0.0384 0.0625,-0.0625 -0.54296,-0.43035 -1.20654,-0.98314 -1.625,-1.40625 -2.82933,-2.81869 -4.4375,-6.72851 -4.4375,-10.75 0,-1.42554 0.12193,-2.46696 0.46875,-3.84375 0.39925,-1.57031 1.08968,-3.12617 1.96875,-4.46875 0.14266,-0.22351 0.2867,-0.46105 0.34375,-0.5625 l -0.0312,0 c 0.11774,-0.22674 0.32164,-0.47955 0.59375,-0.8125 0.27211,-0.33295 0.62106,-0.70405 0.90625,-1 0.44077,-0.45102 1.31617,-1.21078 1.90625,-1.65625 l -0.5625,-0.78125 0,-0.0312 c -0.21028,-0.29784 -0.42087,-0.58424 -0.5625,-0.78125 -0.0118,-0.0164 -0.0202,-0.0159 -0.0312,-0.0312 z m 16.84375,5.34375 c -0.0185,0.0257 -0.0429,0.0351 -0.0625,0.0625 -0.004,0.007 0.005,0.0246 0,0.0312 -0.14779,0.21867 -0.37176,0.51037 -0.5,0.6875 -0.004,0.005 0.004,0.0256 0,0.0312 -0.13455,0.19098 -0.38622,0.48356 -0.53125,0.6875 l 0,0.0312 -0.0937,0.0937 c 0.5603,0.45893 1.36472,1.27537 1.71875,1.8125 0.90812,1.37819 1.38117,2.70992 1.53125,4.3125 0.17084,1.75792 -0.32647,3.77322 -1.3125,5.3125 -0.0498,0.0735 -0.0969,0.1401 -0.125,0.1875 -0.003,0.0102 -0.0279,0.0237 -0.0312,0.0312 -0.003,0.006 0.001,0.0287 0,0.0312 -0.003,0.005 0.002,0.0262 0,0.0312 -0.0137,0.0313 -0.0193,0.0423 -0.0312,0.0625 -0.0239,0.0404 -0.0651,0.0849 -0.0937,0.125 -0.0574,0.0802 -0.13533,0.17876 -0.21875,0.28125 -0.16684,0.20498 -0.37844,0.43271 -0.5625,0.625 -0.22303,0.22891 -0.56207,0.52397 -0.8125,0.71875 l -0.125,0.0937 0.59375,0.84375 0,0.0312 0.5625,0.75 c 0.55649,-0.42256 1.40359,-1.18977 1.875,-1.78125 0.53716,-0.6689 0.831,-1.14584 1.1875,-1.84375 1.22548,-2.41611 1.49143,-5.17237 0.75,-7.75 -0.22092,-0.76819 -0.37268,-1.08396 -0.75,-1.84375 -0.52084,-1.03667 -1.08483,-1.86105 -1.9375,-2.71875 -0.25871,-0.25619 -0.57799,-0.54912 -0.84375,-0.78125 -0.073,-0.0638 -0.12646,-0.1056 -0.1875,-0.15625 z M 120.25,254.25 c -0.88315,0.67708 -1.83894,1.6503 -2.5,2.625 -0.31717,0.46886 -0.83444,1.49907 -1.0625,2.125 -0.7882,2.15011 -0.87142,4.46246 -0.25,6.625 0.22171,0.77094 0.37467,1.1192 0.75,1.875 0.51941,1.03383 1.08143,1.82641 1.9375,2.6875 0.25871,0.25619 0.57799,0.54912 0.84375,0.78125 0.073,0.0638 0.12646,0.1056 0.1875,0.15625 0.0201,-0.0283 0.0413,-0.0322 0.0625,-0.0625 0.14437,-0.20911 0.36577,-0.53307 0.5,-0.71875 0.004,-0.005 -0.004,-0.0256 0,-0.0312 0.13454,-0.19095 0.3862,-0.48354 0.53125,-0.6875 l 0,-0.0312 0.0625,-0.0937 c -0.56527,-0.4709 -1.34418,-1.29157 -1.6875,-1.8125 -0.90811,-1.37817 -1.38118,-2.70991 -1.53125,-4.3125 -0.17085,-1.75793 0.32648,-3.77324 1.3125,-5.3125 0.0498,-0.0735 0.0969,-0.1401 0.125,-0.1875 0.008,-0.0142 0.0262,-0.0221 0.0312,-0.0312 0.005,-0.0171 -0.002,-0.0262 0,-0.0312 0.003,-0.005 -0.002,-0.0262 0,-0.0312 0.0138,-0.0313 0.0193,-0.0423 0.0312,-0.0625 0.0239,-0.0404 0.0651,-0.0849 0.0937,-0.125 0.0574,-0.0802 0.13533,-0.17876 0.21875,-0.28125 0.16684,-0.20497 0.37845,-0.4327 0.5625,-0.625 0.22302,-0.22889 0.56207,-0.52396 0.8125,-0.71875 l 0.125,-0.0937 -0.59375,-0.84375 c -0.21494,-0.30706 -0.41613,-0.5811 -0.5625,-0.78125 z m -6.28125,25.78125 c 0,0 0.0312,0.0312 0.0312,0.0312 l 0,-0.0312 c -0.005,0.009 -0.0354,0.005 -0.0312,0 z" /></g><g
           transform="matrix(0.27816478,0,0,-0.27816478,252.34208,507.92346)"
           id="g3851"><path
             inkscape:connector-curvature="0"
             style="fill:#ffb400;fill-opacity:1"
             id="path7-7-3-8-7"
             d="m 168.38376,937.23491 18.01227,-18.09426 16.96311,0 -12.00778,12.0631 24.03666,-2.2e-4 0,12.06118 -24.03666,0 12.00778,12.06278 -16.96311,0 -18.01227,-18.09417 z" /><path
             inkscape:connector-curvature="0"
             id="path6-4-7-4-9"
             d="m 189.5868,878.64258 c -25.72526,0 -46.59553,20.95966 -46.59553,46.78675 0,25.8272 20.87029,46.78895 46.59553,46.78895 25.72535,0 46.59554,-20.96175 46.59554,-46.78895 0,-25.82709 -20.87018,-46.78675 -46.59554,-46.78675 z m 0,1.89679 c 24.69605,0 44.69874,20.08354 44.69874,44.88996 0,24.80653 -20.00268,44.89216 -44.69874,44.89216 -24.69595,0 -44.69874,-20.08563 -44.69874,-44.89216 0,-24.80641 20.0028,-44.88996 44.69874,-44.88996 z"
             style="font-size:medium;font-style:normal;font-variant:normal;font-weight:normal;font-stretch:normal;text-indent:0;text-align:start;text-decoration:none;line-height:normal;letter-spacing:normal;word-spacing:normal;text-transform:none;direction:ltr;block-progression:tb;writing-mode:lr-tb;text-anchor:start;baseline-shift:baseline;color:#000000;fill:#dc0067;fill-opacity:1;fill-rule:nonzero;stroke:none;visibility:visible;display:inline;overflow:visible;enable-background:accumulate;font-family:sans-serif" /><path
             inkscape:connector-curvature="0"
             id="path5-2-4-3-2"
             d="m 189.5868,859.94501 c -35.9734,0 -65.23374,29.39773 -65.23374,65.48432 0,36.08648 29.26034,65.4865 65.23374,65.4865 35.9737,0 65.23375,-29.40002 65.23375,-65.4865 0,-36.08659 -29.26005,-65.48432 -65.23375,-65.48432 z m 0,11.33899 c 29.81949,0 53.89257,24.16136 53.89257,54.14533 0,29.98384 -24.07308,54.14533 -53.89257,54.14532 -29.81912,0 -53.89477,-24.16148 -53.89477,-54.14532 0,-29.98397 24.07565,-54.14533 53.89477,-54.14533 z"
             style="font-size:medium;font-style:normal;font-variant:normal;font-weight:normal;font-stretch:normal;text-indent:0;text-align:start;text-decoration:none;line-height:normal;letter-spacing:normal;word-spacing:normal;text-transform:none;direction:ltr;block-progression:tb;writing-mode:lr-tb;text-anchor:start;baseline-shift:baseline;color:#000000;fill:#dc0067;fill-opacity:1;fill-rule:nonzero;stroke:none;visibility:visible;display:inline;overflow:visible;enable-background:accumulate;font-family:sans-serif" /></g><g
           transform="matrix(0.27816478,0,0,-0.27816478,252.34208,507.92346)"
           id="g3847"><path
             inkscape:connector-curvature="0"
             style="fill:#ffb400;fill-opacity:1"
             id="path4-0-4-2-3"
             d="m 114.95751,937.23491 -10.63816,-10.68658 -10.018741,0 7.091881,7.12451 -14.194871,2e-4 0,7.12608 14.194871,0 -7.091881,7.12451 10.018741,0 10.63816,-10.68681 z" /><path
             style="font-size:medium;font-style:normal;font-variant:normal;font-weight:normal;font-stretch:normal;text-indent:0;text-align:start;text-decoration:none;line-height:normal;letter-spacing:normal;word-spacing:normal;text-transform:none;direction:ltr;block-progression:tb;writing-mode:lr-tb;text-anchor:start;baseline-shift:baseline;color:#000000;fill:#dc0067;fill-opacity:1;fill-rule:nonzero;stroke:none;visibility:visible;display:inline;overflow:visible;enable-background:accumulate;font-family:sans-serif"
             d="m 113.85587,903.25909 c -24.012281,0 -43.494291,19.56749 -43.494291,43.67452 0,24.10723 19.482,43.67232 43.494291,43.67232 24.0126,0 43.49429,-19.56509 43.49429,-43.67232 0,-24.10702 -19.4817,-43.67452 -43.49429,-43.67452 z m 0,1.89679 c 22.98331,0 41.59751,18.6914 41.59751,41.77773 0,23.08655 -18.61421,41.77553 -41.59751,41.77553 -22.982961,0 -41.597501,-18.68898 -41.597501,-41.77553 0,-23.08634 18.61452,-41.77773 41.597501,-41.77773 z"
             id="path6054"
             inkscape:connector-curvature="0" /></g><text
           xml:space="preserve"
           style="font-size:36.32513046px;font-style:normal;font-weight:normal;line-height:0%;letter-spacing:0px;word-spacing:0px;fill:#dc0067;fill-opacity:1;stroke:none;font-family:Sans"
           x="6.7122231"
           y="-277.9075"
           id="text4824"
           sodipodi:linespacing="0%"
           transform="scale(1.1988194,-0.83415401)"><tspan
             sodipodi:role="line"
             id="tspan4826"
             x="6.7122231"
             y="-277.9075"
             style="font-size:21.79507828px;font-style:normal;font-variant:normal;font-weight:normal;font-stretch:normal;text-align:start;line-height:139.99999762%;letter-spacing:0px;word-spacing:0px;writing-mode:lr-tb;text-anchor:start;fill:#dc0067;fill-opacity:1;font-family:Just Another Hand;-inkscape-font-specification:Just Another Hand"
             dx="0"
             dy="1.8162566"
             rotate="0 0 0 0 0 0 0 0 0 0 0 0 0 0 0 0 0 0 0 0 0 0 0 0">Hallo Freifunk-Nachbar!</tspan></text>
<text
           xml:space="preserve"
           style="font-size:9.60000038px;font-style:normal;font-weight:normal;line-height:125%;letter-spacing:0px;word-spacing:0px;fill:#000000;fill-opacity:1;stroke:none;font-family:Arial;-inkscape-font-specification:Arial;font-stretch:normal;font-variant:normal;"
           x="8.9963951"
           y="-248.68605"
           id="text4292"
           sodipodi:linespacing="125%"
           transform="scale(1,-1)"><tspan
             sodipodi:role="line"
             id="tspan4294"
             x="8.9963951"
             y="-248.68605">- Rückmeldung - </tspan></text>
<rect
           style="fill:#000000;fill-opacity:0"
           id="rect4296"
           width="7.0685949"
           height="12.209393"
           x="10.281593"
           y="-183.41673"
           transform="scale(1,-1)" /><path
           style="fill:none;stroke:#000000;stroke-width:0.80000001px;stroke-linecap:butt;stroke-linejoin:miter;stroke-opacity:1"
           d="m 16.70759,193.69829 0,-10.9242 10.924192,0 0,10.9242 z"
           id="path5072"
           inkscape:connector-curvature="0" /><flowRoot
           xml:space="preserve"
           id="flowRoot5082"
           style="font-style:normal;font-variant:normal;font-weight:normal;font-stretch:normal;font-size:12px;line-height:125%;font-family:Arial;-inkscape-font-specification:Arial;letter-spacing:0px;word-spacing:0px;fill:#000000;fill-opacity:1;stroke:none"
           transform="matrix(0.8,0,0,-0.8,13.494591,359.46298)"><flowRegion
             id="flowRegion5084"><rect
               id="rect5086"
               width="197.59938"
               height="32.933228"
               x="28.113731"
               y="201.61562"
               style="font-style:normal;font-variant:normal;font-weight:normal;font-stretch:normal;font-family:Arial;-inkscape-font-specification:Arial" /></flowRegion><flowPara
             id="flowPara5088">... ich habe Interesse und möchte einen Zugangspunkt aufstellen</flowPara></flowRoot><path
           style="fill:none;stroke:#000000;stroke-width:0.80000001px;stroke-linecap:butt;stroke-linejoin:miter;stroke-opacity:1"
           d="m 16.707589,162.06159 0,-10.9242 10.924193,0 0,10.9242 z"
           id="path5072-5"
           inkscape:connector-curvature="0" /><flowRoot
           xml:space="preserve"
           id="flowRoot5122"
           style="font-size:12px;font-style:normal;font-weight:normal;line-height:125%;letter-spacing:0px;word-spacing:0px;fill:#000000;fill-opacity:1;stroke:none;font-family:Arial;-inkscape-font-specification:Arial;font-stretch:normal;font-variant:normal;"
           transform="matrix(0.8,0,0,-0.8,0,319.30701)"><flowRegion
             id="flowRegion5124"><rect
               id="rect5126"
               width="190.34091"
               height="38.636368"
               x="46.022728"
               y="189.92921"
               style="-inkscape-font-specification:Arial;font-family:Arial;font-weight:normal;font-style:normal;font-stretch:normal;font-variant:normal;" /></flowRegion><flowPara
             id="flowPara5128">... ich habe Interesse und möchte mich erst einmal informieren</flowPara></flowRoot><text
           xml:space="preserve"
           style="font-size:9.60000038px;font-style:normal;font-weight:normal;line-height:125%;letter-spacing:0px;word-spacing:0px;fill:#000000;fill-opacity:1;stroke:none;font-family:Arial;-inkscape-font-specification:Arial;font-stretch:normal;font-variant:normal;"
           x="37.49091"
           y="-123.96364"
           id="text5130"
           sodipodi:linespacing="125%"
           transform="scale(1,-1)"><tspan
             sodipodi:role="line"
             id="tspan5132"
             x="37.49091"
             y="-123.96364">... ich habe kein Interesse</tspan></text>
<path
           style="fill:none;stroke:#000000;stroke-width:0.80000001px;stroke-linecap:butt;stroke-linejoin:miter;stroke-opacity:1"
           d="m 16.356085,132.11665 0,-10.9242 10.924193,0 0,10.9242 z"
           id="path5072-5-6"
           inkscape:connector-curvature="0" /><text
           xml:space="preserve"
           style="font-size:12px;font-style:normal;font-weight:normal;line-height:125%;letter-spacing:0px;word-spacing:0px;fill:#000000;fill-opacity:1;stroke:none;font-family:Arial;-inkscape-font-specification:Arial;font-stretch:normal;font-variant:normal;"
           x="11.363636"
           y="117.77012"
           id="text5152"
           sodipodi:linespacing="125%"
           transform="matrix(0.8,0,0,-0.8,0,303.30701)"><tspan
             sodipodi:role="line"
             x="11.363636"
             y="117.77012"
             id="tspan5156">Mein Name ist                                             und</tspan></text>
</g></g><path
       inkscape:connector-curvature="0"
       d="m 72.749578,207.91947 114.569572,0"
       style="fill:none;stroke:#d3d2d2;stroke-width:0.60150719;stroke-linecap:butt;stroke-linejoin:miter;stroke-miterlimit:4;stroke-opacity:1;stroke-dasharray:none"
       id="path3270-0" /><text
       xml:space="preserve"
       style="font-style:normal;font-variant:normal;font-weight:normal;font-stretch:normal;font-size:12px;line-height:125%;font-family:Arial;-inkscape-font-specification:Arial;letter-spacing:0px;word-spacing:0px;fill:#000000;fill-opacity:1;stroke:none"
       x="13.068182"
       y="260.38376"
       id="text5178"
       sodipodi:linespacing="125%"
       transform="matrix(0.8,0,0,-0.8,0,303.30701)"><tspan
         sodipodi:role="line"
         x="13.068182"
         y="260.38376"
         id="tspan4050">Du erreichst mich wie folgt:</tspan></text>
<text
       xml:space="preserve"
       style="font-size:6.4000001px;font-style:normal;font-weight:normal;line-height:125%;letter-spacing:0px;word-spacing:0px;fill:#000000;fill-opacity:1;stroke:none;font-family:Arial;-inkscape-font-specification:Arial;font-stretch:normal;font-variant:normal;"
       x="10.909095"
       y="-89.545456"
       id="text5182"
       sodipodi:linespacing="125%"
       transform="scale(1,-1)"><tspan
         sodipodi:role="line"
         id="tspan5184"
         x="10.909095"
         y="-89.545456"
         style="font-size:4.80000019px;font-weight:normal;-inkscape-font-specification:Arial;font-family:Arial;font-style:normal;font-stretch:normal;font-variant:normal;">(beispielsweise E-Mail-Adresse, Handynummer, Twitter-Name, etc ...)</tspan></text>
<path
       inkscape:connector-curvature="0"
       d="m 11.285099,70.218183 183.338891,0"
       style="fill:none;stroke:#d3d2d2;stroke-width:0.76091033;stroke-linecap:butt;stroke-linejoin:miter;stroke-miterlimit:4;stroke-opacity:1;stroke-dasharray:none"
       id="path3270-0-0" /><path
       inkscape:connector-curvature="0"
       d="m 10.822658,50.454547 183.904702,0"
       style="fill:none;stroke:#d3d2d2;stroke-width:0.76208353;stroke-linecap:butt;stroke-linejoin:miter;stroke-miterlimit:4;stroke-opacity:1;stroke-dasharray:none"
       id="path3270-0-0-9" /></g></svg>