<?xml version="1.0" encoding="UTF-8" standalone="no"?>
<!-- Created with Inkscape (http://www.inkscape.org/) -->

<svg
   xmlns:dc="http://purl.org/dc/elements/1.1/"
   xmlns:cc="http://creativecommons.org/ns#"
   xmlns:rdf="http://www.w3.org/1999/02/22-rdf-syntax-ns#"
   xmlns:svg="http://www.w3.org/2000/svg"
   xmlns="http://www.w3.org/2000/svg"
   xmlns:sodipodi="http://sodipodi.sourceforge.net/DTD/sodipodi-0.dtd"
   xmlns:inkscape="http://www.inkscape.org/namespaces/inkscape"
   width="379.13385"
   height="531.49603"
   id="svg9558"
   version="1.1"
   inkscape:version="0.48.5 r10040"
   sodipodi:docname="freifunk_karlsruhe_flyer_-_mach_mit_a6_02_rückseite.svg">
  <defs
     id="defs9560" />
  <sodipodi:namedview
     id="base"
     pagecolor="#ffffff"
     bordercolor="#666666"
     borderopacity="1.0"
     inkscape:pageopacity="0.0"
     inkscape:pageshadow="2"
     inkscape:zoom="1.4"
     inkscape:cx="196.87505"
     inkscape:cy="262.85714"
     inkscape:document-units="mm"
     inkscape:current-layer="layer8"
     showgrid="false"
     units="mm"
     showguides="true"
     inkscape:guide-bbox="true"
     inkscape:window-width="1428"
     inkscape:window-height="956"
     inkscape:window-x="262"
     inkscape:window-y="105"
     inkscape:window-maximized="0">
    <sodipodi:guide
       orientation="1,0"
       position="3.5433071,361.42857"
       id="guide9747" />
    <sodipodi:guide
       orientation="0,1"
       position="50,527.95276"
       id="guide9749" />
    <sodipodi:guide
       orientation="1,0"
       position="375.59055,330"
       id="guide9751" />
    <sodipodi:guide
       orientation="0,1"
       position="95,3.5433071"
       id="guide9753" />
  </sodipodi:namedview>
  <metadata
     id="metadata9563">
    <rdf:RDF>
      <cc:Work
         rdf:about="">
        <dc:format>image/svg+xml</dc:format>
        <dc:type
           rdf:resource="http://purl.org/dc/dcmitype/StillImage" />
        <dc:title></dc:title>
      </cc:Work>
    </rdf:RDF>
  </metadata>
  <g
     inkscape:label="Ebene 1"
     inkscape:groupmode="layer"
     id="layer1"
     transform="translate(0,-520.86611)">
    <g
       style="display:inline"
       inkscape:label="Content"
       id="layer8"
       transform="translate(3.535675,520.86616)">
      <path
         sodipodi:nodetypes="csccccc"
         inkscape:connector-curvature="0"
         id="path3234"
         d="m 256.09052,330.28266 c -85.4473,-11.76148 -136.28721,13.41805 -223.813056,13.41805 l -35.820224,0 0,187.79527 379.14802,0 0,-187.79527 c -46.7184,0 -61.72307,-2.27911 -119.51474,-13.41805 z"
         style="fill:#dc0067;fill-opacity:1;stroke:#7a7a7a icc-color(Gray-Tone, 50.81406882, 128.00195315, 128.00195315);stroke-width:0;stroke-linecap:butt;stroke-miterlimit:0;stroke-opacity:1;stroke-dasharray:none;stroke-dashoffset:71.96301609;display:inline" />
      <g
         transform="matrix(1.2077712,0.06876346,-0.06778549,1.1905941,140.41921,-633.49354)"
         id="g5772"
         style="display:inline">
        <g
           transform="translate(-43.398218,0)"
           id="g3373">
          <g
             inkscape:transform-center-x="3.1175141"
             transform="matrix(1.0608068,-0.05780504,0.05617251,1.0608068,-56.388653,-33.457078)"
             inkscape:transform-center-y="-114.53849"
             id="g3342">
            <g
               transform="matrix(0.99958784,0.02912226,-0.02829978,0.99958784,11.30085,-2.759274)"
               inkscape:transform-center-y="-81.312228"
               inkscape:transform-center-x="18.819761"
               id="g3317">
              <path
                 inkscape:connector-curvature="0"
                 id="path7967"
                 d="m 124.73561,792.39657 0.4154,7.68498 c 0,0 -0.79619,4.36176 -2.35396,4.91562 -1.55776,0.55388 -1.83469,3.46171 0.69234,3.66941 2.52705,0.2077 126.76761,4.05019 126.76761,4.05019 l 1.10774,-2.11163 c 0,0 -3.63478,-2.97707 -5.50411,-3.35786 -1.86931,-0.38078 -109.59755,-2.28472 -109.59755,-2.28472 l -2.66551,-13.05063 z"
                 style="fill:#ffffff;fill-rule:evenodd;stroke:none" />
              <path
                 sodipodi:nodetypes="ccsscaaaasaaaaaaaccccccaaaaacccccc"
                 style="fill:#030002;fill-opacity:1;fill-rule:evenodd;stroke:none"
                 d="m 128.67552,733.327 6.38274,-2.41509 c 0.54077,0.44626 -1.35899,32.98536 -1.36856,36.58544 -0.0228,8.60517 -1.66472,37.19977 -0.63474,39.76722 0.47366,1.18071 20.62325,-0.10049 20.67295,1.53957 0,0 25.80145,0.37326 38.70267,0.31997 3.92826,-0.0162 7.85788,-0.34554 11.7833,-0.19476 4.23716,0.16275 8.44048,0.82614 12.66553,1.18528 3.22244,0.27392 6.44289,0.60017 9.67394,0.73945 7.29684,0.31453 5.65905,1.3578 21.90977,0.21624 0.65467,-0.046 -0.21144,-0.94922 0.0599,-1.27844 0.36123,-0.43832 1.08995,-0.45587 1.6555,-0.40344 1.96292,0.18196 3.94991,1.08692 5.39051,2.43258 0.48061,0.44894 1.12202,1.10932 0.93208,1.73897 -0.16416,0.54425 -0.94856,0.67903 -1.50247,0.80688 -5.43171,1.25385 -11.13788,-0.78569 -16.71087,-0.65385 -2.84691,0.0674 -5.66423,0.67448 -8.51124,0.73732 -7.02076,0.15496 -21.04858,-0.89035 -21.04858,-0.89035 l -9.80782,0.13912 -11.5329,-0.22259 -7.05329,0.0278 -25.41688,-2.60349 c -8.83603,-0.1086 -18.54843,-0.20771 -21.9111,-0.37562 0,0 -6.62534,-0.47012 -9.93303,-0.76515 -1.00745,-0.0898 -2.13651,0.18838 -3.01886,-0.30606 -0.5947,-0.33324 -1.44154,-0.97704 -1.23816,-1.62769 0.42485,-1.35908 2.71338,-0.86535 4.06225,-1.32161 0.81385,-0.27529 1.89726,-0.18157 2.43179,-0.85419 3.7636,-4.7359 1.62634,-13.6995 1.99217,-18.03806 -0.48763,-1.78462 0.37159,-7.83428 0.59821,-11.88068 -0.29046,-3.08801 -0.28216,-7.2895 -0.0835,-12.20066 -0.15222,-6.05196 -1.11254,-9.77654 -0.27824,-18.66965 0.20754,-4.38592 0.22333,-7.51168 0.11964,-9.85235 z"
                 id="path4148"
                 inkscape:connector-curvature="0" />
              <path
                 sodipodi:nodetypes="ccszzsssccscc"
                 style="fill:#009ee0;fill-opacity:1;fill-rule:evenodd;stroke:none"
                 d="m 132.78865,730.49389 0.0696,-1.15468 c 0,0 0.15304,-0.29215 1.89201,-0.40344 1.73898,-0.1113 34.96344,-0.6388 50.80415,-0.54157 15.84073,0.0972 34.16397,1.01192 44.22743,1.01457 10.06348,0.003 14.66306,-1.5303 16.13771,-0.36171 1.47465,1.16859 5.00825,4.52134 4.98043,5.85687 -0.0278,1.33554 -1.8781,38.42442 -2.2398,39.77387 -0.36171,1.34945 -2.77246,32.24302 -2.77246,32.24302 -1.07164,1.92909 -2.71283,2.52923 -4.54938,2.67352 -17.7605,-1.58731 -44.74137,-0.52381 -52.42908,-1.02036 -18.22761,-1.17733 -38.39196,-0.053 -56.57965,-0.18786 z"
                 id="path4152"
                 inkscape:connector-curvature="0" />
              <path
                 sodipodi:nodetypes="cccccc"
                 inkscape:connector-curvature="0"
                 id="path5598"
                 d="m 245.84786,717.87932 4.3427,-0.0868 -0.0481,7.66864 -5.6493,-0.60099 -0.25605,-6.33642 z"
                 style="fill:#009ee0;fill-opacity:1;fill-rule:evenodd;stroke:none" />
              <path
                 sodipodi:nodetypes="ccccc"
                 inkscape:connector-curvature="0"
                 id="path5600"
                 d="m 244.66145,710.82106 c 2.8126,-0.0612 4.6149,0.20227 5.69738,0.69715 l -0.0721,4.49541 c -1.44631,0.18438 -2.81508,0.42613 -5.76218,-0.50007 z"
                 style="fill:#009ee0;fill-opacity:1;fill-rule:evenodd;stroke:none" />
              <path
                 sodipodi:nodetypes="ccccc"
                 inkscape:connector-curvature="0"
                 id="path5602"
                 d="m 244.58933,705.24387 0.33655,3.89442 5.76951,0.0962 -0.0721,-3.75018 c -1.56845,-0.46956 -2.75977,-1.27072 -6.03394,-0.2404 z"
                 style="fill:#009ee0;fill-opacity:1;fill-rule:evenodd;stroke:none" />
              <path
                 sodipodi:nodetypes="ccccc"
                 inkscape:connector-curvature="0"
                 id="path5604"
                 d="m 245.40667,703.10435 c 1.64169,0.23495 2.78077,0.71029 5.74547,0.31251 L 252.282,672.55 c -0.23846,-1.16707 -3.5683,-0.0671 -5.45699,-0.024 z"
                 style="fill:#009ee0;fill-opacity:1;fill-rule:evenodd;stroke:none" />
              <path
                 sodipodi:nodetypes="cccccccccccccccscccscccscccscccscccscccccccc"
                 inkscape:connector-curvature="0"
                 id="path7937"
                 d="m 142.62178,739.47719 4.21528,0.91543 3.85357,0.45771 c 0.33381,1.64799 1.04294,3.25781 -0.7095,5.11805 l -7.44283,-0.61028 -0.95991,0.6935 0.63995,1.3454 7.67932,0 c 1.18314,1.89255 0.0256,3.72369 -0.33388,5.57577 l -7.91582,-0.38837 -0.61213,1.26218 1.11294,0.66576 7.55412,-0.0416 -0.16694,5.27063 -7.26196,-0.0139 c 0,0 -1.79463,0.54093 -0.84862,1.13735 0.94599,0.59641 7.88799,0.70737 7.88799,0.70737 0.20611,1.37997 1.17689,2.74037 -0.20867,4.16103 l -7.26197,0.0138 c 0,0 -1.75289,1.59506 -0.59821,1.83084 1.15468,0.23579 7.58194,0.23579 7.58194,0.23579 1.52102,1.09852 0.51962,2.7 -0.33388,4.27199 l -6.80289,0.98477 c 0,0 -1.22423,0.79059 0.16695,1.17896 1.39118,0.38835 6.39944,0.40223 6.39944,0.40223 l -0.2365,5.1874 -5.95426,0.20805 c 0,0 -3.24146,0.80446 -0.473,1.45636 2.76844,0.65189 6.35769,-0.19418 6.35769,-0.19418 0.65601,2.03095 0.31843,4.17198 -0.62603,6.38023 l -5.59255,-0.40223 c 0,0 -1.83636,1.40088 -0.0139,1.77537 1.82245,0.37449 5.56473,0.61028 5.56473,0.61028 l -0.0835,4.60487 -5.13346,0.0832 c 0,0 -2.8241,1.31766 -0.0278,1.95567 2.79627,0.63803 4.92478,0.54094 4.92478,0.54094 l -0.12521,2.47112 -3.93704,1.02639 -4.17355,-0.77673 -2.78365,-0.20805 0.8208,-31.7231 0.98079,-28.3088 z"
                 style="fill:#ffffff;fill-opacity:1;fill-rule:evenodd;stroke:none" />
              <path
                 style="fill:#030002;fill-opacity:1;fill-rule:evenodd;stroke:#000000;stroke-width:1px;stroke-linecap:butt;stroke-linejoin:miter;stroke-opacity:1"
                 d="m 143.86411,738.39713 c 1.5527,0.17677 2.02958,0.47165 3.20667,0.66313 1.17708,0.19146 3.85357,0.45909 3.85357,0.45909 l -0.7095,5.13345 -7.44282,-0.61212 -0.95992,0.69559 0.63995,1.34945 7.67931,0 -0.33387,5.59254 -7.91583,-0.38953 -0.61212,1.26598 1.11294,0.66776 7.55412,-0.0417 -0.16694,5.28649 -7.26196,-0.0139 c 0,0 -1.79463,0.54256 -0.84862,1.14076 0.94599,0.59822 7.88799,0.70951 7.88799,0.70951 l -0.20868,4.17354 -7.26196,0.0139 c 0,0 -1.75289,1.59986 -0.59822,1.83637 1.15469,0.2365 7.58195,0.2365 7.58195,0.2365 l -0.33388,4.28484 -6.80289,0.98773 c 0,0 -1.22423,0.79297 0.16695,1.18251 1.39118,0.38953 6.39944,0.40344 6.39944,0.40344 l -0.23651,5.20302 -5.95425,0.20867 c 0,0 -3.24146,0.80688 -0.473,1.46074 2.76844,0.65386 6.35769,-0.19477 6.35769,-0.19477 l -0.62603,6.39944 -5.59255,-0.40344 c 0,0 -1.83635,1.40509 -0.0139,1.78071 1.82245,0.37562 5.56473,0.61212 5.56473,0.61212 l -0.0835,4.61872 -5.13346,0.0835 c 0,0 -2.8241,1.32163 -0.0278,1.96157 2.79629,0.63994 4.92479,0.54256 4.92479,0.54256 l -0.12521,4.61872 -3.93704,1.02948 -4.17355,-0.77906 -4.0066,-0.20868 c 0,0 1.70652,-57.50216 2.25835,-59.79993 0.55183,-2.29777 0.37301,-1.39068 1.49088,-2.25139 1.11788,-0.86071 3.60858,-0.084 5.16129,0.0927 z"
                 id="path4150"
                 inkscape:connector-curvature="0"
                 sodipodi:nodetypes="zzcccccccccccccscccscccscccscccscccsccccczzz" />
              <path
                 style="color:#000000;fill:#030002;fill-opacity:1;fill-rule:evenodd;stroke:none;visibility:visible;display:inline;overflow:visible;enable-background:accumulate"
                 d="m 154.96937,794.35043 c 0,0 -1.05729,-0.0557 -1.51638,1.32163 -0.45909,1.37726 -0.72342,4.20135 0.61212,5.03607 1.33553,0.83471 4.78566,0.61212 5.24475,-1.72506 0.45909,-2.33719 0.0139,-3.86749 -0.72341,-4.38223 -0.73733,-0.51473 -3.61708,-0.25041 -3.61708,-0.25041 z"
                 id="path4158"
                 inkscape:connector-curvature="0" />
              <path
                 sodipodi:nodetypes="ccccccccccc"
                 inkscape:connector-curvature="0"
                 id="path4154"
                 d="m 155.88738,795.12369 c -0.74051,0.0353 -1.32654,0.65302 -1.53364,1.33241 -0.20152,0.56959 -0.37225,1.15316 -0.49753,1.74355 -0.15632,1.32145 0.86011,2.65015 2.17378,2.85485 0.57035,0.0965 1.14912,0.13149 1.72173,0.21239 0.54165,0.0614 1.12113,-0.004 1.57183,-0.33445 0.42338,-0.25242 0.82208,-0.65093 0.84575,-1.17211 0.10373,-1.01693 -0.35797,-1.97483 -0.43214,-2.97716 -0.041,-0.43689 -0.15302,-0.92489 -0.55438,-1.17229 -0.56863,-0.38025 -2.55226,-0.26161 -2.73125,-0.38561 -0.17956,-0.0681 -0.37157,-0.10779 -0.56415,-0.10158 z"
                 style="text-decoration:none;color:#000000;fill:#dc0067;fill-opacity:1;fill-rule:evenodd;stroke:none;visibility:visible;display:inline;overflow:visible;enable-background:accumulate" />
              <path
                 style="fill:#030002;fill-opacity:1;fill-rule:evenodd;stroke:none"
                 d="m 165.38932,794.99038 c -0.77906,0.44517 -2.01721,1.97547 -1.98938,3.25536 0.0278,1.27988 1.93374,3.5336 2.90757,3.58925 0.97382,0.0557 2.53194,-0.87645 3.08841,-1.69725 0.55648,-0.82079 1.53031,-2.81018 0.8208,-3.64489 -0.7095,-0.83471 -4.8274,-1.50247 -4.8274,-1.50247 z"
                 id="path4160"
                 inkscape:connector-curvature="0" />
              <path
                 style="fill:#dc0067;fill-opacity:1;fill-rule:evenodd;stroke:none"
                 d="m 165.94647,794.26676 c 1.94986,-0.26349 2.28362,-0.22835 3.0214,1.17694 0.73779,1.40532 0.56213,2.33633 -0.26349,3.35517 -0.82561,1.01885 -0.47429,2.59982 -2.24848,2.30119 -1.77421,-0.29863 -3.53084,-1.42287 -3.53084,-1.42287 0,0 -0.45673,-1.63367 -0.0878,-2.51198 0.3689,-0.87832 3.10924,-2.89845 3.10924,-2.89845 z"
                 id="path4156"
                 inkscape:connector-curvature="0" />
              <path
                 inkscape:connector-curvature="0"
                 id="path7931"
                 d="m 224.47936,799.92436 c 0,0 1.15892,3.00495 1.92626,-0.37562 0.76735,-3.38057 0.75321,-20.92337 0.39323,-22.62061 -0.35997,-1.69723 1.48254,-14.88563 1.61173,-15.53949 0.12918,-0.65385 0.22013,-0.27823 0.12922,-0.80689 -0.0909,-0.52864 -0.69809,-4.70218 -0.60633,-7.23414 0.0917,-2.53194 1.56192,-9.1957 1.39929,-11.07379 -0.16263,-1.8781 0.43147,-5.34214 -0.66768,-4.88305 -1.09916,0.45909 -1.84795,0.73732 -1.91671,2.40674 -0.0687,1.66942 -1.78999,29.0896 -1.94581,30.03561 -0.15582,0.94599 -0.24939,10.05823 0.25969,12.2563 0.50907,2.19807 -0.58289,17.83494 -0.58289,17.83494 z"
                 style="fill:#ffffff;fill-opacity:1;fill-rule:evenodd;stroke:none" />
              <path
                 style="fill:#030002;fill-opacity:1;fill-rule:evenodd;stroke:none"
                 d="m 226.34558,738.71908 c 0,0 1.43292,-3.00495 1.892,0.37562 0.45909,3.38057 -1.15467,20.92337 -1.66941,22.6206 -0.51474,1.69725 0.1252,14.88565 0.19476,15.5395 0.0696,0.65386 0.19477,0.27824 0.0556,0.80688 -0.13912,0.52866 -1.12685,4.7022 -1.26597,7.23415 -0.13912,2.53195 0.72341,9.1957 0.38953,11.0738 -0.33389,1.87809 -0.0556,5.34214 -1.11295,4.88305 -1.05729,-0.45909 -1.78071,-0.73733 -1.69723,-2.40675 0.0835,-1.66942 0.86253,-29.08959 0.79297,-30.0356 -0.0696,-0.94601 0.66776,-10.05824 1.37727,-12.2563 0.7095,-2.19807 1.04338,-17.83495 1.04338,-17.83495 z"
                 id="path4162"
                 inkscape:connector-curvature="0" />
              <path
                 inkscape:connector-curvature="0"
                 id="path7933"
                 d="m 230.76509,799.4931 c 0,0 2.17333,2.55977 2.18047,-0.41736 0.007,-2.97713 -0.51799,-6.52464 -0.51799,-6.52464 0,0 1.16993,-9.47395 0.73148,-10.92077 -0.43846,-1.44683 0.12816,-10.71209 0.0386,-11.71375 -0.0896,-1.00164 0.0921,-8.33317 0.31522,-10.32256 0.22314,-1.98939 0.46665,-9.08442 0.74417,-11.05989 0.27751,-1.97548 0.511,-9.4183 0.44792,-9.94695 -0.0631,-0.52864 -1.55664,-0.77906 -1.84533,0.40345 -0.28868,1.1825 -0.69723,10.54515 -0.599,12.06154 0.0982,1.51639 -0.77004,8.5975 -0.9059,10.54515 -0.13586,1.94765 -0.39389,6.60811 -0.4678,8.63924 -0.0739,2.03112 0.33685,7.59584 0.25275,9.8913 -0.0841,2.29544 -0.53055,6.88634 -0.52086,8.45837 0.01,1.57204 0.14623,10.90687 0.14623,10.90687 z"
                 style="fill:#ffffff;fill-opacity:1;fill-rule:evenodd;stroke:none" />
              <path
                 style="fill:#030002;fill-opacity:1;fill-rule:evenodd;stroke:none"
                 d="m 232.59199,739.15035 c 0,0 2.40674,-2.55978 2.14241,0.41735 -0.26432,2.97713 -1.11294,6.52464 -1.11294,6.52464 0,0 0.30605,9.47394 -0.26433,10.92078 -0.57038,1.44682 -0.84862,10.71209 -1.02947,11.71374 -0.18085,1.00165 -0.66777,8.33318 -0.62603,10.32257 0.0417,1.98939 -0.36171,9.0844 -0.26432,11.05988 0.0974,1.97548 -0.3478,9.4183 -0.45909,9.94695 -0.1113,0.52865 -1.62769,0.77906 -1.80854,-0.40344 -0.18085,-1.18251 0.26432,-10.54516 0.50083,-12.06154 0.2365,-1.51639 0.0139,-8.5975 0.0556,-10.54515 0.0417,-1.94766 0.20868,-6.60811 0.31997,-8.63924 0.1113,-2.03113 1.02947,-7.59586 1.15468,-9.8913 0.12521,-2.29545 0.0974,-6.88635 0.25042,-8.45838 0.15303,-1.57204 1.14077,-10.90686 1.14077,-10.90686 z"
                 id="path4164"
                 inkscape:connector-curvature="0" />
              <path
                 inkscape:connector-curvature="0"
                 id="path7935"
                 d="m 237.54898,799.54874 c 0,0 1.60003,3.96486 1.84385,0.37562 0.24381,-3.58925 0.21696,-7.10894 0.15277,-8.23579 -0.0642,-1.12686 0.30381,-10.19736 0.0612,-11.04598 -0.2426,-0.84862 0.79507,-7.6515 0.69207,-10.18344 -0.10301,-2.53196 0.48183,-9.09833 0.22046,-10.65645 -0.26136,-1.55813 0.77306,-5.73167 0.61432,-7.95756 -0.15875,-2.22589 0.48851,-5.81513 0.61177,-7.92973 0.12326,-2.1146 0.40116,-5.46734 0.40116,-5.46734 0,0 -2.65776,-2.43457 -2.62186,0.37561 0.0359,2.81019 0.35259,10.16954 -0.15627,11.78331 -0.50886,1.61376 -0.69313,9.43221 -0.57232,11.61636 0.12081,2.18416 -1.94392,9.4183 -1.23378,11.69984 0.71014,2.28153 -0.20457,8.04102 0.0465,10.0165 0.25114,1.97547 -0.74632,9.71044 -0.49866,10.50342 0.24767,0.79297 0.43871,5.10563 0.43871,5.10563 z"
                 style="fill:#ffffff;fill-opacity:1;fill-rule:evenodd;stroke:none" />
              <path
                 style="fill:#030002;fill-opacity:1;fill-rule:evenodd;stroke:none"
                 d="m 239.38095,739.0947 c 0,0 1.96157,-3.96487 1.87809,-0.37562 -0.0835,3.58925 -0.43126,7.10893 -0.5982,8.23579 -0.16694,1.12686 -0.62603,10.19736 -0.94601,11.04598 -0.31997,0.84862 0.0974,7.6515 -0.2365,10.18345 -0.33388,2.53194 -0.34779,9.09833 -0.75123,10.65645 -0.40345,1.55812 0.25041,5.73167 -0.1113,7.95755 -0.36171,2.22589 -0.0417,5.81514 -0.11129,7.92973 -0.0696,2.1146 -0.0974,5.46735 -0.0974,5.46735 0,0 -2.87975,2.43457 -2.58759,-0.37562 0.29215,-2.81019 1.27988,-10.16954 0.91818,-11.7833 -0.36172,-1.61378 0.16694,-9.43221 0.48691,-11.61636 0.31997,-2.18417 -1.08513,-9.41831 -0.16695,-11.69984 0.91818,-2.28154 0.52866,-8.04103 0.95992,-10.01651 0.43127,-1.97547 0.13913,-9.71044 0.45909,-10.50341 0.31998,-0.79298 0.90427,-5.10564 0.90427,-5.10564 z"
                 id="path4166"
                 inkscape:connector-curvature="0" />
              <path
                 inkscape:connector-curvature="0"
                 id="path5590"
                 d="m 242.64211,701.8062 c 0.77189,0.73799 1.61883,1.80542 2.78897,1.72409 1.05808,-0.78323 0.52158,-2.40469 0.77872,-3.5557 0.66821,-10.20686 1.32586,-20.41443 1.98547,-30.62185 -1.04215,-0.42571 -2.83793,-0.35017 -2.47965,1.22536 -0.3046,5.3875 -0.35451,10.80669 -1.1466,16.15296 -1.09481,4.95236 -1.47458,10.0335 -1.92691,15.07514 z"
                 style="fill:#030002;fill-opacity:1;fill-rule:evenodd;stroke:none" />
              <path
                 inkscape:connector-curvature="0"
                 id="path5592"
                 d="m 243.3633,706.06122 c 0,0 -0.0962,0.38463 -0.24039,1.58661 -0.14423,1.20198 1.08178,1.94721 1.08178,1.94721 0,0 1.46642,-1.10582 1.5145,-2.428 0.0481,-1.32218 -2.35589,-1.10582 -2.35589,-1.10582 z"
                 style="fill:#030002;fill-opacity:1;fill-rule:evenodd;stroke:none" />
              <path
                 inkscape:connector-curvature="0"
                 id="path5594"
                 d="m 243.29119,711.3259 c -0.3606,1.58661 -0.74524,2.45203 -0.21636,3.43766 0.52888,0.98562 1.53853,1.22602 1.53853,1.22602 0,0 0.72119,-1.82701 1.08179,-3.10111 0.36059,-1.27411 -2.40396,-1.56257 -2.40396,-1.56257 z"
                 style="fill:#030002;fill-opacity:1;fill-rule:evenodd;stroke:none" />
              <path
                 inkscape:connector-curvature="0"
                 id="path5596"
                 d="m 243.14695,718.29738 c -0.43272,0.9135 -1.61065,4.27905 -1.49046,5.28871 0.1202,1.00967 2.01933,1.92317 2.50012,0.79331 0.48079,-1.12986 1.08178,-5.36083 1.08178,-5.36083 z"
                 style="fill:#030002;fill-opacity:1;fill-rule:evenodd;stroke:none" />
            </g>
            <g
               inkscape:transform-center-y="-27.693387"
               inkscape:transform-center-x="16.518311"
               transform="matrix(1.0030424,-0.04784991,0.04649853,1.0030424,-32.772049,7.5829793)"
               id="g3295">
              <path
                 style="color:#000000;fill:#dc0067;fill-opacity:1;fill-rule:nonzero;stroke:none;stroke-width:0.83257443px;marker:none;visibility:visible;display:inline;overflow:visible;enable-background:accumulate"
                 d="m 199.56414,671.28861 c -0.68615,-2.81742 -0.27067,-5.81034 -0.63872,-8.68719 0.0565,-3.27196 0.20901,-6.64475 -0.0344,-9.87694 0.70962,-3.12593 0.41829,-5.42745 2.89599,-8.54209 5.81009,-5.99972 12.21812,-9.37437 18.64965,-14.65587 2.98771,-2.23533 5.67887,-3.02973 8.96243,-4.77995 2.64047,-0.52932 5.88728,-0.24047 8.55322,-0.0241 6.47867,1.1748 13.2993,1.49814 18.49965,5.74465 1.49995,1.39427 4.63529,4.43658 3.59308,6.19667 -2.74434,1.12287 -5.55951,-0.69749 -8.02922,-1.83386 -3.02069,-1.51415 -6.33714,-1.9858 -9.67937,-2.59995 -3.20747,-1.02016 -6.61885,-2.09981 -10.00499,-0.87809 -4.38204,0.7669 -7.64088,4.09295 -11.17304,6.55952 -3.93845,3.22568 -8.40933,3.81373 -11.78624,7.70621 -1.83541,2.60463 -2.66949,4.67192 -4.51468,7.3044 -0.6193,2.68101 -0.7617,6.69398 -0.77424,9.45517 0.44995,2.74492 -0.19648,5.61169 -1.46643,8.0572 -0.89455,1.31371 -1.74456,1.01795 -3.05262,0.85424 z"
                 id="path3249"
                 inkscape:connector-curvature="0"
                 sodipodi:nodetypes="cccccccccccccccccc" />
              <path
                 style="color:#000000;fill:#dc0067;fill-opacity:1;fill-rule:nonzero;stroke:none;stroke-width:0.83257443px;marker:none;visibility:visible;display:inline;overflow:visible;enable-background:accumulate"
                 d="m 215.60173,653.86612 c -1.24324,1.95733 -0.85387,4.40435 -1.19951,6.60102 -0.23783,2.84984 -0.60387,5.72363 -0.24784,8.58016 -1.08046,1.77895 1.43065,4.99821 2.67099,2.40924 0.53387,-2.12619 -0.43726,-4.30966 -0.0245,-6.47713 0.13649,-2.89457 1.05143,-5.75509 2.66871,-8.15998 2.67211,-3.05181 4.71697,-6.12134 7.97086,-8.50912 2.0788,-1.44002 5.46718,-2.19933 7.67706,-3.42528 2.07708,-0.99217 4.39637,-1.04904 6.6427,-0.82947 2.37587,-0.0485 4.44178,1.17231 6.56127,2.05709 1.64275,0.88874 3.28533,1.90134 5.11684,2.28465 0.084,-1.55595 -1.59592,-3.31864 -3.03716,-4.08488 -1.94462,-0.90804 -3.93386,-2.82266 -6.08241,-2.99018 -2.44602,-0.37494 -4.84667,-0.16327 -7.26883,-0.6185 -2.63167,0.15852 -6.7052,1.38419 -9.06489,2.23555 -2.74475,1.49343 -4.19253,4.01178 -7.09629,5.25344 -2.52307,1.80173 -3.6052,3.83876 -5.28702,5.67339 z"
                 id="path3251"
                 inkscape:connector-curvature="0"
                 sodipodi:nodetypes="ccccccccccccccccc" />
              <path
                 style="color:#000000;fill:#dc0067;fill-opacity:1;fill-rule:nonzero;stroke:none;stroke-width:0.83257443px;marker:none;visibility:visible;display:inline;overflow:visible;enable-background:accumulate"
                 d="m 225.7783,663.52297 c -0.83329,2.00868 -2.68978,5.27982 -2.33842,7.50842 0.18448,1.38083 1.87423,1.52573 2.73978,0.68618 0.31072,-2.8893 1.0893,-5.62795 2.40087,-7.80756 1.3254,-2.18837 2.99235,-3.01608 5.14974,-3.51853 1.95472,-0.68886 4.71595,-2.00474 6.63589,-2.76935 1.61568,-0.25671 3.28872,-0.22546 4.89864,-5.1e-4 1.71299,0.59462 3.62784,0.45458 5.25387,1.32353 1.16188,0.74403 3.09919,-0.31551 1.86012,-1.59639 -1.05793,-1.20425 -4.52658,-2.23172 -5.97012,-2.76003 -3.59245,-0.0102 -5.42053,-0.64808 -8.9584,0.504 -2.55464,0.34073 -3.55553,1.39001 -5.93704,2.24005 -3.27531,1.28218 -4.52468,3.88892 -5.73493,6.19019 z"
                 id="path3253"
                 inkscape:connector-curvature="0"
                 sodipodi:nodetypes="ccccccccccccc" />
            </g>
          </g>
        </g>
      </g>
      <flowRoot
         transform="translate(318.45682,40.412969)"
         style="font-size:20px;font-style:normal;font-variant:normal;font-weight:bold;font-stretch:normal;text-align:start;line-height:125%;letter-spacing:0px;word-spacing:0px;writing-mode:lr-tb;text-anchor:start;fill:#000000;fill-opacity:1;stroke:none;display:inline;font-family:Asap;-inkscape-font-specification:Asap Bold"
         id="flowRoot4877"
         xml:space="preserve"><flowRegion
           id="flowRegion4879"><rect
             style="font-size:20px;font-style:normal;font-variant:normal;font-weight:bold;font-stretch:normal;text-align:start;line-height:125%;writing-mode:lr-tb;text-anchor:start;fill:#000000;font-family:Asap;-inkscape-font-specification:Asap Bold"
             y="-2.1628854"
             x="-285.10544"
             height="93.881348"
             width="366.31729"
             id="rect4881" /></flowRegion><flowPara
           id="flowPara3209"
           style="font-size:30px;font-style:normal;font-variant:normal;font-weight:bold;font-stretch:normal;text-align:start;line-height:125%;writing-mode:lr-tb;text-anchor:start;fill:#000000;font-family:Asap;-inkscape-font-specification:Asap Bold">Mitmachen ist einfach:</flowPara><flowPara
           id="flowPara4901"
           style="font-size:30px;font-style:normal;font-variant:normal;font-weight:bold;font-stretch:normal;text-align:start;line-height:125%;writing-mode:lr-tb;text-anchor:start;fill:#000000;font-family:Asap;-inkscape-font-specification:Asap Bold" /></flowRoot>      <flowRoot
         xml:space="preserve"
         id="flowRoot3197"
         style="font-size:20px;font-style:normal;font-variant:normal;font-weight:bold;font-stretch:normal;text-align:start;line-height:125%;letter-spacing:0px;word-spacing:0px;writing-mode:lr-tb;text-anchor:start;color:#000000;fill:#009ee0;fill-opacity:1;fill-rule:nonzero;stroke:none;marker:none;visibility:visible;display:inline;overflow:visible;enable-background:accumulate;font-family:Asap;-inkscape-font-specification:Asap Bold"
         transform="translate(345.70002,177.36834)"><flowRegion
           id="flowRegion3199"><rect
             id="rect3201"
             width="199.63248"
             height="66.354431"
             x="-285.10544"
             y="-2.1628854"
             style="font-size:20px;font-style:normal;font-variant:normal;font-weight:bold;font-stretch:normal;text-align:start;line-height:125%;letter-spacing:0px;writing-mode:lr-tb;text-anchor:start;color:#000000;fill:#009ee0;fill-opacity:1;fill-rule:nonzero;stroke:none;marker:none;visibility:visible;display:inline;overflow:visible;enable-background:accumulate;font-family:Asap;-inkscape-font-specification:Asap Bold" /></flowRegion><flowPara
           id="flowPara4185"
           style="font-size:20px;font-style:normal;font-variant:normal;font-weight:bold;font-stretch:normal;text-align:end;line-height:125%;letter-spacing:0px;writing-mode:lr-tb;text-anchor:end;color:#000000;fill:#009ee0;fill-opacity:1;fill-rule:nonzero;stroke:none;marker:none;visibility:visible;display:inline;overflow:visible;enable-background:accumulate;font-family:Asap;-inkscape-font-specification:Asap Bold">Du brauchst nur einen Freifunk-Route<flowSpan
   id="flowSpan3302"
   style="font-style:normal;text-align:end;line-height:125%;letter-spacing:1.30999994px;text-anchor:end;color:#000000;fill:#009ee0;fill-opacity:1;fill-rule:nonzero;stroke:none;marker:none;visibility:visible;display:inline;overflow:visible;enable-background:accumulate;-inkscape-font-specification:Asap Bold">r</flowSpan></flowPara></flowRoot>      <path
         sodipodi:nodetypes="sccccccccccccccccccccccccs"
         inkscape:connector-curvature="0"
         id="path3306"
         d="m 155.57242,263.47209 c -2.97389,2.42434 -6.6342,3.71326 -10.05275,5.35578 -1.47328,0.69329 -2.95438,1.37012 -4.43068,2.05705 -0.67596,0.0358 -1.09756,-0.80936 -0.82273,-1.38098 0.32462,-1.82483 1.30001,-3.49118 1.40451,-5.36183 -0.48307,-1.13928 -1.73129,-1.63226 -2.84795,-1.92363 -2.70394,-0.91459 -5.60635,-1.16136 -8.23439,-2.31386 -1.29027,-1.27907 -1.63199,-3.36089 -0.92269,-5.01829 1.22941,-4.80808 2.24457,-9.715 4.30524,-14.25757 0.79789,-1.89218 1.51745,-3.865 2.81226,-5.48775 0.69639,-0.23573 1.25669,0.52697 1.26002,1.15981 0.21428,1.49722 -0.474,2.91 -0.7613,4.34831 -1.20061,4.04919 -2.53611,8.10502 -2.93565,12.33104 -0.0423,1.55735 1.10979,2.99967 2.58559,3.43123 1.48225,0.57254 3.05262,0.86661 4.59615,1.21973 0.80378,0.16354 1.8553,0.11268 2.29089,-0.70403 0.58077,-1.00563 0.63822,-2.20204 0.96483,-3.29755 0.26892,-1.21544 0.61345,-2.4161 1.09934,-3.56384 0.42626,-0.48911 1.3216,-0.26488 1.52267,0.33278 2.88135,3.98806 5.90546,7.91457 8.1315,12.3227 0.0806,0.24051 0.14963,0.50926 0.0352,0.75088 z"
         style="fill:#009ee0;fill-opacity:1;stroke:none;display:inline" />
      <flowRoot
         xml:space="preserve"
         id="flowRoot4097"
         style="font-size:16px;font-style:normal;font-variant:normal;font-weight:normal;font-stretch:normal;text-align:start;line-height:125%;letter-spacing:0px;word-spacing:0px;writing-mode:lr-tb;text-anchor:start;fill:#ffffff;fill-opacity:1;stroke:none;display:inline;font-family:Asap;-inkscape-font-specification:Asap"
         transform="translate(314.36432,355.02781)"><flowRegion
           id="flowRegion4099"><rect
             id="rect4101"
             width="301.5368"
             height="225.60161"
             x="-279.28696"
             y="25.474888"
             style="font-size:16px;font-style:normal;font-variant:normal;font-weight:normal;font-stretch:normal;text-align:start;line-height:125%;writing-mode:lr-tb;text-anchor:start;fill:#ffffff;fill-opacity:1;font-family:Asap;-inkscape-font-specification:Asap" /></flowRegion><flowPara
           id="flowPara4115"
           style="font-size:14px;font-style:normal;font-variant:normal;font-weight:normal;font-stretch:normal;text-align:start;line-height:125%;writing-mode:lr-tb;text-anchor:start;fill:#ffffff;fill-opacity:1;font-family:Asap;-inkscape-font-specification:Asap">Lass' dir erklären, wie du deinen eigenen Router aufsetzt oder hol' dir einen fertigen bei uns zum Selbstkostenpreis von etwa 2<flowSpan
   id="flowSpan4105"
   style="font-weight:normal;letter-spacing:1.60000002px;-inkscape-font-specification:Asap">0</flowSpan><flowSpan
   style="font-weight:normal;letter-spacing:-0.02px;-inkscape-font-specification:Asap"
   id="flowSpan4107">€</flowSpan> ab. Genaueres erfährst du auf unserer Homepage.</flowPara><flowPara
           id="flowPara4163"
           style="font-size:14px;font-style:italic;font-variant:normal;font-weight:normal;font-stretch:normal;text-align:start;line-height:125%;writing-mode:lr-tb;text-anchor:start;fill:#ffffff;fill-opacity:1;font-family:Asap;-inkscape-font-specification:Asap" /><flowPara
           id="flowPara4183"
           style="font-size:14px;font-style:italic;font-variant:normal;font-weight:bold;font-stretch:normal;text-align:start;line-height:125%;writing-mode:lr-tb;text-anchor:start;fill:#ffffff;fill-opacity:1;font-family:Asap;-inkscape-font-specification:Asap Bold">freifunk-karlsruhe.de</flowPara><flowPara
           id="flowPara4181"
           style="font-size:14px;font-style:italic;font-variant:normal;font-weight:bold;font-stretch:normal;text-align:start;line-height:125%;writing-mode:lr-tb;text-anchor:start;fill:#ffffff;fill-opacity:1;font-family:Asap;-inkscape-font-specification:Asap Bold">info@freifunk-karlsruhe.de</flowPara></flowRoot>      <flowRoot
         style="font-size:40px;font-style:normal;font-weight:normal;line-height:125%;letter-spacing:0px;word-spacing:0px;fill:#000000;fill-opacity:1;stroke:none;font-family:Sans"
         id="flowRoot9717"
         xml:space="preserve"><flowRegion
           id="flowRegion9719"><rect
             y="359.25922"
             x="-7.2707644"
             height="78.939728"
             width="270.05698"
             id="rect9721" /></flowRegion><flowPara
           id="flowPara9723" /></flowRoot>      <g
         id="g8565">
        <g
           style="display:inline"
           id="g3431"
           transform="matrix(0.87404031,0,0,0.87404031,36.677525,73.372256)">
          <rect
             y="431.25641"
             x="273.07834"
             height="66.001808"
             width="66.001808"
             id="rect3429"
             style="color:#000000;fill:#ffffff;fill-opacity:1;fill-rule:nonzero;stroke:none;marker:none;visibility:visible;display:inline;overflow:visible;enable-background:accumulate"
             rx="2.6240482"
             ry="2.6240482" />
        </g>
        <path
           inkscape:connector-curvature="0"
           id="path6774"
           d="m 277.53645,452.48519 0,1.83908 0,1.83909 0,1.83908 0,1.83907 0,1.83908 0,1.83909 0,1.83908 1.83908,0 1.83909,0 1.83907,0 1.83908,0 1.83908,0 1.83909,0 1.83908,0 0,-1.83908 0,-1.83909 0,-1.83908 0,-1.83907 0,-1.83908 0,-1.83909 0,-1.83908 -1.83908,0 -1.83909,0 -1.83908,0 -1.83908,0 -1.83907,0 -1.83909,0 -1.83908,0 z m 14.71266,0 0,1.83908 0,1.83909 0,1.83908 1.83907,0 0,-1.83908 1.83908,0 0,1.83908 -1.83908,0 0,1.83907 -1.83907,0 0,1.83908 1.83907,0 1.83908,0 0,1.83909 0,1.83908 0,1.83909 1.83908,0 1.83909,0 0,-1.83909 -1.83909,0 0,-1.83908 1.83909,0 0,-1.83909 0,-1.83908 1.83908,0 0,-1.83907 0,-1.83908 0,-1.83909 0,-1.83908 -1.83908,0 -1.83909,0 0,1.83908 1.83909,0 0,1.83909 0,1.83908 -1.83909,0 0,-1.83908 0,-1.83909 -1.83908,0 -1.83908,0 0,-1.83908 -1.83907,0 z m 7.35632,11.03449 0,1.83908 1.83908,0 0,-1.83908 -1.83908,0 z m 1.83908,1.83908 0,1.83909 -1.83908,0 0,1.83907 1.83908,0 0,1.83908 0,1.83908 -1.83908,0 0,-1.83908 0,-1.83908 -1.83909,0 0,1.83908 -1.83908,0 0,-1.83908 0,-1.83907 -1.83908,0 -1.83907,0 -1.83909,0 -1.83908,0 -1.83909,0 -1.83908,0 -1.83908,0 0,1.83907 0,1.83908 0,1.83908 0,1.83909 1.83908,0 0,-1.83909 1.83908,0 0,-1.83908 -1.83908,0 0,-1.83908 1.83908,0 1.83909,0 1.83908,0 1.83909,0 0,1.83908 0,1.83908 1.83907,0 0,1.83909 0,1.83908 1.83908,0 0,-1.83908 0,-1.83909 1.83908,0 0,1.83909 0,1.83908 -1.83908,0 0,1.83909 -1.83908,0 0,-1.83909 -1.83907,0 0,-1.83908 0,-1.83909 -1.83909,0 0,1.83909 -1.83908,0 0,-1.83909 -1.83909,0 0,1.83909 -1.83908,0 0,1.83908 -1.83908,0 -1.83907,0 -1.83909,0 0,1.83909 0,1.83906 0,1.83909 0,1.83908 1.83909,0 0,-1.83908 0,-1.83909 1.83907,0 0,-1.83906 1.83908,0 0,1.83906 -1.83908,0 0,1.83909 1.83908,0 1.83908,0 0,-1.83909 1.83909,0 1.83908,0 0,1.83909 1.83909,0 1.83907,0 0,-1.83909 1.83908,0 0,1.83909 0,1.83908 -1.83908,0 -1.83907,0 0,1.83909 1.83907,0 1.83908,0 1.83908,0 1.83909,0 1.83908,0 1.83907,0 1.83908,0 0,-1.83909 0,-1.83908 -1.83908,0 0,1.83908 -1.83907,0 0,-1.83908 0,-1.83909 -1.83908,0 0,-1.83906 1.83908,0 0,1.83906 1.83907,0 0,-1.83906 1.83908,0 0,-1.83909 -1.83908,0 0,-1.83908 0,-1.83909 0,-1.83908 0,-1.83908 0,-1.83907 0,-1.83909 -1.83907,0 z m 1.83907,0 1.83908,0 0,-1.83908 -1.83908,0 0,1.83908 z m 1.83908,-1.83908 1.83909,0 0,1.83908 -1.83909,0 0,1.83909 1.83909,0 1.83908,0 0,-1.83909 0,-1.83908 1.83909,0 0,-1.83909 -1.83909,0 0,-1.83908 1.83909,0 0,-1.83907 -1.83909,0 0,-1.83908 1.83909,0 0,1.83908 1.83908,0 1.83907,0 0,-1.83908 0,-1.83909 -1.83907,0 -1.83908,0 0,-1.83908 -1.83909,0 -1.83908,0 -1.83909,0 0,1.83908 1.83909,0 0,1.83909 -1.83909,0 0,1.83908 1.83909,0 0,1.83907 -1.83909,0 -1.83908,0 0,1.83908 1.83908,0 0,1.83909 z m 9.19541,-5.51724 0,1.83907 1.83908,0 0,-1.83907 -1.83908,0 z m 0,1.83907 -1.83907,0 -1.83908,0 0,1.83908 1.83908,0 1.83907,0 0,-1.83908 z m 0,1.83908 0,1.83909 0,1.83908 0,1.83909 1.83908,0 0,-1.83909 0,-1.83908 0,-1.83909 -1.83908,0 z m 1.83908,5.51726 0,1.83907 0,1.83908 0,1.83908 1.83909,0 0,-1.83908 0,-1.83908 0,-1.83907 -1.83909,0 z m 0,5.51723 -1.83908,0 0,1.83909 0,1.83908 0,1.83909 -1.83907,0 -1.83908,0 -1.83909,0 0,-1.83909 0,-1.83908 1.83909,0 0,-1.83909 -1.83909,0 0,-1.83908 0,-1.83908 -1.83908,0 0,1.83908 -1.83909,0 0,1.83908 1.83909,0 0,1.83909 -1.83909,0 0,1.83908 1.83909,0 0,1.83909 0,1.83906 1.83908,0 1.83909,0 0,1.83909 1.83908,0 0,1.83908 0,1.83909 0,1.83908 1.83907,0 1.83908,0 0,1.83908 -1.83908,0 0,1.83907 0,1.83909 -1.83907,0 0,-1.83909 -1.83908,0 0,-1.83907 -1.83909,0 0,-1.83908 -1.83908,0 0,1.83908 -1.83909,0 0,-1.83908 -1.83908,0 0,1.83908 -1.83907,0 0,1.83907 1.83907,0 0,1.83909 0,1.83908 0,1.83908 -1.83907,0 0,1.83909 0,1.83907 0,1.83908 1.83907,0 0,-1.83908 0,-1.83907 1.83908,0 0,1.83907 0,1.83908 0,1.83909 1.83909,0 0,-1.83909 1.83908,0 0,-1.83908 0,-1.83907 0,-1.83909 -1.83908,0 -1.83909,0 0,-1.83908 1.83909,0 0,-1.83908 0,-1.83909 1.83908,0 0,1.83909 0,1.83908 0,1.83908 1.83909,0 1.83908,0 0,1.83909 1.83907,0 0,1.83907 1.83908,0 0,1.83908 0,1.83909 -1.83908,0 0,-1.83909 -1.83907,0 0,1.83909 -1.83908,0 0,1.83908 1.83908,0 1.83907,0 1.83908,0 1.83909,0 1.83908,0 0,-1.83908 1.83908,0 0,-1.83909 1.83907,0 0,-1.83908 -1.83907,0 0,-1.83907 1.83907,0 0,-1.83909 1.83909,0 0,-1.83908 0,-1.83908 0,-1.83909 1.83908,0 1.83909,0 0,-1.83907 -1.83909,0 0,-1.83908 -1.83908,0 -1.83909,0 -1.83907,0 -1.83908,0 0,1.83908 -1.83908,0 0,-1.83908 0,-1.83908 -1.83909,0 0,-1.83909 0,-1.83908 1.83909,0 1.83908,0 0,1.83908 0,1.83909 1.83908,0 1.83907,0 1.83909,0 1.83908,0 1.83909,0 0,-1.83909 -1.83909,0 -1.83908,0 -1.83909,0 -1.83907,0 0,-1.83908 0,-1.83909 -1.83908,0 0,-1.83906 1.83908,0 1.83907,0 0,1.83906 1.83909,0 0,1.83909 1.83908,0 0,-1.83909 0,-1.83906 -1.83908,0 0,-1.83909 -1.83909,0 -1.83907,0 0,-1.83908 -1.83908,0 -1.83908,0 0,1.83908 0,1.83909 0,1.83906 -1.83909,0 0,-1.83906 0,-1.83909 0,-1.83908 0,-1.83909 z m 5.51725,1.83909 1.83907,0 0,-1.83909 -1.83907,0 0,1.83909 z m 0,-1.83909 0,-1.83908 1.83907,0 0,-1.83908 0,-1.83907 -1.83907,0 0,1.83907 -1.83908,0 0,1.83908 0,1.83908 1.83908,0 z m 5.51724,5.51726 1.83909,0 0,1.83906 0,1.83909 1.83908,0 0,-1.83909 0,-1.83906 0,-1.83909 0,-1.83908 0,-1.83909 -1.83908,0 0,1.83909 0,1.83908 -1.83909,0 0,1.83909 z m 1.83909,7.35632 0,1.83908 1.83908,0 0,-1.83908 -1.83908,0 z m -5.51726,16.55172 0,1.83909 -1.83907,0 0,1.83908 1.83907,0 1.83909,0 0,-1.83908 1.83908,0 0,-1.83909 1.83909,0 0,1.83909 1.83908,0 0,-1.83909 0,-1.83908 0,-1.83907 0,-1.83909 0,-1.83908 -1.83908,0 0,1.83908 -1.83909,0 0,1.83909 1.83909,0 0,1.83907 -1.83909,0 0,-1.83907 -1.83908,0 0,1.83907 0,1.83908 -1.83909,0 z m -11.03447,-3.67815 -1.83908,0 0,1.83907 1.83908,0 0,-1.83907 z m -11.03449,-1.83909 0,-1.83908 0,-1.83908 0,-1.83909 -1.83908,0 -1.83909,0 0,1.83909 1.83909,0 0,1.83908 0,1.83908 1.83908,0 z m -1.83908,0 -1.83909,0 0,1.83909 0,1.83907 -1.83908,0 0,-1.83907 -1.83908,0 0,-1.83909 1.83908,0 0,-1.83908 1.83908,0 0,-1.83908 -1.83908,0 -1.83908,0 0,-1.83909 1.83908,0 0,-1.83907 1.83908,0 0,-1.83908 -1.83908,0 -1.83908,0 -1.83907,0 0,1.83908 -1.83909,0 -1.83908,0 0,-1.83908 1.83908,0 1.83909,0 0,-1.83908 -1.83909,0 -1.83908,0 -1.83909,0 0,1.83908 0,1.83908 -1.83908,0 -1.83908,0 0,1.83907 1.83908,0 1.83908,0 1.83909,0 1.83908,0 1.83909,0 0,1.83909 0,1.83908 0,1.83908 0,1.83909 0,1.83907 1.83907,0 0,1.83908 0,1.83909 -1.83907,0 0,1.83908 1.83907,0 1.83908,0 1.83908,0 1.83909,0 1.83908,0 1.83907,0 0,-1.83908 -1.83907,0 -1.83908,0 -1.83909,0 0,-1.83909 1.83909,0 0,-1.83908 0,-1.83907 0,-1.83909 z m 5.51723,-9.1954 1.83909,0 0,-1.83908 -1.83909,0 0,1.83908 z m 1.83909,-1.83908 1.83908,0 0,1.83908 1.83909,0 0,-1.83908 0,-1.83909 -1.83909,0 -1.83908,0 0,1.83909 z m 0,-5.51726 -1.83909,0 0,1.83909 1.83909,0 0,-1.83909 z m 1.83908,-11.03448 1.83909,0 0,-1.83907 -1.83909,0 0,1.83907 z m 1.83909,-1.83907 1.83908,0 0,-1.83909 0,-1.83908 -1.83908,0 0,1.83908 0,1.83909 z m 0,5.51723 1.83908,0 0,-1.83908 -1.83908,0 0,1.83908 z m 1.83908,-1.83908 1.83907,0 0,-1.83908 -1.83907,0 0,1.83908 z m -22.06898,11.03449 -1.83908,0 -1.83909,0 0,1.83908 1.83909,0 1.83908,0 0,-1.83908 z m -1.83908,-9.19541 1.83908,0 0,-1.83908 -1.83908,0 0,1.83908 z m 29.4253,-20.22989 0,1.83908 0,1.83909 0,1.83908 0,1.83907 0,1.83908 0,1.83909 0,1.83908 1.83908,0 1.83908,0 1.83907,0 1.83909,0 1.83908,0 1.83909,0 1.83908,0 0,-1.83908 0,-1.83909 0,-1.83908 0,-1.83907 0,-1.83908 0,-1.83909 0,-1.83908 -1.83908,0 -1.83909,0 -1.83908,0 -1.83909,0 -1.83907,0 -1.83908,0 -1.83908,0 z m -38.62071,1.83908 1.83909,0 1.83907,0 1.83908,0 1.83908,0 1.83909,0 0,1.83909 0,1.83908 0,1.83907 0,1.83908 0,1.83909 -1.83909,0 -1.83908,0 -1.83908,0 -1.83907,0 -1.83909,0 0,-1.83909 0,-1.83908 0,-1.83907 0,-1.83908 0,-1.83909 z m 40.45979,0 1.83908,0 1.83907,0 1.83909,0 1.83908,0 1.83909,0 0,1.83909 0,1.83908 0,1.83907 0,1.83908 0,1.83909 -1.83909,0 -1.83908,0 -1.83909,0 -1.83907,0 -1.83908,0 0,-1.83909 0,-1.83908 0,-1.83907 0,-1.83908 0,-1.83909 z m -38.6207,1.83909 0,1.83908 0,1.83907 0,1.83908 1.83907,0 1.83908,0 1.83908,0 0,-1.83908 0,-1.83907 0,-1.83908 -1.83908,0 -1.83908,0 -1.83907,0 z m 40.45978,0 0,1.83908 0,1.83907 0,1.83908 1.83907,0 1.83909,0 1.83908,0 0,-1.83908 0,-1.83907 0,-1.83908 -1.83908,0 -1.83909,0 -1.83907,0 z m -29.42529,7.35632 0,1.83908 1.83907,0 0,-1.83908 -1.83907,0 z m -14.71266,3.67817 0,1.83907 1.83908,0 0,-1.83907 -1.83908,0 z m 1.83908,1.83907 0,1.83908 0,1.83908 -1.83908,0 0,1.83909 1.83908,0 1.83909,0 0,-1.83909 0,-1.83908 0,-1.83908 -1.83909,0 z m 45.97703,-1.83907 0,1.83907 0,1.83908 0,1.83908 1.83908,0 0,-1.83908 1.83909,0 0,-1.83908 1.83908,0 0,-1.83907 -1.83908,0 -1.83909,0 -1.83908,0 z m -38.62071,9.1954 1.83909,0 1.83908,0 0,1.83909 -1.83908,0 -1.83909,0 0,-1.83909 z m -3.67816,7.35632 0,1.83909 1.83908,0 0,-1.83909 -1.83908,0 z m 0,1.83909 -1.83907,0 0,1.83908 1.83907,0 0,-1.83908 z m 33.10346,5.51723 1.83909,0 1.83908,0 1.83908,0 0,1.83909 0,1.83908 0,1.83908 -1.83908,0 -1.83908,0 -1.83909,0 0,-1.83908 0,-1.83908 0,-1.83909 z m -38.6207,1.83909 0,1.83908 0,1.83908 0,1.83909 0,1.83907 0,1.83908 0,1.83909 0,1.83908 1.83908,0 1.83909,0 1.83907,0 1.83908,0 1.83908,0 1.83909,0 1.83908,0 0,-1.83908 0,-1.83909 0,-1.83908 0,-1.83907 0,-1.83909 0,-1.83908 0,-1.83908 -1.83908,0 -1.83909,0 -1.83908,0 -1.83908,0 -1.83907,0 -1.83909,0 -1.83908,0 z m 40.45979,0 0,1.83908 1.83908,0 0,-1.83908 -1.83908,0 z m -38.62071,1.83908 1.83909,0 1.83907,0 1.83908,0 1.83908,0 1.83909,0 0,1.83908 0,1.83909 0,1.83907 0,1.83908 0,1.83909 -1.83909,0 -1.83908,0 -1.83908,0 -1.83907,0 -1.83909,0 0,-1.83909 0,-1.83908 0,-1.83907 0,-1.83909 0,-1.83908 z m 1.83909,1.83908 0,1.83909 0,1.83907 0,1.83908 1.83907,0 1.83908,0 1.83908,0 0,-1.83908 0,-1.83907 0,-1.83909 -1.83908,0 -1.83908,0 -1.83907,0 z m 36.78162,1.83909 1.83908,0 0,1.83907 0,1.83908 -1.83908,0 0,-1.83908 0,-1.83907 z"
           style="fill:#000000;fill-opacity:1;fill-rule:evenodd;stroke:none" />
      </g>
    </g>
  </g>
</svg>
