<?xml version="1.0" encoding="UTF-8" standalone="no"?>
<!-- Created with Inkscape (http://www.inkscape.org/) -->

<svg
   xmlns:dc="http://purl.org/dc/elements/1.1/"
   xmlns:cc="http://creativecommons.org/ns#"
   xmlns:rdf="http://www.w3.org/1999/02/22-rdf-syntax-ns#"
   xmlns:svg="http://www.w3.org/2000/svg"
   xmlns="http://www.w3.org/2000/svg"
   xmlns:xlink="http://www.w3.org/1999/xlink"
   xmlns:sodipodi="http://sodipodi.sourceforge.net/DTD/sodipodi-0.dtd"
   xmlns:inkscape="http://www.inkscape.org/namespaces/inkscape"
   inkscape:export-ydpi="300"
   inkscape:export-xdpi="300"
   sodipodi:docname="freifunk_karlsruhe_logo.svg"
   inkscape:version="0.48.5 r10040"
   version="1.1"
   id="svg5035"
   height="283.46457"
   width="283.46457">
  <sodipodi:namedview
     inkscape:document-units="mm"
     id="base"
     pagecolor="#ffffff"
     bordercolor="#b9b9b9"
     borderopacity="1"
     inkscape:pageopacity="1"
     inkscape:pageshadow="2"
     inkscape:zoom="2.0000001"
     inkscape:cx="110.17665"
     inkscape:cy="107.61712"
     inkscape:current-layer="page1"
     showgrid="false"
     inkscape:window-width="1366"
     inkscape:window-height="716"
     inkscape:window-x="-8"
     inkscape:window-y="-8"
     inkscape:window-maximized="1"
     units="mm"
     showguides="true"
     inkscape:guide-bbox="true"
     width="105mm"
     inkscape:snap-page="true"
     showborder="true"
     inkscape:showpageshadow="false"
     inkscape:snap-nodes="false"
     inkscape:snap-global="true"
     inkscape:snap-bbox="true"
     inkscape:bbox-paths="true"
     inkscape:bbox-nodes="true"
     inkscape:snap-bbox-edge-midpoints="true"
     inkscape:snap-bbox-midpoints="true" />
  <defs
     id="defs3">
    <marker
       inkscape:stockid="Arrow1Lend"
       orient="auto"
       refY="0"
       refX="0"
       id="Arrow1Lend"
       style="overflow:visible">
      <path
         id="path11466"
         d="M 0,0 5,-5 -12.5,0 5,5 0,0 z"
         style="fill-rule:evenodd;stroke:#000000;stroke-width:1pt"
         transform="matrix(-0.8,0,0,-0.8,-10,0)"
         inkscape:connector-curvature="0" />
    </marker>
    <color-profile
       name="Generic-CMYK-Profile"
       xlink:href="/System/Library/ColorSync/Profiles/Generic CMYK Profile.icc"
       id="color-profile6765" />
    <clipPath
       id="clipPath15586"
       clipPathUnits="userSpaceOnUse">
      <rect
         y="556.69183"
         x="451.31796"
         height="67.747452"
         width="47.779167"
         id="rect15588"
         style="color:#000000;fill:#dc0067;fill-opacity:1;fill-rule:nonzero;stroke:none;stroke-width:1;marker:none;visibility:visible;display:inline;overflow:visible;enable-background:accumulate" />
    </clipPath>
    <clipPath
       clipPathUnits="userSpaceOnUse"
       id="clipPath15586-6">
      <rect
         style="color:#000000;fill:#dc0067;fill-opacity:1;fill-rule:nonzero;stroke:none;stroke-width:1;marker:none;visibility:visible;display:inline;overflow:visible;enable-background:accumulate"
         id="rect15588-7"
         width="47.779167"
         height="67.747452"
         x="451.31796"
         y="556.69183" />
    </clipPath>
    <clipPath
       clipPathUnits="userSpaceOnUse"
       id="clipPath15586-0">
      <rect
         style="color:#000000;fill:#dc0067;fill-opacity:1;fill-rule:nonzero;stroke:none;stroke-width:1;marker:none;visibility:visible;display:inline;overflow:visible;enable-background:accumulate"
         id="rect15588-70"
         width="47.779167"
         height="67.747452"
         x="451.31796"
         y="556.69183" />
    </clipPath>
    <path
       sodipodi:nodetypes="cc"
       inkscape:connector-curvature="0"
       id="path5052-5"
       d="M 60.602886,354.72919 C 102.58705,305.76666 296.87148,345.53367 296.87148,345.53367"
       style="fill:none;stroke:none" />
    <clipPath
       id="clipPath15586-09"
       clipPathUnits="userSpaceOnUse">
      <rect
         y="556.69183"
         x="451.31796"
         height="67.747452"
         width="47.779167"
         id="rect15588-4"
         style="color:#000000;fill:#dc0067;fill-opacity:1;fill-rule:nonzero;stroke:none;stroke-width:1;marker:none;visibility:visible;display:inline;overflow:visible;enable-background:accumulate" />
    </clipPath>
    <clipPath
       id="clipPath15586-09-5"
       clipPathUnits="userSpaceOnUse">
      <rect
         y="556.69183"
         x="451.31796"
         height="67.747452"
         width="47.779167"
         id="rect15588-4-2"
         style="color:#000000;fill:#dc0067;fill-opacity:1;fill-rule:nonzero;stroke:none;stroke-width:1;marker:none;visibility:visible;display:inline;overflow:visible;enable-background:accumulate" />
    </clipPath>
    <clipPath
       clipPathUnits="userSpaceOnUse"
       id="clipPath5367">
      <rect
         style="color:#000000;fill:#dc0067;fill-opacity:1;fill-rule:nonzero;stroke:none;stroke-width:1;marker:none;visibility:visible;display:inline;overflow:visible;enable-background:accumulate"
         id="rect5369"
         width="48.689247"
         height="68.255951"
         x="450.86292"
         y="556.23682" />
    </clipPath>
    <clipPath
       id="clipPath7158"
       clipPathUnits="userSpaceOnUse">
      <rect
         style="color:#000000;fill:#dc0067;fill-opacity:1;fill-rule:nonzero;stroke:none;stroke-width:1;marker:none;visibility:visible;display:inline;overflow:visible;enable-background:accumulate"
         id="rect7160"
         width="48.689247"
         height="68.255951"
         x="450.86292"
         y="556.23682" />
    </clipPath>
    <clipPath
       id="clipPath15586-09-0"
       clipPathUnits="userSpaceOnUse">
      <rect
         y="556.69183"
         x="451.31796"
         height="67.747452"
         width="47.779167"
         id="rect15588-4-4"
         style="color:#000000;fill:#dc0067;fill-opacity:1;fill-rule:nonzero;stroke:none;stroke-width:1;marker:none;visibility:visible;display:inline;overflow:visible;enable-background:accumulate" />
    </clipPath>
    <clipPath
       clipPathUnits="userSpaceOnUse"
       id="clipPath7118">
      <path
         transform="matrix(0.97568819,0,0,0.97134711,138.03291,135.73001)"
         d="m 53.5,160.13385 a 65,65 0 1 1 -130,0 65,65 0 1 1 130,0 z"
         sodipodi:ry="65"
         sodipodi:rx="65"
         sodipodi:cy="160.13385"
         sodipodi:cx="-11.5"
         id="path7120"
         style="color:#000000;fill:#ff0000;fill-opacity:1;fill-rule:nonzero;stroke:none;stroke-width:32.88188934;marker:none;visibility:visible;display:inline;overflow:visible;enable-background:accumulate"
         sodipodi:type="arc" />
    </clipPath>
  </defs>
  <metadata
     id="metadata4">
    <rdf:RDF>
      <cc:Work
         rdf:about="">
        <dc:format>image/svg+xml</dc:format>
        <dc:type
           rdf:resource="http://purl.org/dc/dcmitype/StillImage" />
        <dc:title></dc:title>
        <dc:creator>
          <cc:Agent>
            <dc:title>Jonathan Schwarzenböck</dc:title>
          </cc:Agent>
        </dc:creator>
        <dc:publisher>
          <cc:Agent>
            <dc:title>karlsruhe.freifunk.net</dc:title>
          </cc:Agent>
        </dc:publisher>
        <cc:license
           rdf:resource="http://creativecommons.org/licenses/by-sa/4.0/" />
        <dc:subject>
          <rdf:Bag>
            <rdf:li>freifunk</rdf:li>
            <rdf:li>karlsruhe</rdf:li>
            <rdf:li>flyer</rdf:li>
          </rdf:Bag>
        </dc:subject>
        <dc:description></dc:description>
        <dc:source>freifunk.net</dc:source>
      </cc:Work>
      <cc:License
         rdf:about="http://creativecommons.org/licenses/by-sa/3.0/">
        <cc:permits
           rdf:resource="http://creativecommons.org/ns#Reproduction" />
        <cc:permits
           rdf:resource="http://creativecommons.org/ns#Distribution" />
        <cc:requires
           rdf:resource="http://creativecommons.org/ns#Notice" />
        <cc:requires
           rdf:resource="http://creativecommons.org/ns#Attribution" />
        <cc:permits
           rdf:resource="http://creativecommons.org/ns#DerivativeWorks" />
        <cc:requires
           rdf:resource="http://creativecommons.org/ns#ShareAlike" />
      </cc:License>
    </rdf:RDF>
  </metadata>
  <g
     inkscape:label="Seite 1"
     inkscape:groupmode="layer"
     id="page1"
     style="display:inline"
     transform="translate(0,-240.94485)">
    <flowRoot
       style="font-size:40px;font-style:normal;font-weight:normal;line-height:125%;letter-spacing:0px;word-spacing:0px;fill:#000000;fill-opacity:1;stroke:none;font-family:Sans"
       id="flowRoot15544"
       xml:space="preserve"
       transform="translate(-0.00762939,-8.6500615)"><flowRegion
         id="flowRegion15546"><rect
           y="367.40942"
           x="35"
           height="110"
           width="221"
           id="rect15548" /></flowRegion><flowPara
         id="flowPara15550" /></flowRoot>    <text
       sodipodi:linespacing="125%"
       id="text5276"
       y="287.84595"
       x="16.992367"
       style="font-size:12px;font-style:normal;font-weight:normal;line-height:125%;letter-spacing:0px;word-spacing:0px;fill:#000000;fill-opacity:1;stroke:none;display:inline;font-family:Sans"
       xml:space="preserve"><tspan
         y="287.84595"
         x="16.992367"
         id="tspan5278"
         sodipodi:role="line" /></text>
    <flowRoot
       style="font-size:40px;font-style:normal;font-weight:normal;line-height:125%;letter-spacing:0px;word-spacing:0px;fill:#000000;fill-opacity:1;stroke:none;display:inline;font-family:Sans"
       id="flowRoot5292"
       xml:space="preserve"
       transform="matrix(1.1300097,0,0,1.1300097,222.32104,-242.38603)"><flowRegion
         id="flowRegion5294"><rect
           y="291.40942"
           x="17"
           height="89"
           width="40"
           id="rect5296" /></flowRegion><flowPara
         id="flowPara5298" /></flowRoot>    <g
       id="g5821"
       transform="translate(-47.834641,49.365156)">
      <g
         transform="matrix(0.7449197,0,0,0.7449197,43.557591,113.76481)"
         id="g7094">
        <path
           style="fill:#000000;fill-opacity:1"
           id="t-1-5-1-5"
           d="m 346.07627,428.9741 -5.45918,0 0,4.49412 -1.46311,0 0,4.05623 1.46311,0 0,15.64737 c -0.0532,1.87083 0.22481,3.18019 0.83294,3.92844 0.6079,0.74812 1.86362,1.10773 3.76671,1.07901 l 2.45191,0 0,-4.05646 -0.64571,0 c -0.39707,-0.0222 -0.65691,-0.20508 -0.77972,-0.55104 -0.12283,-0.34585 -0.17859,-0.72419 -0.16695,-1.13445 l 0,-14.91287 1.50636,0 0,-4.05623 -1.50636,0 0,-4.49412 z"
           inkscape:connector-curvature="0" />
        <path
           d="m 105.82211,424.80997 c -0.15779,-0.003 -0.30379,0.0156 -0.41951,0.0419 -0.45583,0.0982 -0.74069,0.34109 -0.88097,0.83901 -0.11923,0.40677 -0.25846,1.73018 -0.3356,2.97851 -0.0423,0.65221 -0.1816,1.92018 -0.25171,2.76876 -0.54003,6.1785 -0.63742,12.43848 -0.2517,17.03204 0.41378,4.88109 1.04524,7.49696 2.22339,9.22918 0.56108,0.82053 1.45883,1.58621 2.26534,1.88779 1.1712,0.44181 2.98359,0.26049 3.60778,-0.33561 0.28051,-0.25949 0.30121,-0.58604 0.12585,-1.00682 -0.14726,-0.35066 -0.69784,-0.88721 -1.13267,-1.13267 -0.58208,-0.3226 -0.9914,-1.07874 -1.46828,-2.72681 -0.59611,-2.06884 -0.95696,-4.62352 -1.25853,-8.59992 -0.17532,-2.30029 -0.17532,-9.85117 0,-12.24964 0.0631,-0.90468 0.15369,-2.31864 0.20976,-3.18826 0.0562,-0.86963 0.13277,-1.90068 0.1678,-2.26535 0.0423,-0.36468 0.0978,-0.83838 0.12585,-1.04877 0.0841,-0.82755 -0.3259,-1.48102 -1.21657,-1.88779 -0.44182,-0.20513 -1.03685,-0.32575 -1.51023,-0.3356 z m -50.592705,0.46146 c -0.188472,8.4e-4 -0.343011,0.0471 -0.50341,0.0839 -0.294552,0.0701 -0.607969,0.39745 -0.713164,0.75511 -0.08412,0.30158 -0.139387,2.14307 -0.293656,7.88676 -0.06311,2.19508 -0.174665,5.15574 -0.209754,6.54433 -0.07717,2.56677 -0.04935,5.0058 0.0839,7.4253 l 0.0839,1.34242 -0.251705,0.33561 c -0.203385,0.25949 -0.251705,0.38381 -0.251705,0.62926 0,0.27351 0.0129,0.35576 0.293655,0.62926 l 0.335607,0.29366 0.125853,1.80388 c 0.18234,3.26108 0.30694,4.62033 0.54536,5.0341 0.161336,0.28052 0.753323,0.65669 1.342427,0.83902 0.554015,0.17534 1.886246,0.31483 2.391197,0.25171 0.490915,-0.0631 0.922625,-0.2512 1.00682,-0.41951 0.119181,-0.21741 0.04948,-0.99687 -0.125852,-1.97169 -0.224436,-1.19222 -0.545503,-3.48179 -0.50341,-3.52387 0.01398,-0.0141 0.216015,0.18094 0.461459,0.46146 1.262343,1.46574 3.141885,3.3173 4.614591,4.57264 0.329632,0.28051 0.816827,0.60072 1.216575,0.79706 l 0.671213,0.33561 0.922918,0 c 1.087041,-0.007 1.787563,-0.15964 2.559001,-0.54536 0.81354,-0.40675 0.744259,-0.70425 -0.293656,-1.34243 -1.458722,-0.89765 -2.476109,-1.75606 -4.446788,-3.69167 -1.865492,-1.83743 -4.740444,-5.01944 -4.740444,-5.24385 0,-0.0421 0.243938,-0.28575 0.50341,-0.58731 0.939735,-1.08702 3.584436,-4.38777 4.362886,-5.41166 1.164173,-1.54287 1.594132,-2.26446 1.594132,-2.559 0,-0.61015 -0.948054,-1.35595 -1.887787,-1.51023 -0.71535,-0.1122 -1.501072,0.40242 -2.223394,1.42633 -0.182334,0.26648 -1.129742,1.38808 -2.097542,2.47509 l -1.761935,2.01364 -0.04195,-1.97168 c -0.02787,-1.14312 -0.0069,-4.56181 0.04195,-8.13847 0.04905,-3.39431 0.06295,-6.45238 0.04195,-6.79603 -0.03481,-0.70128 -0.194578,-1.07555 -0.587312,-1.46828 -0.450166,-0.44445 -1.448563,-0.75973 -2.26534,-0.75511 z m 109.239965,1.30047 c -0.13401,0.003 -0.26548,0.0226 -0.33561,0.0419 -0.68026,0.17532 -0.69226,0.27963 -0.67121,2.60095 0.0631,7.09019 0.55095,18.9944 1.00682,24.37344 0.14726,1.7813 0.35611,3.29167 0.50341,3.77557 0.16128,0.52598 0.68865,0.88722 1.84584,1.13267 0.68725,0.14728 1.9986,0.16822 2.34924,0.0419 0.59611,-0.21038 0.74198,-0.73865 0.46146,-1.55218 -0.2735,-0.79247 -0.21801,-1.62257 0.20976,-3.77557 0.58209,-2.85432 1.18586,-4.75588 2.09754,-6.58628 0.67329,-1.35353 1.11645,-2.03199 1.84583,-2.89461 0.27351,-0.3226 0.32145,-0.35691 0.37756,-0.2517 0.0418,0.0772 0.084,0.89078 0.042,2.26534 -0.0912,2.99457 -0.0914,5.49633 0.0419,7.55115 0.20338,3.01561 0.27097,3.25701 0.83902,3.64972 0.89067,0.61015 3.17881,0.87524 3.98533,0.46146 0.11221,-0.0561 0.27247,-0.20237 0.33561,-0.3356 0.0982,-0.20337 0.11233,-0.27171 0.0419,-0.58732 -0.6873,-3.12781 -0.70615,-2.9692 -0.71317,-8.34821 -0.007,-4.47432 -0.0205,-4.58502 -0.1678,-5.118 -0.41379,-1.48677 -1.31044,-2.48811 -2.6429,-2.81071 -0.5891,-0.14026 -1.98368,-0.0914 -2.64291,0.0839 -0.58908,0.15429 -1.3056,0.46719 -1.92973,0.88097 -0.67326,0.43481 -1.72508,1.56327 -2.34925,2.51705 l -0.54536,0.88097 -0.0839,-0.71317 c -0.0348,-0.37169 -0.16045,-3.07438 -0.29366,-6.04092 -0.3156,-7.01305 -0.4191,-9.10805 -0.54536,-9.85844 -0.0912,-0.50496 -0.78741,-0.98514 -1.67803,-1.21658 -0.37344,-0.0947 -0.98232,-0.17471 -1.38438,-0.1678 z m -66.408166,11.99789 c -0.208316,0.004 -0.42237,0.0138 -0.629262,0.0419 -1.577906,0.20338 -3.252516,1.18291 -5.118002,3.06241 -0.385719,0.39274 -0.685142,0.71316 -0.713164,0.71316 -0.02092,0 -0.05586,-0.21587 -0.0839,-0.50341 -0.11918,-1.34649 -0.492666,-1.79585 -1.719984,-2.13949 -0.687285,-0.18935 -1.466989,-0.28001 -1.887787,-0.1678 -0.273501,0.0701 -0.349283,0.14626 -0.461459,0.33561 -0.126246,0.22441 -0.153767,0.42141 -0.167804,4.40483 -0.01398,4.89511 -0.110578,6.87764 -0.54536,9.94235 -0.231451,1.64106 -0.307944,2.4112 -0.209755,2.7268 0.245436,0.73638 1.659276,1.32139 3.230214,1.34243 0.764417,0.007 1.026976,-0.0897 1.300476,-0.46146 0.203385,-0.2665 0.335212,-1.2157 0.461459,-3.81752 0.06311,-1.24834 0.139739,-2.49539 0.167804,-2.72681 0.112209,-0.7504 0.948697,-3.04379 1.678033,-4.57264 0.855633,-1.7743 1.800955,-3.11558 2.768755,-4.02728 0.869618,-0.81351 0.818116,-0.85585 0.797066,0.0839 -0.02092,0.72235 -0.02141,0.81033 0.125852,1.04877 0.343617,0.54703 1.506654,1.05541 2.684853,1.17463 1.065981,0.1052 1.572431,-0.006 1.803881,-0.46146 0.0982,-0.17534 0.0839,-0.47192 0.0839,-1.63608 -0.007,-1.57796 -0.0898,-2.21434 -0.46145,-2.89461 -0.25951,-0.47689 -0.92153,-1.04826 -1.38438,-1.21658 -0.499677,-0.18935 -1.095045,-0.26353 -1.719984,-0.2517 z m 41.699126,0 c -0.20831,0.004 -0.38043,0.0138 -0.58731,0.0419 -1.57795,0.20338 -3.25251,1.18291 -5.118,3.06241 -0.38571,0.39274 -0.6851,0.71316 -0.71317,0.71316 -0.0209,0 -0.0977,-0.21587 -0.12585,-0.50341 -0.11924,-1.34649 -0.49271,-1.79585 -1.71998,-2.13949 -0.68728,-0.18935 -1.42503,-0.28001 -1.84584,-0.1678 -0.2735,0.0701 -0.3912,0.14626 -0.50341,0.33561 -0.12626,0.22441 -0.11182,0.42141 -0.12585,4.40483 -0.014,4.89511 -0.11053,6.87764 -0.54536,9.94235 -0.23141,1.64106 -0.30794,2.4112 -0.20976,2.7268 0.24549,0.73638 1.65929,1.32139 3.23022,1.34243 0.76443,0.007 1.02697,-0.0897 1.30047,-0.46146 0.20338,-0.2665 0.29326,-1.2157 0.41951,-3.81752 0.0631,-1.24834 0.13978,-2.49539 0.1678,-2.72681 0.11222,-0.7504 0.99061,-3.04379 1.71999,-4.57264 0.85558,-1.7743 1.759,-3.11558 2.7268,-4.02728 0.86962,-0.81351 0.86007,-0.85585 0.83902,0.0839 -0.0209,0.72235 -0.0213,0.81033 0.12585,1.04877 0.34367,0.54703 1.46471,1.05541 2.6429,1.17463 1.066,0.1052 1.5725,-0.006 1.80389,-0.46146 0.0982,-0.17534 0.12585,-0.47192 0.12585,-1.63608 -0.007,-1.57796 -0.0897,-2.21434 -0.46146,-2.89461 -0.25946,-0.47689 -0.92152,-1.04826 -1.38437,-1.21658 -0.49967,-0.18935 -1.13703,-0.26353 -1.76194,-0.2517 z m -63.052099,0.33561 c -0.135875,0.002 -0.254567,0.0208 -0.461459,0.0839 -0.37169,0.11922 -1.130385,0.73865 -1.887788,1.55218 -2.559791,2.74209 -4.864513,7.68581 -5.453608,11.70428 -0.147253,1.00988 -0.147335,2.4241 0,3.10436 0.315603,1.45871 1.261319,2.48097 2.642903,2.85266 0.64519,0.16831 1.885602,0.1544 2.600951,-0.0419 1.570932,-0.42079 3.163888,-1.66581 4.278985,-3.39802 0.210408,-0.3226 0.398501,-0.58731 0.419508,-0.58731 0.04227,-0.007 0.236932,0.59127 0.50341,1.59413 0.343671,1.27638 0.948547,2.18756 1.719984,2.4751 0.904698,0.34363 2.278235,0.30175 2.642903,-0.0419 0.280515,-0.25949 0.315525,-0.50698 0.04195,-1.63608 -0.778452,-3.1699 -1.039722,-4.41938 -1.719984,-8.85163 -0.182385,-1.18521 -0.334569,-1.87746 -0.671214,-2.97851 -0.196371,-0.6522 -0.223739,-0.71648 -0.209754,-1.92974 0.02092,-1.17819 0.02836,-1.2506 -0.125852,-1.55218 -0.259466,-0.53298 -0.884657,-0.86643 -1.971689,-1.04877 -0.469874,-0.0841 -0.523817,-0.10409 -0.713165,-0.37756 -0.280513,-0.41377 -0.718897,-0.76875 -1.132672,-0.88096 -0.217397,-0.0561 -0.367534,-0.0437 -0.50341,-0.042 z m 42.705949,0.042 c -0.23785,-0.006 -0.43641,0.0227 -0.62927,0.0419 -2.35636,0.23845 -4.22643,1.04497 -5.41165,2.30729 -1.18517,1.26937 -1.19937,2.81976 -0.0419,4.44679 0.547,0.75741 1.41319,1.56825 3.43996,3.18826 2.16705,1.73223 2.68297,2.17929 3.31412,2.89461 1.08704,1.22729 1.58791,2.52125 1.34243,3.43997 -0.0702,0.26648 -0.13212,0.31444 -0.37756,0.37756 -0.49091,0.13323 -1.28172,-0.0124 -2.85266,-0.54536 -1.65503,-0.56104 -2.06744,-0.62277 -2.76875,-0.46146 -1.39557,0.3296 -2.78354,1.23621 -2.51705,1.67803 0.17531,0.28053 1.57593,0.86592 2.97851,1.21657 1.19224,0.29456 2.93402,0.60798 3.77557,0.71317 2.35641,0.30858 4.7093,-0.42932 5.74727,-1.80389 0.81349,-1.073 0.89016,-2.44284 0.1678,-3.85947 -0.77845,-1.54287 -1.79126,-2.51426 -5.95702,-5.74727 -1.41662,-1.10104 -2.35511,-2.13706 -2.7268,-2.93656 -0.19636,-0.40675 -0.23819,-1.0758 -0.0839,-1.38437 0.2735,-0.52598 1.02479,-0.92942 2.01364,-1.09072 0.61712,-0.0982 0.73854,-0.10528 1.59413,0.0419 1.54287,0.26648 1.79546,0.29377 2.26534,0.2517 0.95376,-0.0841 1.76133,-0.39056 1.97169,-0.71316 0.15431,-0.23846 0.0708,-0.54472 -0.20975,-0.75512 -0.79775,-0.6075 -3.36921,-1.25742 -5.0341,-1.30047 z m 28.0651,0.62926 c -0.15953,-0.005 -0.26172,0.0453 -0.41951,0.0839 -0.37868,0.0912 -0.55184,0.22263 -0.71316,0.58731 -0.14024,0.30859 -0.21613,0.70718 -0.41951,2.68486 -0.63821,5.98213 -0.82563,8.94304 -0.62926,11.07501 0.12624,1.37456 0.52231,2.31915 1.21657,3.02046 0.52599,0.54001 1.06023,0.81772 1.88779,0.92292 2.04782,0.27351 4.15403,-0.81784 6.16677,-3.18826 0.44886,-0.52598 0.54527,-0.57367 0.58732,-0.46146 0.0279,0.0701 0.1255,0.50189 0.2517,1.00682 0.43483,1.80938 0.80688,2.28523 2.18144,2.6429 0.55405,0.14727 2.14512,0.13321 2.60096,0 0.3857,-0.11221 0.71316,-0.41172 0.71316,-0.67121 0,-0.10519 -0.11843,-0.43966 -0.25171,-0.71316 -0.56803,-1.17119 -1.32779,-4.48901 -1.55218,-6.71214 -0.0348,-0.38572 -0.1257,-1.77187 -0.1678,-3.10436 l -0.0839,-2.43315 0.2517,-0.83901 c 0.24544,-0.90469 0.22452,-1.21557 0,-1.55218 -0.0701,-0.10521 -0.20264,-0.35602 -0.2517,-0.54537 -0.16834,-0.66624 -0.64788,-1.1667 -1.42633,-1.46827 -0.47688,-0.18233 -1.69103,-0.25909 -2.01364,-0.12586 -0.32257,0.13325 -0.53825,0.4533 -0.58731,0.83902 -0.0209,0.18234 -0.0697,0.40522 -0.12585,0.50341 -0.049,0.0982 -0.12576,0.4325 -0.16781,0.75511 -0.75738,5.76473 -2.39925,10.37002 -4.36288,12.2916 -0.2525,0.24546 -0.35651,0.32182 -0.37756,0.2517 -0.33665,-0.92572 -0.20413,-6.82601 0.2517,-10.78136 0.14025,-1.17119 0.17518,-2.59317 0.042,-2.85266 -0.25946,-0.49792 -1.06705,-0.92943 -1.97168,-1.09072 -0.29107,-0.0526 -0.46972,-0.12055 -0.62927,-0.12585 z m 41.36352,0.0419 c -0.19591,0.004 -0.38756,0.0192 -0.54536,0.0419 -1.62702,0.21741 -3.03126,1.12107 -4.06923,2.6429 -1.23429,1.82341 -1.90932,4.87917 -1.71998,7.55115 0.30157,4.26394 2.06043,6.9753 5.07605,7.80286 0.69425,0.18933 1.90679,0.31481 2.559,0.2517 2.3985,-0.2174 4.93437,-1.85464 5.53751,-3.56582 0.24543,-0.70832 0.16959,-0.97724 -0.41951,-1.51023 -0.58208,-0.52597 -1.61364,-0.91629 -2.09754,-0.79706 -0.51192,0.13323 -1.29195,0.91999 -1.80389,1.88778 -0.33664,0.65222 -0.6002,0.95734 -0.96487,1.13268 -0.84159,0.40675 -1.64792,-0.0797 -2.34924,-1.46828 -0.41378,-0.81351 -0.64225,-1.58267 -0.96487,-3.06241 -0.0279,-0.12623 0.11644,-0.18758 0.92292,-0.58732 1.16416,-0.58908 2.04568,-1.19974 3.02046,-2.13949 1.50781,-1.4517 2.4607,-3.03767 2.60095,-4.27898 0.18237,-1.64108 -1.10591,-3.2427 -3.02046,-3.73363 -0.4734,-0.12098 -1.17414,-0.18096 -1.76194,-0.1678 z m 0.25171,2.76875 c 0.0348,0 0.0838,0.11149 0.12585,0.25171 0.0561,0.15428 0.063,0.49537 0.042,0.83902 -0.0348,0.72233 -0.29172,1.36805 -0.92292,2.13949 -0.51197,0.63817 -1.11147,1.23774 -1.17462,1.17462 -0.11221,-0.1052 0.27157,-1.66847 0.62926,-2.51705 0.31557,-0.75741 1.09709,-1.88779 1.30048,-1.88779 z m -112.805787,1.46828 c 0.102314,-0.0272 0.143363,0.21848 0.125852,0.79707 -0.09117,3.56965 -1.484957,8.31519 -2.894607,9.9843 -0.280523,0.34363 -0.300779,0.21983 -0.251705,-0.79707 0.189338,-3.61173 1.183785,-7.03984 2.768755,-9.64869 0.126228,-0.20775 0.190326,-0.3193 0.251705,-0.33561 z m 121.363757,7.84481 0,3.18826 0,3.14631 2.8107,0 2.76876,0 0,-3.14631 0,-3.18826 -2.76876,0 z"
           id="path3151"
           inkscape:connector-curvature="0"
           style="fill:#dc0067;fill-opacity:1"
           sodipodi:nodetypes="ccccccccccccccccccccccccccccscccccccccccccccccsccscccccccccccccccccccccccccccccccccccccccccccscccccccccccccccccccccccccscccccccccccccccccccccccccccccccccccccccccccccccccccccccccccccccccccccccccccccccccsccccccccccccccccccccccccccccccccccccccccccccccccccccccccccccc" />
        <path
           style="fill:#000000;fill-opacity:1"
           d="m 210.19173,426.95461 c -0.39742,0.0123 -0.69039,0.0491 -0.84944,0.0809 -1.39963,0.26155 -2.36693,1.01991 -2.79105,2.14387 -0.22621,0.60084 -0.28315,1.166 -0.28315,2.62925 l 0,1.3753 -0.68765,0 -0.6472,0 0,1.94159 0,1.94161 0.6472,0 0.68765,0 0,10.47656 0,10.51701 2.75059,0 2.75062,0 0,-10.51701 0,-10.47656 0.88989,0 0.8899,0 0,-1.94161 0,-1.94159 -0.8899,0 -0.88989,0 0,-0.8899 c 0,-0.84119 0.004,-0.85377 0.20224,-1.05171 0.23327,-0.22619 0.80155,-0.4045 1.25395,-0.4045 l 0.3236,0 0,-1.94159 0,-1.94161 -1.86069,0 c -0.59733,0 -1.09924,-0.0123 -1.49667,0 z m 33.24994,0 0,2.3461 0,2.38656 2.71015,0 2.7506,0 0,-2.38656 0,-2.3461 -2.7506,0 -2.71015,0 z m 12.05411,0 c -0.39742,0.0123 -0.6904,0.0491 -0.84944,0.0809 -1.39963,0.26155 -2.36694,1.01991 -2.79106,2.14387 -0.2262,0.60084 -0.28315,1.166 -0.28315,2.62925 l 0,1.3753 -0.68765,0 -0.6472,0 0,1.94159 0,1.94161 0.6472,0 0.68765,0 0,10.47656 0,10.51701 2.7506,0 2.75061,0 0,-10.51701 0,-10.47656 0.8899,0 0.8899,0 0,-1.94161 0,-1.94159 -0.8899,0 -0.8899,0 0,-0.8899 c 0,-0.84119 0.004,-0.85377 0.20224,-1.05171 0.23327,-0.22619 0.842,-0.4045 1.29442,-0.4045 l 0.28314,0 0,-1.94159 0,-1.94161 -1.86071,0 c -0.59731,0 -1.09922,-0.0123 -1.49665,0 z m 33.81623,0 0,15.53281 0,15.57327 2.75062,0 2.71013,0 0,-6.51245 c 0,-3.76767 0.005,-6.51246 0.0405,-6.51246 0.0778,0 -0.0102,-0.49115 1.21351,6.91696 l 1.01125,6.10795 2.91241,0 2.87195,0 -0.0404,-0.1618 c -0.16258,-0.6998 -2.62925,-13.8139 -2.62925,-13.95527 0,-0.14138 2.43132,-9.98095 2.62925,-10.63835 0.0354,-0.11311 -0.0927,-0.13548 -2.75061,-0.12135 l -2.8315,0 -1.0517,5.05625 c -0.59379,2.75683 -1.13063,5.18193 -1.17304,5.37985 -0.0424,0.205 -0.12646,0.36405 -0.16182,0.36405 -0.0353,0 -0.0405,-3.33939 -0.0405,-8.53495 l 0,-8.49451 -2.71013,0 -2.75062,0 z m 52.30191,1.618 0,2.30565 0,2.30566 -0.64721,0 -0.68765,0 0,1.98205 0,1.94159 0.68765,0 0.64721,0 0.0404,9.02038 c 0.0212,6.475 0.0578,9.09457 0.12135,9.3844 0.15552,0.79877 0.34952,1.19897 0.80899,1.65845 0.76342,0.75636 1.30152,0.8899 4.20681,0.8899 l 1.98205,0 0,-2.0225 0,-2.0225 -0.32359,0 c -0.47361,-0.007 -0.86282,-0.15906 -1.01127,-0.36405 -0.0706,-0.099 -0.20027,-0.35227 -0.24268,-0.60675 -0.0425,-0.2969 -0.0404,-3.27735 -0.0404,-8.21136 l 0,-7.72597 0.809,0 0.809,0 0,-1.94159 0,-1.98205 -0.809,0 -0.809,0 0,-2.30566 0,-2.30565 -2.75061,0 -2.79104,0 z m -107.03081,4.045 c -0.25623,0.002 -0.43749,0.033 -0.52586,0.0404 -1.63288,0.15552 -2.88217,0.66959 -3.68095,1.49665 -0.71393,0.73515 -1.09961,1.48135 -1.37529,2.83151 l -0.1618,0.80899 0,7.76641 c 0,7.24553 8.4e-4,7.84929 0.12135,8.53496 0.35345,1.97927 1.14871,3.14999 2.54835,3.84276 0.79878,0.39584 1.49315,0.58161 2.58881,0.68764 1.54807,0.15551 3.34676,-0.0734 4.44949,-0.52585 1.78841,-0.74929 2.87431,-2.20121 3.11466,-4.16634 0.0425,-0.32518 0.0809,-1.68361 0.0809,-3.03377 l 0,-2.46745 -2.75059,0 -2.75061,0 0,2.58881 c 0,1.78133 -0.0242,2.68109 -0.0809,2.87195 -0.24741,0.83411 -1.29599,0.92522 -1.69891,0.16179 -0.16259,-0.29688 -0.18104,-0.28126 -0.20225,-3.9641 l 0,-3.72139 3.76187,0 3.72138,0 0,-4.69222 c -0.0283,-4.2766 -0.0487,-4.76054 -0.16179,-5.17759 -0.21913,-0.79171 -0.60951,-1.46406 -1.1326,-2.02251 -1.1593,-1.22291 -2.65678,-1.81122 -4.97536,-1.86071 -0.30042,-0.007 -0.63367,-0.002 -0.8899,0 z m 97.6464,0 c -0.25625,0.002 -0.47795,0.033 -0.5663,0.0404 -1.63289,0.15552 -2.8822,0.66959 -3.68097,1.49665 -0.71394,0.73515 -1.05915,1.48135 -1.33484,2.83151 l -0.1618,0.80899 0,7.76641 c 0,7.24553 8.5e-4,7.84929 0.12135,8.53496 0.35343,1.97927 1.10828,3.14999 2.50791,3.84276 0.79877,0.39584 1.53359,0.58161 2.62924,0.68764 1.54809,0.15551 3.30633,-0.0734 4.40906,-0.52585 1.78841,-0.74929 2.91477,-2.20121 3.1551,-4.16634 0.0425,-0.32518 0.0404,-1.68361 0.0404,-3.03377 l 0,-2.46745 -2.7506,0 -2.75059,0 0,2.58881 c 0,1.78133 -0.0243,2.68109 -0.081,2.87195 -0.2474,0.83411 -1.29597,0.92522 -1.6989,0.16179 -0.16256,-0.29688 -0.1406,-0.28126 -0.16179,-3.9641 l -0.0405,-3.72139 3.76186,0 3.76186,0 -0.0404,-4.69222 c -0.0282,-4.2766 -0.0487,-4.76054 -0.1618,-5.17759 -0.21915,-0.79171 -0.6095,-1.46406 -1.1326,-2.02251 -1.15929,-1.22291 -2.65679,-1.81122 -4.97536,-1.86071 -0.30041,-0.007 -0.59321,-0.002 -0.84944,0 z m -108.32521,0.0809 c -0.3011,0.004 -0.60494,0.0191 -0.8899,0.081 -1.05324,0.2262 -2.00524,0.89737 -2.6697,1.90115 -0.19087,0.28982 -0.33576,0.52585 -0.36406,0.52585 -0.0353,0 -0.0809,-0.44574 -0.0809,-1.01125 l 0,-1.01125 -2.6697,0 -2.71016,0 0,12.41815 0,12.45862 2.75061,0 2.71014,0 0,-9.95071 0.0404,-9.95071 0.1618,-0.32361 c 0.17671,-0.38171 0.41824,-0.56629 0.84945,-0.56629 0.35344,0 0.6484,0.13785 0.76855,0.36405 0.19793,0.37466 0.24271,1.02782 0.24271,4.89446 l 0,4.00454 2.75059,0 2.75061,0 -0.0405,-5.33939 c -0.0283,-5.88832 -0.0117,-5.79184 -0.4854,-6.79561 -0.28275,-0.58672 -0.73085,-1.08037 -1.25396,-1.33485 -0.51999,-0.25756 -1.19828,-0.37191 -1.86069,-0.36405 z m 59.98742,0 c -0.31015,0.003 -0.58634,0.0279 -0.80901,0.081 -1.06739,0.24033 -1.97185,0.90445 -2.62926,1.90115 -0.19085,0.28983 -0.37621,0.52585 -0.40449,0.52585 -0.0354,0 -0.0405,-0.44575 -0.0405,-1.01125 l 0,-1.01125 -2.71015,0 -2.66971,0 0,12.41815 0,12.45862 2.71015,0 2.71015,0 0.0404,-9.95071 0,-9.95071 0.1618,-0.32361 c 0.17671,-0.38171 0.4587,-0.56629 0.8899,-0.56629 0.56552,0 0.76266,0.24468 0.8899,0.93035 0.0425,0.24034 0.0809,3.94145 0.0809,10.11251 l 0,9.74846 2.75062,0 2.7506,0 0,-10.59791 c 0,-6.96277 -0.0314,-10.84533 -0.081,-11.32602 -0.2262,-2.25494 -1.28107,-3.34634 -3.31689,-3.43824 -0.10959,-0.003 -0.22024,-0.002 -0.32361,0 z m 37.21402,0 c -0.31015,0.003 -0.58633,0.0279 -0.80898,0.081 -1.06739,0.24033 -2.01231,0.90445 -2.66972,1.90115 -0.19086,0.28983 -0.37621,0.52585 -0.40451,0.52585 -0.0354,0 -0.0404,-0.44575 -0.0404,-1.01125 l 0,-1.01125 -2.71015,0 -2.6697,0 0,12.41815 0,12.45862 2.71015,0 2.71014,0 0.0404,-9.95071 0,-9.95071 0.1618,-0.32361 c 0.17671,-0.38171 0.4587,-0.56629 0.8899,-0.56629 0.56551,0 0.76266,0.24468 0.88989,0.93035 0.0424,0.24034 0.081,3.94145 0.081,10.11251 l 0,9.74846 2.75059,0 2.75062,0 0,-10.59791 c 0,-6.96277 0.009,-10.84533 -0.0404,-11.32602 -0.2262,-2.25494 -1.28108,-3.34634 -3.31691,-3.43824 -0.10957,-0.003 -0.22022,-0.002 -0.32361,0 z m -77.66407,0.4854 0,12.41815 0,12.45862 2.71015,0 2.7506,0 0,-12.45862 0,-12.41815 -2.7506,0 -2.71015,0 z m 16.38227,0 0.0405,11.16421 0,11.20466 0.16179,0.52585 c 0.2262,0.72101 0.47991,1.15538 0.8899,1.5371 1.04619,0.97549 2.91046,1.13966 4.40906,0.4045 0.60791,-0.30397 1.30304,-0.93428 1.6989,-1.57754 0.1555,-0.24035 0.29531,-0.44496 0.3236,-0.44496 0.0354,0 0.0404,0.44575 0.0404,1.01125 l 0,1.0517 2.75062,0 2.71014,0 0,-12.45862 0,-12.41815 -2.7506,0 -2.7506,0 -0.0404,9.9507 0,9.99117 -0.16181,0.3236 c -0.20499,0.38878 -0.51839,0.52781 -0.97081,0.48541 -0.38877,-0.0425 -0.55844,-0.19872 -0.72809,-0.56632 -0.099,-0.22621 -0.14059,-1.22114 -0.1618,-10.23386 l 0,-9.9507 -2.71016,0 -2.71013,0 -0.0405,0 z m -24.79588,3.3169 c 0.0809,-0.0237 0.15923,10e-6 0.2427,0 0.20029,-4e-5 0.39931,0.0537 0.5663,0.20225 0.38172,0.33223 0.4045,0.50156 0.4045,3.35735 l 0,2.5888 -1.01125,0 -0.9708,0 0,-2.6697 c 0.0212,-2.45994 0.0346,-2.69837 0.1618,-2.95285 0.12923,-0.26177 0.3641,-0.45456 0.60675,-0.52585 z m 97.60595,0 c 0.0809,-0.0237 0.15924,10e-6 0.2427,0 0.20027,-4e-5 0.3993,0.0537 0.5663,0.20225 0.38171,0.33223 0.40451,0.50156 0.40451,3.35735 l 0,2.5888 -0.97081,0 -1.01125,0 0.0405,-2.6697 c 0.0212,-2.45994 -0.006,-2.69837 0.12135,-2.95285 0.12921,-0.26177 0.36409,-0.45456 0.60675,-0.52585 z m -28.67909,15.16876 0,3.19555 0,3.19556 2.83151,0 2.83152,0 0,-3.19556 0,-3.19555 -2.83152,0 -2.83151,0 z"
           id="path3151-4"
           inkscape:connector-curvature="0" />
      </g>
      <path
         style="font-size:medium;font-style:normal;font-variant:normal;font-weight:normal;font-stretch:normal;text-indent:0;text-align:start;text-decoration:none;line-height:normal;letter-spacing:normal;word-spacing:normal;text-transform:none;direction:ltr;block-progression:tb;writing-mode:lr-tb;text-anchor:start;baseline-shift:baseline;color:#000000;fill:#dc0067;fill-opacity:1;fill-rule:nonzero;stroke:none;visibility:visible;display:inline;overflow:visible;enable-background:accumulate;font-family:sans-serif"
         d="m 161.69051,325.94115 c -24.01228,0 -43.49429,19.56749 -43.49429,43.67452 0,24.10723 19.482,43.67232 43.49429,43.67232 24.0126,0 43.49429,-19.56509 43.49429,-43.67232 0,-24.10702 -19.4817,-43.67452 -43.49429,-43.67452 z m 0,1.89679 c 22.98331,0 41.59751,18.6914 41.59751,41.77773 0,23.08655 -18.61421,41.77553 -41.59751,41.77553 -22.98296,0 -41.5975,-18.68898 -41.5975,-41.77553 0,-23.08634 18.61452,-41.77773 41.5975,-41.77773 z"
         id="path3-4-4-9-2"
         inkscape:connector-curvature="0" />
      <g
         id="g3285">
        <path
           inkscape:connector-curvature="0"
           style="fill:#000000"
           d="m 140.22867,246.35119 c -0.001,6.10765 0.004,12.23611 0,18.34375 -0.43937,0.48142 -0.80128,1.02794 -1.28125,1.46875 -0.74968,0.26681 -1.54831,0.37334 -2.3125,0.59375 -0.004,2.37664 0.004,4.77961 0,7.15625 -0.77578,0.17111 -1.55477,0.36269 -2.28125,0.6875 0.011,1.41526 0.0242,2.83475 0.0312,4.25 -1.69367,2.12869 -3.04477,4.55195 -3.84375,7.15625 -0.42922,1.41961 -0.69729,2.87049 -0.84375,4.34375 -0.0176,1.68932 -0.0242,3.37318 -0.0312,5.0625 -16.37992,0.001 -32.750823,3.6e-4 -49.125003,0 0.05643,0.16835 0.129705,0.33228 0.1875,0.5 19.750073,1.3e-4 39.501103,-7.7e-4 59.250003,0 -3.87311,1.88508 -7.78169,3.71157 -11.65625,5.59375 -0.23201,0.1044 -0.45774,0.249 -0.71875,0.25 -14.85489,0.004 -29.708499,0.001 -44.562503,0 0.07219,0.15693 0.145329,0.31251 0.21875,0.46875 14.52074,0.007 29.041353,0.0243 43.562503,0.0312 -0.64818,0.26536 -1.24372,0.7369 -1.96875,0.75 -13.73948,-0.003 -27.479135,-8.8e-4 -41.218753,0 0.07548,0.15506 0.142054,0.31439 0.21875,0.46875 13.447003,0.006 26.893223,0.0208 40.343753,0.0312 -1.47326,0.72068 -2.96134,1.41302 -4.4375,2.125 -0.002,9.87543 -1.3e-4,19.75039 0,29.625 0.48602,0.17138 0.97741,0.34016 1.46875,0.5 -5.7e-4,-9.56189 -0.003,-19.12717 0,-28.6875 13.21439,0.0105 26.41062,-0.0319 39.625,0 -0.014,6.68249 -0.005,13.37345 0,20.0625 0.28149,-0.006 0.56094,0 0.84375,0 0.19901,0 0.39538,-0.003 0.59375,0 0.002,-7.17787 0.005,-14.35659 0,-21.53125 -1.48776,-0.71197 -2.97954,-1.38467 -4.46875,-2.09375 13.39334,-6.5e-4 26.79078,-2.6e-4 40.1875,0 0.083,-0.16685 0.16838,-0.33232 0.25,-0.5 -13.68661,-10e-4 -27.3724,-0.004 -41.0625,0 -0.72503,-0.0116 -1.32347,-0.48319 -1.96875,-0.75 14.47183,-0.013 28.93843,-0.0262 43.40625,-0.0312 0.0734,-0.15624 0.14656,-0.31182 0.21875,-0.46875 -14.81302,2.6e-4 -29.62663,6.9e-4 -44.4375,0 -0.33496,0.007 -0.61478,-0.1762 -0.90625,-0.3125 -3.8412,-1.84738 -7.7118,-3.64037 -11.53125,-5.53125 19.72948,7.7e-4 39.4581,6e-5 59.1875,0 0.0578,-0.16772 0.13107,-0.33165 0.1875,-0.5 -16.46898,-7e-5 -32.93978,0.002 -49.40625,0 -0.012,-2.03298 0.0333,-4.06222 0,-6.09375 -0.44807,-3.80351 -2.0892,-7.42493 -4.46875,-10.40625 -0.058,-1.47181 -0.001,-2.96424 0,-4.4375 -0.69748,-0.35527 -1.49597,-0.44954 -2.25,-0.625 -0.001,-2.35489 0.004,-4.73886 0,-7.09375 -0.69168,-0.18561 -1.37227,-0.31295 -2.0625,-0.5 -0.26681,-0.0421 -0.43424,-0.27589 -0.59375,-0.46875 -0.29581,-0.37412 -0.59594,-0.73123 -0.90625,-1.09375 -0.004,-6.10909 0.001,-12.23465 0,-18.34375 -0.48432,-10e-4 -0.95463,-10e-4 -1.4375,0 z m -0.3125,21.1875 c 1.29345,0.0493 2.61345,-0.14812 3.875,0.21875 -0.018,1.95903 0.0101,3.91453 0,5.875 -1.89522,-0.14791 -3.79952,-0.17676 -5.6875,0.0625 -0.001,-1.98078 0.001,-3.98797 0,-5.96875 0.60033,-0.15076 1.19187,-0.2281 1.8125,-0.1875 z m -0.0312,6.71875 c 0.24234,-0.008 0.47586,-0.007 0.71875,0 -0.001,0.99909 10e-4,2.00091 0,3 -0.48432,-0.0101 -0.95753,-0.018 -1.4375,0.0312 -0.002,-0.99329 -0.0252,-1.97401 -0.0312,-2.96875 0.24071,-0.0303 0.50766,-0.0543 0.75,-0.0625 z m 1.4375,0 c 0.44807,-0.002 0.89423,-0.009 1.34375,0 0.012,1.01359 -0.003,2.01766 0,3.03125 -0.45097,-0.0449 -0.89133,-0.0352 -1.34375,-0.0312 10e-4,-0.99764 -0.001,-2.00236 0,-3 z m 2.09375,0.0937 c 0.45097,0.045 0.89423,0.0851 1.34375,0.15625 0,1.01794 -0.0116,2.04456 0,3.0625 -0.45097,-0.0739 -0.89133,-0.16505 -1.34375,-0.21875 -0.004,-1.00924 -0.004,-1.99076 0,-3 z m -5,0.0312 c 10e-4,0.99619 -0.003,2.00235 0,3 -0.45242,0.0334 -0.90003,0.1034 -1.34375,0.1875 -0.0185,-0.99909 0.016,-2.00236 0,-3 0.44952,-0.0855 0.88698,-0.1599 1.34375,-0.1875 z m 7.0625,0.25 c 0.42197,0.0885 0.83384,0.19504 1.25,0.3125 0.002,1.05709 0.0242,2.1304 0.0312,3.1875 -0.40891,-0.17111 -0.85638,-0.2888 -1.28125,-0.40625 0.004,-1.02664 0,-2.0671 0,-3.09375 z m -9.125,0.0625 c 0.011,1.00054 -0.006,2.03071 0,3.03125 -0.42341,0.1247 -0.83238,0.23435 -1.25,0.375 0.004,-1.00924 -0.001,-2.02201 0,-3.03125 0.41182,-0.13775 0.83094,-0.259 1.25,-0.375 z m 3.375,3.28125 c 1.04744,-0.0457 2.07878,0.002 3.125,0.0625 1.57041,3.33079 2.14015,7.05881 2.09375,10.71875 -2.10548,-0.087 -4.20556,-0.0393 -6.3125,-0.0625 -0.66412,10e-4 -1.33732,0.002 -2,0.0625 -0.0551,-3.64544 0.52319,-7.34946 2.03125,-10.6875 0.34801,-0.033 0.71335,-0.0785 1.0625,-0.0937 z m 4.03125,0.15625 c 0.89469,0.145 1.81956,0.29664 2.65625,0.65625 0.68298,0.73808 1.20928,1.57312 1.8125,2.375 1.53271,2.41435 2.57144,5.16224 2.96875,8 0.0249,0.24506 0.0283,0.50204 0.0312,0.75 -1.85607,-0.33496 -3.71078,-0.67889 -5.5625,-1.03125 0.0624,-3.65415 -0.47794,-7.36992 -1.90625,-10.75 z m -5.9375,0.0312 c -1.42686,3.36848 -1.97875,7.07475 -1.90625,10.71875 -1.80968,0.34221 -3.62493,0.67954 -5.4375,1 0.39876,-4.07902 2.2243,-7.96227 4.875,-11.0625 0.78448,-0.35236 1.62627,-0.50545 2.46875,-0.65625 z m 0.40625,12 c 1.58245,-0.0215 3.16653,0.0207 4.75,0 0.66268,0.006 1.30752,-0.0471 1.96875,0.0312 -0.007,1.74007 0,3.47868 0,5.21875 -2.77106,0.003 -5.54143,0.003 -8.3125,0 0,-1.74007 0.007,-3.47868 0,-5.21875 0.52674,-0.0265 1.06627,-0.0241 1.59375,-0.0312 z m -2.3125,0.1875 0,5.0625 c -1.83723,10e-4 -3.66422,0.003 -5.5,0 0,-1.3529 0.003,-2.7096 0,-4.0625 1.83723,-0.33786 3.66567,-0.64329 5.5,-1 z m 9.75,0 c 1.85027,0.35816 3.70933,0.69194 5.5625,1.03125 -0.001,1.35145 0,2.6798 0,4.03125 -1.85317,0 -3.70933,10e-4 -5.5625,0 0,-1.69222 -0.001,-3.37028 0,-5.0625 z m -4.6875,5.875 c 6.51801,3.18287 13.07509,6.25883 19.625,9.375 -13.04182,0.0176 -26.08462,0.0153 -39.125,0.0312 6.49336,-3.13792 13.01099,-6.26398 19.5,-9.40625 z m 0,2.1875 c -0.19687,-0.004 -0.40017,0.0209 -0.59375,0.0937 -1.34711,0.55247 -1.83656,2.23425 -1.5625,3.5625 0.17401,0.95124 0.81486,1.93584 1.8125,2.15625 0.81783,0.18561 1.61653,-0.32282 2.03125,-1 0.73518,-1.1963 0.69494,-2.87186 -0.15625,-4 -0.35345,-0.47957 -0.94065,-0.79944 -1.53125,-0.8125 z m -0.1875,0.5 c 0.52525,-0.0863 1.04304,0.22866 1.34375,0.65625 0.72503,1.03389 0.74388,2.53731 0,3.5625 -0.35237,0.49733 -1.03338,0.83366 -1.625,0.5625 -0.96719,-0.43937 -1.3153,-1.63896 -1.25,-2.625 0.0855,-0.83523 0.46857,-1.77329 1.3125,-2.09375 0.0738,-0.0297 0.14371,-0.0502 0.21875,-0.0625 z m -50.343753,9.8125 c -0.0029,1.59361 -0.02835,3.18764 -0.03125,4.78125 1.289102,0.006 2.584448,0.004 3.875,0 -0.0015,-1.59361 0.0015,-3.18619 0,-4.78125 -1.289102,-0.001 -2.554648,-0.001 -3.84375,0 z m 7.8125,0 c -0.003,1.59361 0.0029,3.18764 0,4.78125 1.289102,0.006 2.584453,0.003 3.875003,0 -10e-4,-1.59361 0.002,-3.18619 0,-4.78125 -1.2891,-0.001 -2.585901,-0.001 -3.875003,0 z m 7.843753,0 c -0.003,1.59361 0.002,3.18764 0,4.78125 1.2891,0.004 2.55465,0.004 3.84375,0 -0.003,-1.59361 0.003,-3.18764 0,-4.78125 -1.2891,-0.001 -2.55465,-0.001 -3.84375,0 z m 7.8125,0 c -0.003,1.59506 0.001,3.18764 0,4.78125 1.2891,0.004 2.5859,0.004 3.875,0 -10e-4,-1.59361 0.001,-3.18619 0,-4.78125 -1.2891,-0.001 -2.5859,-0.001 -3.875,0 z m 9.28125,0 c -0.002,1.59361 0.001,3.18764 0,4.78125 1.2891,0.004 2.58445,0.004 3.875,0 -10e-4,-1.59361 0.001,-3.18619 0,-4.78125 -1.2891,-0.001 -2.5859,-0.001 -3.875,0 z m 7.84375,0 c -0.002,1.59361 0.003,3.18619 0,4.78125 1.28765,0.007 2.55465,-0.003 3.84375,0 0.002,-1.59506 0,-3.18619 0,-4.78125 -1.2891,-0.001 -2.55465,-0.001 -3.84375,0 z m 8.0625,0 c -0.005,1.59506 -0.001,3.18619 0,4.78125 1.28766,0.002 2.5859,-0.001 3.875,0 0.002,-1.59506 0,-3.18619 0,-4.78125 -1.2891,-0.001 -2.58734,10e-4 -3.875,0 z m 8.0625,0 c 0,1.59506 -0.003,3.18619 0,4.78125 1.28765,-0.001 2.58734,10e-4 3.875,0 0,-1.59651 0.006,-3.18619 0,-4.78125 -1.28766,10e-4 -2.58735,-0.001 -3.875,0 z m 7.84375,0 c 0,1.59506 -0.003,3.18619 0,4.78125 1.28765,-0.001 2.58735,10e-4 3.875,0 0,-1.59651 0.006,-3.18619 0,-4.78125 -1.28765,10e-4 -2.58735,-0.001 -3.875,0 z m 9.28125,0 c 0,1.59506 -0.003,3.18619 0,4.78125 1.28765,-0.001 2.58734,10e-4 3.875,0 -0.003,-1.59796 -0.0125,-3.18619 -0.0312,-4.78125 -1.28621,0.008 -2.55755,-0.004 -3.84375,0 z m 7.84375,0 c 0,1.59506 -0.003,3.18619 0,4.78125 1.28765,-0.001 2.55465,0.003 3.84375,0 -0.002,-1.59506 0.006,-3.18619 0,-4.78125 -1.27727,9.9e-4 -2.56646,-9.6e-4 -3.84375,0 z m 7.8125,0 c 0,1.59506 -0.003,3.18619 0,4.78125 1.28765,-0.001 2.58735,10e-4 3.875,0 -0.001,-1.59651 0.0116,-3.18619 0,-4.78125 -1.28765,0.006 -2.58735,-0.003 -3.875,0 z m 7.84375,0 c 0,1.59506 -0.004,3.18619 0,4.78125 1.28765,-0.001 2.5561,10e-4 3.84375,0 0,-1.59651 0.006,-3.18619 0,-4.78125 -1.28765,10e-4 -2.5561,-0.001 -3.84375,0 z m -96.875003,0.46875 2.90625,0 c 0,1.27315 0.0014,2.53935 0,3.8125 l -2.90625,0 c -0.0015,-1.27315 0,-2.53935 0,-3.8125 z m 7.84375,0 2.875003,0 c 0,1.27315 0.002,2.53935 0,3.8125 l -2.875003,0 c -0.0029,-1.27315 0,-2.53935 0,-3.8125 z m 7.812503,0 2.90625,0 0,3.8125 -2.90625,0 c -10e-4,-1.27315 0,-2.53935 0,-3.8125 z m 7.84375,0 2.875,0 c 0,1.27315 0.001,2.53935 0,3.8125 l -2.875,0 c -0.002,-1.27315 0,-2.53935 0,-3.8125 z m 9.28125,0 2.875,0 c 0,1.27315 0.001,2.53935 0,3.8125 l -2.875,0 c -10e-4,-1.27315 0,-2.53935 0,-3.8125 z m 7.8125,0 2.90625,0 c 0,1.27315 10e-4,2.53935 0,3.8125 l -2.90625,0 0,-3.8125 z m 8.09375,0 c 0.96719,-0.001 1.90781,-0.003 2.875,0 -0.003,1.27315 0.006,2.53935 0,3.8125 -0.96574,-0.003 -1.91071,0.003 -2.875,0 -0.002,-1.2717 0,-2.5408 0,-3.8125 z m 8.0625,0 c 0.96574,-0.002 1.93906,0 2.90625,0 0,1.27315 0.003,2.5408 0,3.8125 -0.96574,0.003 -1.94051,-0.003 -2.90625,0 -0.006,-1.27315 0.003,-2.53935 0,-3.8125 z m 7.8125,0 c 0.96573,-0.003 1.93906,-0.001 2.90625,0 0,1.2717 0.003,2.5408 0,3.8125 -0.96574,0.002 -1.94052,-0.001 -2.90625,0 -0.006,-1.2717 0.003,-2.53935 0,-3.8125 z m 9.28125,0 c 0.96574,-0.003 1.93906,-0.001 2.90625,0 0,1.2717 0.003,2.5408 0,3.8125 -0.96574,0.002 -1.94051,-0.001 -2.90625,0 -0.006,-1.2717 0.003,-2.5408 0,-3.8125 z m 7.84375,0 c 0.96573,-0.003 1.93906,-0.001 2.90625,0 0,1.2717 0.003,2.5408 0,3.8125 -0.96574,0.003 -1.94052,-0.003 -2.90625,0 -0.006,-1.27315 0.003,-2.53935 0,-3.8125 z m 7.84375,0 c 0.95539,-0.003 1.91821,-9.9e-4 2.875,0 0,1.2717 0.003,2.5408 0,3.8125 -0.96574,0.002 -1.90926,-0.001 -2.875,0 -0.006,-1.2717 0.003,-2.5408 0,-3.8125 z m 7.8125,0 c 0.96574,-0.004 1.93907,-0.001 2.90625,0 0,1.2717 0.003,2.5408 0,3.8125 -0.96573,0.002 -1.94196,-0.001 -2.90625,0 -0.006,-1.2717 0.003,-2.5408 0,-3.8125 z m -55.25,7.1875 c -0.97155,-0.0114 -1.91424,0.82792 -1.96875,1.8125 -0.0537,1.36451 0.0217,2.72779 0,4.09375 -0.85264,-0.001 -1.70987,10e-4 -2.5625,0 -0.004,1.2891 10e-4,2.5859 0,3.875 -0.38717,-0.001 -0.77054,0 -1.15625,0 -10e-4,0.25376 -10e-4,0.49334 0,0.75 0.31176,0.16386 0.60173,0.35145 0.90625,0.53125 0.0754,0.30017 0.279,0.55454 0.25,0.875 -0.005,3.1091 -0.001,6.2289 0,9.34375 0.47751,0.0947 0.95621,0.166 1.4375,0.25 -2.2e-4,-3.35401 -8e-4,-6.7114 0,-10.0625 l 6.25,0 c 10e-4,2.59138 4.4e-4,5.18681 0,7.78125 0.46231,-0.34766 0.96082,-0.67104 1.4375,-1 -1.7e-4,-2.26115 -5.4e-4,-4.5229 0,-6.78125 l 6.375,0 c 5.1e-4,1.05112 -8e-5,2.10415 0,3.15625 0.48369,-0.22223 0.97549,-0.45186 1.46875,-0.65625 1.8e-4,-0.83322 -6e-4,-1.66743 0,-2.5 l 6.53125,0 c 3e-5,0.13529 -3e-5,0.27094 0,0.40625 0.49626,-0.11614 0.99722,-0.24517 1.5,-0.34375 0.059,-0.17942 0.13738,-0.34443 0.15625,-0.53125 0.36977,-0.20011 0.74073,-0.39139 1.125,-0.5625 -0.004,-0.22476 0,-0.43439 0,-0.65625 l -1.34375,0 c -0.001,-1.2891 0.003,-2.5859 0,-3.875 -0.78883,0 -1.58762,0.003 -2.375,0 -0.004,-1.27605 0,-2.5379 0,-3.8125 -0.013,-0.79318 -0.46762,-1.62429 -1.21875,-1.9375 -0.87439,-0.42052 -1.95238,0.0601 -2.40625,0.875 -0.17546,0.37847 -0.259,0.80113 -0.25,1.21875 0.004,1.22385 10e-4,2.43095 0,3.65625 l -4.1875,0 c -0.004,-1.27315 0.003,-2.53935 0,-3.8125 0.0116,-0.93673 -0.64542,-1.86014 -1.59375,-2.03125 -1.09915,-0.23781 -2.1963,0.67776 -2.25,1.78125 -0.0392,1.35291 -0.0168,2.70959 -0.0312,4.0625 -1.40075,0.002 -2.78674,-0.001 -4.1875,0 -0.007,-1.2746 0.003,-2.53645 0,-3.8125 -0.001,-0.89903 -0.59371,-1.82679 -1.5,-2.03125 -0.13794,-0.0382 -0.26746,-0.0609 -0.40625,-0.0625 z m -0.1875,0.5 c 0.88454,-0.12326 1.6583,0.73097 1.625,1.59375 0.01,1.27025 0.0302,2.54225 0.0312,3.8125 -0.99764,10e-4 -2.00236,10e-4 -3,0 0.001,-1.2717 -0.0101,-2.5408 0,-3.8125 -0.016,-0.75403 0.56507,-1.53435 1.34375,-1.59375 z m 8.1875,0 c 0.39641,-0.006 0.80366,0.15698 1.0625,0.46875 0.35092,0.32336 0.48035,0.81578 0.46875,1.28125 -0.002,1.2253 10e-4,2.43095 0,3.65625 l -3,0 c -0.004,-1.2282 10e-4,-2.4593 0,-3.6875 -0.0116,-0.44952 0.11704,-0.89104 0.4375,-1.21875 0.25376,-0.31101 0.63484,-0.49439 1.03125,-0.5 z m 8.21875,0 c 0.76263,0.0643 1.39784,0.82359 1.375,1.59375 0.007,1.27315 0,2.53935 0,3.8125 l -3,0 c 0.003,-1.2746 -0.013,-2.5379 0,-3.8125 -0.009,-0.72938 0.56137,-1.4769 1.3125,-1.5625 0.11274,-0.0208 0.20355,-0.0404 0.3125,-0.0312 z m 5.78125,1.15625 c 0,2.40129 -0.003,4.81745 0,7.21875 1.28765,-0.001 2.5859,0.003 3.875,0 10e-4,-2.39985 -0.001,-4.81891 0,-7.21875 -1.2891,-0.002 -2.5859,0 -3.875,0 z m 9.28125,0 c 0,2.40129 -0.004,4.8189 0,7.21875 1.28765,-0.001 2.58589,0.003 3.875,0 10e-4,-2.39985 -0.001,-4.81891 0,-7.21875 -1.28911,-0.004 -2.5859,0 -3.875,0 z m 7.84375,0 c 0,2.40129 -0.003,4.81745 0,7.21875 1.28765,-0.001 2.5561,10e-4 3.84375,0 0.002,-2.4013 -0.001,-4.81891 0,-7.21875 -1.2787,-0.002 -2.56505,-2e-5 -3.84375,0 z m 7.8125,0 c 0,2.40129 -0.003,4.8189 0,7.21875 0.11423,-9e-5 0.22935,5e-5 0.34375,0 0.20915,-0.16448 0.41797,-0.33297 0.625,-0.5 -0.15647,-1e-5 -0.31129,-1.6e-4 -0.46875,0 -0.004,-2.07794 0,-4.14082 0,-6.21875 0.96574,0 1.90781,-0.006 2.875,0 -0.002,1.39921 -6.5e-4,2.79276 0,4.1875 0.16542,-0.14745 0.33613,-0.28835 0.5,-0.4375 -3.5e-4,-1.41826 -5.9e-4,-2.83711 0,-4.25 -1.2891,-0.002 -2.5859,0 -3.875,0 z m 7.84375,0 c 0,0.10395 1e-5,0.20849 0,0.3125 0.0952,-0.10324 0.18671,-0.20863 0.28125,-0.3125 -0.0941,2e-5 -0.18693,0 -0.28125,0 z m -93.875003,0.0937 c 0.124625,0.13636 0.249209,0.27098 0.375,0.40625 -7.5e-5,-0.13517 8.4e-5,-0.27119 0,-0.40625 -0.125766,-1e-4 -0.249639,8e-5 -0.375,0 z m 4.34375,0 c -8.96e-4,1.43368 -1.75e-4,2.87331 0,4.3125 0.164395,0.14848 0.334056,0.29071 0.5,0.4375 l 0,-4.25 2.875003,0 0,6.21875 -0.5625,0 c 0.21373,0.17171 0.44027,0.331 0.65625,0.5 0.1353,-8e-5 0.2711,10e-5 0.40625,0 0.002,-2.39985 0.002,-4.8189 0,-7.21875 -1.2891,-0.001 -2.585901,-0.001 -3.875003,0 z m 7.843753,0 c -10e-4,2.39985 -10e-4,4.8189 0,7.21875 1.2891,10e-4 2.55465,10e-4 3.84375,0 0.002,-2.39985 0.002,-4.8189 0,-7.21875 -1.2891,-0.001 -2.55465,-0.001 -3.84375,0 z m 7.8125,0 c -10e-4,2.39985 -10e-4,4.8189 0,7.21875 1.2891,10e-4 2.5859,10e-4 3.875,0 0.001,-2.39985 0.001,-4.8189 0,-7.21875 -1.2891,-0.001 -2.5859,-0.001 -3.875,0 z m 9.28125,0 c -10e-4,2.39985 -10e-4,4.8189 0,7.21875 1.2891,10e-4 2.5859,10e-4 3.875,0 0.001,-2.39985 0.001,-4.8189 0,-7.21875 -1.2891,-0.001 -2.5859,-0.001 -3.875,0 z m 32.28125,0.40625 c 0.96573,0 1.94051,-0.004 2.90625,0 -0.001,2.07648 0.003,4.14226 0,6.21875 -0.96574,0.002 -1.94052,-0.001 -2.90625,0 -0.004,-2.07794 0,-4.14082 0,-6.21875 z m 9.28125,0 c 0.96719,0.003 1.93761,-0.0174 2.90625,0 -0.01,2.07503 0.006,4.14371 0,6.21875 -0.96574,0.002 -1.94051,-0.001 -2.90625,0 -0.005,-2.07794 0,-4.14082 0,-6.21875 z m 7.84375,0 c 0.96573,0 1.94051,-0.004 2.90625,0 -0.001,2.07648 0.003,4.14226 0,6.21875 -0.96574,0.003 -1.94052,-0.003 -2.90625,0 -0.005,-2.07939 0,-4.14082 0,-6.21875 z m -66.03125,0.0937 2.90625,0 0,6.21875 -2.90625,0 0,-6.21875 z m 7.84375,0 2.875,0 0,6.21875 -2.875,0 0,-6.21875 z m 9.28125,0 2.875,0 0,6.21875 -2.875,0 0,-6.21875 z m 5.25,4.15625 c 7.98983,0 15.97893,0.003 23.96875,0 0.008,1.12669 -0.004,2.24686 0,3.375 -7.99127,0.003 -15.97747,0.003 -23.96875,0 0.003,-1.12814 -0.006,-2.24831 0,-3.375 z m -15.03125,8.875 c -2.4e-4,0.40517 3e-5,0.81267 0,1.21875 0.16488,0.0773 0.33435,0.14277 0.5,0.21875 2.5e-4,-0.31262 -4.5e-4,-0.62424 0,-0.9375 0.96574,0.001 1.90927,0.001 2.875,0 0.001,0.72049 -9e-5,1.43829 0,2.15625 0.16835,0.0674 0.33095,0.15278 0.5,0.21875 1.7e-4,-0.95945 4e-4,-1.91922 0,-2.875 l -3.875,0 z m 9.28125,0 c -6.5e-4,1.55834 -2.4e-4,3.12348 0,4.6875 0.16858,0.0488 0.33085,0.10878 0.5,0.15625 -7.4e-4,-1.44706 -0.002,-2.89233 0,-4.34375 0.96574,0.001 1.90926,0.001 2.875,0 0.002,1.70202 9.5e-4,3.39493 0,5.09375 0.16446,0.0379 0.33506,0.0571 0.5,0.0937 -2.2e-4,-1.89585 7.9e-4,-3.79672 0,-5.6875 l -3.875,0 z"
           id="path5819" />
        <path
           style="font-size:medium;font-style:normal;font-variant:normal;font-weight:normal;font-stretch:normal;text-indent:0;text-align:start;text-decoration:none;line-height:normal;letter-spacing:normal;word-spacing:normal;text-transform:none;direction:ltr;block-progression:tb;writing-mode:lr-tb;text-anchor:start;baseline-shift:baseline;color:#000000;fill:#dc0067;fill-opacity:1;fill-rule:nonzero;stroke:none;visibility:visible;display:inline;overflow:visible;enable-background:accumulate;font-family:sans-serif"
           d="m 141.04116,210.63244 c -35.65467,0 -64.562498,29.04506 -64.562498,64.84375 0,32.13268 23.289466,58.78137 53.843748,63.90625 0.52051,-0.54466 1.04598,-1.07668 1.59375,-1.59375 -30.32403,-4.43064 -53.624998,-30.62803 -53.624998,-62.3125 0,-34.79526 28.107328,-62.96875 62.749998,-62.96875 34.64315,0 62.6875,28.17385 62.6875,62.96875 0,6.37439 -0.93617,12.5143 -2.6875,18.3125 0.76787,-0.52021 1.55322,-1.01219 2.34375,-1.5 1.43327,-5.36628 2.21875,-10.99188 2.21875,-16.8125 0,-35.79869 -28.90735,-64.84375 -64.5625,-64.84375 z"
           id="path6989"
           inkscape:connector-curvature="0"
           sodipodi:nodetypes="ssccsssccss" />
        <path
           transform="translate(14.22867,-16)"
           sodipodi:type="inkscape:offset"
           inkscape:radius="-0.40800047"
           inkscape:original="M 140.6875 242.90625 C 140.6565 242.90625 140.44594 243.20067 140.1875 243.5625 C 139.93422 243.92949 139.62406 244.37643 139.5 244.5625 C 139.37594 244.74858 139.20795 244.94832 139.15625 245 C 139.10455 245.0569 139.0625 245.10949 139.0625 245.125 C 139.0625 245.1405 139.31463 245.31933 139.59375 245.53125 C 140.73608 246.4048 142.1462 247.74628 142.875 248.625 C 143.01974 248.79557 143.14074 248.92199 143.15625 248.9375 C 143.27514 249.04608 143.98663 250.00332 144.28125 250.4375 C 146.60208 253.911 147.81417 257.49458 148.03125 261.5625 C 148.19149 264.51394 147.68416 267.56358 146.5625 270.4375 C 146.06113 271.71937 145.41044 272.96271 144.59375 274.21875 C 144.39733 274.51854 144.17153 274.84963 144.125 274.9375 C 144.0785 275.0202 143.88391 275.27281 143.6875 275.53125 C 142.50899 277.0509 141.00979 278.54987 139.5625 279.625 C 139.25753 279.84726 139.03125 280.04183 139.03125 280.0625 C 139.03125 280.0935 140.47979 282.22462 140.5625 282.3125 C 140.5884 282.3384 140.66734 282.3122 140.75 282.25 C 140.8275 282.1879 141.12711 281.96192 141.40625 281.75 C 142.85354 280.64902 144.19624 279.35918 145.34375 277.96875 C 146.35684 276.74889 146.94317 275.88599 147.6875 274.59375 C 151.21785 268.45828 151.86689 260.99072 149.4375 254.3125 C 147.81446 249.85175 144.9279 246.00337 140.9375 243.03125 C 140.83408 242.95365 140.71852 242.91142 140.6875 242.90625 z M 112.8125 242.9375 C 112.797 242.9425 112.72858 243.00562 112.65625 243.0625 C 112.58385 243.1194 112.31037 243.35057 112.03125 243.5625 C 110.58912 244.66347 109.24125 245.92206 108.09375 247.3125 C 107.08064 248.53236 106.49432 249.39526 105.75 250.6875 C 102.21964 256.82297 101.57061 264.29053 104 270.96875 C 105.62303 275.42952 108.50961 279.27788 112.5 282.25 C 112.60343 282.3275 112.71898 282.36982 112.75 282.375 C 112.7965 282.375 113.42601 281.53544 113.96875 280.71875 C 114.0928 280.53267 114.22956 280.36418 114.28125 280.3125 C 114.33295 280.2556 114.375 280.17176 114.375 280.15625 C 114.375 280.14075 114.14893 279.96192 113.875 279.75 C 112.72749 278.87646 111.29131 277.5662 110.5625 276.6875 C 110.41776 276.51693 110.29676 276.35926 110.28125 276.34375 C 110.16236 276.23517 109.45088 275.27794 109.15625 274.84375 C 106.83542 271.37025 105.62335 267.81792 105.40625 263.75 C 105.24601 260.79856 105.75335 257.74891 106.875 254.875 C 107.37637 253.59312 108.05832 252.31854 108.875 251.0625 C 109.07143 250.76271 109.26598 250.46286 109.3125 250.375 C 109.359 250.2923 109.55359 250.00845 109.75 249.75 C 110.92852 248.22518 112.42769 246.73138 113.875 245.65625 C 114.22647 245.39781 114.42175 245.22885 114.40625 245.1875 C 114.36485 245.07377 112.84869 242.9375 112.8125 242.9375 z M 137 248.125 C 136.9845 248.125 136.93189 248.19855 136.875 248.28125 C 136.50284 248.81364 135.88369 249.71079 135.65625 250.03125 C 135.51151 250.23801 135.3959 250.40107 135.40625 250.40625 C 135.94381 250.80942 136.81606 251.56088 137.28125 252.03125 C 140.03111 254.77077 141.59375 258.58714 141.59375 262.5 C 141.59375 263.90077 141.49739 264.89575 141.15625 266.25 C 140.76858 267.77482 140.10288 269.29119 139.25 270.59375 C 139.09494 270.83669 138.92151 271.1048 138.875 271.1875 C 138.73544 271.4563 138.01664 272.33766 137.46875 272.90625 C 137.02422 273.3611 135.96989 274.27374 135.4375 274.65625 L 135.28125 274.78125 L 136.0625 275.90625 C 136.49669 276.52135 136.89075 277 136.90625 277 C 136.97345 276.995 137.13373 276.88274 137.59375 276.53125 C 141.03623 273.8486 143.37057 270.04042 144.15625 265.78125 C 144.38367 264.55106 144.46851 263.53587 144.4375 262.09375 C 144.422 261.38045 144.3906 260.70745 144.375 260.59375 C 144.03385 258.37629 143.79743 257.52459 143.1875 255.96875 C 142.7585 254.86777 141.78781 253.00043 141.28125 252.375 C 141.21405 252.2871 140.91446 251.92949 140.625 251.5625 C 139.96338 250.71481 138.65456 249.37472 137.75 248.65625 C 137.36749 248.35128 137.01551 248.125 137 248.125 z M 116.5625 248.28125 C 116.5418 248.28625 116.46828 248.30755 116.40625 248.34375 C 116.21501 248.45749 115.38203 249.10715 114.9375 249.5 C 111.97573 252.13614 109.99456 255.66492 109.28125 259.53125 C 109.05382 260.76145 108.96898 261.74539 109 263.1875 C 109.0155 263.89563 109.0469 264.57378 109.0625 264.6875 C 109.40365 266.90496 109.64008 267.75666 110.25 269.3125 C 110.67903 270.41349 111.68095 272.28082 112.1875 272.90625 C 112.2547 272.99415 112.52305 273.3466 112.8125 273.71875 C 113.47413 274.56645 114.81419 275.90653 115.71875 276.625 C 116.10126 276.92996 116.422 277.15625 116.4375 277.15625 C 116.453 277.15625 116.50561 277.11395 116.5625 277.03125 C 116.93466 276.49886 117.5538 275.57046 117.78125 275.25 C 117.92598 275.04324 118.04158 274.88016 118.03125 274.875 C 117.49369 274.47182 116.62145 273.72037 116.15625 273.25 C 113.40639 270.51048 111.84375 266.69411 111.84375 262.78125 C 111.84375 261.38049 111.97136 260.38551 112.3125 259.03125 C 112.70018 257.50643 113.36587 255.99007 114.21875 254.6875 C 114.37381 254.44457 114.51599 254.17645 114.5625 254.09375 C 114.70207 253.82497 115.42085 252.94357 115.96875 252.375 C 116.41328 251.92013 117.46761 251.00749 118 250.625 L 118.15625 250.53125 L 117.375 249.40625 C 116.94081 248.79116 116.578 248.28125 116.5625 248.28125 z M 133.1875 253.59375 C 133.1668 253.59375 133.03006 253.78291 132.875 254 C 132.72511 254.22227 132.49906 254.54819 132.375 254.71875 C 132.25613 254.88933 132.00398 255.21008 131.84375 255.4375 L 131.5625 255.84375 L 131.8125 256.0625 C 132.32422 256.47602 133.16895 257.35764 133.46875 257.8125 C 134.34747 259.14608 134.79277 260.392 134.9375 261.9375 C 135.09774 263.58638 134.61792 265.54754 133.6875 267 C 133.57893 267.16024 133.5 267.29699 133.5 267.3125 C 133.5 267.3797 133.03382 267.95068 132.6875 268.3125 C 132.49108 268.5141 132.13884 268.81909 131.90625 269 L 131.5 269.34375 L 132.28125 270.5 L 133.09375 271.625 L 133.25 271.53125 C 133.84959 271.11257 134.8271 270.18746 135.375 269.5 C 135.92291 268.81771 136.258 268.31222 136.625 267.59375 C 137.89654 265.08683 138.17641 262.20876 137.40625 259.53125 C 137.17881 258.74041 137.00234 258.38482 136.625 257.625 C 136.08743 256.55503 135.47246 255.69639 134.59375 254.8125 C 134.06136 254.28528 133.28054 253.59375 133.1875 253.59375 z M 120.34375 253.6875 C 120.32825 253.677 120.21757 253.75615 120.0625 253.875 C 119.12177 254.58313 118.11439 255.61213 117.40625 256.65625 C 117.0496 257.18347 116.55545 258.2082 116.3125 258.875 C 115.49583 261.10279 115.38514 263.50154 116.03125 265.75 C 116.25869 266.54085 116.43517 266.92768 116.8125 267.6875 C 117.35007 268.75747 117.96503 269.58487 118.84375 270.46875 C 119.37614 270.99597 120.15696 271.6875 120.25 271.6875 C 120.2707 271.6875 120.40743 271.50352 120.5625 271.28125 C 120.71238 271.06416 120.93844 270.73307 121.0625 270.5625 C 121.18137 270.39193 121.43351 270.07117 121.59375 269.84375 L 121.875 269.4375 L 121.625 269.25 C 121.11329 268.8365 120.26854 267.92363 119.96875 267.46875 C 119.09004 266.13519 118.64472 264.88925 118.5 263.34375 C 118.33975 261.69487 118.81959 259.7337 119.75 258.28125 C 119.85858 258.121 119.9375 257.98425 119.9375 257.96875 C 119.9375 257.90155 120.40368 257.33058 120.75 256.96875 C 120.94642 256.76716 121.29866 256.46216 121.53125 256.28125 L 121.9375 255.9375 L 121.15625 254.8125 C 120.72206 254.19223 120.35409 253.70301 120.34375 253.6875 z "
           style="fill:#ffb400;fill-opacity:1"
           id="path6715"
           d="m 140.78125,243.4375 c -0.0727,0.0991 -0.15351,0.20868 -0.25,0.34375 -0.005,0.008 0.005,0.0234 0,0.0312 -0.25072,0.3632 -0.57276,0.79666 -0.6875,0.96875 -0.0794,0.1191 -0.14579,0.19128 -0.21875,0.28125 0.0707,0.0525 0.13696,0.0942 0.21875,0.15625 1.17374,0.89757 2.58012,2.23553 3.34375,3.15625 0.13651,0.16087 0.2681,0.29935 0.25,0.28125 0.086,0.0817 0.13369,0.14197 0.21875,0.25 0.0914,0.11607 0.19628,0.25075 0.3125,0.40625 0.23244,0.311 0.50148,0.67817 0.65625,0.90625 2.35639,3.52672 3.59179,7.17661 3.8125,11.3125 0.16359,3.01318 -0.35795,6.13633 -1.5,9.0625 -0.51239,1.31005 -1.17022,2.56758 -2,3.84375 -0.0998,0.15225 -0.19539,0.30773 -0.28125,0.4375 -0.0859,0.12977 -0.16154,0.25999 -0.15625,0.25 a 0.40804127,0.40804127 0 0 1 -0.0312,0 c -0.0554,0.0986 -0.10619,0.17237 -0.1875,0.28125 -0.0813,0.10888 -0.18357,0.24647 -0.28125,0.375 -1.20157,1.54939 -2.70275,3.0533 -4.1875,4.15625 a 0.40804127,0.40804127 0 0 1 0,0.0312 c -0.0951,0.0693 -0.17686,0.0983 -0.25,0.15625 0.0147,0.0221 0.0152,0.0385 0.0312,0.0625 0.13598,0.20386 0.31429,0.47695 0.5,0.75 0.18571,0.27305 0.38493,0.53897 0.53125,0.75 0.0244,0.0352 0.0407,0.0625 0.0625,0.0937 0.13612,-0.10415 0.27262,-0.19485 0.46875,-0.34375 1.42186,-1.08163 2.7481,-2.35329 3.875,-3.71875 1.0021,-1.20663 1.57521,-2.06374 2.3125,-3.34375 3.46976,-6.03017 4.10676,-13.37304 1.71875,-19.9375 -1.58116,-4.34564 -4.40611,-8.08364 -8.28125,-11 z M 112.75,243.5 c -0.11517,0.0948 -0.25072,0.20946 -0.46875,0.375 -1.42039,1.08437 -2.7504,2.32481 -3.875,3.6875 -1.00212,1.20663 -1.57522,2.06374 -2.3125,3.34375 -3.46977,6.03017 -4.10676,13.37304 -1.71875,19.9375 1.58115,4.34566 4.40612,8.08364 8.28125,11 0.0565,-0.0728 0.11406,-0.11958 0.1875,-0.21875 0.22649,-0.30584 0.51446,-0.72354 0.78125,-1.125 0.0762,-0.11425 0.15338,-0.16716 0.21875,-0.25 -0.0711,-0.0561 -0.13055,-0.11927 -0.21875,-0.1875 -1.17342,-0.89326 -2.60528,-2.19698 -3.375,-3.125 -0.0762,-0.0898 -0.13622,-0.15483 -0.1875,-0.21875 -0.0256,-0.032 -0.0478,-0.0755 -0.0625,-0.0937 -0.086,-0.0817 -0.13369,-0.14197 -0.21875,-0.25 -0.0914,-0.11607 -0.19628,-0.25075 -0.3125,-0.40625 -0.23243,-0.311 -0.50148,-0.67816 -0.65625,-0.90625 -2.35576,-3.52578 -3.59177,-7.14525 -3.8125,-11.28125 -0.16359,-3.01318 0.35796,-6.13634 1.5,-9.0625 0.51367,-1.31332 1.20239,-2.60023 2.03125,-3.875 0.19576,-0.29877 0.40022,-0.64486 0.40625,-0.65625 a 0.40804127,0.40804127 0 0 1 0.0312,0 c 0.0893,-0.15891 0.26381,-0.41783 0.46875,-0.6875 1.20205,-1.55527 2.70323,-3.05367 4.1875,-4.15625 a 0.40804127,0.40804127 0 0 1 0,-0.0312 c 0.11373,-0.0836 0.17657,-0.12835 0.25,-0.1875 -0.023,-0.0339 -0.0361,-0.0553 -0.0625,-0.0937 -0.14668,-0.21358 -0.33778,-0.50838 -0.53125,-0.78125 -0.19347,-0.27287 -0.38536,-0.55066 -0.53125,-0.75 z m 24.34375,5.1875 c -0.36681,0.52659 -0.87968,1.26036 -1.09375,1.5625 -0.006,0.008 0.006,0.0234 0,0.0312 -0.0183,0.0262 -0.0456,0.0384 -0.0625,0.0625 0.54297,0.43034 1.20655,0.98314 1.625,1.40625 2.82933,2.81869 4.4375,6.72851 4.4375,10.75 0,1.41948 -0.0892,2.46124 -0.4375,3.84375 -0.39924,1.57032 -1.08967,3.12618 -1.96875,4.46875 -0.15605,0.24449 -0.35623,0.52912 -0.375,0.5625 l 0.0312,0 c -0.11775,0.22679 -0.32164,0.47956 -0.59375,0.8125 -0.27211,0.33294 -0.62108,0.70405 -0.90625,1 -0.44436,0.45468 -1.31664,1.24412 -1.90625,1.6875 l 0.5625,0.78125 0,0.0312 c 0.20623,0.29117 0.41606,0.56398 0.5625,0.75 0.0115,0.0146 0.0204,0.0176 0.0312,0.0312 0.0922,-0.0667 0.17667,-0.12234 0.34375,-0.25 3.36535,-2.62255 5.63885,-6.33994 6.40625,-10.5 0.22342,-1.20857 0.31183,-2.20299 0.28125,-3.625 -0.008,-0.35345 -0.0197,-0.70037 -0.0312,-0.96875 -0.0116,-0.26838 -0.0332,-0.48278 -0.0312,-0.46875 -0.33923,-2.20498 -0.55171,-2.98916 -1.15625,-4.53125 -0.41007,-1.0524 -1.42674,-2.98513 -1.84375,-3.5 -0.0361,-0.0473 -0.36183,-0.43922 -0.65625,-0.8125 -0.62937,-0.80637 -1.95133,-2.15974 -2.8125,-2.84375 -0.14822,-0.11817 -0.28712,-0.19723 -0.40625,-0.28125 z m -20.65625,0.125 c -0.11162,0.0803 -0.20956,0.15818 -0.40625,0.3125 -0.28309,0.22211 -0.60137,0.50091 -0.8125,0.6875 -2.89419,2.57599 -4.83436,6.00391 -5.53125,9.78125 -0.22366,1.20979 -0.31184,2.17162 -0.28125,3.59375 0.008,0.35089 0.0196,0.69968 0.0312,0.96875 0.0116,0.26907 0.0333,0.48356 0.0312,0.46875 0.33923,2.20498 0.55172,2.98916 1.15625,4.53125 0.40767,1.04618 1.45283,2.97875 1.875,3.5 0.0685,0.0896 0.33717,0.44243 0.625,0.8125 0.62554,0.80147 1.979,2.1569 2.84375,2.84375 0.13969,0.11137 0.26528,0.19941 0.375,0.28125 0.36233,-0.5259 0.87615,-1.25477 1.09375,-1.5625 0.006,-0.008 -0.005,-0.0234 0,-0.0312 0.0183,-0.0262 0.0456,-0.0384 0.0625,-0.0625 -0.54296,-0.43035 -1.20654,-0.98314 -1.625,-1.40625 -2.82933,-2.81869 -4.4375,-6.72851 -4.4375,-10.75 0,-1.42554 0.12193,-2.46696 0.46875,-3.84375 0.39925,-1.57031 1.08968,-3.12617 1.96875,-4.46875 0.14266,-0.22351 0.2867,-0.46105 0.34375,-0.5625 l -0.0312,0 c 0.11774,-0.22674 0.32164,-0.47955 0.59375,-0.8125 0.27211,-0.33295 0.62106,-0.70405 0.90625,-1 0.44077,-0.45102 1.31617,-1.21078 1.90625,-1.65625 l -0.5625,-0.78125 0,-0.0312 c -0.21028,-0.29784 -0.42087,-0.58424 -0.5625,-0.78125 -0.0118,-0.0164 -0.0202,-0.0159 -0.0312,-0.0312 z m 16.84375,5.34375 c -0.0185,0.0257 -0.0429,0.0351 -0.0625,0.0625 -0.004,0.007 0.005,0.0246 0,0.0312 -0.14779,0.21867 -0.37176,0.51037 -0.5,0.6875 -0.004,0.005 0.004,0.0256 0,0.0312 -0.13455,0.19098 -0.38622,0.48356 -0.53125,0.6875 l 0,0.0312 -0.0937,0.0937 c 0.5603,0.45893 1.36472,1.27537 1.71875,1.8125 0.90812,1.37819 1.38117,2.70992 1.53125,4.3125 0.17084,1.75792 -0.32647,3.77322 -1.3125,5.3125 -0.0498,0.0735 -0.0969,0.1401 -0.125,0.1875 -0.003,0.0102 -0.0279,0.0237 -0.0312,0.0312 -0.003,0.006 0.001,0.0287 0,0.0312 -0.003,0.005 0.002,0.0262 0,0.0312 -0.0137,0.0313 -0.0193,0.0423 -0.0312,0.0625 -0.0239,0.0404 -0.0651,0.0849 -0.0937,0.125 -0.0574,0.0802 -0.13533,0.17876 -0.21875,0.28125 -0.16684,0.20498 -0.37844,0.43271 -0.5625,0.625 -0.22303,0.22891 -0.56207,0.52397 -0.8125,0.71875 l -0.125,0.0937 0.59375,0.84375 0,0.0312 0.5625,0.75 c 0.55649,-0.42256 1.40359,-1.18977 1.875,-1.78125 0.53716,-0.6689 0.831,-1.14584 1.1875,-1.84375 1.22548,-2.41611 1.49143,-5.17237 0.75,-7.75 -0.22092,-0.76819 -0.37268,-1.08396 -0.75,-1.84375 -0.52084,-1.03667 -1.08483,-1.86105 -1.9375,-2.71875 -0.25871,-0.25619 -0.57799,-0.54912 -0.84375,-0.78125 -0.073,-0.0638 -0.12646,-0.1056 -0.1875,-0.15625 z M 120.25,254.25 c -0.88315,0.67708 -1.83894,1.6503 -2.5,2.625 -0.31717,0.46886 -0.83444,1.49907 -1.0625,2.125 -0.7882,2.15011 -0.87142,4.46246 -0.25,6.625 0.22171,0.77094 0.37467,1.1192 0.75,1.875 0.51941,1.03383 1.08143,1.82641 1.9375,2.6875 0.25871,0.25619 0.57799,0.54912 0.84375,0.78125 0.073,0.0638 0.12646,0.1056 0.1875,0.15625 0.0201,-0.0283 0.0413,-0.0322 0.0625,-0.0625 0.14437,-0.20911 0.36577,-0.53307 0.5,-0.71875 0.004,-0.005 -0.004,-0.0256 0,-0.0312 0.13454,-0.19095 0.3862,-0.48354 0.53125,-0.6875 l 0,-0.0312 0.0625,-0.0937 c -0.56527,-0.4709 -1.34418,-1.29157 -1.6875,-1.8125 -0.90811,-1.37817 -1.38118,-2.70991 -1.53125,-4.3125 -0.17085,-1.75793 0.32648,-3.77324 1.3125,-5.3125 0.0498,-0.0735 0.0969,-0.1401 0.125,-0.1875 0.004,-0.0174 0.0285,-0.0227 0.0312,-0.0312 0.005,-0.0171 -0.002,-0.0262 0,-0.0312 0.003,-0.005 -0.002,-0.0262 0,-0.0312 0.0138,-0.0313 0.0193,-0.0423 0.0312,-0.0625 0.0239,-0.0404 0.0651,-0.0849 0.0937,-0.125 0.0574,-0.0802 0.13533,-0.17876 0.21875,-0.28125 0.16684,-0.20497 0.37845,-0.4327 0.5625,-0.625 0.22302,-0.22889 0.56207,-0.52396 0.8125,-0.71875 l 0.125,-0.0937 -0.59375,-0.84375 c -0.21494,-0.30706 -0.41613,-0.5811 -0.5625,-0.78125 z m -6.28125,25.78125 c 0,0 0.0312,0.0312 0.0312,0.0312 l 0,-0.0312 c -0.005,0.009 -0.0354,0.005 -0.0312,0 z" />
      </g>
      <g
         id="g3276">
        <path
           inkscape:connector-curvature="0"
           style="fill:#ffb400;fill-opacity:1"
           id="path7-7-3-8-7"
           d="m 216.2184,359.91697 18.01227,-18.09426 16.96311,0 -12.00778,12.0631 24.03666,-2.2e-4 0,12.06118 -24.03666,0 12.00778,12.06278 -16.96311,0 -18.01227,-18.09417 z" />
        <path
           inkscape:connector-curvature="0"
           id="path6-4-7-4-9"
           d="m 237.42144,301.32464 c -25.72526,0 -46.59553,20.95966 -46.59553,46.78675 0,25.8272 20.87029,46.78895 46.59553,46.78895 25.72535,0 46.59554,-20.96175 46.59554,-46.78895 0,-25.82709 -20.87018,-46.78675 -46.59554,-46.78675 z m 0,1.89679 c 24.69605,0 44.69874,20.08354 44.69874,44.88996 0,24.80653 -20.00268,44.89216 -44.69874,44.89216 -24.69595,0 -44.69874,-20.08563 -44.69874,-44.89216 0,-24.80641 20.0028,-44.88996 44.69874,-44.88996 z"
           style="font-size:medium;font-style:normal;font-variant:normal;font-weight:normal;font-stretch:normal;text-indent:0;text-align:start;text-decoration:none;line-height:normal;letter-spacing:normal;word-spacing:normal;text-transform:none;direction:ltr;block-progression:tb;writing-mode:lr-tb;text-anchor:start;baseline-shift:baseline;color:#000000;fill:#dc0067;fill-opacity:1;fill-rule:nonzero;stroke:none;visibility:visible;display:inline;overflow:visible;enable-background:accumulate;font-family:sans-serif" />
        <path
           inkscape:connector-curvature="0"
           id="path5-2-4-3-2"
           d="m 237.42144,282.62707 c -35.9734,0 -65.23374,29.39773 -65.23374,65.48432 0,36.08648 29.26034,65.4865 65.23374,65.4865 35.9737,0 65.23375,-29.40002 65.23375,-65.4865 0,-36.08659 -29.26005,-65.48432 -65.23375,-65.48432 z m 0,11.33899 c 29.81949,0 53.89257,24.16136 53.89257,54.14533 0,29.98384 -24.07308,54.14533 -53.89257,54.14532 -29.81912,0 -53.89477,-24.16148 -53.89477,-54.14532 0,-29.98397 24.07565,-54.14533 53.89477,-54.14533 z"
           style="font-size:medium;font-style:normal;font-variant:normal;font-weight:normal;font-stretch:normal;text-indent:0;text-align:start;text-decoration:none;line-height:normal;letter-spacing:normal;word-spacing:normal;text-transform:none;direction:ltr;block-progression:tb;writing-mode:lr-tb;text-anchor:start;baseline-shift:baseline;color:#000000;fill:#dc0067;fill-opacity:1;fill-rule:nonzero;stroke:none;visibility:visible;display:inline;overflow:visible;enable-background:accumulate;font-family:sans-serif" />
      </g>
      <g
         id="g3281">
        <path
           inkscape:connector-curvature="0"
           style="fill:#ffb400;fill-opacity:1"
           id="path4-0-4-2-3"
           d="m 162.79215,359.91697 -10.63816,-10.68658 -10.01874,0 7.09188,7.12451 -14.19487,2e-4 0,7.12608 14.19487,0 -7.09188,7.12451 10.01874,0 10.63816,-10.68681 z" />
        <path
           style="font-size:medium;font-style:normal;font-variant:normal;font-weight:normal;font-stretch:normal;text-indent:0;text-align:start;text-decoration:none;line-height:normal;letter-spacing:normal;word-spacing:normal;text-transform:none;direction:ltr;block-progression:tb;writing-mode:lr-tb;text-anchor:start;baseline-shift:baseline;color:#000000;fill:#dc0067;fill-opacity:1;fill-rule:nonzero;stroke:none;visibility:visible;display:inline;overflow:visible;enable-background:accumulate;font-family:sans-serif"
           d="m 161.69051,325.94115 c -24.01228,0 -43.49429,19.56749 -43.49429,43.67452 0,24.10723 19.482,43.67232 43.49429,43.67232 24.0126,0 43.49429,-19.56509 43.49429,-43.67232 0,-24.10702 -19.4817,-43.67452 -43.49429,-43.67452 z m 0,1.89679 c 22.98331,0 41.59751,18.6914 41.59751,41.77773 0,23.08655 -18.61421,41.77553 -41.59751,41.77553 -22.98296,0 -41.5975,-18.68898 -41.5975,-41.77553 0,-23.08634 18.61452,-41.77773 41.5975,-41.77773 z"
           id="path6054"
           inkscape:connector-curvature="0" />
      </g>
    </g>
  </g>
</svg>
