<?xml version="1.0" encoding="UTF-8" standalone="no"?>
<!-- Created with Inkscape (http://www.inkscape.org/) -->

<svg
   xmlns:dc="http://purl.org/dc/elements/1.1/"
   xmlns:cc="http://creativecommons.org/ns#"
   xmlns:rdf="http://www.w3.org/1999/02/22-rdf-syntax-ns#"
   xmlns:svg="http://www.w3.org/2000/svg"
   xmlns="http://www.w3.org/2000/svg"
   xmlns:xlink="http://www.w3.org/1999/xlink"
   xmlns:sodipodi="http://sodipodi.sourceforge.net/DTD/sodipodi-0.dtd"
   xmlns:inkscape="http://www.inkscape.org/namespaces/inkscape"
   inkscape:export-ydpi="300"
   inkscape:export-xdpi="300"
   sodipodi:docname="freifunk_karlsruhe_logo_alternative.svg"
   inkscape:version="0.48.5 r10040"
   version="1.1"
   id="svg5035"
   height="283.46457"
   width="283.46457">
  <title
     id="title3039">Freifunk Karlsruhe Logo</title>
  <sodipodi:namedview
     inkscape:document-units="mm"
     id="base"
     pagecolor="#ffffff"
     bordercolor="#b9b9b9"
     borderopacity="1"
     inkscape:pageopacity="1"
     inkscape:pageshadow="2"
     inkscape:zoom="2.8284273"
     inkscape:cx="131.85575"
     inkscape:cy="141.18233"
     inkscape:current-layer="page1"
     showgrid="false"
     inkscape:window-width="1456"
     inkscape:window-height="1031"
     inkscape:window-x="247"
     inkscape:window-y="53"
     inkscape:window-maximized="0"
     units="mm"
     showguides="true"
     inkscape:guide-bbox="true"
     width="105mm"
     inkscape:snap-page="true"
     showborder="true"
     inkscape:showpageshadow="false"
     inkscape:snap-nodes="false"
     inkscape:snap-global="true"
     inkscape:snap-bbox="true"
     inkscape:bbox-paths="true"
     inkscape:bbox-nodes="true"
     inkscape:snap-bbox-edge-midpoints="true"
     inkscape:snap-bbox-midpoints="true" />
  <defs
     id="defs3">
    <marker
       inkscape:stockid="Arrow1Lend"
       orient="auto"
       refY="0"
       refX="0"
       id="Arrow1Lend"
       style="overflow:visible">
      <path
         id="path11466"
         d="M 0,0 5,-5 -12.5,0 5,5 0,0 z"
         style="fill-rule:evenodd;stroke:#000000;stroke-width:1pt"
         transform="matrix(-0.8,0,0,-0.8,-10,0)"
         inkscape:connector-curvature="0" />
    </marker>
    <color-profile
       name="Generic-CMYK-Profile"
       xlink:href="/System/Library/ColorSync/Profiles/Generic CMYK Profile.icc"
       id="color-profile6765" />
    <clipPath
       id="clipPath15586"
       clipPathUnits="userSpaceOnUse">
      <rect
         y="556.69183"
         x="451.31796"
         height="67.747452"
         width="47.779167"
         id="rect15588"
         style="color:#000000;fill:#dc0067;fill-opacity:1;fill-rule:nonzero;stroke:none;stroke-width:1;marker:none;visibility:visible;display:inline;overflow:visible;enable-background:accumulate" />
    </clipPath>
    <clipPath
       clipPathUnits="userSpaceOnUse"
       id="clipPath15586-6">
      <rect
         style="color:#000000;fill:#dc0067;fill-opacity:1;fill-rule:nonzero;stroke:none;stroke-width:1;marker:none;visibility:visible;display:inline;overflow:visible;enable-background:accumulate"
         id="rect15588-7"
         width="47.779167"
         height="67.747452"
         x="451.31796"
         y="556.69183" />
    </clipPath>
    <clipPath
       clipPathUnits="userSpaceOnUse"
       id="clipPath15586-0">
      <rect
         style="color:#000000;fill:#dc0067;fill-opacity:1;fill-rule:nonzero;stroke:none;stroke-width:1;marker:none;visibility:visible;display:inline;overflow:visible;enable-background:accumulate"
         id="rect15588-70"
         width="47.779167"
         height="67.747452"
         x="451.31796"
         y="556.69183" />
    </clipPath>
    <path
       sodipodi:nodetypes="cc"
       inkscape:connector-curvature="0"
       id="path5052-5"
       d="M 60.602886,354.72919 C 102.58705,305.76666 296.87148,345.53367 296.87148,345.53367"
       style="fill:none;stroke:none" />
    <clipPath
       id="clipPath15586-09"
       clipPathUnits="userSpaceOnUse">
      <rect
         y="556.69183"
         x="451.31796"
         height="67.747452"
         width="47.779167"
         id="rect15588-4"
         style="color:#000000;fill:#dc0067;fill-opacity:1;fill-rule:nonzero;stroke:none;stroke-width:1;marker:none;visibility:visible;display:inline;overflow:visible;enable-background:accumulate" />
    </clipPath>
    <clipPath
       id="clipPath15586-09-5"
       clipPathUnits="userSpaceOnUse">
      <rect
         y="556.69183"
         x="451.31796"
         height="67.747452"
         width="47.779167"
         id="rect15588-4-2"
         style="color:#000000;fill:#dc0067;fill-opacity:1;fill-rule:nonzero;stroke:none;stroke-width:1;marker:none;visibility:visible;display:inline;overflow:visible;enable-background:accumulate" />
    </clipPath>
    <clipPath
       clipPathUnits="userSpaceOnUse"
       id="clipPath5367">
      <rect
         style="color:#000000;fill:#dc0067;fill-opacity:1;fill-rule:nonzero;stroke:none;stroke-width:1;marker:none;visibility:visible;display:inline;overflow:visible;enable-background:accumulate"
         id="rect5369"
         width="48.689247"
         height="68.255951"
         x="450.86292"
         y="556.23682" />
    </clipPath>
    <clipPath
       id="clipPath7158"
       clipPathUnits="userSpaceOnUse">
      <rect
         style="color:#000000;fill:#dc0067;fill-opacity:1;fill-rule:nonzero;stroke:none;stroke-width:1;marker:none;visibility:visible;display:inline;overflow:visible;enable-background:accumulate"
         id="rect7160"
         width="48.689247"
         height="68.255951"
         x="450.86292"
         y="556.23682" />
    </clipPath>
    <clipPath
       id="clipPath15586-09-0"
       clipPathUnits="userSpaceOnUse">
      <rect
         y="556.69183"
         x="451.31796"
         height="67.747452"
         width="47.779167"
         id="rect15588-4-4"
         style="color:#000000;fill:#dc0067;fill-opacity:1;fill-rule:nonzero;stroke:none;stroke-width:1;marker:none;visibility:visible;display:inline;overflow:visible;enable-background:accumulate" />
    </clipPath>
    <clipPath
       clipPathUnits="userSpaceOnUse"
       id="clipPath7118">
      <path
         transform="matrix(0.97568819,0,0,0.97134711,138.03291,135.73001)"
         d="m 53.5,160.13385 a 65,65 0 1 1 -130,0 65,65 0 1 1 130,0 z"
         sodipodi:ry="65"
         sodipodi:rx="65"
         sodipodi:cy="160.13385"
         sodipodi:cx="-11.5"
         id="path7120"
         style="color:#000000;fill:#ff0000;fill-opacity:1;fill-rule:nonzero;stroke:none;stroke-width:32.88188934;marker:none;visibility:visible;display:inline;overflow:visible;enable-background:accumulate"
         sodipodi:type="arc" />
    </clipPath>
  </defs>
  <metadata
     id="metadata4">
    <rdf:RDF>
      <cc:Work
         rdf:about="">
        <dc:format>image/svg+xml</dc:format>
        <dc:type
           rdf:resource="http://purl.org/dc/dcmitype/StillImage" />
        <dc:title>Freifunk Karlsruhe Logo</dc:title>
        <dc:creator>
          <cc:Agent>
            <dc:title>Jonathan Schwarzenböck</dc:title>
          </cc:Agent>
        </dc:creator>
        <dc:publisher>
          <cc:Agent>
            <dc:title>karlsruhe.freifunk.net</dc:title>
          </cc:Agent>
        </dc:publisher>
        <cc:license
           rdf:resource="http://creativecommons.org/licenses/by-sa/4.0/" />
        <dc:subject>
          <rdf:Bag>
            <rdf:li>freifunk</rdf:li>
            <rdf:li>karlsruhe</rdf:li>
            <rdf:li>flyer</rdf:li>
          </rdf:Bag>
        </dc:subject>
        <dc:description />
        <dc:source>freifunk.net</dc:source>
        <dc:contributor>
          <cc:Agent>
            <dc:title>Jonathan Schwarzenböck
Michael Brückner</dc:title>
          </cc:Agent>
        </dc:contributor>
      </cc:Work>
      <cc:License
         rdf:about="http://creativecommons.org/licenses/by-sa/3.0/">
        <cc:permits
           rdf:resource="http://creativecommons.org/ns#Reproduction" />
        <cc:permits
           rdf:resource="http://creativecommons.org/ns#Distribution" />
        <cc:requires
           rdf:resource="http://creativecommons.org/ns#Notice" />
        <cc:requires
           rdf:resource="http://creativecommons.org/ns#Attribution" />
        <cc:permits
           rdf:resource="http://creativecommons.org/ns#DerivativeWorks" />
        <cc:requires
           rdf:resource="http://creativecommons.org/ns#ShareAlike" />
      </cc:License>
    </rdf:RDF>
  </metadata>
  <g
     inkscape:label="Seite 1"
     inkscape:groupmode="layer"
     id="page1"
     style="display:inline"
     transform="translate(0,-240.94485)">
    <flowRoot
       style="font-size:40px;font-style:normal;font-weight:normal;line-height:125%;letter-spacing:0px;word-spacing:0px;fill:#000000;fill-opacity:1;stroke:none;font-family:Sans"
       id="flowRoot15544"
       xml:space="preserve"
       transform="translate(-0.00762939,-8.6500615)"><flowRegion
         id="flowRegion15546"><rect
           y="367.40942"
           x="35"
           height="110"
           width="221"
           id="rect15548" /></flowRegion><flowPara
         id="flowPara15550" /></flowRoot>    <text
       sodipodi:linespacing="125%"
       id="text5276"
       y="287.84595"
       x="16.992367"
       style="font-size:12px;font-style:normal;font-weight:normal;line-height:125%;letter-spacing:0px;word-spacing:0px;fill:#000000;fill-opacity:1;stroke:none;display:inline;font-family:Sans"
       xml:space="preserve"><tspan
         y="287.84595"
         x="16.992367"
         id="tspan5278"
         sodipodi:role="line" /></text>
    <flowRoot
       style="font-size:40px;font-style:normal;font-weight:normal;line-height:125%;letter-spacing:0px;word-spacing:0px;fill:#000000;fill-opacity:1;stroke:none;display:inline;font-family:Sans"
       id="flowRoot5292"
       xml:space="preserve"
       transform="matrix(1.1300097,0,0,1.1300097,222.32104,-242.38603)"><flowRegion
         id="flowRegion5294"><rect
           y="291.40942"
           x="17"
           height="89"
           width="40"
           id="rect5296" /></flowRegion><flowPara
         id="flowPara5298" /></flowRoot>    <path
       inkscape:connector-curvature="0"
       id="path3-4-4-9-2"
       d="m 113.85587,375.30631 c -24.012281,0 -43.494291,19.56749 -43.494291,43.67452 0,24.10723 19.482,43.67232 43.494291,43.67232 24.0126,0 43.49429,-19.56509 43.49429,-43.67232 0,-24.10702 -19.4817,-43.67452 -43.49429,-43.67452 z m 0,1.89679 c 22.98331,0 41.59751,18.6914 41.59751,41.77773 0,23.08655 -18.61421,41.77553 -41.59751,41.77553 -22.982961,0 -41.597501,-18.68898 -41.597501,-41.77553 0,-23.08634 18.61452,-41.77773 41.597501,-41.77773 z"
       style="font-size:medium;font-style:normal;font-variant:normal;font-weight:normal;font-stretch:normal;text-indent:0;text-align:start;text-decoration:none;line-height:normal;letter-spacing:normal;word-spacing:normal;text-transform:none;direction:ltr;block-progression:tb;writing-mode:lr-tb;text-anchor:start;baseline-shift:baseline;color:#000000;fill:#dc0067;fill-opacity:1;fill-rule:nonzero;stroke:none;visibility:visible;display:inline;overflow:visible;enable-background:accumulate;font-family:sans-serif" />
    <g
       id="g3849"
       transform="translate(-0.35536095,-0.15571956)">
      <g
         id="g3845">
        <path
           d="m 74.551924,479.57929 c -0.11754,-0.002 -0.226299,0.0116 -0.312501,0.0312 -0.339557,0.0731 -0.551754,0.25408 -0.656252,0.62499 -0.08882,0.30301 -0.192532,1.28885 -0.249995,2.21875 -0.03151,0.48585 -0.135277,1.43038 -0.187504,2.06251 -0.402279,4.60248 -0.474826,9.26567 -0.187496,12.6875 0.308233,3.63602 0.77862,5.58463 1.656247,6.875 0.41796,0.61123 1.086711,1.1816 1.687497,1.40625 0.87245,0.32911 2.222535,0.19404 2.687506,-0.25 0.208957,-0.1933 0.224377,-0.43656 0.09375,-0.75 -0.109697,-0.26122 -0.519835,-0.6609 -0.843748,-0.84375 -0.433603,-0.24031 -0.738513,-0.80358 -1.093751,-2.03126 -0.444054,-1.54112 -0.712858,-3.44415 -0.937504,-6.40625 -0.130599,-1.71353 -0.130599,-7.33833 0,-9.12499 0.04701,-0.67392 0.114487,-1.7272 0.156255,-2.375 0.04186,-0.64781 0.0989,-1.41586 0.124997,-1.68751 0.03151,-0.27165 0.07285,-0.62452 0.09375,-0.78124 0.06265,-0.61646 -0.242769,-1.10325 -0.906246,-1.40626 -0.329121,-0.1528 -0.77237,-0.24265 -1.125001,-0.24999 z m -37.687502,0.34375 c -0.140397,6.2e-4 -0.255516,0.0351 -0.375,0.0625 -0.219418,0.0522 -0.452888,0.29607 -0.53125,0.5625 -0.06266,0.22465 -0.103832,1.59642 -0.21875,5.875 -0.04701,1.63516 -0.130112,3.84062 -0.15625,4.875 -0.05749,1.91204 -0.03676,3.72892 0.0625,5.53126 l 0.0625,0.99999 -0.1875,0.25 c -0.151505,0.1933 -0.1875,0.28591 -0.1875,0.46875 0,0.20375 0.0096,0.26502 0.21875,0.46875 l 0.25,0.21875 0.09375,1.34375 c 0.135829,2.42924 0.228646,3.44177 0.40625,3.75 0.120182,0.20896 0.561165,0.48918 1,0.625 0.412697,0.13062 1.405102,0.23453 1.78125,0.18751 0.365692,-0.047 0.687281,-0.18713 0.75,-0.31251 0.08878,-0.16195 0.03686,-0.74258 -0.09375,-1.46875 -0.167187,-0.8881 -0.406356,-2.59365 -0.375,-2.625 0.01041,-0.0105 0.160914,0.13479 0.34375,0.34375 0.940344,1.09186 2.340452,2.47113 3.4375,3.40625 0.245549,0.20896 0.60847,0.44749 0.906251,0.59375 l 0.499999,0.25 0.6875,0 c 0.809758,-0.005 1.331591,-0.11892 1.90625,-0.40625 0.606022,-0.30299 0.554414,-0.52461 -0.21875,-1 -1.08663,-0.66868 -1.844502,-1.30812 -3.3125,-2.75 -1.389641,-1.36874 -3.53125,-3.73908 -3.53125,-3.90624 0,-0.0314 0.181714,-0.21287 0.375,-0.4375 0.700027,-0.80975 2.670117,-3.26854 3.25,-4.03126 0.867215,-1.14931 1.1875,-1.68684 1.1875,-1.90625 0,-0.45451 -0.706224,-1.01007 -1.406249,-1.125 -0.532879,-0.0836 -1.118179,0.29978 -1.65625,1.06251 -0.135825,0.1985 -0.841568,1.034 -1.562501,1.84374 l -1.3125,1.5 -0.03125,-1.46874 c -0.02076,-0.85154 -0.0051,-3.39819 0.03125,-6.06251 0.03654,-2.52849 0.04689,-4.80651 0.03125,-5.0625 -0.02593,-0.52239 -0.144945,-0.8012 -0.4375,-1.09375 -0.335337,-0.33108 -1.079063,-0.56594 -1.687496,-0.56249 z m 81.374998,0.96874 c -0.0998,0.002 -0.19776,0.0168 -0.25,0.0312 -0.50674,0.1306 -0.51568,0.20831 -0.5,1.9375 0.047,5.28163 0.41042,14.14931 0.75,18.15626 0.1097,1.32692 0.26528,2.45203 0.375,2.81249 0.12014,0.39182 0.51299,0.66091 1.37501,0.84375 0.51194,0.10971 1.48879,0.12531 1.74999,0.0312 0.44406,-0.15672 0.55272,-0.55024 0.34375,-1.15625 -0.20373,-0.59033 -0.1624,-1.20869 0.15626,-2.8125 0.43361,-2.12624 0.88337,-3.54275 1.5625,-4.90625 0.50154,-1.00827 0.83166,-1.51367 1.37499,-2.15625 0.20374,-0.24031 0.23945,-0.26587 0.28125,-0.1875 0.0311,0.0575 0.0626,0.66356 0.0313,1.6875 -0.0679,2.23071 -0.0681,4.09432 0.0312,5.625 0.1515,2.24639 0.20185,2.42621 0.625,2.71875 0.66348,0.45451 2.36796,0.65198 2.96875,0.34375 0.0836,-0.0418 0.20297,-0.15075 0.25001,-0.25 0.0731,-0.15149 0.0837,-0.2024 0.0312,-0.4375 -0.51198,-2.32997 -0.52603,-2.21182 -0.53126,-6.21875 -0.005,-3.33301 -0.0153,-3.41547 -0.12499,-3.8125 -0.30824,-1.10752 -0.97618,-1.85344 -1.96875,-2.09375 -0.43883,-0.10449 -1.47768,-0.0681 -1.96876,0.0625 -0.43881,0.11493 -0.97256,0.34802 -1.43749,0.65625 -0.50153,0.3239 -1.28505,1.16451 -1.75,1.875 l -0.40625,0.65625 -0.0625,-0.53125 c -0.0259,-0.27688 -0.11952,-2.29017 -0.21875,-4.5 -0.2351,-5.22416 -0.3122,-6.78477 -0.40625,-7.34375 -0.0679,-0.37616 -0.58656,-0.73385 -1.25,-0.90626 -0.27818,-0.0705 -0.73175,-0.13014 -1.03125,-0.12499 z m -49.468747,8.93747 c -0.155179,0.003 -0.314632,0.0103 -0.46875,0.0312 -1.175413,0.1515 -2.422863,0.88117 -3.812501,2.28125 -0.287329,0.29256 -0.510375,0.53125 -0.531249,0.53125 -0.01558,0 -0.04161,-0.16081 -0.0625,-0.37501 -0.08878,-1.00302 -0.366997,-1.33776 -1.28125,-1.59374 -0.511972,-0.14105 -1.092789,-0.20859 -1.40625,-0.125 -0.203736,0.0522 -0.260188,0.10895 -0.34375,0.25 -0.09404,0.16717 -0.114544,0.31392 -0.125,3.28125 -0.01041,3.64646 -0.08237,5.12329 -0.40625,7.40625 -0.172412,1.22246 -0.229393,1.79615 -0.15625,2.03125 0.18283,0.54854 1.236027,0.98433 2.40625,1 0.569429,0.005 0.765014,-0.0668 0.96875,-0.34375 0.151505,-0.19852 0.249706,-0.9056 0.34375,-2.84375 0.04701,-0.92991 0.104094,-1.85886 0.125,-2.03125 0.08359,-0.55899 0.706703,-2.26738 1.25,-3.40625 0.637378,-1.32171 1.341567,-2.32086 2.0625,-3 0.647796,-0.606 0.609431,-0.63754 0.59375,0.0625 -0.01558,0.53809 -0.01595,0.60363 0.09375,0.78125 0.255967,0.40749 1.122336,0.78619 2,0.875 0.79407,0.0784 1.171335,-0.004 1.343746,-0.34375 0.07315,-0.13061 0.0625,-0.35154 0.0625,-1.21875 -0.0052,-1.17545 -0.06689,-1.6495 -0.343743,-2.15625 -0.193314,-0.35524 -0.686466,-0.78087 -1.031252,-0.90625 -0.372219,-0.14106 -0.81572,-0.19631 -1.28125,-0.1875 z m 31.0625,0 c -0.155174,0.003 -0.28339,0.0103 -0.437499,0.0312 -1.175446,0.1515 -2.422858,0.88117 -3.812499,2.28125 -0.287323,0.29256 -0.510344,0.53125 -0.531254,0.53125 -0.01557,0 -0.07278,-0.16081 -0.09375,-0.37501 -0.08882,-1.00302 -0.36703,-1.33776 -1.281247,-1.59374 -0.511969,-0.14105 -1.061533,-0.20859 -1.375003,-0.125 -0.203735,0.0522 -0.291412,0.10895 -0.375,0.25 -0.09405,0.16717 -0.0833,0.31392 -0.09375,3.28125 -0.01043,3.64646 -0.08234,5.12329 -0.406249,7.40625 -0.172382,1.22246 -0.229391,1.79615 -0.156255,2.03125 0.182871,0.54854 1.236038,0.98433 2.406255,1 0.569439,0.005 0.76501,-0.0668 0.968745,-0.34375 0.151502,-0.19852 0.218456,-0.9056 0.312502,-2.84375 0.047,-0.92991 0.104125,-1.85886 0.124997,-2.03125 0.0836,-0.55899 0.737925,-2.26738 1.281255,-3.40625 0.637338,-1.32171 1.310313,-2.32086 2.031247,-3 0.647797,-0.606 0.640683,-0.63754 0.625002,0.0625 -0.01557,0.53809 -0.01587,0.60363 0.09375,0.78125 0.256007,0.40749 1.09109,0.78619 1.96875,0.875 0.79409,0.0784 1.17139,-0.004 1.34375,-0.34375 0.0732,-0.13061 0.0937,-0.35154 0.0937,-1.21875 -0.005,-1.17545 -0.0668,-1.6495 -0.34375,-2.15625 -0.19328,-0.35524 -0.68646,-0.78087 -1.03124,-0.90625 -0.37222,-0.14106 -0.847,-0.19631 -1.312509,-0.1875 z m -46.968751,0.25 c -0.101216,10e-4 -0.189632,0.0155 -0.343749,0.0625 -0.27688,0.0888 -0.842047,0.55023 -1.406251,1.15625 -1.906839,2.04263 -3.623672,5.72531 -4.0625,8.71875 -0.109692,0.75228 -0.109753,1.80576 0,2.31249 0.235099,1.08663 0.939581,1.84813 1.968751,2.12501 0.480614,0.12537 1.404622,0.11501 1.937499,-0.0312 1.170218,-0.31346 2.356843,-1.2409 3.1875,-2.53126 0.156737,-0.24031 0.296852,-0.4375 0.3125,-0.4375 0.03149,-0.005 0.176495,0.44045 0.375,1.1875 0.256007,0.9508 0.706592,1.62956 1.28125,1.84375 0.673928,0.25598 1.697102,0.22478 1.968751,-0.0312 0.208961,-0.1933 0.23504,-0.37766 0.03125,-1.21875 -0.579884,-2.36132 -0.774509,-3.29208 -1.28125,-6.59375 -0.135862,-0.88289 -0.249227,-1.39856 -0.5,-2.21875 -0.146281,-0.48584 -0.166668,-0.53372 -0.15625,-1.4375 0.01558,-0.87766 0.02113,-0.9316 -0.09375,-1.15625 -0.193281,-0.39703 -0.658998,-0.64542 -1.46875,-0.78125 -0.350018,-0.0627 -0.390202,-0.0775 -0.531251,-0.28125 -0.208959,-0.30823 -0.53552,-0.57266 -0.843749,-0.65625 -0.161944,-0.0418 -0.273784,-0.0326 -0.375,-0.0313 z m 31.812503,0.0313 c -0.177179,-0.004 -0.32509,0.0169 -0.468755,0.0312 -1.755299,0.17762 -3.148351,0.77842 -4.031245,1.71874 -0.882857,0.94558 -0.893435,2.1005 -0.03121,3.3125 0.407471,0.56421 1.052713,1.16823 2.562494,2.375 1.614278,1.29037 1.998597,1.6234 2.468753,2.15625 0.809757,0.91424 1.182865,1.87813 1.000002,2.56251 -0.05229,0.1985 -0.09842,0.23423 -0.281251,0.28125 -0.365689,0.0992 -0.954779,-0.009 -2.125003,-0.40625 -1.232864,-0.41793 -1.540077,-0.46392 -2.062496,-0.34375 -1.039588,0.24552 -2.073514,0.92088 -1.875001,1.25 0.130592,0.20897 1.173942,0.64504 2.218751,0.90624 0.888123,0.21943 2.18561,0.4529 2.812497,0.53126 1.755336,0.22986 3.50805,-0.31981 4.281254,-1.34376 0.605985,-0.7993 0.663098,-1.81972 0.124998,-2.87499 -0.579883,-1.14932 -1.334345,-1.87292 -4.437502,-4.28126 -1.055268,-0.82018 -1.754368,-1.59193 -2.031247,-2.1875 -0.146272,-0.30299 -0.177432,-0.80138 -0.0625,-1.03124 0.203736,-0.39182 0.763387,-0.69235 1.500001,-0.8125 0.459704,-0.0731 0.550153,-0.0784 1.187498,0.0312 1.149315,0.19851 1.337474,0.21884 1.687497,0.1875 0.710474,-0.0626 1.312049,-0.29094 1.468751,-0.53125 0.114948,-0.17763 0.05274,-0.40577 -0.156247,-0.5625 -0.59426,-0.45254 -2.509791,-0.93668 -3.750001,-0.96875 z m 20.906245,0.46874 c -0.11884,-0.004 -0.19496,0.0337 -0.3125,0.0625 -0.28209,0.0679 -0.41108,0.16584 -0.53125,0.4375 -0.10446,0.22988 -0.161,0.52679 -0.3125,2.00001 -0.47541,4.4562 -0.61503,6.66184 -0.46875,8.24999 0.094,1.02394 0.38908,1.72758 0.90625,2.25 0.39182,0.40226 0.78979,0.60914 1.40625,0.6875 1.52546,0.20374 3.09442,-0.60922 4.59375,-2.375 0.33437,-0.39181 0.40618,-0.42733 0.43751,-0.34375 0.0208,0.0522 0.0935,0.37387 0.18749,0.75 0.32392,1.34785 0.60106,1.70232 1.625,1.96875 0.41272,0.10971 1.59794,0.0992 1.93751,0 0.28731,-0.0836 0.53124,-0.3067 0.53124,-0.5 0,-0.0784 -0.0882,-0.32751 -0.1875,-0.53124 -0.42314,-0.87245 -0.9891,-3.34396 -1.15625,-5.00001 -0.0259,-0.28733 -0.0936,-1.3199 -0.125,-2.3125 l -0.0625,-1.8125 0.1875,-0.62499 c 0.18283,-0.67393 0.16725,-0.90551 0,-1.15625 -0.0522,-0.0784 -0.15095,-0.26521 -0.1875,-0.40626 -0.1254,-0.4963 -0.48261,-0.8691 -1.0625,-1.09374 -0.35523,-0.13583 -1.25968,-0.19301 -1.5,-0.0938 -0.24029,0.0993 -0.40095,0.33767 -0.4375,0.625 -0.0156,0.13583 -0.0519,0.30186 -0.0937,0.375 -0.0365,0.0731 -0.0937,0.32218 -0.12501,0.5625 -0.56419,4.29426 -1.78725,7.72483 -3.24999,9.15625 -0.1881,0.18285 -0.26558,0.23973 -0.28126,0.1875 -0.25077,-0.68959 -0.15206,-5.08483 0.1875,-8.03125 0.10448,-0.87244 0.1305,-1.9317 0.0313,-2.125 -0.19328,-0.37091 -0.79487,-0.69235 -1.46875,-0.8125 -0.21682,-0.0392 -0.3499,-0.0898 -0.46875,-0.0937 z m 30.8125,0.0312 c -0.14594,0.003 -0.2887,0.0143 -0.40625,0.0312 -1.212,0.16195 -2.25804,0.83511 -3.03125,1.96875 -0.91944,1.35829 -1.42229,3.63459 -1.28124,5.625 0.22464,3.17629 1.53485,5.19604 3.78125,5.8125 0.51716,0.14104 1.4204,0.23451 1.90625,0.1875 1.78668,-0.16195 3.6757,-1.38156 4.125,-2.65625 0.18282,-0.52764 0.12633,-0.72797 -0.31251,-1.125 -0.4336,-0.39181 -1.20203,-0.68257 -1.56249,-0.59375 -0.38134,0.0992 -0.9624,0.68532 -1.34376,1.40625 -0.25077,0.48585 -0.4471,0.71314 -0.71875,0.84375 -0.62692,0.303 -1.22757,-0.0594 -1.74999,-1.09375 -0.30824,-0.606 -0.47843,-1.17896 -0.71875,-2.28125 -0.0208,-0.094 0.0867,-0.13973 0.6875,-0.4375 0.8672,-0.43882 1.52386,-0.89371 2.25,-1.59375 1.12319,-1.0814 1.83302,-2.26282 1.9375,-3.1875 0.13585,-1.22247 -0.82382,-2.41555 -2.25,-2.78125 -0.35265,-0.0901 -0.87464,-0.1348 -1.31251,-0.125 z m 0.18751,2.06249 c 0.0259,0 0.0624,0.083 0.0937,0.18751 0.0418,0.11492 0.0469,0.36901 0.0313,0.625 -0.0259,0.53808 -0.21731,1.01909 -0.6875,1.59375 -0.38138,0.47538 -0.82796,0.92201 -0.875,0.87499 -0.0836,-0.0784 0.2023,-1.24287 0.46875,-1.875 0.23507,-0.56421 0.81724,-1.40625 0.96875,-1.40625 z m -84.031257,1.09375 c 0.07621,-0.0203 0.106794,0.16275 0.09375,0.59376 -0.06791,2.6591 -1.106173,6.19414 -2.156249,7.4375 -0.208968,0.25597 -0.224057,0.16375 -0.187501,-0.59376 0.141042,-2.69044 0.881825,-5.24411 2.062501,-7.18749 0.09403,-0.15476 0.141777,-0.23786 0.1875,-0.25001 z m 90.406257,5.84376 0,2.37499 0,2.34375 2.09374,0 2.06251,0 0,-2.34375 0,-2.37499 -2.06251,0 z"
           id="path3151"
           inkscape:connector-curvature="0"
           style="fill:#dc0067;fill-opacity:1"
           sodipodi:nodetypes="ccccccccccccccccccccccccccccscccccccccccccccccsccscccccccccccccccccccccccccccccccccccccccccccscccccccccccccccccccccccccscccccccccccccccccccccccccccccccccccccccccccccccccccccccccccccccccccccccccccccccccsccccccccccccccccccccccccccccccccccccccccccccccccccccccccccccc" />
        <path
           style="fill:#000000;fill-opacity:1"
           d="m 152.29891,481.17687 c -0.29605,0.009 -0.51428,0.0366 -0.63276,0.0603 -1.04262,0.19484 -1.76318,0.75976 -2.07911,1.59701 -0.16851,0.44758 -0.21093,0.86858 -0.21093,1.95859 l 0,1.02448 -0.51224,0 -0.48211,0 0,1.44633 0,1.44635 0.48211,0 0.51224,0 0,7.80419 0,7.83433 2.04897,0 2.04899,0 0,-7.83433 0,-7.80419 0.6629,0 0.6629,0 0,-1.44635 0,-1.44633 -0.6629,0 -0.6629,0 0,-0.6629 c 0,-0.62662 0.003,-0.63599 0.15066,-0.78344 0.17376,-0.16849 0.59709,-0.30132 0.93409,-0.30132 l 0.24105,0 0,-1.44633 0,-1.44634 -1.38606,0 c -0.44496,0 -0.81885,-0.009 -1.1149,0 z m 24.76854,0 0,1.74766 0,1.77779 2.01884,0 2.04898,0 0,-1.77779 0,-1.74766 -2.04898,0 -2.01884,0 z m 8.97934,0 c -0.29605,0.009 -0.51429,0.0366 -0.63276,0.0603 -1.04262,0.19484 -1.76319,0.75976 -2.07912,1.59701 -0.1685,0.44758 -0.21092,0.86858 -0.21092,1.95859 l 0,1.02448 -0.51225,0 -0.48211,0 0,1.44633 0,1.44635 0.48211,0 0.51225,0 0,7.80419 0,7.83433 2.04897,0 2.04899,0 0,-7.83433 0,-7.80419 0.6629,0 0.6629,0 0,-1.44635 0,-1.44633 -0.6629,0 -0.6629,0 0,-0.6629 c 0,-0.62662 0.003,-0.63599 0.15065,-0.78344 0.17377,-0.16849 0.62722,-0.30132 0.96424,-0.30132 l 0.21091,0 0,-1.44633 0,-1.44634 -1.38608,0 c -0.44494,0 -0.81883,-0.009 -1.11488,0 z m 25.19038,0 0,11.5707 0,11.60083 2.04899,0 2.01883,0 0,-4.85125 c 0,-2.80661 0.004,-4.85126 0.0302,-4.85126 0.058,0 -0.008,-0.36587 0.90396,5.15258 l 0.7533,4.54993 2.16951,0 2.13938,0 -0.0301,-0.12053 c -0.12111,-0.52129 -1.95858,-10.29024 -1.95858,-10.39555 0,-0.10532 1.81114,-7.43501 1.95858,-7.92472 0.0264,-0.0843 -0.0691,-0.10092 -2.04898,-0.0904 l -2.10924,0 -0.78343,3.7665 c -0.44233,2.05361 -0.84223,3.86012 -0.87382,4.00755 -0.0316,0.15271 -0.0942,0.27119 -0.12055,0.27119 -0.0263,0 -0.0302,-2.48758 -0.0302,-6.35785 l 0,-6.32773 -2.01883,0 -2.04899,0 z m 38.96072,1.20528 0,1.71752 0,1.71754 -0.48212,0 -0.51224,0 0,1.47646 0,1.44633 0.51224,0 0.48212,0 0.0301,6.71946 c 0.0158,4.82336 0.0431,6.77473 0.0904,6.99063 0.11585,0.59502 0.26036,0.89313 0.60263,1.23541 0.56869,0.56343 0.96953,0.6629 3.13374,0.6629 l 1.47647,0 0,-1.5066 0,-1.5066 -0.24105,0 c -0.3528,-0.005 -0.64273,-0.11849 -0.75332,-0.27119 -0.0526,-0.0737 -0.14918,-0.26241 -0.18077,-0.45198 -0.0317,-0.22116 -0.0301,-2.44136 -0.0301,-6.1168 l 0,-5.75523 0.60264,0 0.60264,0 0,-1.44633 0,-1.47646 -0.60264,0 -0.60264,0 0,-1.71754 0,-1.71752 -2.04898,0 -2.0791,0 z m -79.72936,3.0132 c -0.19087,10e-4 -0.32589,0.0246 -0.39172,0.0301 -1.21637,0.11584 -2.14699,0.49879 -2.74202,1.11488 -0.53182,0.54763 -0.81912,1.10349 -1.02448,2.10925 l -0.12052,0.60263 0,5.78535 c 0,5.39734 6.2e-4,5.84709 0.0904,6.35786 0.26329,1.4744 0.8557,2.34649 1.89832,2.86255 0.59502,0.29487 1.11227,0.43325 1.92845,0.51224 1.15319,0.11584 2.49307,-0.0547 3.31452,-0.39172 1.33222,-0.55816 2.14113,-1.63973 2.32017,-3.10359 0.0317,-0.24223 0.0603,-1.25415 0.0603,-2.25991 l 0,-1.83806 -2.04897,0 -2.04898,0 0,1.92846 c 0,1.32695 -0.018,1.9972 -0.0603,2.13937 -0.18431,0.62135 -0.96541,0.68922 -1.26556,0.12052 -0.12111,-0.22115 -0.13486,-0.20951 -0.15066,-2.95293 l 0,-2.77214 2.80229,0 2.77213,0 0,-3.49533 c -0.0211,-3.18572 -0.0363,-3.54622 -0.12052,-3.85689 -0.16323,-0.58976 -0.45403,-1.0906 -0.84369,-1.5066 -0.86359,-0.91097 -1.97909,-1.34922 -3.70625,-1.38608 -0.22378,-0.005 -0.47203,-10e-4 -0.6629,0 z m 72.73873,0 c -0.19089,10e-4 -0.35604,0.0246 -0.42185,0.0301 -1.21637,0.11584 -2.14701,0.49879 -2.74203,1.11488 -0.53183,0.54763 -0.78898,1.10349 -0.99435,2.10925 l -0.12052,0.60263 0,5.78535 c 0,5.39734 6.3e-4,5.84709 0.0904,6.35786 0.26328,1.4744 0.82558,2.34649 1.86819,2.86255 0.59502,0.29487 1.1424,0.43325 1.95858,0.51224 1.1532,0.11584 2.46295,-0.0547 3.28439,-0.39172 1.33222,-0.55816 2.17127,-1.63973 2.3503,-3.10359 0.0317,-0.24223 0.0301,-1.25415 0.0301,-2.25991 l 0,-1.83806 -2.04897,0 -2.04897,0 0,1.92846 c 0,1.32695 -0.0181,1.9972 -0.0603,2.13937 -0.18429,0.62135 -0.96539,0.68922 -1.26555,0.12052 -0.12109,-0.22115 -0.10473,-0.20951 -0.12052,-2.95293 l -0.0302,-2.77214 2.80229,0 2.80228,0 -0.0301,-3.49533 c -0.021,-3.18572 -0.0363,-3.54622 -0.12053,-3.85689 -0.16325,-0.58976 -0.45403,-1.0906 -0.8437,-1.5066 -0.86357,-0.91097 -1.97909,-1.34922 -3.70624,-1.38608 -0.22378,-0.005 -0.44189,-10e-4 -0.63277,0 z m -80.69359,0.0603 c -0.22429,0.003 -0.45063,0.0142 -0.6629,0.0603 -0.78458,0.1685 -1.49374,0.66847 -1.98871,1.41621 -0.14219,0.21589 -0.25012,0.39171 -0.2712,0.39171 -0.0263,0 -0.0603,-0.33204 -0.0603,-0.7533 l 0,-0.7533 -1.98871,0 -2.01886,0 0,9.25053 0,9.28067 2.04899,0 2.01883,0 0,-7.41248 0.0301,-7.41248 0.12053,-0.24106 c 0.13163,-0.28435 0.31155,-0.42185 0.63277,-0.42185 0.26328,0 0.48301,0.10269 0.57251,0.27119 0.14744,0.27909 0.1808,0.76565 0.1808,3.64598 l 0,2.98306 2.04897,0 2.04898,0 -0.0302,-3.97741 c -0.0211,-4.38633 -0.009,-4.31446 -0.36158,-5.06219 -0.21063,-0.43706 -0.54443,-0.80479 -0.9341,-0.99435 -0.38735,-0.19186 -0.89263,-0.27705 -1.38607,-0.27119 z m 44.68581,0 c -0.23103,0.002 -0.43677,0.0208 -0.60264,0.0603 -0.79512,0.17903 -1.46887,0.67375 -1.95859,1.41621 -0.14217,0.2159 -0.28025,0.39171 -0.30131,0.39171 -0.0264,0 -0.0302,-0.33205 -0.0302,-0.7533 l 0,-0.7533 -2.01885,0 -1.98872,0 0,9.25053 0,9.28067 2.01885,0 2.01884,0 0.0301,-7.41248 0,-7.41248 0.12053,-0.24106 c 0.13163,-0.28435 0.34169,-0.42185 0.6629,-0.42185 0.42127,0 0.56812,0.18227 0.6629,0.69304 0.0317,0.17904 0.0603,2.93606 0.0603,7.53301 l 0,7.26182 2.04899,0 2.04897,0 0,-7.89459 c 0,-5.18671 -0.0234,-8.0789 -0.0603,-8.43698 -0.1685,-1.67975 -0.9543,-2.49275 -2.47082,-2.56121 -0.0816,-0.002 -0.16406,-10e-4 -0.24106,0 z m 27.72146,0 c -0.23104,0.002 -0.43677,0.0208 -0.60262,0.0603 -0.79512,0.17903 -1.49901,0.67375 -1.98873,1.41621 -0.14218,0.2159 -0.28025,0.39171 -0.30133,0.39171 -0.0264,0 -0.0301,-0.33205 -0.0301,-0.7533 l 0,-0.7533 -2.01885,0 -1.98871,0 0,9.25053 0,9.28067 2.01885,0 2.01883,0 0.0301,-7.41248 0,-7.41248 0.12052,-0.24106 c 0.13164,-0.28435 0.3417,-0.42185 0.66291,-0.42185 0.42126,0 0.56812,0.18227 0.6629,0.69304 0.0316,0.17904 0.0603,2.93606 0.0603,7.53301 l 0,7.26182 2.04897,0 2.04899,0 0,-7.89459 c 0,-5.18671 0.007,-8.0789 -0.0301,-8.43698 -0.1685,-1.67975 -0.9543,-2.49275 -2.47083,-2.56121 -0.0816,-0.002 -0.16405,-10e-4 -0.24107,0 z m -57.85349,0.36159 0,9.25052 0,9.28067 2.01884,0 2.04898,0 0,-9.28067 0,-9.25052 -2.04898,0 -2.01884,0 z m 12.20347,0 0.0302,8.31644 0,8.34657 0.12052,0.39172 c 0.1685,0.53709 0.3575,0.86066 0.66291,1.14501 0.77932,0.72666 2.16805,0.84896 3.28439,0.30132 0.45285,-0.22643 0.97066,-0.69596 1.26555,-1.17514 0.11583,-0.17904 0.21998,-0.33146 0.24105,-0.33146 0.0264,0 0.0301,0.33205 0.0301,0.7533 l 0,0.78343 2.04899,0 2.01883,0 0,-9.28067 0,-9.25052 -2.04897,0 -2.04898,0 -0.0301,7.41247 0,7.44262 -0.12054,0.24106 c -0.1527,0.28961 -0.38616,0.39317 -0.72317,0.36159 -0.28961,-0.0317 -0.416,-0.14803 -0.54237,-0.42187 -0.0737,-0.1685 -0.10473,-0.90965 -0.12053,-7.6234 l 0,-7.41247 -2.01885,0 -2.01883,0 -0.0302,0 z m -18.47094,2.47082 c 0.0603,-0.0177 0.11862,1e-5 0.18079,0 0.1492,-3e-5 0.29746,0.04 0.42185,0.15066 0.28435,0.24749 0.30132,0.37362 0.30132,2.50096 l 0,1.92845 -0.7533,0 -0.72317,0 0,-1.98872 c 0.0158,-1.83245 0.0258,-2.01006 0.12053,-2.19963 0.0963,-0.195 0.27123,-0.33861 0.45198,-0.39172 z m 72.7086,0 c 0.0603,-0.0177 0.11862,1e-5 0.18079,0 0.14918,-3e-5 0.29745,0.04 0.42185,0.15066 0.28434,0.24749 0.30132,0.37362 0.30132,2.50096 l 0,1.92845 -0.72317,0 -0.7533,0 0.0302,-1.98872 c 0.0158,-1.83245 -0.004,-2.01006 0.0904,-2.19963 0.0963,-0.195 0.27122,-0.33861 0.45198,-0.39172 z m -21.36362,11.29951 0,2.38043 0,2.38043 2.10925,0 2.10925,0 0,-2.38043 0,-2.38043 -2.10925,0 -2.10925,0 z"
           id="path3151-4"
           inkscape:connector-curvature="0" />
      </g>
      <g
         id="g3832">
        <g
           id="g3285"
           transform="translate(-47.834641,49.365156)">
          <path
             id="path5819"
             d="m 140.22867,246.35119 c -0.001,6.10765 0.004,12.23611 0,18.34375 -0.43937,0.48142 -0.80128,1.02794 -1.28125,1.46875 -0.74968,0.26681 -1.54831,0.37334 -2.3125,0.59375 -0.004,2.37664 0.004,4.77961 0,7.15625 -0.77578,0.17111 -1.55477,0.36269 -2.28125,0.6875 0.011,1.41526 0.0242,2.83475 0.0312,4.25 -1.69367,2.12869 -3.04477,4.55195 -3.84375,7.15625 -0.42922,1.41961 -0.69729,2.87049 -0.84375,4.34375 -0.0176,1.68932 -0.0242,3.37318 -0.0312,5.0625 -16.37992,0.001 -32.750823,3.6e-4 -49.125003,0 0.05643,0.16835 0.129705,0.33228 0.1875,0.5 19.750073,1.3e-4 39.501103,-7.7e-4 59.250003,0 -3.87311,1.88508 -7.78169,3.71157 -11.65625,5.59375 -0.23201,0.1044 -0.45774,0.249 -0.71875,0.25 -14.85489,0.004 -29.708499,0.001 -44.562503,0 0.07219,0.15693 0.145329,0.31251 0.21875,0.46875 14.52074,0.007 29.041353,0.0243 43.562503,0.0312 -0.64818,0.26536 -1.24372,0.7369 -1.96875,0.75 -13.73948,-0.003 -27.479135,-8.8e-4 -41.218753,0 0.07548,0.15506 0.142054,0.31439 0.21875,0.46875 13.447003,0.006 26.893223,0.0208 40.343753,0.0312 -1.47326,0.72068 -2.96134,1.41302 -4.4375,2.125 -0.002,9.87543 -1.3e-4,19.75039 0,29.625 0.48602,0.17138 0.97741,0.34016 1.46875,0.5 -5.7e-4,-9.56189 -0.003,-19.12717 0,-28.6875 13.21439,0.0105 26.41062,-0.0319 39.625,0 -0.014,6.68249 -0.005,13.37345 0,20.0625 0.28149,-0.006 0.56094,0 0.84375,0 0.19901,0 0.39538,-0.003 0.59375,0 0.002,-7.17787 0.005,-14.35659 0,-21.53125 -1.48776,-0.71197 -2.97954,-1.38467 -4.46875,-2.09375 13.39334,-6.5e-4 26.79078,-2.6e-4 40.1875,0 0.083,-0.16685 0.16838,-0.33232 0.25,-0.5 -13.68661,-10e-4 -27.3724,-0.004 -41.0625,0 -0.72503,-0.0116 -1.32347,-0.48319 -1.96875,-0.75 14.47183,-0.013 28.93843,-0.0262 43.40625,-0.0312 0.0734,-0.15624 0.14656,-0.31182 0.21875,-0.46875 -14.81302,2.6e-4 -29.62663,6.9e-4 -44.4375,0 -0.33496,0.007 -0.61478,-0.1762 -0.90625,-0.3125 -3.8412,-1.84738 -7.7118,-3.64037 -11.53125,-5.53125 19.72948,7.7e-4 39.4581,6e-5 59.1875,0 0.0578,-0.16772 0.13107,-0.33165 0.1875,-0.5 -16.46898,-7e-5 -32.93978,0.002 -49.40625,0 -0.012,-2.03298 0.0333,-4.06222 0,-6.09375 -0.44807,-3.80351 -2.0892,-7.42493 -4.46875,-10.40625 -0.058,-1.47181 -0.001,-2.96424 0,-4.4375 -0.69748,-0.35527 -1.49597,-0.44954 -2.25,-0.625 -0.001,-2.35489 0.004,-4.73886 0,-7.09375 -0.69168,-0.18561 -1.37227,-0.31295 -2.0625,-0.5 -0.26681,-0.0421 -0.43424,-0.27589 -0.59375,-0.46875 -0.29581,-0.37412 -0.59594,-0.73123 -0.90625,-1.09375 -0.004,-6.10909 0.001,-12.23465 0,-18.34375 -0.48432,-10e-4 -0.95463,-10e-4 -1.4375,0 z m -0.3125,21.1875 c 1.29345,0.0493 2.61345,-0.14812 3.875,0.21875 -0.018,1.95903 0.0101,3.91453 0,5.875 -1.89522,-0.14791 -3.79952,-0.17676 -5.6875,0.0625 -0.001,-1.98078 0.001,-3.98797 0,-5.96875 0.60033,-0.15076 1.19187,-0.2281 1.8125,-0.1875 z m -0.0312,6.71875 c 0.24234,-0.008 0.47586,-0.007 0.71875,0 -0.001,0.99909 10e-4,2.00091 0,3 -0.48432,-0.0101 -0.95753,-0.018 -1.4375,0.0312 -0.002,-0.99329 -0.0252,-1.97401 -0.0312,-2.96875 0.24071,-0.0303 0.50766,-0.0543 0.75,-0.0625 z m 1.4375,0 c 0.44807,-0.002 0.89423,-0.009 1.34375,0 0.012,1.01359 -0.003,2.01766 0,3.03125 -0.45097,-0.0449 -0.89133,-0.0352 -1.34375,-0.0312 10e-4,-0.99764 -0.001,-2.00236 0,-3 z m 2.09375,0.0937 c 0.45097,0.045 0.89423,0.0851 1.34375,0.15625 0,1.01794 -0.0116,2.04456 0,3.0625 -0.45097,-0.0739 -0.89133,-0.16505 -1.34375,-0.21875 -0.004,-1.00924 -0.004,-1.99076 0,-3 z m -5,0.0312 c 10e-4,0.99619 -0.003,2.00235 0,3 -0.45242,0.0334 -0.90003,0.1034 -1.34375,0.1875 -0.0185,-0.99909 0.016,-2.00236 0,-3 0.44952,-0.0855 0.88698,-0.1599 1.34375,-0.1875 z m 7.0625,0.25 c 0.42197,0.0885 0.83384,0.19504 1.25,0.3125 0.002,1.05709 0.0242,2.1304 0.0312,3.1875 -0.40891,-0.17111 -0.85638,-0.2888 -1.28125,-0.40625 0.004,-1.02664 0,-2.0671 0,-3.09375 z m -9.125,0.0625 c 0.011,1.00054 -0.006,2.03071 0,3.03125 -0.42341,0.1247 -0.83238,0.23435 -1.25,0.375 0.004,-1.00924 -0.001,-2.02201 0,-3.03125 0.41182,-0.13775 0.83094,-0.259 1.25,-0.375 z m 3.375,3.28125 c 1.04744,-0.0457 2.07878,0.002 3.125,0.0625 1.57041,3.33079 2.14015,7.05881 2.09375,10.71875 -2.10548,-0.087 -4.20556,-0.0393 -6.3125,-0.0625 -0.66412,10e-4 -1.33732,0.002 -2,0.0625 -0.0551,-3.64544 0.52319,-7.34946 2.03125,-10.6875 0.34801,-0.033 0.71335,-0.0785 1.0625,-0.0937 z m 4.03125,0.15625 c 0.89469,0.145 1.81956,0.29664 2.65625,0.65625 0.68298,0.73808 1.20928,1.57312 1.8125,2.375 1.53271,2.41435 2.57144,5.16224 2.96875,8 0.0249,0.24506 0.0283,0.50204 0.0312,0.75 -1.85607,-0.33496 -3.71078,-0.67889 -5.5625,-1.03125 0.0624,-3.65415 -0.47794,-7.36992 -1.90625,-10.75 z m -5.9375,0.0312 c -1.42686,3.36848 -1.97875,7.07475 -1.90625,10.71875 -1.80968,0.34221 -3.62493,0.67954 -5.4375,1 0.39876,-4.07902 2.2243,-7.96227 4.875,-11.0625 0.78448,-0.35236 1.62627,-0.50545 2.46875,-0.65625 z m 0.40625,12 c 1.58245,-0.0215 3.16653,0.0207 4.75,0 0.66268,0.006 1.30752,-0.0471 1.96875,0.0312 -0.007,1.74007 0,3.47868 0,5.21875 -2.77106,0.003 -5.54143,0.003 -8.3125,0 0,-1.74007 0.007,-3.47868 0,-5.21875 0.52674,-0.0265 1.06627,-0.0241 1.59375,-0.0312 z m -2.3125,0.1875 0,5.0625 c -1.83723,10e-4 -3.66422,0.003 -5.5,0 0,-1.3529 0.003,-2.7096 0,-4.0625 1.83723,-0.33786 3.66567,-0.64329 5.5,-1 z m 9.75,0 c 1.85027,0.35816 3.70933,0.69194 5.5625,1.03125 -0.001,1.35145 0,2.6798 0,4.03125 -1.85317,0 -3.70933,10e-4 -5.5625,0 0,-1.69222 -0.001,-3.37028 0,-5.0625 z m -4.6875,5.875 c 6.51801,3.18287 13.07509,6.25883 19.625,9.375 -13.04182,0.0176 -26.08462,0.0153 -39.125,0.0312 6.49336,-3.13792 13.01099,-6.26398 19.5,-9.40625 z m 0,2.1875 c -0.19687,-0.004 -0.40017,0.0209 -0.59375,0.0937 -1.34711,0.55247 -1.83656,2.23425 -1.5625,3.5625 0.17401,0.95124 0.81486,1.93584 1.8125,2.15625 0.81783,0.18561 1.61653,-0.32282 2.03125,-1 0.73518,-1.1963 0.69494,-2.87186 -0.15625,-4 -0.35345,-0.47957 -0.94065,-0.79944 -1.53125,-0.8125 z m -0.1875,0.5 c 0.52525,-0.0863 1.04304,0.22866 1.34375,0.65625 0.72503,1.03389 0.74388,2.53731 0,3.5625 -0.35237,0.49733 -1.03338,0.83366 -1.625,0.5625 -0.96719,-0.43937 -1.3153,-1.63896 -1.25,-2.625 0.0855,-0.83523 0.46857,-1.77329 1.3125,-2.09375 0.0738,-0.0297 0.14371,-0.0502 0.21875,-0.0625 z m -50.343753,9.8125 c -0.0029,1.59361 -0.02835,3.18764 -0.03125,4.78125 1.289102,0.006 2.584448,0.004 3.875,0 -0.0015,-1.59361 0.0015,-3.18619 0,-4.78125 -1.289102,-0.001 -2.554648,-0.001 -3.84375,0 z m 7.8125,0 c -0.003,1.59361 0.0029,3.18764 0,4.78125 1.289102,0.006 2.584453,0.003 3.875003,0 -10e-4,-1.59361 0.002,-3.18619 0,-4.78125 -1.2891,-0.001 -2.585901,-0.001 -3.875003,0 z m 7.843753,0 c -0.003,1.59361 0.002,3.18764 0,4.78125 1.2891,0.004 2.55465,0.004 3.84375,0 -0.003,-1.59361 0.003,-3.18764 0,-4.78125 -1.2891,-0.001 -2.55465,-0.001 -3.84375,0 z m 7.8125,0 c -0.003,1.59506 0.001,3.18764 0,4.78125 1.2891,0.004 2.5859,0.004 3.875,0 -10e-4,-1.59361 0.001,-3.18619 0,-4.78125 -1.2891,-0.001 -2.5859,-0.001 -3.875,0 z m 9.28125,0 c -0.002,1.59361 0.001,3.18764 0,4.78125 1.2891,0.004 2.58445,0.004 3.875,0 -10e-4,-1.59361 0.001,-3.18619 0,-4.78125 -1.2891,-0.001 -2.5859,-0.001 -3.875,0 z m 7.84375,0 c -0.002,1.59361 0.003,3.18619 0,4.78125 1.28765,0.007 2.55465,-0.003 3.84375,0 0.002,-1.59506 0,-3.18619 0,-4.78125 -1.2891,-0.001 -2.55465,-0.001 -3.84375,0 z m 8.0625,0 c -0.005,1.59506 -0.001,3.18619 0,4.78125 1.28766,0.002 2.5859,-0.001 3.875,0 0.002,-1.59506 0,-3.18619 0,-4.78125 -1.2891,-0.001 -2.58734,10e-4 -3.875,0 z m 8.0625,0 c 0,1.59506 -0.003,3.18619 0,4.78125 1.28765,-0.001 2.58734,10e-4 3.875,0 0,-1.59651 0.006,-3.18619 0,-4.78125 -1.28766,10e-4 -2.58735,-0.001 -3.875,0 z m 7.84375,0 c 0,1.59506 -0.003,3.18619 0,4.78125 1.28765,-0.001 2.58735,10e-4 3.875,0 0,-1.59651 0.006,-3.18619 0,-4.78125 -1.28765,10e-4 -2.58735,-0.001 -3.875,0 z m 9.28125,0 c 0,1.59506 -0.003,3.18619 0,4.78125 1.28765,-0.001 2.58734,10e-4 3.875,0 -0.003,-1.59796 -0.0125,-3.18619 -0.0312,-4.78125 -1.28621,0.008 -2.55755,-0.004 -3.84375,0 z m 7.84375,0 c 0,1.59506 -0.003,3.18619 0,4.78125 1.28765,-0.001 2.55465,0.003 3.84375,0 -0.002,-1.59506 0.006,-3.18619 0,-4.78125 -1.27727,9.9e-4 -2.56646,-9.6e-4 -3.84375,0 z m 7.8125,0 c 0,1.59506 -0.003,3.18619 0,4.78125 1.28765,-0.001 2.58735,10e-4 3.875,0 -0.001,-1.59651 0.0116,-3.18619 0,-4.78125 -1.28765,0.006 -2.58735,-0.003 -3.875,0 z m 7.84375,0 c 0,1.59506 -0.004,3.18619 0,4.78125 1.28765,-0.001 2.5561,10e-4 3.84375,0 0,-1.59651 0.006,-3.18619 0,-4.78125 -1.28765,10e-4 -2.5561,-0.001 -3.84375,0 z m -96.875003,0.46875 2.90625,0 c 0,1.27315 0.0014,2.53935 0,3.8125 l -2.90625,0 c -0.0015,-1.27315 0,-2.53935 0,-3.8125 z m 7.84375,0 2.875003,0 c 0,1.27315 0.002,2.53935 0,3.8125 l -2.875003,0 c -0.0029,-1.27315 0,-2.53935 0,-3.8125 z m 7.812503,0 2.90625,0 0,3.8125 -2.90625,0 c -10e-4,-1.27315 0,-2.53935 0,-3.8125 z m 7.84375,0 2.875,0 c 0,1.27315 0.001,2.53935 0,3.8125 l -2.875,0 c -0.002,-1.27315 0,-2.53935 0,-3.8125 z m 9.28125,0 2.875,0 c 0,1.27315 0.001,2.53935 0,3.8125 l -2.875,0 c -10e-4,-1.27315 0,-2.53935 0,-3.8125 z m 7.8125,0 2.90625,0 c 0,1.27315 10e-4,2.53935 0,3.8125 l -2.90625,0 0,-3.8125 z m 8.09375,0 c 0.96719,-0.001 1.90781,-0.003 2.875,0 -0.003,1.27315 0.006,2.53935 0,3.8125 -0.96574,-0.003 -1.91071,0.003 -2.875,0 -0.002,-1.2717 0,-2.5408 0,-3.8125 z m 8.0625,0 c 0.96574,-0.002 1.93906,0 2.90625,0 0,1.27315 0.003,2.5408 0,3.8125 -0.96574,0.003 -1.94051,-0.003 -2.90625,0 -0.006,-1.27315 0.003,-2.53935 0,-3.8125 z m 7.8125,0 c 0.96573,-0.003 1.93906,-0.001 2.90625,0 0,1.2717 0.003,2.5408 0,3.8125 -0.96574,0.002 -1.94052,-0.001 -2.90625,0 -0.006,-1.2717 0.003,-2.53935 0,-3.8125 z m 9.28125,0 c 0.96574,-0.003 1.93906,-0.001 2.90625,0 0,1.2717 0.003,2.5408 0,3.8125 -0.96574,0.002 -1.94051,-0.001 -2.90625,0 -0.006,-1.2717 0.003,-2.5408 0,-3.8125 z m 7.84375,0 c 0.96573,-0.003 1.93906,-0.001 2.90625,0 0,1.2717 0.003,2.5408 0,3.8125 -0.96574,0.003 -1.94052,-0.003 -2.90625,0 -0.006,-1.27315 0.003,-2.53935 0,-3.8125 z m 7.84375,0 c 0.95539,-0.003 1.91821,-9.9e-4 2.875,0 0,1.2717 0.003,2.5408 0,3.8125 -0.96574,0.002 -1.90926,-0.001 -2.875,0 -0.006,-1.2717 0.003,-2.5408 0,-3.8125 z m 7.8125,0 c 0.96574,-0.004 1.93907,-0.001 2.90625,0 0,1.2717 0.003,2.5408 0,3.8125 -0.96573,0.002 -1.94196,-0.001 -2.90625,0 -0.006,-1.2717 0.003,-2.5408 0,-3.8125 z m -55.25,7.1875 c -0.97155,-0.0114 -1.91424,0.82792 -1.96875,1.8125 -0.0537,1.36451 0.0217,2.72779 0,4.09375 -0.85264,-0.001 -1.70987,10e-4 -2.5625,0 -0.004,1.2891 10e-4,2.5859 0,3.875 -0.38717,-0.001 -0.77054,0 -1.15625,0 -10e-4,0.25376 -10e-4,0.49334 0,0.75 0.31176,0.16386 0.60173,0.35145 0.90625,0.53125 0.0754,0.30017 0.279,0.55454 0.25,0.875 -0.005,3.1091 -0.001,6.2289 0,9.34375 0.47751,0.0947 0.95621,0.166 1.4375,0.25 -2.2e-4,-3.35401 -8e-4,-6.7114 0,-10.0625 l 6.25,0 c 10e-4,2.59138 4.4e-4,5.18681 0,7.78125 0.46231,-0.34766 0.96082,-0.67104 1.4375,-1 -1.7e-4,-2.26115 -5.4e-4,-4.5229 0,-6.78125 l 6.375,0 c 5.1e-4,1.05112 -8e-5,2.10415 0,3.15625 0.48369,-0.22223 0.97549,-0.45186 1.46875,-0.65625 1.8e-4,-0.83322 -6e-4,-1.66743 0,-2.5 l 6.53125,0 c 3e-5,0.13529 -3e-5,0.27094 0,0.40625 0.49626,-0.11614 0.99722,-0.24517 1.5,-0.34375 0.059,-0.17942 0.13738,-0.34443 0.15625,-0.53125 0.36977,-0.20011 0.74073,-0.39139 1.125,-0.5625 -0.004,-0.22476 0,-0.43439 0,-0.65625 l -1.34375,0 c -0.001,-1.2891 0.003,-2.5859 0,-3.875 -0.78883,0 -1.58762,0.003 -2.375,0 -0.004,-1.27605 0,-2.5379 0,-3.8125 -0.013,-0.79318 -0.46762,-1.62429 -1.21875,-1.9375 -0.87439,-0.42052 -1.95238,0.0601 -2.40625,0.875 -0.17546,0.37847 -0.259,0.80113 -0.25,1.21875 0.004,1.22385 10e-4,2.43095 0,3.65625 l -4.1875,0 c -0.004,-1.27315 0.003,-2.53935 0,-3.8125 0.0116,-0.93673 -0.64542,-1.86014 -1.59375,-2.03125 -1.09915,-0.23781 -2.1963,0.67776 -2.25,1.78125 -0.0392,1.35291 -0.0168,2.70959 -0.0312,4.0625 -1.40075,0.002 -2.78674,-0.001 -4.1875,0 -0.007,-1.2746 0.003,-2.53645 0,-3.8125 -0.001,-0.89903 -0.59371,-1.82679 -1.5,-2.03125 -0.13794,-0.0382 -0.26746,-0.0609 -0.40625,-0.0625 z m -0.1875,0.5 c 0.88454,-0.12326 1.6583,0.73097 1.625,1.59375 0.01,1.27025 0.0302,2.54225 0.0312,3.8125 -0.99764,10e-4 -2.00236,10e-4 -3,0 0.001,-1.2717 -0.0101,-2.5408 0,-3.8125 -0.016,-0.75403 0.56507,-1.53435 1.34375,-1.59375 z m 8.1875,0 c 0.39641,-0.006 0.80366,0.15698 1.0625,0.46875 0.35092,0.32336 0.48035,0.81578 0.46875,1.28125 -0.002,1.2253 10e-4,2.43095 0,3.65625 l -3,0 c -0.004,-1.2282 10e-4,-2.4593 0,-3.6875 -0.0116,-0.44952 0.11704,-0.89104 0.4375,-1.21875 0.25376,-0.31101 0.63484,-0.49439 1.03125,-0.5 z m 8.21875,0 c 0.76263,0.0643 1.39784,0.82359 1.375,1.59375 0.007,1.27315 0,2.53935 0,3.8125 l -3,0 c 0.003,-1.2746 -0.013,-2.5379 0,-3.8125 -0.009,-0.72938 0.56137,-1.4769 1.3125,-1.5625 0.11274,-0.0208 0.20355,-0.0404 0.3125,-0.0312 z m 5.78125,1.15625 c 0,2.40129 -0.003,4.81745 0,7.21875 1.28765,-0.001 2.5859,0.003 3.875,0 10e-4,-2.39985 -0.001,-4.81891 0,-7.21875 -1.2891,-0.002 -2.5859,0 -3.875,0 z m 9.28125,0 c 0,2.40129 -0.004,4.8189 0,7.21875 1.28765,-0.001 2.58589,0.003 3.875,0 10e-4,-2.39985 -0.001,-4.81891 0,-7.21875 -1.28911,-0.004 -2.5859,0 -3.875,0 z m 7.84375,0 c 0,2.40129 -0.003,4.81745 0,7.21875 1.28765,-0.001 2.5561,10e-4 3.84375,0 0.002,-2.4013 -0.001,-4.81891 0,-7.21875 -1.2787,-0.002 -2.56505,-2e-5 -3.84375,0 z m 7.8125,0 c 0,2.40129 -0.003,4.8189 0,7.21875 0.11423,-9e-5 0.22935,5e-5 0.34375,0 0.20915,-0.16448 0.41797,-0.33297 0.625,-0.5 -0.15647,-1e-5 -0.31129,-1.6e-4 -0.46875,0 -0.004,-2.07794 0,-4.14082 0,-6.21875 0.96574,0 1.90781,-0.006 2.875,0 -0.002,1.39921 -6.5e-4,2.79276 0,4.1875 0.16542,-0.14745 0.33613,-0.28835 0.5,-0.4375 -3.5e-4,-1.41826 -5.9e-4,-2.83711 0,-4.25 -1.2891,-0.002 -2.5859,0 -3.875,0 z m 7.84375,0 c 0,0.10395 1e-5,0.20849 0,0.3125 0.0952,-0.10324 0.18671,-0.20863 0.28125,-0.3125 -0.0941,2e-5 -0.18693,0 -0.28125,0 z m -93.875003,0.0937 c 0.124625,0.13636 0.249209,0.27098 0.375,0.40625 -7.5e-5,-0.13517 8.4e-5,-0.27119 0,-0.40625 -0.125766,-1e-4 -0.249639,8e-5 -0.375,0 z m 4.34375,0 c -8.96e-4,1.43368 -1.75e-4,2.87331 0,4.3125 0.164395,0.14848 0.334056,0.29071 0.5,0.4375 l 0,-4.25 2.875003,0 0,6.21875 -0.5625,0 c 0.21373,0.17171 0.44027,0.331 0.65625,0.5 0.1353,-8e-5 0.2711,10e-5 0.40625,0 0.002,-2.39985 0.002,-4.8189 0,-7.21875 -1.2891,-0.001 -2.585901,-0.001 -3.875003,0 z m 7.843753,0 c -10e-4,2.39985 -10e-4,4.8189 0,7.21875 1.2891,10e-4 2.55465,10e-4 3.84375,0 0.002,-2.39985 0.002,-4.8189 0,-7.21875 -1.2891,-0.001 -2.55465,-0.001 -3.84375,0 z m 7.8125,0 c -10e-4,2.39985 -10e-4,4.8189 0,7.21875 1.2891,10e-4 2.5859,10e-4 3.875,0 0.001,-2.39985 0.001,-4.8189 0,-7.21875 -1.2891,-0.001 -2.5859,-0.001 -3.875,0 z m 9.28125,0 c -10e-4,2.39985 -10e-4,4.8189 0,7.21875 1.2891,10e-4 2.5859,10e-4 3.875,0 0.001,-2.39985 0.001,-4.8189 0,-7.21875 -1.2891,-0.001 -2.5859,-0.001 -3.875,0 z m 32.28125,0.40625 c 0.96573,0 1.94051,-0.004 2.90625,0 -0.001,2.07648 0.003,4.14226 0,6.21875 -0.96574,0.002 -1.94052,-0.001 -2.90625,0 -0.004,-2.07794 0,-4.14082 0,-6.21875 z m 9.28125,0 c 0.96719,0.003 1.93761,-0.0174 2.90625,0 -0.01,2.07503 0.006,4.14371 0,6.21875 -0.96574,0.002 -1.94051,-0.001 -2.90625,0 -0.005,-2.07794 0,-4.14082 0,-6.21875 z m 7.84375,0 c 0.96573,0 1.94051,-0.004 2.90625,0 -0.001,2.07648 0.003,4.14226 0,6.21875 -0.96574,0.003 -1.94052,-0.003 -2.90625,0 -0.005,-2.07939 0,-4.14082 0,-6.21875 z m -66.03125,0.0937 2.90625,0 0,6.21875 -2.90625,0 0,-6.21875 z m 7.84375,0 2.875,0 0,6.21875 -2.875,0 0,-6.21875 z m 9.28125,0 2.875,0 0,6.21875 -2.875,0 0,-6.21875 z m 5.25,4.15625 c 7.98983,0 15.97893,0.003 23.96875,0 0.008,1.12669 -0.004,2.24686 0,3.375 -7.99127,0.003 -15.97747,0.003 -23.96875,0 0.003,-1.12814 -0.006,-2.24831 0,-3.375 z m -15.03125,8.875 c -2.4e-4,0.40517 3e-5,0.81267 0,1.21875 0.16488,0.0773 0.33435,0.14277 0.5,0.21875 2.5e-4,-0.31262 -4.5e-4,-0.62424 0,-0.9375 0.96574,0.001 1.90927,0.001 2.875,0 0.001,0.72049 -9e-5,1.43829 0,2.15625 0.16835,0.0674 0.33095,0.15278 0.5,0.21875 1.7e-4,-0.95945 4e-4,-1.91922 0,-2.875 l -3.875,0 z m 9.28125,0 c -6.5e-4,1.55834 -2.4e-4,3.12348 0,4.6875 0.16858,0.0488 0.33085,0.10878 0.5,0.15625 -7.4e-4,-1.44706 -0.002,-2.89233 0,-4.34375 0.96574,0.001 1.90926,0.001 2.875,0 0.002,1.70202 9.5e-4,3.39493 0,5.09375 0.16446,0.0379 0.33506,0.0571 0.5,0.0937 -2.2e-4,-1.89585 7.9e-4,-3.79672 0,-5.6875 l -3.875,0 z"
             style="fill:#000000"
             inkscape:connector-curvature="0" />
          <path
             sodipodi:nodetypes="ssccsssccss"
             inkscape:connector-curvature="0"
             id="path6989"
             d="m 141.04116,210.63244 c -35.65467,0 -64.562498,29.04506 -64.562498,64.84375 0,32.13268 23.289466,58.78137 53.843748,63.90625 0.52051,-0.54466 1.04598,-1.07668 1.59375,-1.59375 -30.32403,-4.43064 -53.624998,-30.62803 -53.624998,-62.3125 0,-34.79526 28.107328,-62.96875 62.749998,-62.96875 34.64315,0 62.6875,28.17385 62.6875,62.96875 0,6.37439 -0.93617,12.5143 -2.6875,18.3125 0.76787,-0.52021 1.55322,-1.01219 2.34375,-1.5 1.43327,-5.36628 2.21875,-10.99188 2.21875,-16.8125 0,-35.79869 -28.90735,-64.84375 -64.5625,-64.84375 z"
             style="font-size:medium;font-style:normal;font-variant:normal;font-weight:normal;font-stretch:normal;text-indent:0;text-align:start;text-decoration:none;line-height:normal;letter-spacing:normal;word-spacing:normal;text-transform:none;direction:ltr;block-progression:tb;writing-mode:lr-tb;text-anchor:start;baseline-shift:baseline;color:#000000;fill:#dc0067;fill-opacity:1;fill-rule:nonzero;stroke:none;visibility:visible;display:inline;overflow:visible;enable-background:accumulate;font-family:sans-serif" />
          <path
             d="m 140.78125,243.4375 c -0.0727,0.0991 -0.15351,0.20868 -0.25,0.34375 -0.005,0.008 0.005,0.0234 0,0.0312 -0.25072,0.3632 -0.57276,0.79666 -0.6875,0.96875 -0.0794,0.1191 -0.14579,0.19128 -0.21875,0.28125 0.0707,0.0525 0.13696,0.0942 0.21875,0.15625 1.17374,0.89757 2.58012,2.23553 3.34375,3.15625 0.13651,0.16087 0.2681,0.29935 0.25,0.28125 0.086,0.0817 0.13369,0.14197 0.21875,0.25 0.0914,0.11607 0.19628,0.25075 0.3125,0.40625 0.23244,0.311 0.50148,0.67817 0.65625,0.90625 2.35639,3.52672 3.59179,7.17661 3.8125,11.3125 0.16359,3.01318 -0.35795,6.13633 -1.5,9.0625 -0.51239,1.31005 -1.17022,2.56758 -2,3.84375 -0.0998,0.15225 -0.19539,0.30773 -0.28125,0.4375 -0.0859,0.12977 -0.16154,0.25999 -0.15625,0.25 a 0.40804127,0.40804127 0 0 1 -0.0312,0 c -0.0554,0.0986 -0.10619,0.17237 -0.1875,0.28125 -0.0813,0.10888 -0.18357,0.24647 -0.28125,0.375 -1.20157,1.54939 -2.70275,3.0533 -4.1875,4.15625 a 0.40804127,0.40804127 0 0 1 0,0.0312 c -0.0951,0.0693 -0.17686,0.0983 -0.25,0.15625 0.0147,0.0221 0.0152,0.0385 0.0312,0.0625 0.13598,0.20386 0.31429,0.47695 0.5,0.75 0.18571,0.27305 0.38493,0.53897 0.53125,0.75 0.0244,0.0352 0.0407,0.0625 0.0625,0.0937 0.13612,-0.10415 0.27262,-0.19485 0.46875,-0.34375 1.42186,-1.08163 2.7481,-2.35329 3.875,-3.71875 1.0021,-1.20663 1.57521,-2.06374 2.3125,-3.34375 3.46976,-6.03017 4.10676,-13.37304 1.71875,-19.9375 -1.58116,-4.34564 -4.40611,-8.08364 -8.28125,-11 z M 112.75,243.5 c -0.11517,0.0948 -0.25072,0.20946 -0.46875,0.375 -1.42039,1.08437 -2.7504,2.32481 -3.875,3.6875 -1.00212,1.20663 -1.57522,2.06374 -2.3125,3.34375 -3.46977,6.03017 -4.10676,13.37304 -1.71875,19.9375 1.58115,4.34566 4.40612,8.08364 8.28125,11 0.0565,-0.0728 0.11406,-0.11958 0.1875,-0.21875 0.22649,-0.30584 0.51446,-0.72354 0.78125,-1.125 0.0762,-0.11425 0.15338,-0.16716 0.21875,-0.25 -0.0711,-0.0561 -0.13055,-0.11927 -0.21875,-0.1875 -1.17342,-0.89326 -2.60528,-2.19698 -3.375,-3.125 -0.0762,-0.0898 -0.13622,-0.15483 -0.1875,-0.21875 -0.0256,-0.032 -0.0478,-0.0755 -0.0625,-0.0937 -0.086,-0.0817 -0.13369,-0.14197 -0.21875,-0.25 -0.0914,-0.11607 -0.19628,-0.25075 -0.3125,-0.40625 -0.23243,-0.311 -0.50148,-0.67816 -0.65625,-0.90625 -2.35576,-3.52578 -3.59177,-7.14525 -3.8125,-11.28125 -0.16359,-3.01318 0.35796,-6.13634 1.5,-9.0625 0.51367,-1.31332 1.20239,-2.60023 2.03125,-3.875 0.19576,-0.29877 0.40022,-0.64486 0.40625,-0.65625 a 0.40804127,0.40804127 0 0 1 0.0312,0 c 0.0893,-0.15891 0.26381,-0.41783 0.46875,-0.6875 1.20205,-1.55527 2.70323,-3.05367 4.1875,-4.15625 a 0.40804127,0.40804127 0 0 1 0,-0.0312 c 0.11373,-0.0836 0.17657,-0.12835 0.25,-0.1875 -0.023,-0.0339 -0.0361,-0.0553 -0.0625,-0.0937 -0.14668,-0.21358 -0.33778,-0.50838 -0.53125,-0.78125 -0.19347,-0.27287 -0.38536,-0.55066 -0.53125,-0.75 z m 24.34375,5.1875 c -0.36681,0.52659 -0.87968,1.26036 -1.09375,1.5625 -0.006,0.008 0.006,0.0234 0,0.0312 -0.0183,0.0262 -0.0456,0.0384 -0.0625,0.0625 0.54297,0.43034 1.20655,0.98314 1.625,1.40625 2.82933,2.81869 4.4375,6.72851 4.4375,10.75 0,1.41948 -0.0892,2.46124 -0.4375,3.84375 -0.39924,1.57032 -1.08967,3.12618 -1.96875,4.46875 -0.15605,0.24449 -0.35623,0.52912 -0.375,0.5625 l 0.0312,0 c -0.11775,0.22679 -0.32164,0.47956 -0.59375,0.8125 -0.27211,0.33294 -0.62108,0.70405 -0.90625,1 -0.44436,0.45468 -1.31664,1.24412 -1.90625,1.6875 l 0.5625,0.78125 0,0.0312 c 0.20623,0.29117 0.41606,0.56398 0.5625,0.75 0.0115,0.0146 0.0204,0.0176 0.0312,0.0312 0.0922,-0.0667 0.17667,-0.12234 0.34375,-0.25 3.36535,-2.62255 5.63885,-6.33994 6.40625,-10.5 0.22342,-1.20857 0.31183,-2.20299 0.28125,-3.625 -0.008,-0.35345 -0.0197,-0.70037 -0.0312,-0.96875 -0.0116,-0.26838 -0.0332,-0.48278 -0.0312,-0.46875 -0.33923,-2.20498 -0.55171,-2.98916 -1.15625,-4.53125 -0.41007,-1.0524 -1.42674,-2.98513 -1.84375,-3.5 -0.0361,-0.0473 -0.36183,-0.43922 -0.65625,-0.8125 -0.62937,-0.80637 -1.95133,-2.15974 -2.8125,-2.84375 -0.14822,-0.11817 -0.28712,-0.19723 -0.40625,-0.28125 z m -20.65625,0.125 c -0.11162,0.0803 -0.20956,0.15818 -0.40625,0.3125 -0.28309,0.22211 -0.60137,0.50091 -0.8125,0.6875 -2.89419,2.57599 -4.83436,6.00391 -5.53125,9.78125 -0.22366,1.20979 -0.31184,2.17162 -0.28125,3.59375 0.008,0.35089 0.0196,0.69968 0.0312,0.96875 0.0116,0.26907 0.0333,0.48356 0.0312,0.46875 0.33923,2.20498 0.55172,2.98916 1.15625,4.53125 0.40767,1.04618 1.45283,2.97875 1.875,3.5 0.0685,0.0896 0.33717,0.44243 0.625,0.8125 0.62554,0.80147 1.979,2.1569 2.84375,2.84375 0.13969,0.11137 0.26528,0.19941 0.375,0.28125 0.36233,-0.5259 0.87615,-1.25477 1.09375,-1.5625 0.006,-0.008 -0.005,-0.0234 0,-0.0312 0.0183,-0.0262 0.0456,-0.0384 0.0625,-0.0625 -0.54296,-0.43035 -1.20654,-0.98314 -1.625,-1.40625 -2.82933,-2.81869 -4.4375,-6.72851 -4.4375,-10.75 0,-1.42554 0.12193,-2.46696 0.46875,-3.84375 0.39925,-1.57031 1.08968,-3.12617 1.96875,-4.46875 0.14266,-0.22351 0.2867,-0.46105 0.34375,-0.5625 l -0.0312,0 c 0.11774,-0.22674 0.32164,-0.47955 0.59375,-0.8125 0.27211,-0.33295 0.62106,-0.70405 0.90625,-1 0.44077,-0.45102 1.31617,-1.21078 1.90625,-1.65625 l -0.5625,-0.78125 0,-0.0312 c -0.21028,-0.29784 -0.42087,-0.58424 -0.5625,-0.78125 -0.0118,-0.0164 -0.0202,-0.0159 -0.0312,-0.0312 z m 16.84375,5.34375 c -0.0185,0.0257 -0.0429,0.0351 -0.0625,0.0625 -0.004,0.007 0.005,0.0246 0,0.0312 -0.14779,0.21867 -0.37176,0.51037 -0.5,0.6875 -0.004,0.005 0.004,0.0256 0,0.0312 -0.13455,0.19098 -0.38622,0.48356 -0.53125,0.6875 l 0,0.0312 -0.0937,0.0937 c 0.5603,0.45893 1.36472,1.27537 1.71875,1.8125 0.90812,1.37819 1.38117,2.70992 1.53125,4.3125 0.17084,1.75792 -0.32647,3.77322 -1.3125,5.3125 -0.0498,0.0735 -0.0969,0.1401 -0.125,0.1875 -0.003,0.0102 -0.0279,0.0237 -0.0312,0.0312 -0.003,0.006 0.001,0.0287 0,0.0312 -0.003,0.005 0.002,0.0262 0,0.0312 -0.0137,0.0313 -0.0193,0.0423 -0.0312,0.0625 -0.0239,0.0404 -0.0651,0.0849 -0.0937,0.125 -0.0574,0.0802 -0.13533,0.17876 -0.21875,0.28125 -0.16684,0.20498 -0.37844,0.43271 -0.5625,0.625 -0.22303,0.22891 -0.56207,0.52397 -0.8125,0.71875 l -0.125,0.0937 0.59375,0.84375 0,0.0312 0.5625,0.75 c 0.55649,-0.42256 1.40359,-1.18977 1.875,-1.78125 0.53716,-0.6689 0.831,-1.14584 1.1875,-1.84375 1.22548,-2.41611 1.49143,-5.17237 0.75,-7.75 -0.22092,-0.76819 -0.37268,-1.08396 -0.75,-1.84375 -0.52084,-1.03667 -1.08483,-1.86105 -1.9375,-2.71875 -0.25871,-0.25619 -0.57799,-0.54912 -0.84375,-0.78125 -0.073,-0.0638 -0.12646,-0.1056 -0.1875,-0.15625 z M 120.25,254.25 c -0.88315,0.67708 -1.83894,1.6503 -2.5,2.625 -0.31717,0.46886 -0.83444,1.49907 -1.0625,2.125 -0.7882,2.15011 -0.87142,4.46246 -0.25,6.625 0.22171,0.77094 0.37467,1.1192 0.75,1.875 0.51941,1.03383 1.08143,1.82641 1.9375,2.6875 0.25871,0.25619 0.57799,0.54912 0.84375,0.78125 0.073,0.0638 0.12646,0.1056 0.1875,0.15625 0.0201,-0.0283 0.0413,-0.0322 0.0625,-0.0625 0.14437,-0.20911 0.36577,-0.53307 0.5,-0.71875 0.004,-0.005 -0.004,-0.0256 0,-0.0312 0.13454,-0.19095 0.3862,-0.48354 0.53125,-0.6875 l 0,-0.0312 0.0625,-0.0937 c -0.56527,-0.4709 -1.34418,-1.29157 -1.6875,-1.8125 -0.90811,-1.37817 -1.38118,-2.70991 -1.53125,-4.3125 -0.17085,-1.75793 0.32648,-3.77324 1.3125,-5.3125 0.0498,-0.0735 0.0969,-0.1401 0.125,-0.1875 0.004,-0.0174 0.0285,-0.0227 0.0312,-0.0312 0.005,-0.0171 -0.002,-0.0262 0,-0.0312 0.003,-0.005 -0.002,-0.0262 0,-0.0312 0.0138,-0.0313 0.0193,-0.0423 0.0312,-0.0625 0.0239,-0.0404 0.0651,-0.0849 0.0937,-0.125 0.0574,-0.0802 0.13533,-0.17876 0.21875,-0.28125 0.16684,-0.20497 0.37845,-0.4327 0.5625,-0.625 0.22302,-0.22889 0.56207,-0.52396 0.8125,-0.71875 l 0.125,-0.0937 -0.59375,-0.84375 c -0.21494,-0.30706 -0.41613,-0.5811 -0.5625,-0.78125 z m -6.28125,25.78125 c 0,0 0.0312,0.0312 0.0312,0.0312 l 0,-0.0312 c -0.005,0.009 -0.0354,0.005 -0.0312,0 z"
             id="path6715"
             style="fill:#ffb400;fill-opacity:1"
             inkscape:original="M 140.6875 242.90625 C 140.6565 242.90625 140.44594 243.20067 140.1875 243.5625 C 139.93422 243.92949 139.62406 244.37643 139.5 244.5625 C 139.37594 244.74858 139.20795 244.94832 139.15625 245 C 139.10455 245.0569 139.0625 245.10949 139.0625 245.125 C 139.0625 245.1405 139.31463 245.31933 139.59375 245.53125 C 140.73608 246.4048 142.1462 247.74628 142.875 248.625 C 143.01974 248.79557 143.14074 248.92199 143.15625 248.9375 C 143.27514 249.04608 143.98663 250.00332 144.28125 250.4375 C 146.60208 253.911 147.81417 257.49458 148.03125 261.5625 C 148.19149 264.51394 147.68416 267.56358 146.5625 270.4375 C 146.06113 271.71937 145.41044 272.96271 144.59375 274.21875 C 144.39733 274.51854 144.17153 274.84963 144.125 274.9375 C 144.0785 275.0202 143.88391 275.27281 143.6875 275.53125 C 142.50899 277.0509 141.00979 278.54987 139.5625 279.625 C 139.25753 279.84726 139.03125 280.04183 139.03125 280.0625 C 139.03125 280.0935 140.47979 282.22462 140.5625 282.3125 C 140.5884 282.3384 140.66734 282.3122 140.75 282.25 C 140.8275 282.1879 141.12711 281.96192 141.40625 281.75 C 142.85354 280.64902 144.19624 279.35918 145.34375 277.96875 C 146.35684 276.74889 146.94317 275.88599 147.6875 274.59375 C 151.21785 268.45828 151.86689 260.99072 149.4375 254.3125 C 147.81446 249.85175 144.9279 246.00337 140.9375 243.03125 C 140.83408 242.95365 140.71852 242.91142 140.6875 242.90625 z M 112.8125 242.9375 C 112.797 242.9425 112.72858 243.00562 112.65625 243.0625 C 112.58385 243.1194 112.31037 243.35057 112.03125 243.5625 C 110.58912 244.66347 109.24125 245.92206 108.09375 247.3125 C 107.08064 248.53236 106.49432 249.39526 105.75 250.6875 C 102.21964 256.82297 101.57061 264.29053 104 270.96875 C 105.62303 275.42952 108.50961 279.27788 112.5 282.25 C 112.60343 282.3275 112.71898 282.36982 112.75 282.375 C 112.7965 282.375 113.42601 281.53544 113.96875 280.71875 C 114.0928 280.53267 114.22956 280.36418 114.28125 280.3125 C 114.33295 280.2556 114.375 280.17176 114.375 280.15625 C 114.375 280.14075 114.14893 279.96192 113.875 279.75 C 112.72749 278.87646 111.29131 277.5662 110.5625 276.6875 C 110.41776 276.51693 110.29676 276.35926 110.28125 276.34375 C 110.16236 276.23517 109.45088 275.27794 109.15625 274.84375 C 106.83542 271.37025 105.62335 267.81792 105.40625 263.75 C 105.24601 260.79856 105.75335 257.74891 106.875 254.875 C 107.37637 253.59312 108.05832 252.31854 108.875 251.0625 C 109.07143 250.76271 109.26598 250.46286 109.3125 250.375 C 109.359 250.2923 109.55359 250.00845 109.75 249.75 C 110.92852 248.22518 112.42769 246.73138 113.875 245.65625 C 114.22647 245.39781 114.42175 245.22885 114.40625 245.1875 C 114.36485 245.07377 112.84869 242.9375 112.8125 242.9375 z M 137 248.125 C 136.9845 248.125 136.93189 248.19855 136.875 248.28125 C 136.50284 248.81364 135.88369 249.71079 135.65625 250.03125 C 135.51151 250.23801 135.3959 250.40107 135.40625 250.40625 C 135.94381 250.80942 136.81606 251.56088 137.28125 252.03125 C 140.03111 254.77077 141.59375 258.58714 141.59375 262.5 C 141.59375 263.90077 141.49739 264.89575 141.15625 266.25 C 140.76858 267.77482 140.10288 269.29119 139.25 270.59375 C 139.09494 270.83669 138.92151 271.1048 138.875 271.1875 C 138.73544 271.4563 138.01664 272.33766 137.46875 272.90625 C 137.02422 273.3611 135.96989 274.27374 135.4375 274.65625 L 135.28125 274.78125 L 136.0625 275.90625 C 136.49669 276.52135 136.89075 277 136.90625 277 C 136.97345 276.995 137.13373 276.88274 137.59375 276.53125 C 141.03623 273.8486 143.37057 270.04042 144.15625 265.78125 C 144.38367 264.55106 144.46851 263.53587 144.4375 262.09375 C 144.422 261.38045 144.3906 260.70745 144.375 260.59375 C 144.03385 258.37629 143.79743 257.52459 143.1875 255.96875 C 142.7585 254.86777 141.78781 253.00043 141.28125 252.375 C 141.21405 252.2871 140.91446 251.92949 140.625 251.5625 C 139.96338 250.71481 138.65456 249.37472 137.75 248.65625 C 137.36749 248.35128 137.01551 248.125 137 248.125 z M 116.5625 248.28125 C 116.5418 248.28625 116.46828 248.30755 116.40625 248.34375 C 116.21501 248.45749 115.38203 249.10715 114.9375 249.5 C 111.97573 252.13614 109.99456 255.66492 109.28125 259.53125 C 109.05382 260.76145 108.96898 261.74539 109 263.1875 C 109.0155 263.89563 109.0469 264.57378 109.0625 264.6875 C 109.40365 266.90496 109.64008 267.75666 110.25 269.3125 C 110.67903 270.41349 111.68095 272.28082 112.1875 272.90625 C 112.2547 272.99415 112.52305 273.3466 112.8125 273.71875 C 113.47413 274.56645 114.81419 275.90653 115.71875 276.625 C 116.10126 276.92996 116.422 277.15625 116.4375 277.15625 C 116.453 277.15625 116.50561 277.11395 116.5625 277.03125 C 116.93466 276.49886 117.5538 275.57046 117.78125 275.25 C 117.92598 275.04324 118.04158 274.88016 118.03125 274.875 C 117.49369 274.47182 116.62145 273.72037 116.15625 273.25 C 113.40639 270.51048 111.84375 266.69411 111.84375 262.78125 C 111.84375 261.38049 111.97136 260.38551 112.3125 259.03125 C 112.70018 257.50643 113.36587 255.99007 114.21875 254.6875 C 114.37381 254.44457 114.51599 254.17645 114.5625 254.09375 C 114.70207 253.82497 115.42085 252.94357 115.96875 252.375 C 116.41328 251.92013 117.46761 251.00749 118 250.625 L 118.15625 250.53125 L 117.375 249.40625 C 116.94081 248.79116 116.578 248.28125 116.5625 248.28125 z M 133.1875 253.59375 C 133.1668 253.59375 133.03006 253.78291 132.875 254 C 132.72511 254.22227 132.49906 254.54819 132.375 254.71875 C 132.25613 254.88933 132.00398 255.21008 131.84375 255.4375 L 131.5625 255.84375 L 131.8125 256.0625 C 132.32422 256.47602 133.16895 257.35764 133.46875 257.8125 C 134.34747 259.14608 134.79277 260.392 134.9375 261.9375 C 135.09774 263.58638 134.61792 265.54754 133.6875 267 C 133.57893 267.16024 133.5 267.29699 133.5 267.3125 C 133.5 267.3797 133.03382 267.95068 132.6875 268.3125 C 132.49108 268.5141 132.13884 268.81909 131.90625 269 L 131.5 269.34375 L 132.28125 270.5 L 133.09375 271.625 L 133.25 271.53125 C 133.84959 271.11257 134.8271 270.18746 135.375 269.5 C 135.92291 268.81771 136.258 268.31222 136.625 267.59375 C 137.89654 265.08683 138.17641 262.20876 137.40625 259.53125 C 137.17881 258.74041 137.00234 258.38482 136.625 257.625 C 136.08743 256.55503 135.47246 255.69639 134.59375 254.8125 C 134.06136 254.28528 133.28054 253.59375 133.1875 253.59375 z M 120.34375 253.6875 C 120.32825 253.677 120.21757 253.75615 120.0625 253.875 C 119.12177 254.58313 118.11439 255.61213 117.40625 256.65625 C 117.0496 257.18347 116.55545 258.2082 116.3125 258.875 C 115.49583 261.10279 115.38514 263.50154 116.03125 265.75 C 116.25869 266.54085 116.43517 266.92768 116.8125 267.6875 C 117.35007 268.75747 117.96503 269.58487 118.84375 270.46875 C 119.37614 270.99597 120.15696 271.6875 120.25 271.6875 C 120.2707 271.6875 120.40743 271.50352 120.5625 271.28125 C 120.71238 271.06416 120.93844 270.73307 121.0625 270.5625 C 121.18137 270.39193 121.43351 270.07117 121.59375 269.84375 L 121.875 269.4375 L 121.625 269.25 C 121.11329 268.8365 120.26854 267.92363 119.96875 267.46875 C 119.09004 266.13519 118.64472 264.88925 118.5 263.34375 C 118.33975 261.69487 118.81959 259.7337 119.75 258.28125 C 119.85858 258.121 119.9375 257.98425 119.9375 257.96875 C 119.9375 257.90155 120.40368 257.33058 120.75 256.96875 C 120.94642 256.76716 121.29866 256.46216 121.53125 256.28125 L 121.9375 255.9375 L 121.15625 254.8125 C 120.72206 254.19223 120.35409 253.70301 120.34375 253.6875 z "
             inkscape:radius="-0.40800047"
             sodipodi:type="inkscape:offset"
             transform="translate(14.22867,-16)" />
        </g>
        <g
           id="g3276"
           transform="translate(-47.834641,49.365156)">
          <path
             d="m 216.2184,359.91697 18.01227,-18.09426 16.96311,0 -12.00778,12.0631 24.03666,-2.2e-4 0,12.06118 -24.03666,0 12.00778,12.06278 -16.96311,0 -18.01227,-18.09417 z"
             id="path7-7-3-8-7"
             style="fill:#ffb400;fill-opacity:1"
             inkscape:connector-curvature="0" />
          <path
             style="font-size:medium;font-style:normal;font-variant:normal;font-weight:normal;font-stretch:normal;text-indent:0;text-align:start;text-decoration:none;line-height:normal;letter-spacing:normal;word-spacing:normal;text-transform:none;direction:ltr;block-progression:tb;writing-mode:lr-tb;text-anchor:start;baseline-shift:baseline;color:#000000;fill:#dc0067;fill-opacity:1;fill-rule:nonzero;stroke:none;visibility:visible;display:inline;overflow:visible;enable-background:accumulate;font-family:sans-serif"
             d="m 237.42144,301.32464 c -25.72526,0 -46.59553,20.95966 -46.59553,46.78675 0,25.8272 20.87029,46.78895 46.59553,46.78895 25.72535,0 46.59554,-20.96175 46.59554,-46.78895 0,-25.82709 -20.87018,-46.78675 -46.59554,-46.78675 z m 0,1.89679 c 24.69605,0 44.69874,20.08354 44.69874,44.88996 0,24.80653 -20.00268,44.89216 -44.69874,44.89216 -24.69595,0 -44.69874,-20.08563 -44.69874,-44.89216 0,-24.80641 20.0028,-44.88996 44.69874,-44.88996 z"
             id="path6-4-7-4-9"
             inkscape:connector-curvature="0" />
          <path
             style="font-size:medium;font-style:normal;font-variant:normal;font-weight:normal;font-stretch:normal;text-indent:0;text-align:start;text-decoration:none;line-height:normal;letter-spacing:normal;word-spacing:normal;text-transform:none;direction:ltr;block-progression:tb;writing-mode:lr-tb;text-anchor:start;baseline-shift:baseline;color:#000000;fill:#dc0067;fill-opacity:1;fill-rule:nonzero;stroke:none;visibility:visible;display:inline;overflow:visible;enable-background:accumulate;font-family:sans-serif"
             d="m 237.42144,282.62707 c -35.9734,0 -65.23374,29.39773 -65.23374,65.48432 0,36.08648 29.26034,65.4865 65.23374,65.4865 35.9737,0 65.23375,-29.40002 65.23375,-65.4865 0,-36.08659 -29.26005,-65.48432 -65.23375,-65.48432 z m 0,11.33899 c 29.81949,0 53.89257,24.16136 53.89257,54.14533 0,29.98384 -24.07308,54.14533 -53.89257,54.14532 -29.81912,0 -53.89477,-24.16148 -53.89477,-54.14532 0,-29.98397 24.07565,-54.14533 53.89477,-54.14533 z"
             id="path5-2-4-3-2"
             inkscape:connector-curvature="0" />
        </g>
        <g
           id="g3281"
           transform="translate(-47.834641,49.365156)">
          <path
             d="m 162.79215,359.91697 -10.63816,-10.68658 -10.01874,0 7.09188,7.12451 -14.19487,2e-4 0,7.12608 14.19487,0 -7.09188,7.12451 10.01874,0 10.63816,-10.68681 z"
             id="path4-0-4-2-3"
             style="fill:#ffb400;fill-opacity:1"
             inkscape:connector-curvature="0" />
          <path
             inkscape:connector-curvature="0"
             id="path6054"
             d="m 161.69051,325.94115 c -24.01228,0 -43.49429,19.56749 -43.49429,43.67452 0,24.10723 19.482,43.67232 43.49429,43.67232 24.0126,0 43.49429,-19.56509 43.49429,-43.67232 0,-24.10702 -19.4817,-43.67452 -43.49429,-43.67452 z m 0,1.89679 c 22.98331,0 41.59751,18.6914 41.59751,41.77773 0,23.08655 -18.61421,41.77553 -41.59751,41.77553 -22.98296,0 -41.5975,-18.68898 -41.5975,-41.77553 0,-23.08634 18.61452,-41.77773 41.5975,-41.77773 z"
             style="font-size:medium;font-style:normal;font-variant:normal;font-weight:normal;font-stretch:normal;text-indent:0;text-align:start;text-decoration:none;line-height:normal;letter-spacing:normal;word-spacing:normal;text-transform:none;direction:ltr;block-progression:tb;writing-mode:lr-tb;text-anchor:start;baseline-shift:baseline;color:#000000;fill:#dc0067;fill-opacity:1;fill-rule:nonzero;stroke:none;visibility:visible;display:inline;overflow:visible;enable-background:accumulate;font-family:sans-serif" />
        </g>
      </g>
    </g>
  </g>
</svg>
